%FSLAX45Y45*%
G04 Gerber Fmt 4.5, Leading zero omitted, Abs format (unit mm)*
G04 Created by KiCad (PCBNEW 5.1.9+dfsg1-1+deb11u1) date 2024-07-30 12:36:22*
%MOMM*%
%LPD*%
G01*
G04 APERTURE LIST*
%TA.AperFunction,Profile*%
%ADD10C,0.050000*%
%TD*%
%ADD11C,0.200000*%
%ADD12C,0.300000*%
G04 APERTURE END LIST*
D10*
X16900000Y-10000000D02*
G75*
G03*
X16900000Y-10000000I-6900000J0D01*
G01*
X10337000Y-9995132D02*
G75*
G03*
X10337000Y-9995132I-150000J0D01*
G01*
D11*
X3261894Y-10707996D02*
X3351894Y-10797996D01*
X3351894Y-10707996D02*
X3261894Y-10797996D01*
X3295047Y-10959823D02*
X3385047Y-11049823D01*
X3385047Y-10959823D02*
X3295047Y-11049823D01*
X3409085Y-9827934D02*
X3499085Y-9917934D01*
X3499085Y-9827934D02*
X3409085Y-9917934D01*
X3409085Y-10081934D02*
X3499085Y-10171934D01*
X3499085Y-10081934D02*
X3409085Y-10171934D01*
X3422411Y-8636772D02*
X3512411Y-8726772D01*
X3512411Y-8636772D02*
X3422411Y-8726772D01*
X3477387Y-8388793D02*
X3567387Y-8478793D01*
X3567387Y-8388793D02*
X3477387Y-8478793D01*
X3581000Y-9497000D02*
X3671000Y-9587000D01*
X3671000Y-9497000D02*
X3581000Y-9587000D01*
X3640651Y-9251735D02*
X3730651Y-9341735D01*
X3730651Y-9251735D02*
X3640651Y-9341735D01*
X3673804Y-8999908D02*
X3763804Y-9089908D01*
X3763804Y-8999908D02*
X3673804Y-9089908D01*
X3675146Y-11219039D02*
X3765146Y-11309039D01*
X3765146Y-11219039D02*
X3675146Y-11309039D01*
X3686225Y-11472797D02*
X3776225Y-11562797D01*
X3776225Y-11472797D02*
X3686225Y-11562797D01*
X3706125Y-10617190D02*
X3796125Y-10707190D01*
X3796125Y-10617190D02*
X3706125Y-10707190D01*
X3720381Y-12092457D02*
X3810381Y-12182457D01*
X3810381Y-12092457D02*
X3720381Y-12182457D01*
X3751336Y-12344563D02*
X3841336Y-12434563D01*
X3841336Y-12344563D02*
X3751336Y-12434563D01*
X3792998Y-10378508D02*
X3882998Y-10468508D01*
X3882998Y-10378508D02*
X3792998Y-10468508D01*
X3809104Y-7851106D02*
X3899104Y-7941106D01*
X3899104Y-7851106D02*
X3809104Y-7941106D01*
X3841937Y-9777935D02*
X3931937Y-9867935D01*
X3931937Y-9777935D02*
X3841937Y-9867935D01*
X3936104Y-7631136D02*
X4026104Y-7721136D01*
X4026104Y-7631136D02*
X3936104Y-7721136D01*
X3943246Y-8469144D02*
X4033246Y-8559144D01*
X4033246Y-8469144D02*
X3943246Y-8559144D01*
X4029205Y-9606335D02*
X4119205Y-9696335D01*
X4119205Y-9606335D02*
X4029205Y-9696335D01*
X4081584Y-8256121D02*
X4171584Y-8346121D01*
X4171584Y-8256121D02*
X4081584Y-8346121D01*
X4102009Y-11913314D02*
X4192009Y-12003314D01*
X4192009Y-11913314D02*
X4102009Y-12003314D01*
X4138124Y-11105188D02*
X4228124Y-11195188D01*
X4228124Y-11105188D02*
X4138124Y-11195188D01*
X4160262Y-10852155D02*
X4250262Y-10942155D01*
X4250262Y-10852155D02*
X4160262Y-10942155D01*
X4165606Y-11667404D02*
X4255606Y-11757404D01*
X4255606Y-11667404D02*
X4165606Y-11757404D01*
X4179670Y-9062261D02*
X4269670Y-9152261D01*
X4269670Y-9062261D02*
X4179670Y-9152261D01*
X4203478Y-12498148D02*
X4293478Y-12588148D01*
X4293478Y-12498148D02*
X4203478Y-12588148D01*
X4253499Y-10326679D02*
X4343499Y-10416679D01*
X4343499Y-10326679D02*
X4253499Y-10416679D01*
X4277741Y-12741050D02*
X4367741Y-12831050D01*
X4367741Y-12741050D02*
X4277741Y-12831050D01*
X4278916Y-8828453D02*
X4368916Y-8918453D01*
X4368916Y-8828453D02*
X4278916Y-8918453D01*
X4306000Y-10574000D02*
X4396000Y-10664000D01*
X4396000Y-10574000D02*
X4306000Y-10664000D01*
X4308475Y-10078700D02*
X4398475Y-10168700D01*
X4398475Y-10078700D02*
X4308475Y-10168700D01*
X4327824Y-6520596D02*
X4417824Y-6610596D01*
X4417824Y-6520596D02*
X4327824Y-6610596D01*
X4349314Y-6935557D02*
X4439314Y-7025557D01*
X4439314Y-6935557D02*
X4349314Y-7025557D01*
X4371397Y-7768679D02*
X4461397Y-7858679D01*
X4461397Y-7768679D02*
X4371397Y-7858679D01*
X4404433Y-13340443D02*
X4494433Y-13430443D01*
X4494433Y-13340443D02*
X4404433Y-13430443D01*
X4425693Y-7177802D02*
X4515693Y-7267802D01*
X4515693Y-7177802D02*
X4425693Y-7267802D01*
X4464298Y-6306375D02*
X4554298Y-6396375D01*
X4554298Y-6306375D02*
X4464298Y-6396375D01*
X4492263Y-9603279D02*
X4582263Y-9693279D01*
X4582263Y-9603279D02*
X4492263Y-9693279D01*
X4539945Y-8371915D02*
X4629945Y-8461915D01*
X4629945Y-8371915D02*
X4539945Y-8461915D01*
X4540907Y-13554664D02*
X4630907Y-13644664D01*
X4630907Y-13554664D02*
X4540907Y-13644664D01*
X4549401Y-9355789D02*
X4639401Y-9445789D01*
X4639401Y-9355789D02*
X4549401Y-9445789D01*
X4552563Y-7590648D02*
X4642563Y-7680648D01*
X4642563Y-7590648D02*
X4552563Y-7680648D01*
X4591223Y-11262696D02*
X4681223Y-11352696D01*
X4681223Y-11262696D02*
X4591223Y-11352696D01*
X4599203Y-12037269D02*
X4689203Y-12127269D01*
X4689203Y-12037269D02*
X4599203Y-12127269D01*
X4613361Y-11515729D02*
X4703361Y-11605729D01*
X4703361Y-11515729D02*
X4613361Y-11605729D01*
X4662800Y-12283179D02*
X4752800Y-12373179D01*
X4752800Y-12283179D02*
X4662800Y-12373179D01*
X4672649Y-10774130D02*
X4762649Y-10864130D01*
X4762649Y-10774130D02*
X4672649Y-10864130D01*
X4698064Y-8173133D02*
X4788064Y-8263133D01*
X4788064Y-8173133D02*
X4698064Y-8263133D01*
X4705803Y-10522303D02*
X4795803Y-10612303D01*
X4795803Y-10522303D02*
X4705803Y-10612303D01*
X4716475Y-12832759D02*
X4806475Y-12922759D01*
X4806475Y-12832759D02*
X4716475Y-12922759D01*
X4733974Y-8797491D02*
X4823974Y-8887491D01*
X4823974Y-8797491D02*
X4733974Y-8887491D01*
X4757428Y-14151033D02*
X4847428Y-14241033D01*
X4847428Y-14151033D02*
X4757428Y-14241033D01*
X4757556Y-9954969D02*
X4847556Y-10044969D01*
X4847556Y-9954969D02*
X4757556Y-10044969D01*
X4843475Y-13052729D02*
X4933475Y-13142729D01*
X4933475Y-13052729D02*
X4843475Y-13142729D01*
X4865066Y-6526525D02*
X4955066Y-6616525D01*
X4955066Y-6526525D02*
X4865066Y-6616525D01*
X4903116Y-14359098D02*
X4993116Y-14449098D01*
X4993116Y-14359098D02*
X4903116Y-14449098D01*
X4927837Y-6979191D02*
X5017837Y-7069191D01*
X5017837Y-6979191D02*
X4927837Y-7069191D01*
X4971643Y-5939173D02*
X5061643Y-6029173D01*
X5061643Y-5939173D02*
X4971643Y-6029173D01*
X4981953Y-8852469D02*
X5071953Y-8942469D01*
X5071953Y-8852469D02*
X4981953Y-8942469D01*
X4983557Y-11764422D02*
X5073557Y-11854422D01*
X5073557Y-11764422D02*
X4983557Y-11854422D01*
X4993628Y-7768434D02*
X5083628Y-7858434D01*
X5083628Y-7768434D02*
X4993628Y-7858434D01*
X5011556Y-9954970D02*
X5101556Y-10044970D01*
X5101556Y-9954970D02*
X5011556Y-10044970D01*
X5025784Y-13593371D02*
X5115784Y-13683371D01*
X5115784Y-13593371D02*
X5025784Y-13683371D01*
X5032028Y-11046367D02*
X5122028Y-11136367D01*
X5122028Y-11046367D02*
X5032028Y-11136367D01*
X5052643Y-9309565D02*
X5142643Y-9399565D01*
X5142643Y-9309565D02*
X5052643Y-9399565D01*
X5054837Y-7199162D02*
X5144837Y-7289162D01*
X5144837Y-7199162D02*
X5054837Y-7289162D01*
X5076424Y-13842272D02*
X5166424Y-13932272D01*
X5166424Y-13842272D02*
X5076424Y-13932272D01*
X5093359Y-6415179D02*
X5183359Y-6505179D01*
X5183359Y-6415179D02*
X5093359Y-6505179D01*
X5122282Y-5301787D02*
X5212282Y-5391787D01*
X5212282Y-5301787D02*
X5122282Y-5391787D01*
X5134911Y-5744598D02*
X5224911Y-5834598D01*
X5224911Y-5744598D02*
X5134911Y-5834598D01*
X5137544Y-12324468D02*
X5227544Y-12414468D01*
X5227544Y-12324468D02*
X5137544Y-12414468D01*
X5160078Y-8209759D02*
X5250078Y-8299759D01*
X5250078Y-8209759D02*
X5160078Y-8299759D01*
X5188203Y-7605166D02*
X5278203Y-7695166D01*
X5278203Y-7605166D02*
X5188203Y-7695166D01*
X5191888Y-10371694D02*
X5281888Y-10461694D01*
X5281888Y-10371694D02*
X5191888Y-10461694D01*
X5192520Y-12572447D02*
X5282520Y-12662447D01*
X5282520Y-12572447D02*
X5192520Y-12662447D01*
X5222239Y-11677550D02*
X5312239Y-11767550D01*
X5312239Y-11677550D02*
X5222239Y-11767550D01*
X5280007Y-10991393D02*
X5370007Y-11081393D01*
X5370007Y-10991393D02*
X5280007Y-11081393D01*
X5301887Y-5122182D02*
X5391887Y-5212182D01*
X5391887Y-5122182D02*
X5301887Y-5212182D01*
X5302351Y-13063013D02*
X5392351Y-13153013D01*
X5392351Y-13063013D02*
X5302351Y-13153013D01*
X5304470Y-9342720D02*
X5394470Y-9432720D01*
X5394470Y-9342720D02*
X5304470Y-9432720D01*
X5379997Y-14356432D02*
X5469997Y-14446432D01*
X5469997Y-14356432D02*
X5379997Y-14446432D01*
X5389225Y-13301695D02*
X5479225Y-13391695D01*
X5479225Y-13301695D02*
X5389225Y-13391695D01*
X5398759Y-8296634D02*
X5488759Y-8386634D01*
X5488759Y-8296634D02*
X5398759Y-8386634D01*
X5436538Y-8744258D02*
X5526538Y-8834258D01*
X5526538Y-8744258D02*
X5436538Y-8834258D01*
X5444921Y-10349558D02*
X5534921Y-10439558D01*
X5534921Y-10349558D02*
X5444921Y-10439558D01*
X5454729Y-9758494D02*
X5544729Y-9848494D01*
X5544729Y-9758494D02*
X5454729Y-9848494D01*
X5477165Y-6669412D02*
X5567165Y-6759412D01*
X5567165Y-6669412D02*
X5477165Y-6759412D01*
X5504021Y-5998168D02*
X5594021Y-6088168D01*
X5594021Y-5998168D02*
X5504021Y-6088168D01*
X5506997Y-14576402D02*
X5596996Y-14666402D01*
X5596996Y-14576402D02*
X5506997Y-14666402D01*
X5522326Y-7131037D02*
X5612326Y-7221037D01*
X5612326Y-7131037D02*
X5522326Y-7221037D01*
X5529944Y-12018409D02*
X5619944Y-12108409D01*
X5619944Y-12018409D02*
X5529944Y-12108409D01*
X5556451Y-11341834D02*
X5646451Y-11431834D01*
X5646451Y-11341834D02*
X5556451Y-11431834D01*
X5577588Y-13796457D02*
X5667588Y-13886457D01*
X5667588Y-13796457D02*
X5577588Y-13886457D01*
X5621289Y-12715842D02*
X5711289Y-12805842D01*
X5711289Y-12715842D02*
X5621289Y-12805842D01*
X5646390Y-5425935D02*
X5736390Y-5515935D01*
X5736390Y-5425935D02*
X5646390Y-5515935D01*
X5657618Y-7717896D02*
X5747618Y-7807896D01*
X5747618Y-7717896D02*
X5657618Y-7807896D01*
X5681882Y-8809999D02*
X5771882Y-8899999D01*
X5771882Y-8809999D02*
X5681882Y-8899999D01*
X5691386Y-6532938D02*
X5781386Y-6622938D01*
X5781386Y-6532938D02*
X5691386Y-6622938D01*
X5696584Y-10705856D02*
X5786584Y-10795856D01*
X5786584Y-10705856D02*
X5696584Y-10795856D01*
X5708487Y-9769574D02*
X5798487Y-9859574D01*
X5798487Y-9769574D02*
X5708487Y-9859574D01*
X5714062Y-14010678D02*
X5804062Y-14100678D01*
X5804062Y-14010678D02*
X5714062Y-14100678D01*
X5736547Y-7267512D02*
X5826547Y-7357512D01*
X5826547Y-7267512D02*
X5736547Y-7357512D01*
X5757779Y-5987089D02*
X5847779Y-6077089D01*
X5847779Y-5987089D02*
X5757779Y-6077089D01*
X5760147Y-11911065D02*
X5850147Y-12001065D01*
X5850147Y-11911065D02*
X5760147Y-12001065D01*
X5798695Y-11265456D02*
X5888695Y-11355456D01*
X5888695Y-11265456D02*
X5798695Y-11355456D01*
X5809853Y-9224082D02*
X5899853Y-9314082D01*
X5899853Y-9224082D02*
X5809853Y-9314082D01*
X5832216Y-13414381D02*
X5922216Y-13504381D01*
X5922216Y-13414381D02*
X5832216Y-13504381D01*
X5835511Y-12579370D02*
X5925511Y-12669370D01*
X5925511Y-12579370D02*
X5835511Y-12669370D01*
X5852721Y-15092464D02*
X5942721Y-15182464D01*
X5942721Y-15092464D02*
X5852721Y-15182464D01*
X5882918Y-7835181D02*
X5972918Y-7925181D01*
X5972918Y-7835181D02*
X5882918Y-7925181D01*
X5885821Y-5341148D02*
X5975821Y-5431148D01*
X5975821Y-5341148D02*
X5885821Y-5431148D01*
X5886034Y-4860734D02*
X5976034Y-4950734D01*
X5976034Y-4860734D02*
X5886034Y-4950734D01*
X5895098Y-8273313D02*
X5985098Y-8363313D01*
X5985098Y-8273313D02*
X5895098Y-8363313D01*
X5943868Y-10130116D02*
X6033868Y-10220116D01*
X6033868Y-10130116D02*
X5943868Y-10220116D01*
X5946725Y-10661750D02*
X6036725Y-10751750D01*
X6036725Y-10661750D02*
X5946725Y-10751750D01*
X6017545Y-14474591D02*
X6107545Y-14564591D01*
X6107545Y-14474591D02*
X6017545Y-14564591D01*
X6026792Y-13251114D02*
X6116792Y-13341114D01*
X6116792Y-13251114D02*
X6026792Y-13341114D01*
X6054233Y-15247089D02*
X6144233Y-15337089D01*
X6144233Y-15247089D02*
X6054233Y-15337089D01*
X6059994Y-9268190D02*
X6149994Y-9358190D01*
X6149994Y-9268190D02*
X6059994Y-9358190D01*
X6087545Y-4706108D02*
X6177545Y-4796108D01*
X6177545Y-4706108D02*
X6087545Y-4796108D01*
X6108570Y-14711720D02*
X6198570Y-14801720D01*
X6198570Y-14711720D02*
X6108570Y-14801720D01*
X6113259Y-12173008D02*
X6203259Y-12263008D01*
X6203259Y-12173008D02*
X6113259Y-12263008D01*
X6113294Y-6286730D02*
X6203294Y-6376730D01*
X6203294Y-6286730D02*
X6113294Y-6376730D01*
X6120171Y-6737160D02*
X6210171Y-6827160D01*
X6210171Y-6737160D02*
X6120171Y-6827160D01*
X6129763Y-8370516D02*
X6219763Y-8460516D01*
X6219763Y-8370516D02*
X6129763Y-8460516D01*
X6134255Y-11537587D02*
X6224255Y-11627587D01*
X6224255Y-11537587D02*
X6134255Y-11627587D01*
X6192954Y-13886200D02*
X6282954Y-13976200D01*
X6282954Y-13886200D02*
X6192954Y-13976200D01*
X6197626Y-10119037D02*
X6287626Y-10209037D01*
X6287626Y-10119037D02*
X6197626Y-10209037D01*
X6206072Y-5673948D02*
X6296072Y-5763948D01*
X6296072Y-5673948D02*
X6206072Y-5763948D01*
X6209837Y-7332583D02*
X6299837Y-7422583D01*
X6299837Y-7332583D02*
X6209837Y-7422583D01*
X6212796Y-12826464D02*
X6302796Y-12916464D01*
X6302796Y-12826464D02*
X6212796Y-12916464D01*
X6244563Y-8785090D02*
X6334563Y-8875090D01*
X6334563Y-8785090D02*
X6244563Y-8875090D01*
X6274248Y-10941242D02*
X6364248Y-11031242D01*
X6364248Y-10941242D02*
X6274248Y-11031242D01*
X6290008Y-9634344D02*
X6380008Y-9724344D01*
X6380008Y-9634344D02*
X6290008Y-9724344D01*
X6302304Y-14115456D02*
X6392304Y-14205456D01*
X6392304Y-14115456D02*
X6302304Y-14205456D01*
X6314746Y-6900429D02*
X6404746Y-6990429D01*
X6404746Y-6900429D02*
X6314746Y-6990429D01*
X6333230Y-12046009D02*
X6423230Y-12136009D01*
X6423230Y-12046009D02*
X6333230Y-12136009D01*
X6333264Y-6159730D02*
X6423264Y-6249730D01*
X6423264Y-6159730D02*
X6333264Y-6249730D01*
X6368921Y-11440387D02*
X6458921Y-11530387D01*
X6458921Y-11440387D02*
X6368921Y-11530387D01*
X6412154Y-5116621D02*
X6502154Y-5206621D01*
X6502154Y-5116621D02*
X6412154Y-5206621D01*
X6412316Y-7909613D02*
X6502316Y-7999613D01*
X6502316Y-7909613D02*
X6412316Y-7999613D01*
X6414309Y-12671840D02*
X6504309Y-12761840D01*
X6504309Y-12671840D02*
X6414309Y-12761840D01*
X6417901Y-7478272D02*
X6507901Y-7568272D01*
X6507901Y-7478272D02*
X6417901Y-7568272D01*
X6432471Y-13477490D02*
X6522471Y-13567490D01*
X6522471Y-13477490D02*
X6432471Y-13567490D01*
X6443201Y-5582923D02*
X6533201Y-5672923D01*
X6533201Y-5582923D02*
X6443201Y-5672923D01*
X6459540Y-15756135D02*
X6549540Y-15846135D01*
X6549540Y-15756135D02*
X6459540Y-15846135D01*
X6486806Y-8861470D02*
X6576806Y-8951470D01*
X6576806Y-8861470D02*
X6486806Y-8951470D01*
X6519593Y-10875503D02*
X6609593Y-10965503D01*
X6609593Y-10875503D02*
X6519593Y-10965503D01*
X6530489Y-10405836D02*
X6620489Y-10495836D01*
X6620489Y-10405836D02*
X6530489Y-10495836D01*
X6532075Y-15121078D02*
X6622075Y-15211078D01*
X6622075Y-15121078D02*
X6532075Y-15211078D01*
X6543042Y-9656482D02*
X6633042Y-9746482D01*
X6633042Y-9656482D02*
X6543042Y-9746482D01*
X6589601Y-14543158D02*
X6679601Y-14633158D01*
X6679601Y-14543158D02*
X6589601Y-14633158D01*
X6612077Y-13297886D02*
X6702077Y-13387886D01*
X6702077Y-13297886D02*
X6612077Y-13387886D01*
X6620219Y-4970933D02*
X6710219Y-5060933D01*
X6710219Y-4970933D02*
X6620219Y-5060933D01*
X6632286Y-8036614D02*
X6722286Y-8126614D01*
X6722286Y-8036614D02*
X6632286Y-8126614D01*
X6653273Y-15344298D02*
X6743273Y-15434298D01*
X6743273Y-15344298D02*
X6653273Y-15434298D01*
X6668849Y-4504670D02*
X6758849Y-4594670D01*
X6758849Y-4504670D02*
X6668849Y-4594670D01*
X6689742Y-15863480D02*
X6779742Y-15953480D01*
X6779742Y-15863480D02*
X6689742Y-15953480D01*
X6725666Y-9239066D02*
X6815666Y-9329066D01*
X6815666Y-9239066D02*
X6725666Y-9329066D01*
X6729459Y-12213532D02*
X6819459Y-12303532D01*
X6819459Y-12213532D02*
X6729459Y-12303532D01*
X6744567Y-8457940D02*
X6834567Y-8547940D01*
X6834567Y-8457940D02*
X6744567Y-8547940D01*
X6750838Y-6458236D02*
X6840838Y-6548236D01*
X6840838Y-6458236D02*
X6750838Y-6548236D01*
X6766895Y-11614611D02*
X6856895Y-11704611D01*
X6856895Y-11614611D02*
X6766895Y-11704611D01*
X6769206Y-14722763D02*
X6859206Y-14812763D01*
X6859206Y-14722763D02*
X6769206Y-14812763D01*
X6769610Y-14106229D02*
X6859610Y-14196229D01*
X6859610Y-14106229D02*
X6769610Y-14196229D01*
X6782316Y-10372683D02*
X6872316Y-10462683D01*
X6872316Y-10372683D02*
X6782316Y-10462683D01*
X6798469Y-7062549D02*
X6888469Y-7152549D01*
X6888469Y-7062549D02*
X6798469Y-7152549D01*
X6812531Y-5859605D02*
X6902531Y-5949605D01*
X6902531Y-5859605D02*
X6812531Y-5949605D01*
X6819643Y-12828002D02*
X6909643Y-12918002D01*
X6909643Y-12828002D02*
X6819643Y-12918002D01*
X6900578Y-9954994D02*
X6990578Y-10044994D01*
X6990578Y-9954994D02*
X6900578Y-10044994D01*
X6914860Y-5387566D02*
X7004860Y-5477566D01*
X7004860Y-5387566D02*
X6914860Y-5477566D01*
X6917299Y-4451860D02*
X7007299Y-4541860D01*
X7007299Y-4451860D02*
X6917299Y-4541860D01*
X6922437Y-6645505D02*
X7012437Y-6735505D01*
X7012437Y-6645505D02*
X6922437Y-6735505D01*
X6924236Y-13904718D02*
X7014236Y-13994718D01*
X7014236Y-13904718D02*
X6924236Y-13994718D01*
X6935978Y-11053827D02*
X7025978Y-11143827D01*
X7025978Y-11053827D02*
X6935978Y-11143827D01*
X6937524Y-12067844D02*
X7027524Y-12157844D01*
X7027524Y-12067844D02*
X6937524Y-12157844D01*
X6967156Y-6061117D02*
X7057156Y-6151117D01*
X7057156Y-6061117D02*
X6967156Y-6151117D01*
X6970570Y-7664952D02*
X7060570Y-7754952D01*
X7060570Y-7664952D02*
X6970570Y-7754952D01*
X6973645Y-9294042D02*
X7063645Y-9384042D01*
X7063645Y-9294042D02*
X6973645Y-9384042D01*
X6974768Y-8565285D02*
X7064768Y-8655285D01*
X7064768Y-8565285D02*
X6974768Y-8655285D01*
X6985737Y-7234150D02*
X7075737Y-7324150D01*
X7075737Y-7234150D02*
X6985737Y-7324150D01*
X6992196Y-11497328D02*
X7082196Y-11587328D01*
X7082196Y-11497328D02*
X6992196Y-11587328D01*
X7006912Y-12656403D02*
X7096912Y-12746403D01*
X7096912Y-12656403D02*
X7006912Y-12746403D01*
X7033414Y-13436778D02*
X7123414Y-13526778D01*
X7123414Y-13436778D02*
X7033414Y-13526778D01*
X7040494Y-4004024D02*
X7130494Y-4094024D01*
X7130494Y-4004024D02*
X7040494Y-4094024D01*
X7107223Y-15150423D02*
X7197223Y-15240423D01*
X7197223Y-15150423D02*
X7107223Y-15240423D01*
X7112112Y-15750937D02*
X7202112Y-15840937D01*
X7202112Y-15750937D02*
X7112112Y-15840937D01*
X7154578Y-9954994D02*
X7244578Y-10044994D01*
X7244578Y-9954994D02*
X7154578Y-10044994D01*
X7163509Y-4863360D02*
X7253509Y-4953360D01*
X7253509Y-4863360D02*
X7163509Y-4953360D01*
X7168618Y-5376487D02*
X7258618Y-5466487D01*
X7258618Y-5376487D02*
X7168618Y-5466487D01*
X7172081Y-7819578D02*
X7262081Y-7909578D01*
X7262081Y-7819578D02*
X7172081Y-7909578D01*
X7174660Y-10966954D02*
X7264660Y-11056954D01*
X7264660Y-10966954D02*
X7174660Y-11056954D01*
X7196683Y-13242203D02*
X7286683Y-13332203D01*
X7286683Y-13242203D02*
X7196683Y-13332203D01*
X7219110Y-14693628D02*
X7309110Y-14783628D01*
X7309110Y-14693628D02*
X7219110Y-14783628D01*
X7242109Y-8967583D02*
X7332109Y-9057583D01*
X7332109Y-8967583D02*
X7242109Y-9057583D01*
X7243830Y-10556047D02*
X7333830Y-10646047D01*
X7333830Y-10556047D02*
X7243830Y-10646047D01*
X7260465Y-3877024D02*
X7350465Y-3967024D01*
X7350465Y-3877024D02*
X7260465Y-3967024D01*
X7294641Y-8260156D02*
X7384641Y-8350156D01*
X7384641Y-8260156D02*
X7294641Y-8350156D01*
X7330443Y-15271621D02*
X7420443Y-15361621D01*
X7420443Y-15271621D02*
X7330443Y-15361621D01*
X7342314Y-15858282D02*
X7432314Y-15948282D01*
X7432314Y-15858282D02*
X7342314Y-15948282D01*
X7346111Y-14473658D02*
X7436111Y-14563658D01*
X7436111Y-14473658D02*
X7346111Y-14563658D01*
X7365460Y-14019718D02*
X7455460Y-14109718D01*
X7455460Y-14019718D02*
X7365460Y-14109718D01*
X7378491Y-12116937D02*
X7468491Y-12206937D01*
X7468491Y-12116937D02*
X7378491Y-12206937D01*
X7386372Y-9616830D02*
X7476372Y-9706830D01*
X7476372Y-9616830D02*
X7386372Y-9706830D01*
X7394810Y-6298636D02*
X7484810Y-6388636D01*
X7484810Y-6298636D02*
X7394810Y-6388636D01*
X7403942Y-6914747D02*
X7493942Y-7004747D01*
X7493942Y-6914747D02*
X7403942Y-7004747D01*
X7405753Y-4786981D02*
X7495753Y-4876981D01*
X7495753Y-4786981D02*
X7405753Y-4876981D01*
X7435779Y-12704230D02*
X7525779Y-12794230D01*
X7525779Y-12704230D02*
X7435779Y-12794230D01*
X7466194Y-11540538D02*
X7556194Y-11630538D01*
X7556194Y-11540538D02*
X7466194Y-11630538D01*
X7480791Y-9054457D02*
X7570791Y-9144457D01*
X7570791Y-9054457D02*
X7480791Y-9144457D01*
X7487374Y-4323253D02*
X7577374Y-4413253D01*
X7577374Y-4323253D02*
X7487374Y-4413253D01*
X7491809Y-10501072D02*
X7581809Y-10591072D01*
X7581809Y-10501072D02*
X7491809Y-10591072D01*
X7501293Y-5705002D02*
X7591293Y-5795002D01*
X7591293Y-5705002D02*
X7501293Y-5795002D01*
X7501935Y-13805497D02*
X7591935Y-13895497D01*
X7591935Y-13805497D02*
X7501935Y-13895497D01*
X7508862Y-8396631D02*
X7598862Y-8486631D01*
X7598862Y-8396631D02*
X7508862Y-8486631D01*
X7540498Y-6506701D02*
X7630498Y-6596701D01*
X7630498Y-6506701D02*
X7540498Y-6596701D01*
X7550873Y-7550861D02*
X7640873Y-7640861D01*
X7640873Y-7550861D02*
X7550873Y-7640861D01*
X7567210Y-7109322D02*
X7657210Y-7199322D01*
X7657210Y-7109322D02*
X7567210Y-7199322D01*
X7573066Y-11953669D02*
X7663066Y-12043669D01*
X7663066Y-11953669D02*
X7573066Y-12043669D01*
X7607380Y-12516962D02*
X7697380Y-12606962D01*
X7697380Y-12516962D02*
X7607380Y-12606962D01*
X7625920Y-13281245D02*
X7715920Y-13371245D01*
X7715920Y-13281245D02*
X7625920Y-13371245D01*
X7628291Y-5924973D02*
X7718291Y-6014973D01*
X7718291Y-5924973D02*
X7628291Y-6014973D01*
X7638199Y-9649984D02*
X7728199Y-9739984D01*
X7728199Y-9649984D02*
X7638199Y-9739984D01*
X7680415Y-11404064D02*
X7770415Y-11494064D01*
X7770415Y-11404064D02*
X7680415Y-11494064D01*
X7709454Y-5139331D02*
X7799454Y-5229331D01*
X7799454Y-5139331D02*
X7709454Y-5229331D01*
X7709853Y-10151423D02*
X7799853Y-10241423D01*
X7799853Y-10151423D02*
X7709853Y-10241423D01*
X7719224Y-10997556D02*
X7809224Y-11087556D01*
X7809224Y-10997556D02*
X7719224Y-11087556D01*
X7721265Y-15027049D02*
X7811265Y-15117049D01*
X7811265Y-15027049D02*
X7721265Y-15117049D01*
X7730478Y-7730467D02*
X7820478Y-7820467D01*
X7820478Y-7730467D02*
X7730478Y-7820467D01*
X7736275Y-4272614D02*
X7826275Y-4362614D01*
X7826275Y-4272614D02*
X7736275Y-4362614D01*
X7753357Y-15645135D02*
X7843357Y-15735135D01*
X7843357Y-15645135D02*
X7753357Y-15735135D01*
X7771610Y-13073181D02*
X7861610Y-13163181D01*
X7861610Y-13073181D02*
X7771610Y-13163181D01*
X7808630Y-14557836D02*
X7898630Y-14647836D01*
X7898630Y-14557836D02*
X7808630Y-14647836D01*
X7816797Y-5369534D02*
X7906797Y-5459534D01*
X7906797Y-5369534D02*
X7816797Y-5459534D01*
X7830780Y-16276013D02*
X7920780Y-16366013D01*
X7920780Y-16276013D02*
X7830780Y-16366013D01*
X7835652Y-8851734D02*
X7925652Y-8941734D01*
X7925652Y-8851734D02*
X7835652Y-8941734D01*
X7879985Y-8213850D02*
X7969985Y-8303850D01*
X7969985Y-8213850D02*
X7879985Y-8303850D01*
X7891058Y-3824726D02*
X7981058Y-3914726D01*
X7981058Y-3824726D02*
X7891058Y-3914726D01*
X7915976Y-14327635D02*
X8005976Y-14417635D01*
X8005976Y-14327635D02*
X7915976Y-14417635D01*
X7922776Y-15181674D02*
X8012776Y-15271674D01*
X8012776Y-15181674D02*
X7922776Y-15271674D01*
X7925878Y-4738585D02*
X8015878Y-4828585D01*
X8015878Y-4738585D02*
X7925878Y-4828585D01*
X7938790Y-13828063D02*
X8028790Y-13918063D01*
X8028790Y-13828063D02*
X7938790Y-13918063D01*
X7949427Y-10890211D02*
X8039427Y-10980211D01*
X8039427Y-10890211D02*
X7949427Y-10980211D01*
X7961422Y-15790823D02*
X8051422Y-15880823D01*
X8051422Y-15790823D02*
X7961422Y-15880823D01*
X7962886Y-10129285D02*
X8052886Y-10219285D01*
X8052886Y-10129285D02*
X7962886Y-10219285D01*
X8005488Y-6894860D02*
X8095488Y-6984860D01*
X8095488Y-6894860D02*
X8005488Y-6984860D01*
X8007073Y-9433053D02*
X8097073Y-9523053D01*
X8097073Y-9433053D02*
X8007073Y-9523053D01*
X8031775Y-6260485D02*
X8121775Y-6350485D01*
X8121775Y-6260485D02*
X8031775Y-6350485D01*
X8056075Y-13602763D02*
X8146075Y-13692763D01*
X8146075Y-13602763D02*
X8056075Y-13692763D01*
X8058832Y-12426123D02*
X8148832Y-12516123D01*
X8148832Y-12426123D02*
X8058832Y-12516123D01*
X8060952Y-8969018D02*
X8150952Y-9059018D01*
X8150952Y-8969018D02*
X8060952Y-9059018D01*
X8072522Y-11837472D02*
X8162522Y-11927472D01*
X8162522Y-11837472D02*
X8072522Y-11927472D01*
X8074560Y-8377118D02*
X8164560Y-8467118D01*
X8164560Y-8377118D02*
X8074560Y-8467118D01*
X8082607Y-16309167D02*
X8172607Y-16399167D01*
X8172607Y-16309167D02*
X8082607Y-16399167D01*
X8133112Y-7580660D02*
X8223112Y-7670660D01*
X8223112Y-7580660D02*
X8133112Y-7670660D01*
X8141962Y-7109082D02*
X8231962Y-7199082D01*
X8231962Y-7109082D02*
X8141962Y-7199082D01*
X8142885Y-3791573D02*
X8232885Y-3881573D01*
X8232885Y-3791573D02*
X8142885Y-3881573D01*
X8149058Y-6485786D02*
X8239058Y-6575786D01*
X8239058Y-6485786D02*
X8149058Y-6575786D01*
X8178911Y-4716447D02*
X8268911Y-4806447D01*
X8268911Y-4716447D02*
X8178911Y-4806447D01*
X8179959Y-5669613D02*
X8269959Y-5759613D01*
X8269959Y-5669613D02*
X8179959Y-5759613D01*
X8188716Y-10511906D02*
X8278716Y-10601906D01*
X8278716Y-10511906D02*
X8188716Y-10601906D01*
X8201344Y-12992403D02*
X8291344Y-13082403D01*
X8291344Y-12992403D02*
X8201344Y-13082403D01*
X8213458Y-12224612D02*
X8303458Y-12314612D01*
X8303458Y-12224612D02*
X8213458Y-12314612D01*
X8252127Y-11657867D02*
X8342127Y-11747867D01*
X8342127Y-11657867D02*
X8252127Y-11747867D01*
X8252418Y-9498793D02*
X8342418Y-9588793D01*
X8342418Y-9498793D02*
X8252418Y-9588793D01*
X8277159Y-5904279D02*
X8367159Y-5994279D01*
X8367159Y-5904279D02*
X8277159Y-5994279D01*
X8281916Y-11238800D02*
X8371916Y-11328800D01*
X8371916Y-11238800D02*
X8281916Y-11328800D01*
X8287737Y-7782172D02*
X8377737Y-7872172D01*
X8377737Y-7782172D02*
X8287737Y-7872172D01*
X8301326Y-4273906D02*
X8391326Y-4363906D01*
X8391326Y-4273906D02*
X8301326Y-4363906D01*
X8328344Y-12772432D02*
X8418345Y-12862432D01*
X8418345Y-12772432D02*
X8328344Y-12862432D01*
X8343344Y-15491491D02*
X8433344Y-15581491D01*
X8433344Y-15491491D02*
X8343344Y-15581491D01*
X8353725Y-15033484D02*
X8443725Y-15123484D01*
X8443725Y-15033484D02*
X8353725Y-15123484D01*
X8364027Y-14326097D02*
X8454027Y-14416097D01*
X8454027Y-14326097D02*
X8364027Y-14416097D01*
X8372595Y-3401435D02*
X8462595Y-3491435D01*
X8462595Y-3401435D02*
X8372595Y-3491435D01*
X8407003Y-9887412D02*
X8497003Y-9977412D01*
X8497003Y-9887412D02*
X8407003Y-9977412D01*
X8430106Y-14791240D02*
X8520106Y-14881240D01*
X8520106Y-14791240D02*
X8430106Y-14881240D01*
X8430960Y-10435527D02*
X8520960Y-10525527D01*
X8520960Y-10435527D02*
X8430960Y-10525527D01*
X8431457Y-5122843D02*
X8521457Y-5212843D01*
X8521457Y-5122843D02*
X8431457Y-5212843D01*
X8450901Y-14087416D02*
X8540901Y-14177416D01*
X8540901Y-14087416D02*
X8450901Y-14177416D01*
X8475867Y-16071862D02*
X8565867Y-16161862D01*
X8565867Y-16071862D02*
X8475867Y-16161862D01*
X8478310Y-13520011D02*
X8568310Y-13610011D01*
X8568310Y-13520011D02*
X8478310Y-13610011D01*
X8483428Y-11084175D02*
X8573428Y-11174175D01*
X8573428Y-11084175D02*
X8483428Y-11174175D01*
X8490290Y-8356546D02*
X8580290Y-8446546D01*
X8580290Y-8356546D02*
X8490290Y-8446546D01*
X8507835Y-5365088D02*
X8597835Y-5455088D01*
X8597835Y-5365088D02*
X8507835Y-5455088D01*
X8525422Y-8953997D02*
X8615422Y-9043997D01*
X8615422Y-8953997D02*
X8525422Y-9043997D01*
X8546671Y-4208166D02*
X8636671Y-4298166D01*
X8636671Y-4208166D02*
X8546671Y-4298166D01*
X8567613Y-15610736D02*
X8657613Y-15700736D01*
X8657613Y-15610736D02*
X8567613Y-15700736D01*
X8575513Y-13285346D02*
X8665513Y-13375346D01*
X8665513Y-13285346D02*
X8575513Y-13375346D01*
X8581029Y-7008492D02*
X8671029Y-7098492D01*
X8671029Y-7008492D02*
X8581029Y-7098492D01*
X8614839Y-3325056D02*
X8704839Y-3415056D01*
X8704839Y-3325056D02*
X8614839Y-3415056D01*
X8640709Y-6343979D02*
X8730709Y-6433979D01*
X8730709Y-6343979D02*
X8640709Y-6433979D01*
X8660762Y-9898492D02*
X8750762Y-9988492D01*
X8750762Y-9898492D02*
X8660762Y-9988492D01*
X8661890Y-8543815D02*
X8751890Y-8633815D01*
X8751890Y-8543815D02*
X8661890Y-8633815D01*
X8677148Y-4718201D02*
X8767148Y-4808201D01*
X8767148Y-4718201D02*
X8677148Y-4808201D01*
X8688374Y-7238695D02*
X8778374Y-7328695D01*
X8778374Y-7238695D02*
X8688374Y-7328695D01*
X8692438Y-16204577D02*
X8782438Y-16294577D01*
X8782438Y-16204577D02*
X8692438Y-16294577D01*
X8696388Y-7775013D02*
X8786388Y-7865013D01*
X8786388Y-7775013D02*
X8696388Y-7865013D01*
X8699824Y-11925227D02*
X8789824Y-12015227D01*
X8789824Y-11925227D02*
X8699824Y-12015227D01*
X8727582Y-6582661D02*
X8817582Y-6672661D01*
X8817582Y-6582661D02*
X8727582Y-6672661D01*
X8733486Y-9099686D02*
X8823486Y-9189686D01*
X8823486Y-9099686D02*
X8733486Y-9189686D01*
X8750724Y-3758262D02*
X8840724Y-3848262D01*
X8840724Y-3758262D02*
X8750724Y-3848262D01*
X8753267Y-12532114D02*
X8843267Y-12622114D01*
X8843267Y-12532114D02*
X8753267Y-12622114D01*
X8810015Y-10616057D02*
X8900015Y-10706057D01*
X8900015Y-10616057D02*
X8810015Y-10706057D01*
X8823388Y-7994984D02*
X8913388Y-8084984D01*
X8913388Y-7994984D02*
X8823388Y-8084984D01*
X8828541Y-5750929D02*
X8918541Y-5840929D01*
X8918541Y-5750929D02*
X8828541Y-5840929D01*
X8836298Y-11711005D02*
X8926298Y-11801005D01*
X8926298Y-11711005D02*
X8836298Y-11801005D01*
X8860612Y-12301912D02*
X8950612Y-12391912D01*
X8950612Y-12301912D02*
X8860612Y-12391912D01*
X8873164Y-13992404D02*
X8963164Y-14082404D01*
X8963164Y-13992404D02*
X8873164Y-14082404D01*
X8881452Y-9510322D02*
X8971452Y-9600322D01*
X8971452Y-9510322D02*
X8881452Y-9600322D01*
X8881617Y-11234207D02*
X8971617Y-11324207D01*
X8971617Y-11234207D02*
X8881617Y-11324207D01*
X8890114Y-14758266D02*
X8980114Y-14848266D01*
X8980114Y-14758266D02*
X8890114Y-14848266D01*
X8894280Y-5996274D02*
X8984280Y-6086274D01*
X8984280Y-5996274D02*
X8894280Y-6086274D01*
X8924130Y-4777496D02*
X9014130Y-4867496D01*
X9014130Y-4777496D02*
X8924130Y-4867496D01*
X8938905Y-13747059D02*
X9028905Y-13837059D01*
X9028905Y-13747059D02*
X8938905Y-13837059D01*
X8945091Y-14510287D02*
X9035091Y-14600287D01*
X9035091Y-14510287D02*
X8945091Y-14600287D01*
X8959000Y-16619000D02*
X9049000Y-16709000D01*
X9049000Y-16619000D02*
X8959000Y-16709000D01*
X8971655Y-13073747D02*
X9061655Y-13163747D01*
X9061655Y-13073747D02*
X8971655Y-13163747D01*
X8989406Y-3845135D02*
X9079406Y-3935135D01*
X9079406Y-3845135D02*
X8989406Y-3935135D01*
X8989467Y-15430589D02*
X9079467Y-15520589D01*
X9079467Y-15430589D02*
X8989467Y-15520589D01*
X9029985Y-10489057D02*
X9119985Y-10579057D01*
X9119985Y-10489057D02*
X9029985Y-10579057D01*
X9033575Y-15180448D02*
X9123575Y-15270448D01*
X9123575Y-15180448D02*
X9033575Y-15270448D01*
X9044885Y-11039632D02*
X9134885Y-11129632D01*
X9134885Y-11039632D02*
X9044885Y-11129632D01*
X9047101Y-15881508D02*
X9137101Y-15971508D01*
X9137101Y-15881508D02*
X9047101Y-15971508D01*
X9048035Y-12831503D02*
X9138035Y-12921503D01*
X9138035Y-12831503D02*
X9048035Y-12921503D01*
X9084585Y-4291254D02*
X9174585Y-4381254D01*
X9174585Y-4291254D02*
X9084585Y-4381254D01*
X9106552Y-7264052D02*
X9196552Y-7354052D01*
X9196552Y-7264052D02*
X9106552Y-7354052D01*
X9116118Y-9607523D02*
X9206118Y-9697523D01*
X9206118Y-9607523D02*
X9116118Y-9697523D01*
X9120331Y-5221214D02*
X9210331Y-5311214D01*
X9210331Y-5221214D02*
X9120331Y-5311214D01*
X9141743Y-8793547D02*
X9231743Y-8883547D01*
X9231743Y-8793547D02*
X9141743Y-8883547D01*
X9150412Y-10096871D02*
X9240412Y-10186871D01*
X9240412Y-10096871D02*
X9150412Y-10186871D01*
X9164436Y-5471356D02*
X9254436Y-5561356D01*
X9254436Y-5471356D02*
X9164436Y-5561356D01*
X9182931Y-7506296D02*
X9272931Y-7596296D01*
X9272931Y-7506296D02*
X9182931Y-7596296D01*
X9199712Y-6548072D02*
X9289712Y-6638072D01*
X9289712Y-6548072D02*
X9199712Y-6638072D01*
X9220375Y-8181453D02*
X9310375Y-8271453D01*
X9310375Y-8181453D02*
X9220375Y-8271453D01*
X9254687Y-6796052D02*
X9344687Y-6886052D01*
X9344687Y-6796052D02*
X9254687Y-6886052D01*
X9256144Y-3409253D02*
X9346144Y-3499253D01*
X9346144Y-3409253D02*
X9256144Y-3499253D01*
X9259491Y-16446792D02*
X9349491Y-16536792D01*
X9349491Y-16446792D02*
X9259491Y-16536792D01*
X9287181Y-11789814D02*
X9377181Y-11879814D01*
X9377181Y-11789814D02*
X9287181Y-11879814D01*
X9287431Y-9001612D02*
X9377431Y-9091612D01*
X9377431Y-9001612D02*
X9287431Y-9091612D01*
X9295080Y-15936483D02*
X9385080Y-16026483D01*
X9385080Y-15936483D02*
X9295080Y-16026483D01*
X9317576Y-8416119D02*
X9407576Y-8506119D01*
X9407576Y-8416119D02*
X9317576Y-8506119D01*
X9321986Y-13544941D02*
X9411986Y-13634941D01*
X9411986Y-13544941D02*
X9321986Y-13634941D01*
X9337415Y-4315598D02*
X9427415Y-4405598D01*
X9427415Y-4315598D02*
X9337415Y-4405598D01*
X9366093Y-13294800D02*
X9456093Y-13384800D01*
X9456093Y-13294800D02*
X9366093Y-13384800D01*
X9370577Y-14393978D02*
X9460577Y-14483978D01*
X9460577Y-14393978D02*
X9370577Y-14483978D01*
X9374054Y-11551132D02*
X9464054Y-11641132D01*
X9464054Y-11551132D02*
X9374054Y-11641132D01*
X9400553Y-10052764D02*
X9490553Y-10142764D01*
X9490553Y-10052764D02*
X9400553Y-10142764D01*
X9403732Y-14142151D02*
X9493732Y-14232151D01*
X9493732Y-14142151D02*
X9403732Y-14232151D01*
X9404807Y-12436744D02*
X9494807Y-12526744D01*
X9494807Y-12436744D02*
X9404807Y-12526744D01*
X9426978Y-5944161D02*
X9516978Y-6034161D01*
X9516978Y-5944161D02*
X9426978Y-6034161D01*
X9459783Y-12188764D02*
X9549783Y-12278764D01*
X9549783Y-12188764D02*
X9459783Y-12278764D01*
X9460131Y-6195988D02*
X9550131Y-6285988D01*
X9550131Y-6195988D02*
X9460131Y-6285988D01*
X9474881Y-10877300D02*
X9564881Y-10967300D01*
X9564881Y-10877300D02*
X9474881Y-10967300D01*
X9500003Y-4754000D02*
X9590003Y-4844000D01*
X9590003Y-4754000D02*
X9500003Y-4844000D01*
X9504033Y-15109224D02*
X9594033Y-15199224D01*
X9594033Y-15109224D02*
X9504033Y-15199224D01*
X9509796Y-3422546D02*
X9599796Y-3512546D01*
X9599796Y-3422546D02*
X9509796Y-3512546D01*
X9512525Y-16468930D02*
X9602525Y-16558930D01*
X9602525Y-16468930D02*
X9512525Y-16558930D01*
X9521000Y-16136000D02*
X9611000Y-16226000D01*
X9611000Y-16136000D02*
X9521000Y-16226000D01*
X9522139Y-5007034D02*
X9612139Y-5097034D01*
X9612139Y-5007034D02*
X9522139Y-5097034D01*
X9526172Y-14856190D02*
X9616172Y-14946190D01*
X9616172Y-14856190D02*
X9526172Y-14946190D01*
X9554054Y-7681106D02*
X9644054Y-7771106D01*
X9644054Y-7681106D02*
X9554054Y-7771106D01*
X9578727Y-3857221D02*
X9668727Y-3947221D01*
X9668727Y-3857221D02*
X9578727Y-3947221D01*
X9587019Y-15569844D02*
X9677019Y-15659844D01*
X9677019Y-15569844D02*
X9587019Y-15659844D01*
X9592165Y-10651999D02*
X9682165Y-10741999D01*
X9682165Y-10651999D02*
X9592165Y-10741999D01*
X9598160Y-7931248D02*
X9688160Y-8021248D01*
X9688160Y-7931248D02*
X9598160Y-8021248D01*
X9607005Y-9636121D02*
X9697005Y-9726121D01*
X9697005Y-9636121D02*
X9607005Y-9726121D01*
X9685277Y-6871974D02*
X9775277Y-6961974D01*
X9775277Y-6871974D02*
X9685277Y-6961974D01*
X9692352Y-12957009D02*
X9782352Y-13047009D01*
X9782352Y-12957009D02*
X9692352Y-13047009D01*
X9703409Y-9016049D02*
X9793409Y-9106049D01*
X9793409Y-9016049D02*
X9703409Y-9106049D01*
X9707414Y-7125007D02*
X9797414Y-7215007D01*
X9797414Y-7125007D02*
X9707414Y-7215007D01*
X9714490Y-12703976D02*
X9804490Y-12793976D01*
X9804490Y-12703976D02*
X9714490Y-12793976D01*
X9757352Y-5427647D02*
X9847352Y-5517647D01*
X9847352Y-5427647D02*
X9757352Y-5517647D01*
X9764016Y-11405661D02*
X9854016Y-11495661D01*
X9854016Y-11405661D02*
X9764016Y-11495661D01*
X9768430Y-5681405D02*
X9858430Y-5771405D01*
X9858430Y-5681405D02*
X9768430Y-5771405D01*
X9769149Y-9261394D02*
X9859149Y-9351394D01*
X9859149Y-9261394D02*
X9769149Y-9351394D01*
X9781197Y-13935425D02*
X9871197Y-14025425D01*
X9871197Y-13935425D02*
X9781197Y-14025425D01*
X9792277Y-13681666D02*
X9882277Y-13771666D01*
X9882277Y-13681666D02*
X9792277Y-13771666D01*
X9794274Y-9807721D02*
X9884274Y-9897721D01*
X9884274Y-9807721D02*
X9794274Y-9897721D01*
X9797170Y-11153835D02*
X9887170Y-11243834D01*
X9887170Y-11153835D02*
X9797170Y-11243834D01*
X9804028Y-3974505D02*
X9894028Y-4064505D01*
X9894028Y-3974505D02*
X9804028Y-4064505D01*
X9829263Y-15646223D02*
X9919263Y-15736223D01*
X9919263Y-15646223D02*
X9829263Y-15736223D01*
X9835698Y-4434858D02*
X9925698Y-4524858D01*
X9925698Y-4434858D02*
X9835698Y-4524858D01*
X9842810Y-16105377D02*
X9932810Y-16195377D01*
X9932810Y-16105377D02*
X9842810Y-16195377D01*
X9883866Y-8325732D02*
X9973866Y-8415732D01*
X9973866Y-8325732D02*
X9883866Y-8415732D01*
X9894945Y-8579490D02*
X9984945Y-8669490D01*
X9984945Y-8579490D02*
X9894945Y-8669490D01*
X9954976Y-14710661D02*
X10044976Y-14800661D01*
X10044976Y-14710661D02*
X9954976Y-14800661D01*
X9954977Y-14456661D02*
X10044977Y-14546661D01*
X10044977Y-14456661D02*
X9954977Y-14546661D01*
X9954998Y-12152000D02*
X10044998Y-12242000D01*
X10044998Y-12152000D02*
X9954998Y-12242000D01*
X9954998Y-11898000D02*
X10044998Y-11988000D01*
X10044998Y-11898000D02*
X9954998Y-11988000D01*
X9955010Y-6496655D02*
X10045010Y-6586655D01*
X10045010Y-6496655D02*
X9955010Y-6586655D01*
X9955011Y-6242655D02*
X10045011Y-6332655D01*
X10045011Y-6242655D02*
X9955011Y-6332655D01*
X9986455Y-10314530D02*
X10076455Y-10404530D01*
X10076455Y-10314530D02*
X9986455Y-10404530D01*
X10008592Y-10567564D02*
X10098592Y-10657564D01*
X10098592Y-10567564D02*
X10008592Y-10657564D01*
X10059020Y-7572632D02*
X10149020Y-7662632D01*
X10149020Y-7572632D02*
X10059020Y-7662632D01*
X10061668Y-15211230D02*
X10151668Y-15301230D01*
X10151668Y-15211230D02*
X10061668Y-15301230D01*
X10067078Y-16224623D02*
X10157078Y-16314623D01*
X10157078Y-16224623D02*
X10067078Y-16314623D01*
X10070100Y-7318874D02*
X10160100Y-7408874D01*
X10160100Y-7318874D02*
X10070100Y-7408874D01*
X10074380Y-4521731D02*
X10164380Y-4611731D01*
X10164380Y-4521731D02*
X10074380Y-4611731D01*
X10093008Y-13116079D02*
X10183008Y-13206079D01*
X10183008Y-13116079D02*
X10093008Y-13206079D01*
X10096000Y-4102000D02*
X10186000Y-4192000D01*
X10186000Y-4102000D02*
X10096000Y-4192000D01*
X10104086Y-13369837D02*
X10194086Y-13459837D01*
X10194086Y-13369837D02*
X10104086Y-13459837D01*
X10106073Y-3584693D02*
X10196073Y-3674693D01*
X10196073Y-3584693D02*
X10106073Y-3674693D01*
X10121017Y-16670583D02*
X10211017Y-16760583D01*
X10211017Y-16670583D02*
X10121017Y-16760583D01*
X10160705Y-5244183D02*
X10250705Y-5334183D01*
X10250705Y-5244183D02*
X10160705Y-5334183D01*
X10171785Y-4990425D02*
X10261785Y-5080425D01*
X10261785Y-4990425D02*
X10171785Y-5080425D01*
X10241457Y-9581682D02*
X10331457Y-9671682D01*
X10331457Y-9581682D02*
X10241457Y-9671682D01*
X10260889Y-8984845D02*
X10350889Y-9074845D01*
X10350889Y-8984845D02*
X10260889Y-9074845D01*
X10271843Y-8158106D02*
X10361843Y-8248106D01*
X10361843Y-8158106D02*
X10271843Y-8248106D01*
X10278400Y-12411496D02*
X10368400Y-12501496D01*
X10368400Y-12411496D02*
X10278400Y-12501496D01*
X10285624Y-11446353D02*
X10375624Y-11536353D01*
X10375624Y-11446353D02*
X10285624Y-11536353D01*
X10302257Y-5986013D02*
X10392257Y-6076013D01*
X10392257Y-5986013D02*
X10302257Y-6076013D01*
X10307237Y-13981273D02*
X10397237Y-14071273D01*
X10397237Y-13981273D02*
X10307237Y-14071273D01*
X10309647Y-15266205D02*
X10399647Y-15356205D01*
X10399647Y-15266205D02*
X10309647Y-15356205D01*
X10311553Y-12663323D02*
X10401553Y-12753323D01*
X10401553Y-12663323D02*
X10311553Y-12753323D01*
X10315950Y-7907964D02*
X10405950Y-7997964D01*
X10405950Y-7907964D02*
X10315950Y-7997964D01*
X10324396Y-5732979D02*
X10414396Y-5822979D01*
X10414396Y-5732979D02*
X10324396Y-5822979D01*
X10329373Y-14234306D02*
X10419373Y-14324306D01*
X10419373Y-14234306D02*
X10329373Y-14324306D01*
X10337268Y-8742601D02*
X10427268Y-8832601D01*
X10427268Y-8742601D02*
X10337268Y-8832601D01*
X10340488Y-15818855D02*
X10430488Y-15908855D01*
X10430488Y-15818855D02*
X10340488Y-15908855D01*
X10340600Y-11694332D02*
X10430600Y-11784332D01*
X10430600Y-11694332D02*
X10340600Y-11784332D01*
X10340882Y-4109857D02*
X10430882Y-4199857D01*
X10430882Y-4109857D02*
X10340882Y-4199857D01*
X10358457Y-6890499D02*
X10448457Y-6980499D01*
X10448457Y-6890499D02*
X10358457Y-6980499D01*
X10359832Y-3595772D02*
X10449832Y-3685772D01*
X10449832Y-3595772D02*
X10359832Y-3685772D01*
X10362398Y-10828668D02*
X10452398Y-10918668D01*
X10452398Y-10828668D02*
X10362398Y-10918668D01*
X10374775Y-16659504D02*
X10464775Y-16749504D01*
X10464775Y-16659504D02*
X10374775Y-16749504D01*
X10391611Y-6638672D02*
X10481611Y-6728672D01*
X10481611Y-6638672D02*
X10391611Y-6728672D01*
X10396083Y-9380170D02*
X10486083Y-9470170D01*
X10486083Y-9380170D02*
X10396083Y-9470170D01*
X10469743Y-11058870D02*
X10559743Y-11148870D01*
X10559743Y-11058870D02*
X10469743Y-11148870D01*
X10498518Y-10301259D02*
X10588518Y-10391259D01*
X10588518Y-10301259D02*
X10498518Y-10391259D01*
X10566949Y-13425599D02*
X10656949Y-13515599D01*
X10656949Y-13425599D02*
X10566949Y-13515599D01*
X10576829Y-14678464D02*
X10666829Y-14768464D01*
X10666829Y-14678464D02*
X10576829Y-14768464D01*
X10586227Y-4175597D02*
X10676227Y-4265597D01*
X10676227Y-4175597D02*
X10586227Y-4265597D01*
X10593521Y-15796717D02*
X10683521Y-15886717D01*
X10683521Y-15796717D02*
X10593521Y-15886717D01*
X10609981Y-14930291D02*
X10699981Y-15020291D01*
X10699981Y-14930291D02*
X10609981Y-15020291D01*
X10611055Y-13675740D02*
X10701055Y-13765740D01*
X10701055Y-13675740D02*
X10611055Y-13765740D01*
X10622876Y-4882231D02*
X10712876Y-4972231D01*
X10712876Y-4882231D02*
X10622876Y-4972231D01*
X10647551Y-7370383D02*
X10737551Y-7460383D01*
X10737551Y-7370383D02*
X10647551Y-7460383D01*
X10656031Y-4630404D02*
X10746031Y-4720404D01*
X10746031Y-4630404D02*
X10656031Y-4720404D01*
X10674030Y-16259676D02*
X10764030Y-16349676D01*
X10764030Y-16259676D02*
X10674030Y-16349676D01*
X10694264Y-11986119D02*
X10784264Y-12076119D01*
X10784264Y-11986119D02*
X10694264Y-12076119D01*
X10700338Y-3339022D02*
X10790338Y-3429022D01*
X10790338Y-3339022D02*
X10700338Y-3429022D01*
X10710734Y-12775464D02*
X10800734Y-12865464D01*
X10800734Y-12775464D02*
X10710734Y-12865464D01*
X10712740Y-10437734D02*
X10802740Y-10527734D01*
X10802740Y-10437734D02*
X10712740Y-10527734D01*
X10713292Y-7125038D02*
X10803292Y-7215038D01*
X10803292Y-7125038D02*
X10713292Y-7215038D01*
X10727746Y-5572666D02*
X10817746Y-5662666D01*
X10817746Y-5572666D02*
X10727746Y-5662666D01*
X10736575Y-8601275D02*
X10826575Y-8691275D01*
X10826575Y-8601275D02*
X10736575Y-8691275D01*
X10748913Y-6373949D02*
X10838913Y-6463949D01*
X10838913Y-6373949D02*
X10748913Y-6463949D01*
X10752618Y-9664691D02*
X10842618Y-9754691D01*
X10842618Y-9664691D02*
X10752618Y-9754691D01*
X10771854Y-5322525D02*
X10861854Y-5412525D01*
X10861854Y-5322525D02*
X10771854Y-5412525D01*
X10776474Y-13020809D02*
X10866474Y-13110809D01*
X10866474Y-13020809D02*
X10776474Y-13110809D01*
X10781137Y-12224801D02*
X10871137Y-12314801D01*
X10871137Y-12224801D02*
X10781137Y-12314801D01*
X10792058Y-7934171D02*
X10882058Y-8024171D01*
X10882058Y-7934171D02*
X10792058Y-8024171D01*
X10803889Y-6125970D02*
X10893889Y-6215970D01*
X10893889Y-6125970D02*
X10803889Y-6215970D01*
X10863575Y-8381304D02*
X10953575Y-8471304D01*
X10953575Y-8381304D02*
X10863575Y-8471304D01*
X10889260Y-7699506D02*
X10979260Y-7789506D01*
X10979260Y-7699506D02*
X10889260Y-7789506D01*
X10891447Y-15266075D02*
X10981447Y-15356075D01*
X10981447Y-15266075D02*
X10891447Y-15356075D01*
X10892463Y-14183716D02*
X10982463Y-14273716D01*
X10982463Y-14183716D02*
X10892463Y-14273716D01*
X10900197Y-10900198D02*
X10990197Y-10990198D01*
X10990197Y-10900198D02*
X10900197Y-10990198D01*
X10908695Y-16356877D02*
X10998695Y-16446877D01*
X10998695Y-16356877D02*
X10908695Y-16446877D01*
X10914854Y-9149588D02*
X11004854Y-9239588D01*
X11004854Y-9149588D02*
X10914854Y-9239588D01*
X10918849Y-11467943D02*
X11008849Y-11557943D01*
X11008849Y-11467943D02*
X10918849Y-11557943D01*
X10935552Y-15516216D02*
X11025552Y-15606216D01*
X11025552Y-15516216D02*
X10935552Y-15606216D01*
X10947438Y-14431695D02*
X11037438Y-14521695D01*
X11037438Y-14431695D02*
X10947438Y-14521695D01*
X10953864Y-3323516D02*
X11043864Y-3413516D01*
X11043864Y-3323516D02*
X10953864Y-3413516D01*
X10991300Y-9577818D02*
X11081300Y-9667818D01*
X11081300Y-9577818D02*
X10991300Y-9667818D01*
X11004678Y-4002292D02*
X11094678Y-4092292D01*
X11094678Y-4002292D02*
X11004678Y-4092292D01*
X11045440Y-10196745D02*
X11135440Y-10286745D01*
X11135440Y-10196745D02*
X11045440Y-10286745D01*
X11048787Y-3752151D02*
X11138787Y-3842151D01*
X11138787Y-3752151D02*
X11048787Y-3842151D01*
X11055323Y-11682164D02*
X11145323Y-11772164D01*
X11145323Y-11682164D02*
X11055323Y-11772164D01*
X11057957Y-4413300D02*
X11147957Y-4503300D01*
X11147957Y-4413300D02*
X11057957Y-4503300D01*
X11079802Y-11079803D02*
X11169802Y-11169803D01*
X11169802Y-11079803D02*
X11079802Y-11169803D01*
X11091542Y-6832405D02*
X11181542Y-6922405D01*
X11181542Y-6832405D02*
X11091542Y-6922405D01*
X11109429Y-8986320D02*
X11199429Y-9076320D01*
X11199429Y-8986320D02*
X11109429Y-9076320D01*
X11113225Y-13628468D02*
X11203225Y-13718468D01*
X11203225Y-13628468D02*
X11113225Y-13718468D01*
X11147808Y-15922422D02*
X11237808Y-16012422D01*
X11237808Y-15922422D02*
X11147808Y-16012422D01*
X11178415Y-6593723D02*
X11268415Y-6683723D01*
X11268415Y-6593723D02*
X11178415Y-6683723D01*
X11180698Y-12309554D02*
X11270698Y-12399554D01*
X11270698Y-12309554D02*
X11180698Y-12399554D01*
X11189603Y-13870713D02*
X11279603Y-13960713D01*
X11279603Y-13870713D02*
X11189603Y-13960713D01*
X11208424Y-5979708D02*
X11298424Y-6069708D01*
X11298424Y-5979708D02*
X11208424Y-6069708D01*
X11216130Y-5248510D02*
X11306130Y-5338510D01*
X11306130Y-5248510D02*
X11216130Y-5338510D01*
X11220031Y-13009078D02*
X11310031Y-13099078D01*
X11310031Y-13009078D02*
X11220031Y-13099078D01*
X11252529Y-14797565D02*
X11342529Y-14887565D01*
X11342529Y-14797565D02*
X11252529Y-14887565D01*
X11281871Y-5003165D02*
X11371871Y-5093165D01*
X11371871Y-5003165D02*
X11281871Y-5093165D01*
X11283258Y-4530584D02*
X11373258Y-4620584D01*
X11373258Y-4530584D02*
X11283258Y-4620584D01*
X11284804Y-5737464D02*
X11374804Y-5827464D01*
X11374804Y-5737464D02*
X11284804Y-5827464D01*
X11286963Y-8501420D02*
X11376963Y-8591420D01*
X11376963Y-8501420D02*
X11286963Y-8591420D01*
X11293419Y-10251721D02*
X11383419Y-10341721D01*
X11383419Y-10251721D02*
X11293419Y-10341721D01*
X11297981Y-12534855D02*
X11387981Y-12624855D01*
X11387981Y-12534855D02*
X11297981Y-12624855D01*
X11312282Y-7347699D02*
X11402282Y-7437699D01*
X11402282Y-7347699D02*
X11312282Y-7437699D01*
X11317232Y-13243744D02*
X11407232Y-13333744D01*
X11407232Y-13243744D02*
X11317232Y-13333744D01*
X11318268Y-15042911D02*
X11408268Y-15132911D01*
X11408268Y-15042911D02*
X11318268Y-15132911D01*
X11389198Y-7906760D02*
X11479198Y-7996760D01*
X11479198Y-7906760D02*
X11389198Y-7996760D01*
X11395787Y-15867446D02*
X11485787Y-15957446D01*
X11485787Y-15867446D02*
X11395787Y-15957446D01*
X11396550Y-9765217D02*
X11486550Y-9855217D01*
X11486550Y-9765217D02*
X11396550Y-9855217D01*
X11429567Y-7122399D02*
X11519567Y-7212399D01*
X11519567Y-7122399D02*
X11429567Y-7212399D01*
X11434240Y-10644782D02*
X11524240Y-10734782D01*
X11524240Y-10644782D02*
X11434240Y-10734782D01*
X11458564Y-8314152D02*
X11548564Y-8404152D01*
X11548564Y-8314152D02*
X11458564Y-8404152D01*
X11472510Y-11763503D02*
X11562510Y-11853503D01*
X11562510Y-11763503D02*
X11472510Y-11853503D01*
X11490312Y-9155769D02*
X11580312Y-9245769D01*
X11580312Y-9155769D02*
X11490312Y-9245769D01*
X11512419Y-3652190D02*
X11602419Y-3742190D01*
X11602419Y-3652190D02*
X11512419Y-3742190D01*
X11529433Y-14280791D02*
X11619433Y-14370791D01*
X11619433Y-14280791D02*
X11529433Y-14370791D01*
X11534886Y-7698696D02*
X11624886Y-7788696D01*
X11624886Y-7698696D02*
X11534886Y-7788696D01*
X11540530Y-16363228D02*
X11630530Y-16453228D01*
X11630530Y-16363228D02*
X11540530Y-16453228D01*
X11556335Y-15452164D02*
X11646335Y-15542164D01*
X11646335Y-15452164D02*
X11556335Y-15542164D01*
X11563542Y-11189280D02*
X11653542Y-11279280D01*
X11653542Y-11189280D02*
X11563542Y-11279280D01*
X11589136Y-6450619D02*
X11679136Y-6540619D01*
X11679136Y-6450619D02*
X11589136Y-6540619D01*
X11616305Y-14519473D02*
X11706305Y-14609473D01*
X11706305Y-14519473D02*
X11616305Y-14609473D01*
X11627818Y-4227324D02*
X11717818Y-4317324D01*
X11717818Y-4227324D02*
X11627818Y-4317324D01*
X11635778Y-11958079D02*
X11725778Y-12048079D01*
X11725778Y-11958079D02*
X11635778Y-12048079D01*
X11648377Y-9732064D02*
X11738377Y-9822064D01*
X11738377Y-9732064D02*
X11648377Y-9822064D01*
X11664442Y-10752128D02*
X11754442Y-10842128D01*
X11754442Y-10752128D02*
X11664442Y-10842128D01*
X11694173Y-4818097D02*
X11784173Y-4908097D01*
X11784173Y-4818097D02*
X11694173Y-4908097D01*
X11696482Y-6220417D02*
X11786482Y-6310417D01*
X11786482Y-6220417D02*
X11696482Y-6310417D01*
X11710683Y-13720116D02*
X11800683Y-13810116D01*
X11800683Y-13720116D02*
X11710683Y-13810116D01*
X11715612Y-9038485D02*
X11805612Y-9128485D01*
X11805612Y-9038485D02*
X11715612Y-9128485D01*
X11717249Y-12471766D02*
X11807249Y-12561766D01*
X11807249Y-12471766D02*
X11717249Y-12561766D01*
X11721476Y-5690413D02*
X11811476Y-5780413D01*
X11811476Y-5690413D02*
X11721476Y-5780413D01*
X11757764Y-3717930D02*
X11847764Y-3807930D01*
X11847764Y-3717930D02*
X11757764Y-3807930D01*
X11765053Y-11343906D02*
X11855053Y-11433906D01*
X11855053Y-11343906D02*
X11765053Y-11433906D01*
X11781132Y-13117978D02*
X11871132Y-13207978D01*
X11871132Y-13117978D02*
X11781132Y-13207978D01*
X11785875Y-16297488D02*
X11875875Y-16387488D01*
X11875875Y-16297488D02*
X11785875Y-16387488D01*
X11806852Y-15410242D02*
X11896852Y-15500242D01*
X11896852Y-15410242D02*
X11806852Y-15500242D01*
X11818027Y-13950318D02*
X11908027Y-14040318D01*
X11908027Y-13950318D02*
X11818027Y-14040318D01*
X11818679Y-5455748D02*
X11908679Y-5545748D01*
X11908679Y-5455748D02*
X11818679Y-5545748D01*
X11832506Y-10119262D02*
X11922506Y-10209262D01*
X11922506Y-10119262D02*
X11832506Y-10209262D01*
X11849306Y-8628597D02*
X11939306Y-8718597D01*
X11939306Y-8628597D02*
X11849306Y-8718597D01*
X11857265Y-6969063D02*
X11947265Y-7059063D01*
X11947265Y-6969063D02*
X11857265Y-7059063D01*
X11862937Y-12679831D02*
X11952937Y-12769831D01*
X11952937Y-12679831D02*
X11862937Y-12769831D01*
X11870062Y-4303703D02*
X11960062Y-4393703D01*
X11960062Y-4303703D02*
X11870062Y-4393703D01*
X11902238Y-4963785D02*
X11992238Y-5053785D01*
X11992238Y-4963785D02*
X11902238Y-5053785D01*
X11908131Y-13337949D02*
X11998131Y-13427949D01*
X11998131Y-13337949D02*
X11908131Y-13427949D01*
X11935732Y-14822899D02*
X12025732Y-14912899D01*
X12025732Y-14822899D02*
X11935732Y-14912899D01*
X11978435Y-15851046D02*
X12068435Y-15941046D01*
X12068435Y-15851046D02*
X11978435Y-15941046D01*
X11991999Y-9409190D02*
X12081999Y-9499190D01*
X12081999Y-9409190D02*
X11991999Y-9499190D01*
X11993740Y-6754842D02*
X12083740Y-6844842D01*
X12083740Y-6754842D02*
X11993740Y-6844842D01*
X12000436Y-7517357D02*
X12090436Y-7607357D01*
X12090436Y-7517357D02*
X12000436Y-7607357D01*
X12004651Y-8076849D02*
X12094651Y-8166849D01*
X12094651Y-8076849D02*
X12004651Y-8166849D01*
X12034621Y-11860629D02*
X12124621Y-11950629D01*
X12124621Y-11860629D02*
X12034621Y-11950629D01*
X12057371Y-8482908D02*
X12147371Y-8572908D01*
X12147371Y-8482908D02*
X12057371Y-8572908D01*
X12085540Y-10141400D02*
X12175540Y-10231400D01*
X12175540Y-10141400D02*
X12085540Y-10231400D01*
X12089609Y-10628043D02*
X12179609Y-10718043D01*
X12179609Y-10628043D02*
X12089609Y-10718043D01*
X12090357Y-15024410D02*
X12180357Y-15114410D01*
X12180357Y-15024410D02*
X12090357Y-15114410D01*
X12127373Y-6192380D02*
X12217373Y-6282380D01*
X12217373Y-6192380D02*
X12127373Y-6282380D01*
X12159343Y-11227683D02*
X12249343Y-11317683D01*
X12249343Y-11227683D02*
X12159343Y-11317683D01*
X12163705Y-7322782D02*
X12253705Y-7412782D01*
X12253705Y-7322782D02*
X12163705Y-7412782D01*
X12191919Y-7905249D02*
X12281919Y-7995249D01*
X12281919Y-7905249D02*
X12191919Y-7995249D01*
X12199353Y-14266424D02*
X12289353Y-14356424D01*
X12289353Y-14266424D02*
X12199353Y-14356424D01*
X12221889Y-12032229D02*
X12311889Y-12122229D01*
X12311889Y-12032229D02*
X12221889Y-12122229D01*
X12231469Y-15873184D02*
X12321469Y-15963184D01*
X12321469Y-15873184D02*
X12231469Y-15963184D01*
X12237344Y-9343451D02*
X12327344Y-9433451D01*
X12327344Y-9343451D02*
X12237344Y-9433451D01*
X12254374Y-5972410D02*
X12344374Y-6062410D01*
X12344374Y-5972410D02*
X12254374Y-6062410D01*
X12273716Y-4049576D02*
X12363716Y-4139576D01*
X12363716Y-4049576D02*
X12273716Y-4139576D01*
X12275291Y-5497831D02*
X12365291Y-5587831D01*
X12365291Y-5497831D02*
X12275291Y-5587831D01*
X12279556Y-4672496D02*
X12369556Y-4762496D01*
X12369556Y-4672496D02*
X12279556Y-4762496D01*
X12280176Y-12492500D02*
X12370176Y-12582500D01*
X12370176Y-12492500D02*
X12280176Y-12582500D01*
X12316636Y-14491726D02*
X12406636Y-14581726D01*
X12406636Y-14491726D02*
X12316636Y-14581726D01*
X12331853Y-10704422D02*
X12421853Y-10794422D01*
X12421853Y-10704422D02*
X12331853Y-10794422D01*
X12338938Y-13697073D02*
X12428938Y-13787073D01*
X12428938Y-13697073D02*
X12338938Y-13787073D01*
X12355006Y-15402272D02*
X12445006Y-15492272D01*
X12445006Y-15402272D02*
X12355006Y-15492272D01*
X12367577Y-8955683D02*
X12457577Y-9045683D01*
X12457577Y-8955683D02*
X12367577Y-9045683D01*
X12371556Y-13104343D02*
X12461556Y-13194343D01*
X12461556Y-13104343D02*
X12371556Y-13194343D01*
X12379313Y-11354683D02*
X12469313Y-11444683D01*
X12469313Y-11354683D02*
X12379313Y-11444683D01*
X12384274Y-9848939D02*
X12474274Y-9938939D01*
X12474274Y-9848939D02*
X12384274Y-9938939D01*
X12392576Y-5272531D02*
X12482576Y-5362531D01*
X12482576Y-5272531D02*
X12392576Y-5362531D01*
X12424090Y-6737246D02*
X12514090Y-6827246D01*
X12514090Y-6737246D02*
X12424090Y-6827246D01*
X12451776Y-12679769D02*
X12541776Y-12769769D01*
X12541776Y-12679769D02*
X12451776Y-12769769D01*
X12454881Y-4227607D02*
X12544881Y-4317607D01*
X12544881Y-4227607D02*
X12454881Y-4317607D01*
X12475411Y-13911295D02*
X12565411Y-14001295D01*
X12565411Y-13911295D02*
X12475411Y-14001295D01*
X12492578Y-4810834D02*
X12582578Y-4900834D01*
X12582578Y-4810834D02*
X12492578Y-4900834D01*
X12526181Y-13305855D02*
X12616181Y-13395855D01*
X12616181Y-13305855D02*
X12526181Y-13395855D01*
X12578716Y-6535735D02*
X12668716Y-6625735D01*
X12668716Y-6535735D02*
X12578716Y-6625735D01*
X12583371Y-8437518D02*
X12673371Y-8527518D01*
X12673371Y-8437518D02*
X12583371Y-8527518D01*
X12588814Y-15303026D02*
X12678814Y-15393026D01*
X12678814Y-15303026D02*
X12588814Y-15393026D01*
X12590944Y-11800718D02*
X12680944Y-11890718D01*
X12680944Y-11800718D02*
X12590944Y-11890718D01*
X12602243Y-8858482D02*
X12692243Y-8948482D01*
X12692243Y-8858482D02*
X12602243Y-8948482D01*
X12603559Y-7306459D02*
X12693559Y-7396459D01*
X12693559Y-7306459D02*
X12603559Y-7396459D01*
X12631650Y-10426971D02*
X12721650Y-10516971D01*
X12721650Y-10426971D02*
X12631650Y-10516971D01*
X12638032Y-9837860D02*
X12728032Y-9927860D01*
X12728032Y-9837860D02*
X12638032Y-9927860D01*
X12658911Y-7880228D02*
X12748911Y-7970228D01*
X12748911Y-7880228D02*
X12658911Y-7970228D01*
X12694258Y-14699615D02*
X12784258Y-14789615D01*
X12784258Y-14699615D02*
X12694258Y-14789615D01*
X12694636Y-6042441D02*
X12784636Y-6132441D01*
X12784636Y-6042441D02*
X12694636Y-6132441D01*
X12706311Y-11094637D02*
X12796311Y-11184637D01*
X12796311Y-11094637D02*
X12706311Y-11184637D01*
X12783165Y-7126855D02*
X12873165Y-7216855D01*
X12873165Y-7126855D02*
X12783165Y-7216855D01*
X12791878Y-9454788D02*
X12881878Y-9544788D01*
X12881878Y-9454788D02*
X12791878Y-9544788D01*
X12799008Y-11946407D02*
X12889008Y-12036407D01*
X12889008Y-11946407D02*
X12799008Y-12036407D01*
X12803342Y-8310518D02*
X12893342Y-8400518D01*
X12893342Y-8310518D02*
X12803342Y-8400518D01*
X12821257Y-14919587D02*
X12911257Y-15009587D01*
X12911257Y-14919587D02*
X12821257Y-15009587D01*
X12822067Y-15721176D02*
X12912067Y-15811176D01*
X12912067Y-15721176D02*
X12822067Y-15811176D01*
X12840326Y-5834377D02*
X12930326Y-5924377D01*
X12930326Y-5834377D02*
X12840326Y-5924377D01*
X12840914Y-5196782D02*
X12930914Y-5286782D01*
X12930914Y-5196782D02*
X12840914Y-5286782D01*
X12847751Y-12382324D02*
X12937751Y-12472324D01*
X12937751Y-12382324D02*
X12847751Y-12472324D01*
X12860424Y-7725604D02*
X12950424Y-7815604D01*
X12950424Y-7725604D02*
X12860424Y-7815604D01*
X12881791Y-10471078D02*
X12971791Y-10561078D01*
X12971791Y-10471078D02*
X12881791Y-10561078D01*
X12883186Y-14136941D02*
X12973186Y-14226941D01*
X12973186Y-14136941D02*
X12883186Y-14226941D01*
X12894221Y-4033913D02*
X12984221Y-4123913D01*
X12984221Y-4033913D02*
X12894221Y-4123913D01*
X12938503Y-4567556D02*
X13028503Y-4657556D01*
X13028503Y-4567556D02*
X12938503Y-4657556D01*
X12940976Y-11191840D02*
X13030976Y-11281840D01*
X13030976Y-11191840D02*
X12940976Y-11281840D01*
X12970184Y-12970211D02*
X13060184Y-13060211D01*
X13060184Y-12970211D02*
X12970184Y-13060211D01*
X12978010Y-13557724D02*
X13068010Y-13647724D01*
X13068010Y-13557724D02*
X12978010Y-13647724D01*
X13004969Y-6626577D02*
X13094969Y-6716577D01*
X13094969Y-6626577D02*
X13004969Y-6716577D01*
X13012514Y-5384051D02*
X13102514Y-5474051D01*
X13102514Y-5384051D02*
X13012514Y-5474051D01*
X13028873Y-14345006D02*
X13118873Y-14435006D01*
X13118873Y-14345006D02*
X13028873Y-14435006D01*
X13042019Y-9410682D02*
X13132019Y-9500682D01*
X13132019Y-9410682D02*
X13042019Y-9500682D01*
X13042326Y-12545593D02*
X13132326Y-12635593D01*
X13132326Y-12545593D02*
X13042326Y-12635593D01*
X13065503Y-4787527D02*
X13155503Y-4877527D01*
X13155503Y-4787527D02*
X13065503Y-4877527D01*
X13073894Y-15688023D02*
X13163894Y-15778023D01*
X13163894Y-15688023D02*
X13073894Y-15778023D01*
X13074473Y-8971443D02*
X13164473Y-9061443D01*
X13164473Y-8971443D02*
X13074473Y-9061443D01*
X13079746Y-10091437D02*
X13169746Y-10181437D01*
X13169746Y-10091437D02*
X13079746Y-10181437D01*
X13119522Y-4151198D02*
X13209522Y-4241198D01*
X13209522Y-4151198D02*
X13119522Y-4241198D01*
X13124030Y-11604705D02*
X13214030Y-11694705D01*
X13214030Y-11604705D02*
X13124030Y-11694705D01*
X13141277Y-13752300D02*
X13231277Y-13842300D01*
X13231277Y-13752300D02*
X13141277Y-13842300D01*
X13149788Y-13149817D02*
X13239788Y-13239817D01*
X13239788Y-13149817D02*
X13149788Y-13239817D01*
X13158628Y-15220158D02*
X13248628Y-15310158D01*
X13248628Y-15220158D02*
X13158628Y-15310158D01*
X13176570Y-6439309D02*
X13266570Y-6529309D01*
X13266570Y-6439309D02*
X13176570Y-6529309D01*
X13197928Y-10823950D02*
X13287928Y-10913950D01*
X13287928Y-10823950D02*
X13197928Y-10913950D01*
X13200699Y-7231560D02*
X13290699Y-7321560D01*
X13290699Y-7231560D02*
X13200699Y-7321560D01*
X13236437Y-8424854D02*
X13326437Y-8514854D01*
X13326437Y-8424854D02*
X13236437Y-8514854D01*
X13278384Y-7837789D02*
X13368384Y-7927789D01*
X13368384Y-7837789D02*
X13278384Y-7927789D01*
X13288951Y-5790962D02*
X13378951Y-5880962D01*
X13378951Y-5790962D02*
X13288951Y-5880962D01*
X13316718Y-8895065D02*
X13406718Y-8985065D01*
X13406718Y-8895065D02*
X13316718Y-8985065D01*
X13333504Y-10102517D02*
X13423504Y-10192517D01*
X13423504Y-10102517D02*
X13333504Y-10192517D01*
X13349330Y-11721990D02*
X13439330Y-11811990D01*
X13439330Y-11721990D02*
X13349330Y-11811990D01*
X13372849Y-15083684D02*
X13462849Y-15173684D01*
X13462849Y-15083684D02*
X13372849Y-15173684D01*
X13386898Y-14632400D02*
X13476898Y-14722400D01*
X13476898Y-14632400D02*
X13386898Y-14722400D01*
X13395275Y-7068293D02*
X13485275Y-7158293D01*
X13485275Y-7068293D02*
X13395275Y-7158293D01*
X13399622Y-12149486D02*
X13489622Y-12239486D01*
X13489622Y-12149486D02*
X13399622Y-12239486D01*
X13433106Y-9650716D02*
X13523106Y-9740716D01*
X13523106Y-9650716D02*
X13433106Y-9740716D01*
X13434639Y-5999026D02*
X13524639Y-6089026D01*
X13524639Y-5999026D02*
X13434639Y-6089026D01*
X13443273Y-10889691D02*
X13533273Y-10979691D01*
X13533273Y-10889691D02*
X13443273Y-10979691D01*
X13460444Y-5185183D02*
X13550444Y-5275183D01*
X13550444Y-5185183D02*
X13460444Y-5275183D01*
X13466639Y-8317510D02*
X13556639Y-8407510D01*
X13556639Y-8317510D02*
X13466639Y-8407510D01*
X13492606Y-7701316D02*
X13582606Y-7791316D01*
X13582606Y-7701316D02*
X13492606Y-7791316D01*
X13534981Y-14043499D02*
X13624981Y-14133499D01*
X13624981Y-14043499D02*
X13534981Y-14133499D01*
X13546101Y-4608430D02*
X13636101Y-4698430D01*
X13636101Y-4608430D02*
X13546101Y-4698430D01*
X13556868Y-12718840D02*
X13646868Y-12808840D01*
X13646868Y-12718840D02*
X13556868Y-12808840D01*
X13591045Y-6623218D02*
X13681045Y-6713218D01*
X13681045Y-6623218D02*
X13591045Y-6713218D01*
X13608312Y-13302685D02*
X13698312Y-13392685D01*
X13698312Y-13302685D02*
X13608312Y-13392685D01*
X13613843Y-12285961D02*
X13703843Y-12375961D01*
X13703843Y-12285961D02*
X13613843Y-12375961D01*
X13614211Y-14519065D02*
X13704211Y-14609065D01*
X13704211Y-14519065D02*
X13614211Y-14609065D01*
X13615069Y-5386695D02*
X13705069Y-5476695D01*
X13705069Y-5386695D02*
X13615069Y-5476695D01*
X13616373Y-11287646D02*
X13706373Y-11377646D01*
X13706373Y-11287646D02*
X13616373Y-11377646D01*
X13622586Y-10437860D02*
X13712586Y-10527860D01*
X13712586Y-10437860D02*
X13622586Y-10527860D01*
X13671850Y-15483908D02*
X13761850Y-15573908D01*
X13761850Y-15483908D02*
X13671850Y-15573908D01*
X13686119Y-9127845D02*
X13776119Y-9217845D01*
X13776119Y-9127845D02*
X13686119Y-9217845D01*
X13686139Y-9628579D02*
X13776139Y-9718579D01*
X13776139Y-9628579D02*
X13686139Y-9718579D01*
X13725706Y-4788036D02*
X13815706Y-4878036D01*
X13815706Y-4788036D02*
X13725706Y-4878036D01*
X13758379Y-12873466D02*
X13848379Y-12963466D01*
X13848379Y-12873466D02*
X13758379Y-12963466D01*
X13760282Y-13926215D02*
X13850282Y-14016215D01*
X13850282Y-13926215D02*
X13760282Y-14016215D01*
X13778315Y-6451619D02*
X13868315Y-6541619D01*
X13868315Y-6451619D02*
X13778315Y-6541619D01*
X13787249Y-7271661D02*
X13877249Y-7361661D01*
X13877249Y-7271661D02*
X13787249Y-7361661D01*
X13795580Y-13474286D02*
X13885580Y-13564286D01*
X13885580Y-13474286D02*
X13795580Y-13564286D01*
X13832597Y-8543689D02*
X13922597Y-8633689D01*
X13922597Y-8543689D02*
X13832597Y-8633689D01*
X13855054Y-11374520D02*
X13945054Y-11464520D01*
X13945054Y-11374520D02*
X13855054Y-11464520D01*
X13867407Y-7918353D02*
X13957407Y-8008353D01*
X13957407Y-7918353D02*
X13867407Y-8008353D01*
X13874413Y-10471014D02*
X13964413Y-10561014D01*
X13964413Y-10471014D02*
X13874413Y-10561014D01*
X13887137Y-5845066D02*
X13977137Y-5935066D01*
X13977137Y-5845066D02*
X13887137Y-5935066D01*
X13891820Y-15356908D02*
X13981820Y-15446908D01*
X13981820Y-15356908D02*
X13891820Y-15446908D01*
X13916689Y-11802389D02*
X14006689Y-11892389D01*
X14006689Y-11802389D02*
X13916689Y-11892389D01*
X13921365Y-14861090D02*
X14011365Y-14951090D01*
X14011365Y-14861090D02*
X13921365Y-14951090D01*
X13934098Y-9072870D02*
X14024098Y-9162870D01*
X14024098Y-9072870D02*
X13934098Y-9162870D01*
X13968000Y-9955016D02*
X14058000Y-10045016D01*
X14058000Y-9955016D02*
X13968000Y-10045016D01*
X13995314Y-7125974D02*
X14085314Y-7215974D01*
X14085314Y-7125974D02*
X13995314Y-7215974D01*
X14039998Y-6047919D02*
X14129998Y-6137919D01*
X14129998Y-6047919D02*
X14039998Y-6137919D01*
X14051375Y-10863163D02*
X14141375Y-10953163D01*
X14141375Y-10863163D02*
X14051375Y-10953163D01*
X14071279Y-8456817D02*
X14161279Y-8546817D01*
X14161279Y-8456817D02*
X14071279Y-8546817D01*
X14092709Y-7801070D02*
X14182709Y-7891070D01*
X14182709Y-7801070D02*
X14092709Y-7891070D01*
X14108231Y-14278124D02*
X14198231Y-14368124D01*
X14198231Y-14278124D02*
X14108231Y-14368124D01*
X14112415Y-12355316D02*
X14202415Y-12445316D01*
X14202415Y-12355316D02*
X14112415Y-12445316D01*
X14118737Y-5248364D02*
X14208737Y-5338364D01*
X14208737Y-5248364D02*
X14118737Y-5338364D01*
X14146890Y-11909735D02*
X14236890Y-11999735D01*
X14236890Y-11909735D02*
X14146890Y-11999735D01*
X14166710Y-14795350D02*
X14256710Y-14885350D01*
X14256710Y-14795350D02*
X14166710Y-14885350D01*
X14180699Y-4721542D02*
X14270699Y-4811542D01*
X14270699Y-4721542D02*
X14180699Y-4811542D01*
X14195116Y-5490608D02*
X14285116Y-5580608D01*
X14285116Y-5490608D02*
X14195116Y-5580608D01*
X14200520Y-13670078D02*
X14290520Y-13760078D01*
X14290520Y-13670078D02*
X14200520Y-13760078D01*
X14222000Y-9955017D02*
X14312000Y-10045017D01*
X14312000Y-9955017D02*
X14222000Y-10045017D01*
X14222781Y-9393156D02*
X14312781Y-9483156D01*
X14312781Y-9393156D02*
X14222781Y-9483156D01*
X14241991Y-13111865D02*
X14331991Y-13201865D01*
X14331991Y-13111865D02*
X14241991Y-13201865D01*
X14246557Y-6516938D02*
X14336557Y-6606938D01*
X14336557Y-6516938D02*
X14246557Y-6606938D01*
X14299354Y-10918140D02*
X14389354Y-11008140D01*
X14389354Y-10918140D02*
X14299354Y-11008140D01*
X14301533Y-6764917D02*
X14391533Y-6854917D01*
X14391533Y-6764917D02*
X14301533Y-6854917D01*
X14332385Y-12482318D02*
X14422385Y-12572318D01*
X14422385Y-12482318D02*
X14332385Y-12572318D01*
X14336525Y-14166778D02*
X14426525Y-14256778D01*
X14426525Y-14166778D02*
X14336525Y-14256778D01*
X14356491Y-7413835D02*
X14446491Y-7503835D01*
X14446491Y-7413835D02*
X14356491Y-7503835D01*
X14375274Y-4884810D02*
X14465274Y-4974810D01*
X14465274Y-4884810D02*
X14375274Y-4974810D01*
X14377181Y-8770105D02*
X14467181Y-8860105D01*
X14467181Y-8770105D02*
X14377181Y-8860105D01*
X14381188Y-11350598D02*
X14471188Y-11440598D01*
X14471188Y-11350598D02*
X14381188Y-11440598D01*
X14387679Y-12903800D02*
X14477679Y-12993800D01*
X14477679Y-12903800D02*
X14387679Y-12993800D01*
X14413840Y-10345120D02*
X14503840Y-10435120D01*
X14503840Y-10345120D02*
X14413840Y-10435120D01*
X14423525Y-8104106D02*
X14513525Y-8194106D01*
X14513525Y-8104106D02*
X14423525Y-8194106D01*
X14426835Y-13554764D02*
X14516835Y-13644764D01*
X14516835Y-13554764D02*
X14426835Y-13644764D01*
X14465717Y-6170124D02*
X14555717Y-6260124D01*
X14555717Y-6170124D02*
X14465717Y-6260124D01*
X14474608Y-9360004D02*
X14564608Y-9450004D01*
X14564608Y-9360004D02*
X14474608Y-9450004D01*
X14576463Y-7286836D02*
X14666463Y-7376836D01*
X14666463Y-7286836D02*
X14576463Y-7376836D01*
X14618732Y-11886815D02*
X14708732Y-11976815D01*
X14708732Y-11886815D02*
X14618732Y-11976815D01*
X14622527Y-8704366D02*
X14712527Y-8794366D01*
X14712527Y-8704366D02*
X14622527Y-8794366D01*
X14623432Y-11426978D02*
X14713432Y-11516978D01*
X14713432Y-11426978D02*
X14623432Y-11516978D01*
X14658191Y-8006906D02*
X14748191Y-8096906D01*
X14748191Y-8006906D02*
X14658191Y-8096906D01*
X14660293Y-6006858D02*
X14750293Y-6096858D01*
X14750293Y-6006858D02*
X14660293Y-6096858D01*
X14665064Y-5474381D02*
X14755064Y-5564381D01*
X14755064Y-5474381D02*
X14665064Y-5564381D01*
X14666873Y-10367259D02*
X14756873Y-10457259D01*
X14756873Y-10367259D02*
X14666873Y-10457259D01*
X14690314Y-9748278D02*
X14780314Y-9838278D01*
X14780314Y-9748278D02*
X14690314Y-9838278D01*
X14702008Y-14477177D02*
X14792008Y-14567177D01*
X14792008Y-14477177D02*
X14702008Y-14567177D01*
X14776885Y-10805258D02*
X14866885Y-10895258D01*
X14866885Y-10805258D02*
X14776885Y-10895258D01*
X14781661Y-6729549D02*
X14871661Y-6819549D01*
X14871661Y-6729549D02*
X14781661Y-6819549D01*
X14794087Y-12612413D02*
X14884087Y-12702413D01*
X14884087Y-12612413D02*
X14794087Y-12702413D01*
X14796161Y-13819272D02*
X14886161Y-13909272D01*
X14886161Y-13819272D02*
X14796161Y-13909272D01*
X14841945Y-13213836D02*
X14931945Y-13303836D01*
X14931945Y-13213836D02*
X14841945Y-13303836D01*
X14853396Y-11984018D02*
X14943396Y-12074018D01*
X14943396Y-11984018D02*
X14853396Y-12074018D01*
X14869370Y-9088495D02*
X14959370Y-9178495D01*
X14959370Y-9088495D02*
X14869370Y-9178495D01*
X14873608Y-14289908D02*
X14963608Y-14379908D01*
X14963608Y-14289908D02*
X14873608Y-14379908D01*
X14883918Y-5603296D02*
X14973918Y-5693296D01*
X14973918Y-5603296D02*
X14883918Y-5693296D01*
X14918136Y-6943771D02*
X15008136Y-7033771D01*
X15008136Y-6943771D02*
X14918136Y-7033771D01*
X14944072Y-9737200D02*
X15034072Y-9827200D01*
X15034072Y-9737200D02*
X14944072Y-9827200D01*
X14962451Y-7479903D02*
X15052451Y-7569903D01*
X15052451Y-7479903D02*
X14962451Y-7569903D01*
X14965687Y-12425145D02*
X15055687Y-12515145D01*
X15055687Y-12425145D02*
X14965687Y-12515145D01*
X15012731Y-13686558D02*
X15102731Y-13776558D01*
X15102731Y-13686558D02*
X15012731Y-13776558D01*
X15027026Y-10849366D02*
X15117026Y-10939366D01*
X15117026Y-10849366D02*
X15027026Y-10939366D01*
X15029213Y-13042236D02*
X15119213Y-13132236D01*
X15119213Y-13042236D02*
X15029213Y-13132236D01*
X15057427Y-8217623D02*
X15147427Y-8307623D01*
X15147427Y-8217623D02*
X15057427Y-8307623D01*
X15068506Y-8471381D02*
X15158506Y-8561381D01*
X15158506Y-8471381D02*
X15068506Y-8561381D01*
X15069796Y-7710105D02*
X15159796Y-7800105D01*
X15159796Y-7710105D02*
X15069796Y-7800105D01*
X15119512Y-9044390D02*
X15209512Y-9134390D01*
X15209512Y-9044390D02*
X15119512Y-9134390D01*
X15139640Y-6190482D02*
X15229640Y-6280482D01*
X15229640Y-6190482D02*
X15139640Y-6280482D01*
X15148855Y-11478208D02*
X15238855Y-11568208D01*
X15238855Y-11478208D02*
X15148855Y-11568208D01*
X15161778Y-6443515D02*
X15251778Y-6533515D01*
X15251778Y-6443515D02*
X15161778Y-6533515D01*
X15193039Y-10309616D02*
X15283039Y-10399616D01*
X15283039Y-10309616D02*
X15193039Y-10399616D01*
X15214595Y-11232863D02*
X15304595Y-11322863D01*
X15304595Y-11232863D02*
X15214595Y-11322863D01*
X15239327Y-10059869D02*
X15329327Y-10149869D01*
X15329327Y-10059869D02*
X15239327Y-10149869D01*
X15260446Y-11886071D02*
X15350446Y-11976071D01*
X15350446Y-11886071D02*
X15260446Y-11976071D01*
X15373886Y-7242225D02*
X15463886Y-7332225D01*
X15463886Y-7242225D02*
X15373886Y-7332225D01*
X15394187Y-12615120D02*
X15484187Y-12705120D01*
X15484187Y-12615120D02*
X15394187Y-12705120D01*
X15405626Y-13926696D02*
X15495626Y-14016696D01*
X15495626Y-13926696D02*
X15405626Y-14016696D01*
X15413319Y-7968385D02*
X15503319Y-8058385D01*
X15503319Y-7968385D02*
X15413319Y-8058385D01*
X15421407Y-9349305D02*
X15511407Y-9439305D01*
X15511407Y-9349305D02*
X15421407Y-9439305D01*
X15433181Y-6995243D02*
X15523181Y-7085243D01*
X15523181Y-6995243D02*
X15433181Y-7085243D01*
X15438812Y-13262802D02*
X15528812Y-13352802D01*
X15528812Y-13262802D02*
X15438812Y-13352802D01*
X15443544Y-9602339D02*
X15533544Y-9692339D01*
X15533544Y-9602339D02*
X15443544Y-9692339D01*
X15495512Y-10808196D02*
X15585512Y-10898196D01*
X15585512Y-10808196D02*
X15495512Y-10898196D01*
X15499128Y-11972946D02*
X15589128Y-12062946D01*
X15589128Y-11972946D02*
X15499128Y-12062946D01*
X15513085Y-8592764D02*
X15603085Y-8682764D01*
X15603085Y-8592764D02*
X15513085Y-8682764D01*
X15551315Y-13718631D02*
X15641315Y-13808631D01*
X15641315Y-13718631D02*
X15551315Y-13808631D01*
X15568060Y-8840743D02*
X15658060Y-8930743D01*
X15658060Y-8840743D02*
X15568060Y-8930743D01*
X15592713Y-10573530D02*
X15682713Y-10663530D01*
X15682713Y-10573530D02*
X15592713Y-10663530D01*
X15597040Y-12462259D02*
X15687040Y-12552259D01*
X15687040Y-12462259D02*
X15597040Y-12552259D01*
X15618417Y-13083197D02*
X15708417Y-13173197D01*
X15708417Y-13083197D02*
X15618417Y-13173197D01*
X15636037Y-6530713D02*
X15726037Y-6620713D01*
X15726037Y-6530713D02*
X15636037Y-6620713D01*
X15652002Y-7881514D02*
X15742002Y-7971514D01*
X15742002Y-7881514D02*
X15652002Y-7971514D01*
X15682844Y-9955046D02*
X15772844Y-10045046D01*
X15772844Y-9955046D02*
X15682844Y-10045046D01*
X15724885Y-11353947D02*
X15814885Y-11443947D01*
X15814885Y-11353947D02*
X15724885Y-11443947D01*
X15799305Y-6725288D02*
X15889305Y-6815288D01*
X15889305Y-6725288D02*
X15799305Y-6815288D01*
X15858350Y-7374446D02*
X15948350Y-7464446D01*
X15948350Y-7374446D02*
X15858350Y-7464446D01*
X15872384Y-11147161D02*
X15962384Y-11237161D01*
X15962384Y-11147161D02*
X15872384Y-11237161D01*
X15919070Y-9280802D02*
X16009070Y-9370802D01*
X16009070Y-9280802D02*
X15919070Y-9370802D01*
X15936844Y-9955048D02*
X16026844Y-10045048D01*
X16026844Y-9955048D02*
X15936844Y-10045048D01*
X15945465Y-11976829D02*
X16035465Y-12066829D01*
X16035465Y-11976829D02*
X15945465Y-12066829D01*
X15975830Y-8455648D02*
X16065830Y-8545648D01*
X16065830Y-8455648D02*
X15975830Y-8545648D01*
X15994824Y-7588667D02*
X16084824Y-7678667D01*
X16084824Y-7588667D02*
X15994824Y-7678667D01*
X16009061Y-11730919D02*
X16099061Y-11820919D01*
X16099061Y-11730919D02*
X16009061Y-11820919D01*
X16016271Y-9046137D02*
X16106271Y-9136137D01*
X16106271Y-9046137D02*
X16016271Y-9136137D01*
X16029138Y-12608528D02*
X16119138Y-12698528D01*
X16119138Y-12608528D02*
X16029138Y-12698528D01*
X16041570Y-8210303D02*
X16131570Y-8300303D01*
X16131570Y-8210303D02*
X16041570Y-8300303D01*
X16054941Y-10602322D02*
X16144941Y-10692322D01*
X16144941Y-10602322D02*
X16054941Y-10692322D01*
X16126340Y-12373863D02*
X16216340Y-12463863D01*
X16216340Y-12373863D02*
X16126340Y-12463863D01*
X16189541Y-10386917D02*
X16279541Y-10476917D01*
X16279541Y-10386917D02*
X16189541Y-10476917D01*
X16315267Y-9551482D02*
X16405267Y-9641482D01*
X16405267Y-9551482D02*
X16315267Y-9641482D01*
X16324195Y-11205498D02*
X16414195Y-11295498D01*
X16414195Y-11205498D02*
X16324195Y-11295498D01*
X16355560Y-8714795D02*
X16445560Y-8804795D01*
X16445560Y-8714795D02*
X16355560Y-8804795D01*
X16361555Y-9801229D02*
X16451555Y-9891229D01*
X16451555Y-9801229D02*
X16361555Y-9891229D01*
X16406890Y-10965336D02*
X16496890Y-11055336D01*
X16496890Y-10965336D02*
X16406890Y-11055336D01*
X16518828Y-8909370D02*
X16608828Y-8999370D01*
X16608828Y-8909370D02*
X16518828Y-8999370D01*
X16542000Y-10652000D02*
X16632000Y-10742000D01*
X16632000Y-10652000D02*
X16542000Y-10742000D01*
X16641770Y-10374142D02*
X16731770Y-10464142D01*
X16731770Y-10374142D02*
X16641770Y-10464142D01*
X16652849Y-10120384D02*
X16742849Y-10210384D01*
X16742849Y-10120384D02*
X16652849Y-10210384D01*
D12*
X3383928Y-17368214D02*
X3383928Y-17068214D01*
X3455357Y-17068214D01*
X3498214Y-17082500D01*
X3526786Y-17111072D01*
X3541071Y-17139643D01*
X3555357Y-17196786D01*
X3555357Y-17239643D01*
X3541071Y-17296786D01*
X3526786Y-17325357D01*
X3498214Y-17353929D01*
X3455357Y-17368214D01*
X3383928Y-17368214D01*
X3683928Y-17368214D02*
X3683928Y-17168214D01*
X3683928Y-17225357D02*
X3698214Y-17196786D01*
X3712500Y-17182500D01*
X3741071Y-17168214D01*
X3769643Y-17168214D01*
X3869643Y-17368214D02*
X3869643Y-17168214D01*
X3869643Y-17068214D02*
X3855357Y-17082500D01*
X3869643Y-17096786D01*
X3883928Y-17082500D01*
X3869643Y-17068214D01*
X3869643Y-17096786D01*
X4055357Y-17368214D02*
X4026786Y-17353929D01*
X4012500Y-17325357D01*
X4012500Y-17068214D01*
X4212500Y-17368214D02*
X4183928Y-17353929D01*
X4169643Y-17325357D01*
X4169643Y-17068214D01*
X4555357Y-17368214D02*
X4555357Y-17068214D01*
X4655357Y-17282500D01*
X4755357Y-17068214D01*
X4755357Y-17368214D01*
X5026786Y-17368214D02*
X5026786Y-17211072D01*
X5012500Y-17182500D01*
X4983928Y-17168214D01*
X4926786Y-17168214D01*
X4898214Y-17182500D01*
X5026786Y-17353929D02*
X4998214Y-17368214D01*
X4926786Y-17368214D01*
X4898214Y-17353929D01*
X4883928Y-17325357D01*
X4883928Y-17296786D01*
X4898214Y-17268214D01*
X4926786Y-17253929D01*
X4998214Y-17253929D01*
X5026786Y-17239643D01*
X5169643Y-17168214D02*
X5169643Y-17468214D01*
X5169643Y-17182500D02*
X5198214Y-17168214D01*
X5255357Y-17168214D01*
X5283928Y-17182500D01*
X5298214Y-17196786D01*
X5312500Y-17225357D01*
X5312500Y-17311072D01*
X5298214Y-17339643D01*
X5283928Y-17353929D01*
X5255357Y-17368214D01*
X5198214Y-17368214D01*
X5169643Y-17353929D01*
X5441071Y-17339643D02*
X5455357Y-17353929D01*
X5441071Y-17368214D01*
X5426786Y-17353929D01*
X5441071Y-17339643D01*
X5441071Y-17368214D01*
X5441071Y-17182500D02*
X5455357Y-17196786D01*
X5441071Y-17211072D01*
X5426786Y-17196786D01*
X5441071Y-17182500D01*
X5441071Y-17211072D01*
X3007500Y-17817500D02*
X3097500Y-17907500D01*
X3097500Y-17817500D02*
X3007500Y-17907500D01*
X3441071Y-17698214D02*
X3469643Y-17698214D01*
X3498214Y-17712500D01*
X3512500Y-17726786D01*
X3526786Y-17755357D01*
X3541071Y-17812500D01*
X3541071Y-17883929D01*
X3526786Y-17941072D01*
X3512500Y-17969643D01*
X3498214Y-17983929D01*
X3469643Y-17998214D01*
X3441071Y-17998214D01*
X3412500Y-17983929D01*
X3398214Y-17969643D01*
X3383928Y-17941072D01*
X3369643Y-17883929D01*
X3369643Y-17812500D01*
X3383928Y-17755357D01*
X3398214Y-17726786D01*
X3412500Y-17712500D01*
X3441071Y-17698214D01*
X3669643Y-17969643D02*
X3683928Y-17983929D01*
X3669643Y-17998214D01*
X3655357Y-17983929D01*
X3669643Y-17969643D01*
X3669643Y-17998214D01*
X3826786Y-17998214D02*
X3883928Y-17998214D01*
X3912500Y-17983929D01*
X3926786Y-17969643D01*
X3955357Y-17926786D01*
X3969643Y-17869643D01*
X3969643Y-17755357D01*
X3955357Y-17726786D01*
X3941071Y-17712500D01*
X3912500Y-17698214D01*
X3855357Y-17698214D01*
X3826786Y-17712500D01*
X3812500Y-17726786D01*
X3798214Y-17755357D01*
X3798214Y-17826786D01*
X3812500Y-17855357D01*
X3826786Y-17869643D01*
X3855357Y-17883929D01*
X3912500Y-17883929D01*
X3941071Y-17869643D01*
X3955357Y-17855357D01*
X3969643Y-17826786D01*
X4155357Y-17698214D02*
X4183928Y-17698214D01*
X4212500Y-17712500D01*
X4226786Y-17726786D01*
X4241071Y-17755357D01*
X4255357Y-17812500D01*
X4255357Y-17883929D01*
X4241071Y-17941072D01*
X4226786Y-17969643D01*
X4212500Y-17983929D01*
X4183928Y-17998214D01*
X4155357Y-17998214D01*
X4126786Y-17983929D01*
X4112500Y-17969643D01*
X4098214Y-17941072D01*
X4083928Y-17883929D01*
X4083928Y-17812500D01*
X4098214Y-17755357D01*
X4112500Y-17726786D01*
X4126786Y-17712500D01*
X4155357Y-17698214D01*
X4383928Y-17998214D02*
X4383928Y-17798214D01*
X4383928Y-17826786D02*
X4398214Y-17812500D01*
X4426786Y-17798214D01*
X4469643Y-17798214D01*
X4498214Y-17812500D01*
X4512500Y-17841072D01*
X4512500Y-17998214D01*
X4512500Y-17841072D02*
X4526786Y-17812500D01*
X4555357Y-17798214D01*
X4598214Y-17798214D01*
X4626786Y-17812500D01*
X4641071Y-17841072D01*
X4641071Y-17998214D01*
X4783928Y-17998214D02*
X4783928Y-17798214D01*
X4783928Y-17826786D02*
X4798214Y-17812500D01*
X4826786Y-17798214D01*
X4869643Y-17798214D01*
X4898214Y-17812500D01*
X4912500Y-17841072D01*
X4912500Y-17998214D01*
X4912500Y-17841072D02*
X4926786Y-17812500D01*
X4955357Y-17798214D01*
X4998214Y-17798214D01*
X5026786Y-17812500D01*
X5041071Y-17841072D01*
X5041071Y-17998214D01*
X5626786Y-17683929D02*
X5369643Y-18069643D01*
X6012500Y-17698214D02*
X6041071Y-17698214D01*
X6069643Y-17712500D01*
X6083928Y-17726786D01*
X6098214Y-17755357D01*
X6112500Y-17812500D01*
X6112500Y-17883929D01*
X6098214Y-17941072D01*
X6083928Y-17969643D01*
X6069643Y-17983929D01*
X6041071Y-17998214D01*
X6012500Y-17998214D01*
X5983928Y-17983929D01*
X5969643Y-17969643D01*
X5955357Y-17941072D01*
X5941071Y-17883929D01*
X5941071Y-17812500D01*
X5955357Y-17755357D01*
X5969643Y-17726786D01*
X5983928Y-17712500D01*
X6012500Y-17698214D01*
X6241071Y-17969643D02*
X6255357Y-17983929D01*
X6241071Y-17998214D01*
X6226786Y-17983929D01*
X6241071Y-17969643D01*
X6241071Y-17998214D01*
X6441071Y-17698214D02*
X6469643Y-17698214D01*
X6498214Y-17712500D01*
X6512500Y-17726786D01*
X6526786Y-17755357D01*
X6541071Y-17812500D01*
X6541071Y-17883929D01*
X6526786Y-17941072D01*
X6512500Y-17969643D01*
X6498214Y-17983929D01*
X6469643Y-17998214D01*
X6441071Y-17998214D01*
X6412500Y-17983929D01*
X6398214Y-17969643D01*
X6383928Y-17941072D01*
X6369643Y-17883929D01*
X6369643Y-17812500D01*
X6383928Y-17755357D01*
X6398214Y-17726786D01*
X6412500Y-17712500D01*
X6441071Y-17698214D01*
X6641071Y-17698214D02*
X6826786Y-17698214D01*
X6726786Y-17812500D01*
X6769643Y-17812500D01*
X6798214Y-17826786D01*
X6812500Y-17841072D01*
X6826786Y-17869643D01*
X6826786Y-17941072D01*
X6812500Y-17969643D01*
X6798214Y-17983929D01*
X6769643Y-17998214D01*
X6683928Y-17998214D01*
X6655357Y-17983929D01*
X6641071Y-17969643D01*
X7098214Y-17698214D02*
X6955357Y-17698214D01*
X6941071Y-17841072D01*
X6955357Y-17826786D01*
X6983928Y-17812500D01*
X7055357Y-17812500D01*
X7083928Y-17826786D01*
X7098214Y-17841072D01*
X7112500Y-17869643D01*
X7112500Y-17941072D01*
X7098214Y-17969643D01*
X7083928Y-17983929D01*
X7055357Y-17998214D01*
X6983928Y-17998214D01*
X6955357Y-17983929D01*
X6941071Y-17969643D01*
X7226786Y-17698214D02*
X7226786Y-17755357D01*
X7341071Y-17698214D02*
X7341071Y-17755357D01*
X7783928Y-18112500D02*
X7769643Y-18098214D01*
X7741071Y-18055357D01*
X7726786Y-18026786D01*
X7712500Y-17983929D01*
X7698214Y-17912500D01*
X7698214Y-17855357D01*
X7712500Y-17783929D01*
X7726786Y-17741072D01*
X7741071Y-17712500D01*
X7769643Y-17669643D01*
X7783928Y-17655357D01*
X7869643Y-17698214D02*
X8069643Y-17698214D01*
X7941071Y-17998214D01*
X8155357Y-17698214D02*
X8355357Y-17698214D01*
X8226786Y-17998214D01*
X8598214Y-17798214D02*
X8598214Y-17998214D01*
X8526786Y-17683929D02*
X8455357Y-17898214D01*
X8641071Y-17898214D01*
X8983928Y-17998214D02*
X8983928Y-17698214D01*
X9112500Y-17998214D02*
X9112500Y-17841072D01*
X9098214Y-17812500D01*
X9069643Y-17798214D01*
X9026786Y-17798214D01*
X8998214Y-17812500D01*
X8983928Y-17826786D01*
X9298214Y-17998214D02*
X9269643Y-17983929D01*
X9255357Y-17969643D01*
X9241071Y-17941072D01*
X9241071Y-17855357D01*
X9255357Y-17826786D01*
X9269643Y-17812500D01*
X9298214Y-17798214D01*
X9341071Y-17798214D01*
X9369643Y-17812500D01*
X9383928Y-17826786D01*
X9398214Y-17855357D01*
X9398214Y-17941072D01*
X9383928Y-17969643D01*
X9369643Y-17983929D01*
X9341071Y-17998214D01*
X9298214Y-17998214D01*
X9569643Y-17998214D02*
X9541071Y-17983929D01*
X9526786Y-17955357D01*
X9526786Y-17698214D01*
X9798214Y-17983929D02*
X9769643Y-17998214D01*
X9712500Y-17998214D01*
X9683928Y-17983929D01*
X9669643Y-17955357D01*
X9669643Y-17841072D01*
X9683928Y-17812500D01*
X9712500Y-17798214D01*
X9769643Y-17798214D01*
X9798214Y-17812500D01*
X9812500Y-17841072D01*
X9812500Y-17869643D01*
X9669643Y-17898214D01*
X9926786Y-17983929D02*
X9955357Y-17998214D01*
X10012500Y-17998214D01*
X10041071Y-17983929D01*
X10055357Y-17955357D01*
X10055357Y-17941072D01*
X10041071Y-17912500D01*
X10012500Y-17898214D01*
X9969643Y-17898214D01*
X9941071Y-17883929D01*
X9926786Y-17855357D01*
X9926786Y-17841072D01*
X9941071Y-17812500D01*
X9969643Y-17798214D01*
X10012500Y-17798214D01*
X10041071Y-17812500D01*
X10155357Y-18112500D02*
X10169643Y-18098214D01*
X10198214Y-18055357D01*
X10212500Y-18026786D01*
X10226786Y-17983929D01*
X10241071Y-17912500D01*
X10241071Y-17855357D01*
X10226786Y-17783929D01*
X10212500Y-17741072D01*
X10198214Y-17712500D01*
X10169643Y-17669643D01*
X10155357Y-17655357D01*
M02*
