G04 #@! TF.GenerationSoftware,KiCad,Pcbnew,5.1.9+dfsg1-1+deb11u1*
G04 #@! TF.CreationDate,2024-07-30T12:34:42+01:00*
G04 #@! TF.ProjectId,sunflower,73756e66-6c6f-4776-9572-2e6b69636164,rev?*
G04 #@! TF.SameCoordinates,Original*
G04 #@! TF.FileFunction,Copper,L1,Top*
G04 #@! TF.FilePolarity,Positive*
%FSLAX46Y46*%
G04 Gerber Fmt 4.6, Leading zero omitted, Abs format (unit mm)*
G04 Created by KiCad (PCBNEW 5.1.9+dfsg1-1+deb11u1) date 2024-07-30 12:34:42*
%MOMM*%
%LPD*%
G01*
G04 APERTURE LIST*
G04 #@! TA.AperFunction,Profile*
%ADD10C,0.050000*%
G04 #@! TD*
G04 #@! TA.AperFunction,ComponentPad*
%ADD11C,1.800000*%
G04 #@! TD*
G04 #@! TA.AperFunction,ComponentPad*
%ADD12R,1.800000X1.800000*%
G04 #@! TD*
G04 #@! TA.AperFunction,ComponentPad*
%ADD13C,0.100000*%
G04 #@! TD*
G04 #@! TA.AperFunction,Conductor*
%ADD14C,0.254000*%
G04 #@! TD*
G04 #@! TA.AperFunction,Conductor*
%ADD15C,0.250000*%
G04 #@! TD*
G04 APERTURE END LIST*
D10*
X169000000Y-100000000D02*
G75*
G03*
X169000000Y-100000000I-69000000J0D01*
G01*
X103370000Y-99951320D02*
G75*
G03*
X103370000Y-99951320I-1500000J0D01*
G01*
D11*
X90040000Y-166640000D03*
D12*
X165870000Y-106970000D03*
D11*
X101410000Y-41470000D03*
X43510000Y-106190000D03*
X36260000Y-95420000D03*
X95660000Y-161810000D03*
G04 #@! TA.AperFunction,ComponentPad*
D13*
G36*
X161228461Y-127711190D02*
G01*
X159565478Y-127022359D01*
X160254309Y-125359376D01*
X161917292Y-126048207D01*
X161228461Y-127711190D01*
G37*
G04 #@! TD.AperFunction*
D11*
X161713401Y-124188629D03*
G04 #@! TA.AperFunction,ComponentPad*
D13*
G36*
X46770823Y-141739315D02*
G01*
X48245297Y-140706877D01*
X49277735Y-142181351D01*
X47803261Y-143213789D01*
X46770823Y-141739315D01*
G37*
G04 #@! TD.AperFunction*
D11*
X49481163Y-144040979D03*
G04 #@! TA.AperFunction,ComponentPad*
D13*
G36*
X154853894Y-73957485D02*
G01*
X153103628Y-73537283D01*
X153523830Y-71787017D01*
X155274096Y-72207219D01*
X154853894Y-73957485D01*
G37*
G04 #@! TD.AperFunction*
D11*
X154781814Y-70402431D03*
G04 #@! TA.AperFunction,ComponentPad*
D13*
G36*
X148114479Y-139880350D02*
G01*
X147173981Y-138345598D01*
X148708733Y-137405100D01*
X149649231Y-138939852D01*
X148114479Y-139880350D01*
G37*
G04 #@! TD.AperFunction*
D11*
X150577312Y-137315579D03*
G04 #@! TA.AperFunction,ComponentPad*
D13*
G36*
X160127772Y-94433931D02*
G01*
X158464789Y-93745100D01*
X159153620Y-92082117D01*
X160816603Y-92770948D01*
X160127772Y-94433931D01*
G37*
G04 #@! TD.AperFunction*
D11*
X160612712Y-90911370D03*
G04 #@! TA.AperFunction,ComponentPad*
D13*
G36*
X89847546Y-159948947D02*
G01*
X90237137Y-158191614D01*
X91994470Y-158581205D01*
X91604879Y-160338538D01*
X89847546Y-159948947D01*
G37*
G04 #@! TD.AperFunction*
D11*
X93400800Y-159814832D03*
G04 #@! TA.AperFunction,ComponentPad*
D13*
G36*
X148446388Y-127845714D02*
G01*
X147119289Y-126629651D01*
X148335352Y-125302552D01*
X149662451Y-126518615D01*
X148446388Y-127845714D01*
G37*
G04 #@! TD.AperFunction*
D11*
X150106870Y-124701449D03*
G04 #@! TA.AperFunction,ComponentPad*
D13*
G36*
X45345355Y-120176700D02*
G01*
X47088021Y-119726016D01*
X47538705Y-121468682D01*
X45796039Y-121919366D01*
X45345355Y-120176700D01*
G37*
G04 #@! TD.AperFunction*
D11*
X47077996Y-123281787D03*
G04 #@! TA.AperFunction,ComponentPad*
D13*
G36*
X47286554Y-80916717D02*
G01*
X48695249Y-82037244D01*
X47574722Y-83445939D01*
X46166027Y-82325412D01*
X47286554Y-80916717D01*
G37*
G04 #@! TD.AperFunction*
D11*
X45849450Y-84169152D03*
G04 #@! TA.AperFunction,ComponentPad*
D13*
G36*
X152073463Y-86023698D02*
G01*
X150275176Y-86102213D01*
X150196661Y-84303926D01*
X151994948Y-84225411D01*
X152073463Y-86023698D01*
G37*
G04 #@! TD.AperFunction*
D11*
X151024268Y-82626230D03*
G04 #@! TA.AperFunction,ComponentPad*
D13*
G36*
X144538791Y-68783045D02*
G01*
X142781458Y-69172636D01*
X142391867Y-67415303D01*
X144149200Y-67025712D01*
X144538791Y-68783045D01*
G37*
G04 #@! TD.AperFunction*
D11*
X142915573Y-65619382D03*
G04 #@! TA.AperFunction,ComponentPad*
D13*
G36*
X99664316Y-98471696D02*
G01*
X98448253Y-99798795D01*
X97121154Y-98582732D01*
X98337217Y-97255633D01*
X99664316Y-98471696D01*
G37*
G04 #@! TD.AperFunction*
D11*
X96520051Y-96811214D03*
G04 #@! TA.AperFunction,ComponentPad*
D13*
G36*
X99339533Y-102777169D02*
G01*
X101132683Y-102620289D01*
X101289563Y-104413439D01*
X99496413Y-104570319D01*
X99339533Y-102777169D01*
G37*
G04 #@! TD.AperFunction*
D11*
X100535924Y-106125638D03*
G04 #@! TA.AperFunction,ComponentPad*
D13*
G36*
X103030706Y-97528720D02*
G01*
X101602670Y-96432950D01*
X102698440Y-95004914D01*
X104126476Y-96100684D01*
X103030706Y-97528720D01*
G37*
G04 #@! TD.AperFunction*
D11*
X104410827Y-94251699D03*
G04 #@! TA.AperFunction,ComponentPad*
D13*
G36*
X95185576Y-99935029D02*
G01*
X95498142Y-101707683D01*
X93725488Y-102020249D01*
X93412922Y-100247595D01*
X95185576Y-99935029D01*
G37*
G04 #@! TD.AperFunction*
D11*
X91954120Y-101418705D03*
G04 #@! TA.AperFunction,ComponentPad*
D13*
G36*
X104192559Y-103738075D02*
G01*
X105159699Y-102219971D01*
X106677803Y-103187111D01*
X105710663Y-104705215D01*
X104192559Y-103738075D01*
G37*
G04 #@! TD.AperFunction*
D11*
X107577395Y-104827335D03*
G04 #@! TA.AperFunction,ComponentPad*
D13*
G36*
X99243759Y-93700334D02*
G01*
X97505093Y-94166208D01*
X97039219Y-92427542D01*
X98777885Y-91961668D01*
X99243759Y-93700334D01*
G37*
G04 #@! TD.AperFunction*
D11*
X97484089Y-90610486D03*
G04 #@! TA.AperFunction,ComponentPad*
D13*
G36*
X95988915Y-105756106D02*
G01*
X97585535Y-106587254D01*
X96754387Y-108183874D01*
X95157767Y-107352726D01*
X95988915Y-105756106D01*
G37*
G04 #@! TD.AperFunction*
D11*
X95198809Y-109222998D03*
G04 #@! TA.AperFunction,ComponentPad*
D13*
G36*
X107438275Y-98250450D02*
G01*
X106822639Y-96559004D01*
X108514085Y-95943368D01*
X109129721Y-97634814D01*
X107438275Y-98250450D01*
G37*
G04 #@! TD.AperFunction*
D11*
X110363000Y-96228179D03*
G04 #@! TA.AperFunction,ComponentPad*
D13*
G36*
X92787082Y-96038156D02*
G01*
X92098251Y-97701139D01*
X90435268Y-97012308D01*
X91124099Y-95349325D01*
X92787082Y-96038156D01*
G37*
G04 #@! TD.AperFunction*
D11*
X89264521Y-95553216D03*
G04 #@! TA.AperFunction,ComponentPad*
D13*
G36*
X102877944Y-108301358D02*
G01*
X104509298Y-107540646D01*
X105270010Y-109172000D01*
X103638656Y-109932712D01*
X102877944Y-108301358D01*
G37*
G04 #@! TD.AperFunction*
D11*
X105147427Y-111038701D03*
G04 #@! TA.AperFunction,ComponentPad*
D13*
G36*
X103646599Y-91427434D02*
G01*
X101929908Y-90886163D01*
X102471179Y-89169472D01*
X104187870Y-89710743D01*
X103646599Y-91427434D01*
G37*
G04 #@! TD.AperFunction*
D11*
X103822683Y-87876013D03*
G04 #@! TA.AperFunction,ComponentPad*
D13*
G36*
X91079273Y-104111149D02*
G01*
X91979273Y-105669995D01*
X90420427Y-106569995D01*
X89520427Y-105011149D01*
X91079273Y-104111149D01*
G37*
G04 #@! TD.AperFunction*
D11*
X88550146Y-106610572D03*
G04 #@! TA.AperFunction,ComponentPad*
D13*
G36*
X109830935Y-103101321D02*
G01*
X110220527Y-101343989D01*
X111977859Y-101733581D01*
X111588267Y-103490913D01*
X109830935Y-103101321D01*
G37*
G04 #@! TD.AperFunction*
D11*
X113384189Y-102967209D03*
G04 #@! TA.AperFunction,ComponentPad*
D13*
G36*
X94577766Y-90687136D02*
G01*
X93103291Y-91719573D01*
X92070854Y-90245098D01*
X93545329Y-89212661D01*
X94577766Y-90687136D01*
G37*
G04 #@! TD.AperFunction*
D11*
X91867426Y-88385471D03*
G04 #@! TA.AperFunction,ComponentPad*
D13*
G36*
X97646874Y-110978571D02*
G01*
X99431474Y-111213519D01*
X99196526Y-112998119D01*
X97411926Y-112763171D01*
X97646874Y-110978571D01*
G37*
G04 #@! TD.AperFunction*
D11*
X98090162Y-114506615D03*
G04 #@! TA.AperFunction,ComponentPad*
D13*
G36*
X109487608Y-93213825D02*
G01*
X108330591Y-91834944D01*
X109709472Y-90677927D01*
X110866489Y-92056808D01*
X109487608Y-93213825D01*
G37*
G04 #@! TD.AperFunction*
D11*
X111544294Y-90313196D03*
G04 #@! TA.AperFunction,ComponentPad*
D13*
G36*
X87996017Y-98575031D02*
G01*
X87917502Y-100373318D01*
X86119215Y-100294803D01*
X86197730Y-98496516D01*
X87996017Y-98575031D01*
G37*
G04 #@! TD.AperFunction*
D11*
X84520034Y-99324123D03*
G04 #@! TA.AperFunction,ComponentPad*
D13*
G36*
X108179178Y-109451978D02*
G01*
X109451971Y-108179187D01*
X110724762Y-109451980D01*
X109451969Y-110724771D01*
X108179178Y-109451978D01*
G37*
G04 #@! TD.AperFunction*
D11*
X111248020Y-111248031D03*
G04 #@! TA.AperFunction,ComponentPad*
D13*
G36*
X100337847Y-87104788D02*
G01*
X98539561Y-87183302D01*
X98461047Y-85385016D01*
X100259333Y-85306502D01*
X100337847Y-87104788D01*
G37*
G04 #@! TD.AperFunction*
D11*
X99288655Y-83707320D03*
G04 #@! TA.AperFunction,ComponentPad*
D13*
G36*
X90787919Y-109578369D02*
G01*
X92166798Y-110735388D01*
X91009779Y-112114267D01*
X89630900Y-110957248D01*
X90787919Y-109578369D01*
G37*
G04 #@! TD.AperFunction*
D11*
X89266167Y-112792070D03*
G04 #@! TA.AperFunction,ComponentPad*
D13*
G36*
X113640670Y-99111946D02*
G01*
X113405724Y-97327346D01*
X115190324Y-97092400D01*
X115425270Y-98877000D01*
X113640670Y-99111946D01*
G37*
G04 #@! TD.AperFunction*
D11*
X116933767Y-97770637D03*
G04 #@! TA.AperFunction,ComponentPad*
D13*
G36*
X89038320Y-91225842D02*
G01*
X88005881Y-92700315D01*
X86531408Y-91667876D01*
X87563847Y-90193403D01*
X89038320Y-91225842D01*
G37*
G04 #@! TD.AperFunction*
D11*
X85704218Y-89989973D03*
G04 #@! TA.AperFunction,ComponentPad*
D13*
G36*
X102232777Y-114229657D02*
G01*
X103990110Y-113840066D01*
X104379701Y-115597399D01*
X102622368Y-115986990D01*
X102232777Y-114229657D01*
G37*
G04 #@! TD.AperFunction*
D11*
X103855995Y-117393320D03*
G04 #@! TA.AperFunction,ComponentPad*
D13*
G36*
X108145170Y-87692170D02*
G01*
X106586325Y-86792169D01*
X107486326Y-85233324D01*
X109045171Y-86133325D01*
X108145170Y-87692170D01*
G37*
G04 #@! TD.AperFunction*
D11*
X109085750Y-84263043D03*
G04 #@! TA.AperFunction,ComponentPad*
D13*
G36*
X85347311Y-103676288D02*
G01*
X85888580Y-105392979D01*
X84171889Y-105934248D01*
X83630620Y-104217557D01*
X85347311Y-103676288D01*
G37*
G04 #@! TD.AperFunction*
D11*
X82337158Y-105569060D03*
G04 #@! TA.AperFunction,ComponentPad*
D13*
G36*
X113596370Y-107333144D02*
G01*
X114357084Y-105701790D01*
X115988438Y-106462504D01*
X115227724Y-108093858D01*
X113596370Y-107333144D01*
G37*
G04 #@! TD.AperFunction*
D11*
X117094424Y-107971276D03*
G04 #@! TA.AperFunction,ComponentPad*
D13*
G36*
X94801665Y-85098264D02*
G01*
X93138682Y-85787093D01*
X92449853Y-84124110D01*
X94112836Y-83435281D01*
X94801665Y-85098264D01*
G37*
G04 #@! TD.AperFunction*
D11*
X92653745Y-82264533D03*
G04 #@! TA.AperFunction,ComponentPad*
D13*
G36*
X93652638Y-114807776D02*
G01*
X95344084Y-115423414D01*
X94728446Y-117114860D01*
X93037000Y-116499222D01*
X93652638Y-114807776D01*
G37*
G04 #@! TD.AperFunction*
D11*
X93321808Y-118348136D03*
G04 #@! TA.AperFunction,ComponentPad*
D13*
G36*
X114970379Y-93221573D02*
G01*
X114139233Y-91624953D01*
X115735853Y-90793807D01*
X116566999Y-92390427D01*
X114970379Y-93221573D01*
G37*
G04 #@! TD.AperFunction*
D11*
X117606124Y-90834850D03*
G04 #@! TA.AperFunction,ComponentPad*
D13*
G36*
X84076453Y-94801535D02*
G01*
X83610577Y-96540201D01*
X81871911Y-96074325D01*
X82337787Y-94335659D01*
X84076453Y-94801535D01*
G37*
G04 #@! TD.AperFunction*
D11*
X80520730Y-94780528D03*
G04 #@! TA.AperFunction,ComponentPad*
D13*
G36*
X108395868Y-114853944D02*
G01*
X109913974Y-113886806D01*
X110881112Y-115404912D01*
X109363006Y-116372050D01*
X108395868Y-114853944D01*
G37*
G04 #@! TD.AperFunction*
D11*
X111003230Y-117271644D03*
G04 #@! TA.AperFunction,ComponentPad*
D13*
G36*
X103898470Y-83073667D02*
G01*
X102125816Y-82761099D01*
X102438384Y-80988445D01*
X104211038Y-81301013D01*
X103898470Y-83073667D01*
G37*
G04 #@! TD.AperFunction*
D11*
X103609495Y-79529644D03*
G04 #@! TA.AperFunction,ComponentPad*
D13*
G36*
X85450417Y-110029842D02*
G01*
X86546186Y-111457879D01*
X85118149Y-112553648D01*
X84022380Y-111125611D01*
X85450417Y-110029842D01*
G37*
G04 #@! TD.AperFunction*
D11*
X83269165Y-112837997D03*
G04 #@! TA.AperFunction,ComponentPad*
D13*
G36*
X117800049Y-102460757D02*
G01*
X117956931Y-100667607D01*
X119750081Y-100824489D01*
X119593199Y-102617639D01*
X117800049Y-102460757D01*
G37*
G04 #@! TD.AperFunction*
D11*
X121305399Y-101864001D03*
G04 #@! TA.AperFunction,ComponentPad*
D13*
G36*
X88340477Y-85943669D02*
G01*
X87013376Y-87159730D01*
X85797315Y-85832629D01*
X87124416Y-84616568D01*
X88340477Y-85943669D01*
G37*
G04 #@! TD.AperFunction*
D11*
X85352898Y-84015463D03*
G04 #@! TA.AperFunction,ComponentPad*
D13*
G36*
X99099981Y-118529999D02*
G01*
X100899981Y-118530001D01*
X100899979Y-120330001D01*
X99099979Y-120329999D01*
X99099981Y-118529999D01*
G37*
G04 #@! TD.AperFunction*
D11*
X99999978Y-121970000D03*
G04 #@! TA.AperFunction,ComponentPad*
D13*
G36*
X113375151Y-86735780D02*
G01*
X112048053Y-85519716D01*
X113264117Y-84192618D01*
X114591215Y-85408682D01*
X113375151Y-86735780D01*
G37*
G04 #@! TD.AperFunction*
D11*
X115035636Y-83591517D03*
G04 #@! TA.AperFunction,ComponentPad*
D13*
G36*
X80897001Y-100767838D02*
G01*
X81053880Y-102560989D01*
X79260729Y-102717868D01*
X79103850Y-100924717D01*
X80897001Y-100767838D01*
G37*
G04 #@! TD.AperFunction*
D11*
X77548531Y-101964225D03*
G04 #@! TA.AperFunction,ComponentPad*
D13*
G36*
X114823515Y-112508935D02*
G01*
X115919287Y-111080901D01*
X117347321Y-112176673D01*
X116251549Y-113604707D01*
X114823515Y-112508935D01*
G37*
G04 #@! TD.AperFunction*
D11*
X118100534Y-113889060D03*
G04 #@! TA.AperFunction,ComponentPad*
D13*
G36*
X97474212Y-80492521D02*
G01*
X95701557Y-80805086D01*
X95388992Y-79032431D01*
X97161647Y-78719866D01*
X97474212Y-80492521D01*
G37*
G04 #@! TD.AperFunction*
D11*
X95990538Y-77261064D03*
G04 #@! TA.AperFunction,ComponentPad*
D13*
G36*
X88537503Y-116317432D02*
G01*
X90055606Y-117284573D01*
X89088465Y-118802676D01*
X87570362Y-117835535D01*
X88537503Y-116317432D01*
G37*
G04 #@! TD.AperFunction*
D11*
X87448240Y-119702266D03*
G04 #@! TA.AperFunction,ComponentPad*
D13*
G36*
X119733590Y-95644174D02*
G01*
X119267717Y-93905507D01*
X121006384Y-93439634D01*
X121472257Y-95178301D01*
X119733590Y-95644174D01*
G37*
G04 #@! TD.AperFunction*
D11*
X122823439Y-93884506D03*
G04 #@! TA.AperFunction,ComponentPad*
D13*
G36*
X82273409Y-89757449D02*
G01*
X81442260Y-91354068D01*
X79845641Y-90522919D01*
X80676790Y-88926300D01*
X82273409Y-89757449D01*
G37*
G04 #@! TD.AperFunction*
D11*
X78806519Y-88967340D03*
G04 #@! TA.AperFunction,ComponentPad*
D13*
G36*
X106239101Y-119773287D02*
G01*
X107930549Y-119157653D01*
X108546183Y-120849101D01*
X106854735Y-121464735D01*
X106239101Y-119773287D01*
G37*
G04 #@! TD.AperFunction*
D11*
X108261370Y-122698014D03*
G04 #@! TA.AperFunction,ComponentPad*
D13*
G36*
X108857652Y-80967620D02*
G01*
X107194670Y-80278788D01*
X107883502Y-78615806D01*
X109546484Y-79304638D01*
X108857652Y-80967620D01*
G37*
G04 #@! TD.AperFunction*
D11*
X109342595Y-77445061D03*
G04 #@! TA.AperFunction,ComponentPad*
D13*
G36*
X80379591Y-108156077D02*
G01*
X81140302Y-109787432D01*
X79508947Y-110548143D01*
X78748236Y-108916788D01*
X80379591Y-108156077D01*
G37*
G04 #@! TD.AperFunction*
D11*
X77642245Y-110425558D03*
G04 #@! TA.AperFunction,ComponentPad*
D13*
G36*
X120217111Y-107318137D02*
G01*
X120758383Y-105601447D01*
X122475073Y-106142719D01*
X121933801Y-107859409D01*
X120217111Y-107318137D01*
G37*
G04 #@! TD.AperFunction*
D11*
X123768532Y-107494224D03*
G04 #@! TA.AperFunction,ComponentPad*
D13*
G36*
X89913298Y-80729262D02*
G01*
X88354451Y-81629259D01*
X87454454Y-80070412D01*
X89013301Y-79170415D01*
X89913298Y-80729262D01*
G37*
G04 #@! TD.AperFunction*
D11*
X87413878Y-78200131D03*
G04 #@! TA.AperFunction,ComponentPad*
D13*
G36*
X94363962Y-121264182D02*
G01*
X96121294Y-121653776D01*
X95731700Y-123411108D01*
X93974368Y-123021514D01*
X94363962Y-121264182D01*
G37*
G04 #@! TD.AperFunction*
D11*
X94498071Y-124817437D03*
G04 #@! TA.AperFunction,ComponentPad*
D13*
G36*
X118722040Y-87989421D02*
G01*
X117689605Y-86514946D01*
X119164080Y-85482511D01*
X120196515Y-86956986D01*
X118722040Y-87989421D01*
G37*
G04 #@! TD.AperFunction*
D11*
X121023708Y-85279084D03*
G04 #@! TA.AperFunction,ComponentPad*
D13*
G36*
X77841767Y-96175015D02*
G01*
X77606817Y-97959615D01*
X75822217Y-97724665D01*
X76057167Y-95940065D01*
X77841767Y-96175015D01*
G37*
G04 #@! TD.AperFunction*
D11*
X74313722Y-96618300D03*
G04 #@! TA.AperFunction,ComponentPad*
D13*
G36*
X113907150Y-117974099D02*
G01*
X115286032Y-116817083D01*
X116443048Y-118195965D01*
X115064166Y-119352981D01*
X113907150Y-117974099D01*
G37*
G04 #@! TD.AperFunction*
D11*
X116807777Y-120030788D03*
G04 #@! TA.AperFunction,ComponentPad*
D13*
G36*
X101900085Y-77114721D02*
G01*
X100101798Y-77036204D01*
X100180315Y-75237917D01*
X101978602Y-75316434D01*
X101900085Y-77114721D01*
G37*
G04 #@! TD.AperFunction*
D11*
X101150996Y-73638737D03*
G04 #@! TA.AperFunction,ComponentPad*
D13*
G36*
X82971276Y-115755883D02*
G01*
X84244066Y-117028677D01*
X82971272Y-118301467D01*
X81698482Y-117028673D01*
X82971276Y-115755883D01*
G37*
G04 #@! TD.AperFunction*
D11*
X81175220Y-118824723D03*
G04 #@! TA.AperFunction,ComponentPad*
D13*
G36*
X123432856Y-99877794D02*
G01*
X123354343Y-98079507D01*
X125152630Y-98000994D01*
X125231143Y-99799281D01*
X123432856Y-99877794D01*
G37*
G04 #@! TD.AperFunction*
D11*
X126830325Y-98828604D03*
G04 #@! TA.AperFunction,ComponentPad*
D13*
G36*
X82463547Y-84110254D02*
G01*
X81306527Y-85489132D01*
X79927649Y-84332112D01*
X81084669Y-82953234D01*
X82463547Y-84110254D01*
G37*
G04 #@! TD.AperFunction*
D11*
X79249848Y-82588499D03*
G04 #@! TA.AperFunction,ComponentPad*
D13*
G36*
X102224226Y-123790136D02*
G01*
X104008827Y-123555191D01*
X104243772Y-125339792D01*
X102459171Y-125574737D01*
X102224226Y-123790136D01*
G37*
G04 #@! TD.AperFunction*
D11*
X103565531Y-127083234D03*
G04 #@! TA.AperFunction,ComponentPad*
D13*
G36*
X114562993Y-80771060D02*
G01*
X113088521Y-79738620D01*
X114120961Y-78264148D01*
X115595433Y-79296588D01*
X114562993Y-80771060D01*
G37*
G04 #@! TD.AperFunction*
D11*
X115798865Y-77436960D03*
G04 #@! TA.AperFunction,ComponentPad*
D13*
G36*
X76051961Y-104387260D02*
G01*
X76441549Y-106144594D01*
X74684215Y-106534182D01*
X74294627Y-104776848D01*
X76051961Y-104387260D01*
G37*
G04 #@! TD.AperFunction*
D11*
X72888296Y-106010473D03*
G04 #@! TA.AperFunction,ComponentPad*
D13*
G36*
X120814007Y-113056250D02*
G01*
X121714009Y-111497406D01*
X123272853Y-112397408D01*
X122372851Y-113956252D01*
X120814007Y-113056250D01*
G37*
G04 #@! TD.AperFunction*
D11*
X124243132Y-113996833D03*
G04 #@! TA.AperFunction,ComponentPad*
D13*
G36*
X93408290Y-76100671D02*
G01*
X91691599Y-76641938D01*
X91150332Y-74925247D01*
X92867023Y-74383980D01*
X93408290Y-76100671D01*
G37*
G04 #@! TD.AperFunction*
D11*
X91515523Y-73090517D03*
G04 #@! TA.AperFunction,ComponentPad*
D13*
G36*
X88620802Y-122273084D02*
G01*
X90252155Y-123033799D01*
X89491440Y-124665152D01*
X87860087Y-123904437D01*
X88620802Y-122273084D01*
G37*
G04 #@! TD.AperFunction*
D11*
X87982667Y-125771138D03*
G04 #@! TA.AperFunction,ComponentPad*
D13*
G36*
X123638691Y-91182735D02*
G01*
X122949864Y-89519750D01*
X124612849Y-88830923D01*
X125301676Y-90493908D01*
X123638691Y-91182735D01*
G37*
G04 #@! TD.AperFunction*
D11*
X126472426Y-89034817D03*
G04 #@! TA.AperFunction,ComponentPad*
D13*
G36*
X76411452Y-90456663D02*
G01*
X75795813Y-92148108D01*
X74104368Y-91532469D01*
X74720007Y-89841024D01*
X76411452Y-90456663D01*
G37*
G04 #@! TD.AperFunction*
D11*
X72871092Y-90125830D03*
G04 #@! TA.AperFunction,ComponentPad*
D13*
G36*
X111043094Y-123162800D02*
G01*
X112639715Y-122331655D01*
X113470860Y-123928276D01*
X111874239Y-124759421D01*
X111043094Y-123162800D01*
G37*
G04 #@! TD.AperFunction*
D11*
X113429815Y-125798548D03*
G04 #@! TA.AperFunction,ComponentPad*
D13*
G36*
X107561905Y-75256107D02*
G01*
X105823239Y-74790229D01*
X106289117Y-73051563D01*
X108027783Y-73517441D01*
X107561905Y-75256107D01*
G37*
G04 #@! TD.AperFunction*
D11*
X107582915Y-71700385D03*
G04 #@! TA.AperFunction,ComponentPad*
D13*
G36*
X77529640Y-113248021D02*
G01*
X78496776Y-114766127D01*
X76978670Y-115733263D01*
X76011534Y-114215157D01*
X77529640Y-113248021D01*
G37*
G04 #@! TD.AperFunction*
D11*
X75111939Y-115855378D03*
G04 #@! TA.AperFunction,ComponentPad*
D13*
G36*
X125723892Y-105449751D02*
G01*
X126036462Y-103677097D01*
X127809116Y-103989667D01*
X127496546Y-105762321D01*
X125723892Y-105449751D01*
G37*
G04 #@! TD.AperFunction*
D11*
X129267914Y-105160781D03*
G04 #@! TA.AperFunction,ComponentPad*
D13*
G36*
X84589277Y-78437859D02*
G01*
X83161239Y-79533627D01*
X82065471Y-78105589D01*
X83493509Y-77009821D01*
X84589277Y-78437859D01*
G37*
G04 #@! TD.AperFunction*
D11*
X81781124Y-76256604D03*
G04 #@! TA.AperFunction,ComponentPad*
D13*
G36*
X96776770Y-126514743D02*
G01*
X98569920Y-126671627D01*
X98413036Y-128464777D01*
X96619886Y-128307893D01*
X96776770Y-126514743D01*
G37*
G04 #@! TD.AperFunction*
D11*
X97373523Y-130020094D03*
G04 #@! TA.AperFunction,ComponentPad*
D13*
G36*
X120440986Y-82490068D02*
G01*
X119224926Y-81162966D01*
X120552028Y-79946906D01*
X121768088Y-81274008D01*
X120440986Y-82490068D01*
G37*
G04 #@! TD.AperFunction*
D11*
X122369195Y-79502491D03*
G04 #@! TA.AperFunction,ComponentPad*
D13*
G36*
X72895781Y-99099946D02*
G01*
X72895777Y-100899946D01*
X71095777Y-100899942D01*
X71095781Y-99099942D01*
X72895781Y-99099946D01*
G37*
G04 #@! TD.AperFunction*
D11*
X69455779Y-99999938D03*
G04 #@! TA.AperFunction,ComponentPad*
D13*
G36*
X119524625Y-119111805D02*
G01*
X120740690Y-117784708D01*
X122067787Y-119000773D01*
X120851722Y-120327870D01*
X119524625Y-119111805D01*
G37*
G04 #@! TD.AperFunction*
D11*
X122668886Y-120772291D03*
G04 #@! TA.AperFunction,ComponentPad*
D13*
G36*
X98499150Y-72518210D02*
G01*
X96705999Y-72675087D01*
X96549122Y-70881936D01*
X98342273Y-70725059D01*
X98499150Y-72518210D01*
G37*
G04 #@! TD.AperFunction*
D11*
X97302766Y-69169739D03*
G04 #@! TA.AperFunction,ComponentPad*
D13*
G36*
X82418451Y-121434214D02*
G01*
X83846485Y-122529988D01*
X82750711Y-123958022D01*
X81322677Y-122862248D01*
X82418451Y-121434214D01*
G37*
G04 #@! TD.AperFunction*
D11*
X81038323Y-124711232D03*
G04 #@! TA.AperFunction,ComponentPad*
D13*
G36*
X127638734Y-96040490D02*
G01*
X127326171Y-94267835D01*
X129098826Y-93955272D01*
X129411389Y-95727927D01*
X127638734Y-96040490D01*
G37*
G04 #@! TD.AperFunction*
D11*
X130870192Y-94556819D03*
G04 #@! TA.AperFunction,ComponentPad*
D13*
G36*
X76781246Y-84140830D02*
G01*
X75814103Y-85658933D01*
X74296000Y-84691790D01*
X75263143Y-83173687D01*
X76781246Y-84140830D01*
G37*
G04 #@! TD.AperFunction*
D11*
X73396411Y-83051564D03*
G04 #@! TA.AperFunction,ComponentPad*
D13*
G36*
X106455075Y-127568241D02*
G01*
X108193743Y-127102371D01*
X108659613Y-128841039D01*
X106920945Y-129306909D01*
X106455075Y-127568241D01*
G37*
G04 #@! TD.AperFunction*
D11*
X108214740Y-130658094D03*
G04 #@! TA.AperFunction,ComponentPad*
D13*
G36*
X113955554Y-75140877D02*
G01*
X112358937Y-74309726D01*
X113190088Y-72713109D01*
X114786705Y-73544260D01*
X113955554Y-75140877D01*
G37*
G04 #@! TD.AperFunction*
D11*
X114745667Y-71673989D03*
G04 #@! TA.AperFunction,ComponentPad*
D13*
G36*
X72734507Y-108966000D02*
G01*
X73350139Y-110657448D01*
X71658691Y-111273080D01*
X71043059Y-109581632D01*
X72734507Y-108966000D01*
G37*
G04 #@! TD.AperFunction*
D11*
X69809777Y-110988266D03*
G04 #@! TA.AperFunction,ComponentPad*
D13*
G36*
X126337199Y-111883448D02*
G01*
X127026033Y-110220466D01*
X128689015Y-110909300D01*
X128000181Y-112572282D01*
X126337199Y-111883448D01*
G37*
G04 #@! TD.AperFunction*
D11*
X129859759Y-112368396D03*
G04 #@! TA.AperFunction,ComponentPad*
D13*
G36*
X88529769Y-73272272D02*
G01*
X86898414Y-74032981D01*
X86137705Y-72401626D01*
X87769060Y-71640917D01*
X88529769Y-73272272D01*
G37*
G04 #@! TD.AperFunction*
D11*
X86260291Y-70534925D03*
G04 #@! TA.AperFunction,ComponentPad*
D13*
G36*
X90342640Y-127636050D02*
G01*
X92059329Y-128177325D01*
X91518054Y-129894014D01*
X89801365Y-129352739D01*
X90342640Y-127636050D01*
G37*
G04 #@! TD.AperFunction*
D11*
X90166549Y-131187472D03*
G04 #@! TA.AperFunction,ComponentPad*
D13*
G36*
X125954283Y-86054597D02*
G01*
X125054287Y-84495749D01*
X126613135Y-83595753D01*
X127513131Y-85154601D01*
X125954283Y-86054597D01*
G37*
G04 #@! TD.AperFunction*
D11*
X128483417Y-83555181D03*
G04 #@! TA.AperFunction,ComponentPad*
D13*
G36*
X71259910Y-92706552D02*
G01*
X70870314Y-94463884D01*
X69112982Y-94074288D01*
X69502578Y-92316956D01*
X71259910Y-92706552D01*
G37*
G04 #@! TD.AperFunction*
D11*
X67706656Y-92840658D03*
G04 #@! TA.AperFunction,ComponentPad*
D13*
G36*
X116369037Y-124946635D02*
G01*
X117843513Y-123914201D01*
X118875947Y-125388677D01*
X117401471Y-126421111D01*
X116369037Y-124946635D01*
G37*
G04 #@! TD.AperFunction*
D11*
X119079372Y-127248306D03*
G04 #@! TA.AperFunction,ComponentPad*
D13*
G36*
X104809393Y-70364763D02*
G01*
X103024793Y-70129811D01*
X103259745Y-68345211D01*
X105044345Y-68580163D01*
X104809393Y-70364763D01*
G37*
G04 #@! TD.AperFunction*
D11*
X104366111Y-66836717D03*
G04 #@! TA.AperFunction,ComponentPad*
D13*
G36*
X76291599Y-118718746D02*
G01*
X77448614Y-120097629D01*
X76069731Y-121254644D01*
X74912716Y-119875761D01*
X76291599Y-118718746D01*
G37*
G04 #@! TD.AperFunction*
D11*
X74234909Y-121619371D03*
G04 #@! TA.AperFunction,ComponentPad*
D13*
G36*
X130309060Y-102224255D02*
G01*
X130387579Y-100425968D01*
X132185866Y-100504487D01*
X132107347Y-102302774D01*
X130309060Y-102224255D01*
G37*
G04 #@! TD.AperFunction*
D11*
X133785045Y-101475171D03*
G04 #@! TA.AperFunction,ComponentPad*
D13*
G36*
X79027570Y-77754669D02*
G01*
X77754775Y-79027458D01*
X76481986Y-77754663D01*
X77754781Y-76481874D01*
X79027570Y-77754669D01*
G37*
G04 #@! TD.AperFunction*
D11*
X75958732Y-75958610D03*
G04 #@! TA.AperFunction,ComponentPad*
D13*
G36*
X100441678Y-130750903D02*
G01*
X102239965Y-130672392D01*
X102318476Y-132470679D01*
X100520189Y-132549190D01*
X100441678Y-130750903D01*
G37*
G04 #@! TD.AperFunction*
D11*
X101490863Y-134148373D03*
G04 #@! TA.AperFunction,ComponentPad*
D13*
G36*
X120565288Y-76891519D02*
G01*
X119186411Y-75734498D01*
X120343432Y-74355621D01*
X121722309Y-75512642D01*
X120565288Y-76891519D01*
G37*
G04 #@! TD.AperFunction*
D11*
X122087046Y-73677822D03*
G04 #@! TA.AperFunction,ComponentPad*
D13*
G36*
X69047992Y-103167061D02*
G01*
X69282935Y-104951662D01*
X67498334Y-105186605D01*
X67263391Y-103402004D01*
X69047992Y-103167061D01*
G37*
G04 #@! TD.AperFunction*
D11*
X65754893Y-104508363D03*
G04 #@! TA.AperFunction,ComponentPad*
D13*
G36*
X125105982Y-118678195D02*
G01*
X126138423Y-117203724D01*
X127612894Y-118236165D01*
X126580453Y-119710636D01*
X125105982Y-118678195D01*
G37*
G04 #@! TD.AperFunction*
D11*
X128440080Y-119914070D03*
G04 #@! TA.AperFunction,ComponentPad*
D13*
G36*
X94070328Y-69094392D02*
G01*
X92312994Y-69483978D01*
X91923408Y-67726644D01*
X93680742Y-67337058D01*
X94070328Y-69094392D01*
G37*
G04 #@! TD.AperFunction*
D11*
X92447118Y-65930724D03*
G04 #@! TA.AperFunction,ComponentPad*
D13*
G36*
X83404025Y-126944900D02*
G01*
X84962869Y-127844904D01*
X84062865Y-129403748D01*
X82504021Y-128503744D01*
X83404025Y-126944900D01*
G37*
G04 #@! TD.AperFunction*
D11*
X82463439Y-130374026D03*
G04 #@! TA.AperFunction,ComponentPad*
D13*
G36*
X130607021Y-91293410D02*
G01*
X130065755Y-89576718D01*
X131782447Y-89035452D01*
X132323713Y-90752144D01*
X130607021Y-91293410D01*
G37*
G04 #@! TD.AperFunction*
D11*
X133617178Y-89400645D03*
G04 #@! TA.AperFunction,ComponentPad*
D13*
G36*
X71393720Y-85667536D02*
G01*
X70633002Y-87298888D01*
X69001650Y-86538170D01*
X69762368Y-84906818D01*
X71393720Y-85667536D01*
G37*
G04 #@! TD.AperFunction*
D11*
X67895667Y-85029397D03*
G04 #@! TA.AperFunction,ComponentPad*
D13*
G36*
X111474402Y-130053703D02*
G01*
X113137387Y-129364878D01*
X113826212Y-131027863D01*
X112163227Y-131716688D01*
X111474402Y-130053703D01*
G37*
G04 #@! TD.AperFunction*
D11*
X113622317Y-132887439D03*
G04 #@! TA.AperFunction,ComponentPad*
D13*
G36*
X111903318Y-69927589D02*
G01*
X110211873Y-69311948D01*
X110827514Y-67620503D01*
X112518959Y-68236144D01*
X111903318Y-69927589D01*
G37*
G04 #@! TD.AperFunction*
D11*
X112234154Y-66387230D03*
G04 #@! TA.AperFunction,ComponentPad*
D13*
G36*
X70754696Y-114209394D02*
G01*
X71585839Y-115806015D01*
X69989218Y-116637158D01*
X69158075Y-115040537D01*
X70754696Y-114209394D01*
G37*
G04 #@! TD.AperFunction*
D11*
X68118947Y-116596112D03*
G04 #@! TA.AperFunction,ComponentPad*
D13*
G36*
X131327013Y-109325892D02*
G01*
X131792892Y-107587227D01*
X133531557Y-108053106D01*
X133065678Y-109791771D01*
X131327013Y-109325892D01*
G37*
G04 #@! TD.AperFunction*
D11*
X134882735Y-109346907D03*
G04 #@! TA.AperFunction,ComponentPad*
D13*
G36*
X83112239Y-71816306D02*
G01*
X81594132Y-72783441D01*
X80626997Y-71265334D01*
X82145104Y-70298199D01*
X83112239Y-71816306D01*
G37*
G04 #@! TD.AperFunction*
D11*
X80504884Y-69398602D03*
G04 #@! TA.AperFunction,ComponentPad*
D13*
G36*
X93380891Y-132355388D02*
G01*
X95153544Y-132667959D01*
X94840973Y-134440612D01*
X93068320Y-134128041D01*
X93380891Y-132355388D01*
G37*
G04 #@! TD.AperFunction*
D11*
X93669858Y-135899410D03*
G04 #@! TA.AperFunction,ComponentPad*
D13*
G36*
X126872978Y-80514187D02*
G01*
X125777211Y-79086148D01*
X127205250Y-77990381D01*
X128301017Y-79418420D01*
X126872978Y-80514187D01*
G37*
G04 #@! TD.AperFunction*
D11*
X129054236Y-77706036D03*
G04 #@! TA.AperFunction,ComponentPad*
D13*
G36*
X66855434Y-96196690D02*
G01*
X66698548Y-97989840D01*
X64905398Y-97832954D01*
X65062284Y-96039804D01*
X66855434Y-96196690D01*
G37*
G04 #@! TD.AperFunction*
D11*
X63350082Y-96793438D03*
G04 #@! TA.AperFunction,ComponentPad*
D13*
G36*
X121980183Y-125319478D02*
G01*
X123307286Y-124103419D01*
X124523345Y-125430522D01*
X123196242Y-126646581D01*
X121980183Y-125319478D01*
G37*
G04 #@! TD.AperFunction*
D11*
X124967758Y-127247690D03*
G04 #@! TA.AperFunction,ComponentPad*
D13*
G36*
X100900101Y-66316551D02*
G01*
X99100101Y-66316545D01*
X99100107Y-64516545D01*
X100900107Y-64516551D01*
X100900101Y-66316551D01*
G37*
G04 #@! TD.AperFunction*
D11*
X100000112Y-62876548D03*
G04 #@! TA.AperFunction,ComponentPad*
D13*
G36*
X76468284Y-124348040D02*
G01*
X77795380Y-125564106D01*
X76579314Y-126891202D01*
X75252218Y-125675136D01*
X76468284Y-124348040D01*
G37*
G04 #@! TD.AperFunction*
D11*
X74807795Y-127492301D03*
G04 #@! TA.AperFunction,ComponentPad*
D13*
G36*
X133962918Y-97932173D02*
G01*
X133806043Y-96139022D01*
X135599194Y-95982147D01*
X135756069Y-97775298D01*
X133962918Y-97932173D01*
G37*
G04 #@! TD.AperFunction*
D11*
X137311392Y-96735792D03*
G04 #@! TA.AperFunction,ComponentPad*
D13*
G36*
X73432717Y-78479648D02*
G01*
X72336942Y-79907681D01*
X70908909Y-78811906D01*
X72004684Y-77383873D01*
X73432717Y-78479648D01*
G37*
G04 #@! TD.AperFunction*
D11*
X70155701Y-77099517D03*
G04 #@! TA.AperFunction,ComponentPad*
D13*
G36*
X105076883Y-133975944D02*
G01*
X106849538Y-133663383D01*
X107162099Y-135436038D01*
X105389444Y-135748599D01*
X105076883Y-133975944D01*
G37*
G04 #@! TD.AperFunction*
D11*
X106560549Y-137207405D03*
G04 #@! TA.AperFunction,ComponentPad*
D13*
G36*
X119298130Y-71383250D02*
G01*
X117780028Y-70416106D01*
X118747172Y-68898004D01*
X120265274Y-69865148D01*
X119298130Y-71383250D01*
G37*
G04 #@! TD.AperFunction*
D11*
X120387399Y-67998417D03*
G04 #@! TA.AperFunction,ComponentPad*
D13*
G36*
X66282330Y-108102760D02*
G01*
X66748198Y-109841428D01*
X65009530Y-110307296D01*
X64543662Y-108568628D01*
X66282330Y-108102760D01*
G37*
G04 #@! TD.AperFunction*
D11*
X63192476Y-109862420D03*
G04 #@! TA.AperFunction,ComponentPad*
D13*
G36*
X130476412Y-116879786D02*
G01*
X131307565Y-115283169D01*
X132904182Y-116114322D01*
X132073029Y-117710939D01*
X130476412Y-116879786D01*
G37*
G04 #@! TD.AperFunction*
D11*
X133943301Y-117669902D03*
G04 #@! TA.AperFunction,ComponentPad*
D13*
G36*
X88879355Y-66814521D02*
G01*
X87187906Y-67430152D01*
X86572275Y-65738703D01*
X88263724Y-65123072D01*
X88879355Y-66814521D01*
G37*
G04 #@! TD.AperFunction*
D11*
X86857091Y-63889790D03*
G04 #@! TA.AperFunction,ComponentPad*
D13*
G36*
X85718054Y-132127554D02*
G01*
X87381035Y-132816389D01*
X86692200Y-134479370D01*
X85029219Y-133790535D01*
X85718054Y-132127554D01*
G37*
G04 #@! TD.AperFunction*
D11*
X85233103Y-135650112D03*
G04 #@! TA.AperFunction,ComponentPad*
D13*
G36*
X132379042Y-85894572D02*
G01*
X131618335Y-84263215D01*
X133249692Y-83502508D01*
X134010399Y-85133865D01*
X132379042Y-85894572D01*
G37*
G04 #@! TD.AperFunction*
D11*
X135116393Y-83625098D03*
G04 #@! TA.AperFunction,ComponentPad*
D13*
G36*
X66447047Y-88476995D02*
G01*
X65905771Y-90193683D01*
X64189083Y-89652407D01*
X64730359Y-87935719D01*
X66447047Y-88476995D01*
G37*
G04 #@! TD.AperFunction*
D11*
X62895627Y-88300901D03*
G04 #@! TA.AperFunction,ComponentPad*
D13*
G36*
X117031901Y-131300356D02*
G01*
X118590750Y-130400361D01*
X119490745Y-131959210D01*
X117931896Y-132859205D01*
X117031901Y-131300356D01*
G37*
G04 #@! TD.AperFunction*
D11*
X119531315Y-133829491D03*
G04 #@! TA.AperFunction,ComponentPad*
D13*
G36*
X108622994Y-65262953D02*
G01*
X106865663Y-64873356D01*
X107255260Y-63116025D01*
X109012591Y-63505622D01*
X108622994Y-65262953D01*
G37*
G04 #@! TD.AperFunction*
D11*
X108488891Y-61709699D03*
G04 #@! TA.AperFunction,ComponentPad*
D13*
G36*
X70046260Y-119874988D02*
G01*
X71078693Y-121349465D01*
X69604216Y-122381898D01*
X68571783Y-120907421D01*
X70046260Y-119874988D01*
G37*
G04 #@! TD.AperFunction*
D11*
X67744586Y-122585321D03*
G04 #@! TA.AperFunction,ComponentPad*
D13*
G36*
X135666083Y-105603419D02*
G01*
X135901037Y-103818819D01*
X137685637Y-104053773D01*
X137450683Y-105838373D01*
X135666083Y-105603419D01*
G37*
G04 #@! TD.AperFunction*
D11*
X139194128Y-105160142D03*
G04 #@! TA.AperFunction,ComponentPad*
D13*
G36*
X77390046Y-71654160D02*
G01*
X76011162Y-72811172D01*
X74854150Y-71432288D01*
X76233034Y-70275276D01*
X77390046Y-71654160D01*
G37*
G04 #@! TD.AperFunction*
D11*
X74489424Y-69597466D03*
G04 #@! TA.AperFunction,ComponentPad*
D13*
G36*
X97512889Y-136328260D02*
G01*
X99311176Y-136406781D01*
X99232655Y-138205068D01*
X97434368Y-138126547D01*
X97512889Y-136328260D01*
G37*
G04 #@! TD.AperFunction*
D11*
X98261970Y-139804246D03*
G04 #@! TA.AperFunction,ComponentPad*
D13*
G36*
X126485589Y-74787384D02*
G01*
X125212801Y-73514588D01*
X126485597Y-72241800D01*
X127758385Y-73514596D01*
X126485589Y-74787384D01*
G37*
G04 #@! TD.AperFunction*
D11*
X128281651Y-71718548D03*
G04 #@! TA.AperFunction,ComponentPad*
D13*
G36*
X63286153Y-100701973D02*
G01*
X63364662Y-102500260D01*
X61566375Y-102578769D01*
X61487866Y-100780482D01*
X63286153Y-100701973D01*
G37*
G04 #@! TD.AperFunction*
D11*
X59888682Y-101751155D03*
G04 #@! TA.AperFunction,ComponentPad*
D13*
G36*
X127659559Y-124384165D02*
G01*
X128816581Y-123005289D01*
X130195457Y-124162311D01*
X129038435Y-125541187D01*
X127659559Y-124384165D01*
G37*
G04 #@! TD.AperFunction*
D11*
X130873256Y-125905926D03*
G04 #@! TA.AperFunction,ComponentPad*
D13*
G36*
X96061076Y-63184709D02*
G01*
X94276475Y-63419650D01*
X94041534Y-61635049D01*
X95826135Y-61400108D01*
X96061076Y-63184709D01*
G37*
G04 #@! TD.AperFunction*
D11*
X94719777Y-59891607D03*
G04 #@! TA.AperFunction,ComponentPad*
D13*
G36*
X77945083Y-129928350D02*
G01*
X79419552Y-130960793D01*
X78387109Y-132435262D01*
X76912640Y-131402819D01*
X77945083Y-129928350D01*
G37*
G04 #@! TD.AperFunction*
D11*
X76709204Y-133262446D03*
G04 #@! TA.AperFunction,ComponentPad*
D13*
G36*
X136627313Y-92801912D02*
G01*
X136237728Y-91044577D01*
X137995063Y-90654992D01*
X138384648Y-92412327D01*
X136627313Y-92801912D01*
G37*
G04 #@! TD.AperFunction*
D11*
X139790982Y-91178704D03*
G04 #@! TA.AperFunction,ComponentPad*
D13*
G36*
X68002280Y-80486718D02*
G01*
X67102274Y-82045560D01*
X65543432Y-81145554D01*
X66443438Y-79586712D01*
X68002280Y-80486718D01*
G37*
G04 #@! TD.AperFunction*
D11*
X64573156Y-79546128D03*
G04 #@! TA.AperFunction,ComponentPad*
D13*
G36*
X110453273Y-136146970D02*
G01*
X112169965Y-135605706D01*
X112711229Y-137322398D01*
X110994537Y-137863662D01*
X110453273Y-136146970D01*
G37*
G04 #@! TD.AperFunction*
D11*
X112346035Y-139157128D03*
G04 #@! TA.AperFunction,ComponentPad*
D13*
G36*
X116776675Y-66152222D02*
G01*
X115145324Y-65391503D01*
X115906043Y-63760152D01*
X117537394Y-64520871D01*
X116776675Y-66152222D01*
G37*
G04 #@! TD.AperFunction*
D11*
X117414817Y-62654169D03*
G04 #@! TA.AperFunction,ComponentPad*
D13*
G36*
X64626292Y-113677961D02*
G01*
X65315116Y-115340947D01*
X63652130Y-116029771D01*
X62963306Y-114366785D01*
X64626292Y-113677961D01*
G37*
G04 #@! TD.AperFunction*
D11*
X61792553Y-115825874D03*
G04 #@! TA.AperFunction,ComponentPad*
D13*
G36*
X135460183Y-113864365D02*
G01*
X136075826Y-112172920D01*
X137767271Y-112788563D01*
X137151628Y-114480008D01*
X135460183Y-113864365D01*
G37*
G04 #@! TD.AperFunction*
D11*
X139000543Y-114195204D03*
G04 #@! TA.AperFunction,ComponentPad*
D13*
G36*
X83154465Y-65690601D02*
G01*
X81557842Y-66521742D01*
X80726701Y-64925119D01*
X82323324Y-64093978D01*
X83154465Y-65690601D01*
G37*
G04 #@! TD.AperFunction*
D11*
X80767751Y-63054848D03*
G04 #@! TA.AperFunction,ComponentPad*
D13*
G36*
X89202660Y-136818316D02*
G01*
X90941325Y-137284197D01*
X90475444Y-139022862D01*
X88736779Y-138556981D01*
X89202660Y-136818316D01*
G37*
G04 #@! TD.AperFunction*
D11*
X89181642Y-140374039D03*
G04 #@! TA.AperFunction,ComponentPad*
D13*
G36*
X132958351Y-80070512D02*
G01*
X131991217Y-78552404D01*
X133509325Y-77585270D01*
X134476459Y-79103378D01*
X132958351Y-80070512D01*
G37*
G04 #@! TD.AperFunction*
D11*
X135376058Y-77463159D03*
G04 #@! TA.AperFunction,ComponentPad*
D13*
G36*
X62092557Y-92401857D02*
G01*
X61779984Y-94174510D01*
X60007331Y-93861937D01*
X60319904Y-92089284D01*
X62092557Y-92401857D01*
G37*
G04 #@! TD.AperFunction*
D11*
X58548534Y-92690821D03*
G04 #@! TA.AperFunction,ComponentPad*
D13*
G36*
X122903659Y-131327292D02*
G01*
X124331700Y-130231527D01*
X125427465Y-131659568D01*
X123999424Y-132755333D01*
X122903659Y-131327292D01*
G37*
G04 #@! TD.AperFunction*
D11*
X125711808Y-133508554D03*
G04 #@! TA.AperFunction,ComponentPad*
D13*
G36*
X104290703Y-61285147D02*
G01*
X102497553Y-61128259D01*
X102654441Y-59335109D01*
X104447591Y-59491997D01*
X104290703Y-61285147D01*
G37*
G04 #@! TD.AperFunction*
D11*
X103693958Y-57779794D03*
G04 #@! TA.AperFunction,ComponentPad*
D13*
G36*
X70574644Y-125742451D02*
G01*
X71790702Y-127069555D01*
X70463598Y-128285613D01*
X69247540Y-126958509D01*
X70574644Y-125742451D01*
G37*
G04 #@! TD.AperFunction*
D11*
X68646429Y-128730024D03*
G04 #@! TA.AperFunction,ComponentPad*
D13*
G36*
X139229996Y-100900157D02*
G01*
X139230004Y-99100157D01*
X141030004Y-99100165D01*
X141029996Y-100900165D01*
X139229996Y-100900157D01*
G37*
G04 #@! TD.AperFunction*
D11*
X142670000Y-100000171D03*
G04 #@! TA.AperFunction,ComponentPad*
D13*
G36*
X71578952Y-72735983D02*
G01*
X70362884Y-74063077D01*
X69035790Y-72847009D01*
X70251858Y-71519915D01*
X71578952Y-72735983D01*
G37*
G04 #@! TD.AperFunction*
D11*
X68434693Y-71075490D03*
G04 #@! TA.AperFunction,ComponentPad*
D13*
G36*
X102547354Y-139444587D02*
G01*
X104340505Y-139287714D01*
X104497378Y-141080865D01*
X102704227Y-141237738D01*
X102547354Y-139444587D01*
G37*
G04 #@! TD.AperFunction*
D11*
X103743732Y-142793062D03*
G04 #@! TA.AperFunction,ComponentPad*
D13*
G36*
X124857031Y-69084366D02*
G01*
X123428999Y-67988590D01*
X124524775Y-66560558D01*
X125952807Y-67656334D01*
X124857031Y-69084366D01*
G37*
G04 #@! TD.AperFunction*
D11*
X126237165Y-65807350D03*
G04 #@! TA.AperFunction,ComponentPad*
D13*
G36*
X60647298Y-106024893D02*
G01*
X60959857Y-107797548D01*
X59187202Y-108110107D01*
X58874643Y-106337452D01*
X60647298Y-106024893D01*
G37*
G04 #@! TD.AperFunction*
D11*
X57415836Y-107508556D03*
G04 #@! TA.AperFunction,ComponentPad*
D13*
G36*
X133203600Y-122220342D02*
G01*
X134170746Y-120702242D01*
X135688846Y-121669388D01*
X134721700Y-123187488D01*
X133203600Y-122220342D01*
G37*
G04 #@! TD.AperFunction*
D11*
X136588431Y-123309615D03*
G04 #@! TA.AperFunction,ComponentPad*
D13*
G36*
X90495072Y-61049144D02*
G01*
X88756403Y-61515011D01*
X88290536Y-59776342D01*
X90029205Y-59310475D01*
X90495072Y-61049144D01*
G37*
G04 #@! TD.AperFunction*
D11*
X88735414Y-57959289D03*
G04 #@! TA.AperFunction,ComponentPad*
D13*
G36*
X80628022Y-135263743D02*
G01*
X82224638Y-136094897D01*
X81393484Y-137691513D01*
X79796868Y-136860359D01*
X80628022Y-135263743D01*
G37*
G04 #@! TD.AperFunction*
D11*
X79837903Y-138730630D03*
G04 #@! TA.AperFunction,ComponentPad*
D13*
G36*
X138238056Y-87040429D02*
G01*
X137622427Y-85348980D01*
X139313876Y-84733351D01*
X139929505Y-86424800D01*
X138238056Y-87040429D01*
G37*
G04 #@! TD.AperFunction*
D11*
X141162788Y-85018168D03*
G04 #@! TA.AperFunction,ComponentPad*
D13*
G36*
X62923536Y-83668086D02*
G01*
X62234698Y-85331066D01*
X60571718Y-84642228D01*
X61260556Y-82979248D01*
X62923536Y-83668086D01*
G37*
G04 #@! TD.AperFunction*
D11*
X59400977Y-83183131D03*
G04 #@! TA.AperFunction,ComponentPad*
D13*
G36*
X116360795Y-137215833D02*
G01*
X117992153Y-136455127D01*
X118752859Y-138086485D01*
X117121501Y-138847191D01*
X116360795Y-137215833D01*
G37*
G04 #@! TD.AperFunction*
D11*
X118630267Y-139953185D03*
G04 #@! TA.AperFunction,ComponentPad*
D13*
G36*
X113121942Y-61376061D02*
G01*
X111405254Y-60834783D01*
X111946532Y-59118095D01*
X113663220Y-59659373D01*
X113121942Y-61376061D01*
G37*
G04 #@! TD.AperFunction*
D11*
X113298041Y-57824640D03*
G04 #@! TA.AperFunction,ComponentPad*
D13*
G36*
X64111733Y-119680665D02*
G01*
X65011726Y-121239514D01*
X63452877Y-122139507D01*
X62552884Y-120580658D01*
X64111733Y-119680665D01*
G37*
G04 #@! TD.AperFunction*
D11*
X61582595Y-122180076D03*
G04 #@! TA.AperFunction,ComponentPad*
D13*
G36*
X139890290Y-109765500D02*
G01*
X140279889Y-108008169D01*
X142037220Y-108397768D01*
X141647621Y-110155099D01*
X139890290Y-109765500D01*
G37*
G04 #@! TD.AperFunction*
D11*
X143443545Y-109631402D03*
G04 #@! TA.AperFunction,ComponentPad*
D13*
G36*
X77108432Y-65738034D02*
G01*
X75633953Y-66770465D01*
X74601522Y-65295986D01*
X76076001Y-64263555D01*
X77108432Y-65738034D01*
G37*
G04 #@! TD.AperFunction*
D11*
X74398103Y-63436358D03*
G04 #@! TA.AperFunction,ComponentPad*
D13*
G36*
X93712500Y-140861736D02*
G01*
X95497099Y-141096691D01*
X95262144Y-142881290D01*
X93477545Y-142646335D01*
X93712500Y-140861736D01*
G37*
G04 #@! TD.AperFunction*
D11*
X94155774Y-144389781D03*
G04 #@! TA.AperFunction,ComponentPad*
D13*
G36*
X132346052Y-74033547D02*
G01*
X131189041Y-72654662D01*
X132567926Y-71497651D01*
X133724937Y-72876536D01*
X132346052Y-74033547D01*
G37*
G04 #@! TD.AperFunction*
D11*
X134402749Y-71132927D03*
G04 #@! TA.AperFunction,ComponentPad*
D13*
G36*
X58473277Y-97285859D02*
G01*
X58394754Y-99084146D01*
X56596467Y-99005623D01*
X56674990Y-97207336D01*
X58473277Y-97285859D01*
G37*
G04 #@! TD.AperFunction*
D11*
X54997290Y-98034937D03*
G04 #@! TA.AperFunction,ComponentPad*
D13*
G36*
X128879046Y-130152104D02*
G01*
X130151844Y-128879318D01*
X131424630Y-130152116D01*
X130151832Y-131424902D01*
X128879046Y-130152104D01*
G37*
G04 #@! TD.AperFunction*
D11*
X131947882Y-131948170D03*
G04 #@! TA.AperFunction,ComponentPad*
D13*
G36*
X99072700Y-58123944D02*
G01*
X97274413Y-58202451D01*
X97195906Y-56404164D01*
X98994193Y-56325657D01*
X99072700Y-58123944D01*
G37*
G04 #@! TD.AperFunction*
D11*
X98023521Y-54726472D03*
G04 #@! TA.AperFunction,ComponentPad*
D13*
G36*
X72305907Y-131604084D02*
G01*
X73684781Y-132761108D01*
X72527757Y-134139982D01*
X71148883Y-132982958D01*
X72305907Y-131604084D01*
G37*
G04 #@! TD.AperFunction*
D11*
X70784142Y-134817779D03*
G04 #@! TA.AperFunction,ComponentPad*
D13*
G36*
X141902982Y-95391329D02*
G01*
X141668043Y-93606728D01*
X143452644Y-93371789D01*
X143687583Y-95156390D01*
X141902982Y-95391329D01*
G37*
G04 #@! TD.AperFunction*
D11*
X145196085Y-94050035D03*
G04 #@! TA.AperFunction,ComponentPad*
D13*
G36*
X65882472Y-75011713D02*
G01*
X64850027Y-76486182D01*
X63375558Y-75453737D01*
X64408003Y-73979268D01*
X65882472Y-75011713D01*
G37*
G04 #@! TD.AperFunction*
D11*
X62548375Y-73775831D03*
G04 #@! TA.AperFunction,ComponentPad*
D13*
G36*
X108301171Y-141603283D02*
G01*
X110058506Y-141213700D01*
X110448089Y-142971035D01*
X108690754Y-143360618D01*
X108301171Y-141603283D01*
G37*
G04 #@! TD.AperFunction*
D11*
X109924376Y-144766953D03*
G04 #@! TA.AperFunction,ComponentPad*
D13*
G36*
X122053149Y-63603224D02*
G01*
X120494308Y-62703217D01*
X121394315Y-61144376D01*
X122953156Y-62044383D01*
X122053149Y-63603224D01*
G37*
G04 #@! TD.AperFunction*
D11*
X122993742Y-60174102D03*
G04 #@! TA.AperFunction,ComponentPad*
D13*
G36*
X59024668Y-111975584D02*
G01*
X59565931Y-113692277D01*
X57849238Y-114233540D01*
X57307975Y-112516847D01*
X59024668Y-111975584D01*
G37*
G04 #@! TD.AperFunction*
D11*
X56014509Y-113868344D03*
G04 #@! TA.AperFunction,ComponentPad*
D13*
G36*
X138420853Y-118909202D02*
G01*
X139181574Y-117277851D01*
X140812925Y-118038572D01*
X140052204Y-119669923D01*
X138420853Y-118909202D01*
G37*
G04 #@! TD.AperFunction*
D11*
X141918905Y-119547349D03*
G04 #@! TA.AperFunction,ComponentPad*
D13*
G36*
X84397494Y-59979869D02*
G01*
X82734508Y-60668691D01*
X82045686Y-59005705D01*
X83708672Y-58316883D01*
X84397494Y-59979869D01*
G37*
G04 #@! TD.AperFunction*
D11*
X82249586Y-57146129D03*
G04 #@! TA.AperFunction,ComponentPad*
D13*
G36*
X84421112Y-140170612D02*
G01*
X86112556Y-140786256D01*
X85496912Y-142477700D01*
X83805468Y-141862056D01*
X84421112Y-140170612D01*
G37*
G04 #@! TD.AperFunction*
D11*
X84090270Y-143710972D03*
G04 #@! TA.AperFunction,ComponentPad*
D13*
G36*
X138741333Y-80847417D02*
G01*
X137910193Y-79250793D01*
X139506817Y-78419653D01*
X140337957Y-80016277D01*
X138741333Y-80847417D01*
G37*
G04 #@! TD.AperFunction*
D11*
X141377089Y-78460705D03*
G04 #@! TA.AperFunction,ComponentPad*
D13*
G36*
X58371097Y-87913602D02*
G01*
X57905215Y-89652266D01*
X56166551Y-89186384D01*
X56632433Y-87447720D01*
X58371097Y-87913602D01*
G37*
G04 #@! TD.AperFunction*
D11*
X54815376Y-87892581D03*
G04 #@! TA.AperFunction,ComponentPad*
D13*
G36*
X122596756Y-137145240D02*
G01*
X124114866Y-136178108D01*
X125081998Y-137696218D01*
X123563888Y-138663350D01*
X122596756Y-137145240D01*
G37*
G04 #@! TD.AperFunction*
D11*
X125204107Y-139562949D03*
G04 #@! TA.AperFunction,ComponentPad*
D13*
G36*
X108457497Y-57219276D02*
G01*
X106684845Y-56906700D01*
X106997421Y-55134048D01*
X108770073Y-55446624D01*
X108457497Y-57219276D01*
G37*
G04 #@! TD.AperFunction*
D11*
X108168537Y-53675252D03*
G04 #@! TA.AperFunction,ComponentPad*
D13*
G36*
X64759229Y-125906498D02*
G01*
X65854992Y-127334539D01*
X64426951Y-128430302D01*
X63331188Y-127002261D01*
X64759229Y-125906498D01*
G37*
G04 #@! TD.AperFunction*
D11*
X62577964Y-128714644D03*
G04 #@! TA.AperFunction,ComponentPad*
D13*
G36*
X143613382Y-104719333D02*
G01*
X143770271Y-102926184D01*
X145563420Y-103083073D01*
X145406531Y-104876222D01*
X143613382Y-104719333D01*
G37*
G04 #@! TD.AperFunction*
D11*
X147118735Y-104122591D03*
G04 #@! TA.AperFunction,ComponentPad*
D13*
G36*
X70945952Y-66960576D02*
G01*
X69618846Y-68176632D01*
X68402790Y-66849526D01*
X69729896Y-65633470D01*
X70945952Y-66960576D01*
G37*
G04 #@! TD.AperFunction*
D11*
X67958381Y-65032357D03*
G04 #@! TA.AperFunction,ComponentPad*
D13*
G36*
X99099778Y-144116602D02*
G01*
X100899778Y-144116612D01*
X100899768Y-145916612D01*
X99099768Y-145916602D01*
X99099778Y-144116602D01*
G37*
G04 #@! TD.AperFunction*
D11*
X99999761Y-147556607D03*
G04 #@! TA.AperFunction,ComponentPad*
D13*
G36*
X130555202Y-67987348D02*
G01*
X129228109Y-66771279D01*
X130444178Y-65444186D01*
X131771271Y-66660255D01*
X130555202Y-67987348D01*
G37*
G04 #@! TD.AperFunction*
D11*
X132215698Y-64843091D03*
G04 #@! TA.AperFunction,ComponentPad*
D13*
G36*
X55717353Y-102970566D02*
G01*
X55874224Y-104763717D01*
X54081073Y-104920588D01*
X53924202Y-103127437D01*
X55717353Y-102970566D01*
G37*
G04 #@! TD.AperFunction*
D11*
X52368877Y-104166939D03*
G04 #@! TA.AperFunction,ComponentPad*
D13*
G36*
X134756779Y-127804527D02*
G01*
X135852557Y-126376497D01*
X137280587Y-127472275D01*
X136184809Y-128900305D01*
X134756779Y-127804527D01*
G37*
G04 #@! TD.AperFunction*
D11*
X138033793Y-129184665D03*
G04 #@! TA.AperFunction,ComponentPad*
D13*
G36*
X93136970Y-55893605D02*
G01*
X91364314Y-56206163D01*
X91051756Y-54433507D01*
X92824412Y-54120949D01*
X93136970Y-55893605D01*
G37*
G04 #@! TD.AperFunction*
D11*
X91653309Y-52662142D03*
G04 #@! TA.AperFunction,ComponentPad*
D13*
G36*
X75193872Y-137262348D02*
G01*
X76711971Y-138229495D01*
X75744824Y-139747594D01*
X74226725Y-138780447D01*
X75193872Y-137262348D01*
G37*
G04 #@! TD.AperFunction*
D11*
X74104596Y-140647179D03*
G04 #@! TA.AperFunction,ComponentPad*
D13*
G36*
X143585411Y-89253314D02*
G01*
X143119546Y-87514645D01*
X144858215Y-87048780D01*
X145324080Y-88787449D01*
X143585411Y-89253314D01*
G37*
G04 #@! TD.AperFunction*
D11*
X146675269Y-87493659D03*
G04 #@! TA.AperFunction,ComponentPad*
D13*
G36*
X60493068Y-78419084D02*
G01*
X59661912Y-80015700D01*
X58065296Y-79184544D01*
X58896452Y-77587928D01*
X60493068Y-78419084D01*
G37*
G04 #@! TD.AperFunction*
D11*
X57026180Y-77628960D03*
G04 #@! TA.AperFunction,ComponentPad*
D13*
G36*
X114590795Y-142719997D02*
G01*
X116282245Y-142104369D01*
X116897873Y-143795819D01*
X115206423Y-144411447D01*
X114590795Y-142719997D01*
G37*
G04 #@! TD.AperFunction*
D11*
X116613052Y-145644732D03*
G04 #@! TA.AperFunction,ComponentPad*
D13*
G36*
X118151832Y-58530038D02*
G01*
X116488853Y-57841199D01*
X117177692Y-56178220D01*
X118840671Y-56867059D01*
X118151832Y-58530038D01*
G37*
G04 #@! TD.AperFunction*
D11*
X118636790Y-55007481D03*
G04 #@! TA.AperFunction,ComponentPad*
D13*
G36*
X58486796Y-118364619D02*
G01*
X59247500Y-119995977D01*
X57616142Y-120756681D01*
X56855438Y-119125323D01*
X58486796Y-118364619D01*
G37*
G04 #@! TD.AperFunction*
D11*
X55749441Y-120634088D03*
G04 #@! TA.AperFunction,ComponentPad*
D13*
G36*
X143132897Y-114543681D02*
G01*
X143674177Y-112826993D01*
X145390865Y-113368273D01*
X144849585Y-115084961D01*
X143132897Y-114543681D01*
G37*
G04 #@! TD.AperFunction*
D11*
X146684317Y-114719783D03*
G04 #@! TA.AperFunction,ComponentPad*
D13*
G36*
X77962336Y-60029157D02*
G01*
X76403486Y-60929149D01*
X75503494Y-59370299D01*
X77062344Y-58470307D01*
X77962336Y-60029157D01*
G37*
G04 #@! TD.AperFunction*
D11*
X75462927Y-57500016D03*
G04 #@! TA.AperFunction,ComponentPad*
D13*
G36*
X89217048Y-144479409D02*
G01*
X90974379Y-144869010D01*
X90584778Y-146626341D01*
X88827447Y-146236740D01*
X89217048Y-144479409D01*
G37*
G04 #@! TD.AperFunction*
D11*
X89351143Y-148032663D03*
G04 #@! TA.AperFunction,ComponentPad*
D13*
G36*
X138101461Y-74420069D02*
G01*
X137069032Y-72945590D01*
X138543511Y-71913161D01*
X139575940Y-73387640D01*
X138101461Y-74420069D01*
G37*
G04 #@! TD.AperFunction*
D11*
X140403140Y-71709743D03*
G04 #@! TA.AperFunction,ComponentPad*
D13*
G36*
X54504476Y-93102382D02*
G01*
X54269519Y-94886981D01*
X52484920Y-94652024D01*
X52719877Y-92867425D01*
X54504476Y-93102382D01*
G37*
G04 #@! TD.AperFunction*
D11*
X50976430Y-93545653D03*
G04 #@! TA.AperFunction,ComponentPad*
D13*
G36*
X128962156Y-135916298D02*
G01*
X130341042Y-134759288D01*
X131498052Y-136138174D01*
X130119166Y-137295184D01*
X128962156Y-135916298D01*
G37*
G04 #@! TD.AperFunction*
D11*
X131862774Y-137972998D03*
G04 #@! TA.AperFunction,ComponentPad*
D13*
G36*
X102916927Y-53830239D02*
G01*
X101118640Y-53751714D01*
X101197165Y-51953427D01*
X102995452Y-52031952D01*
X102916927Y-53830239D01*
G37*
G04 #@! TD.AperFunction*
D11*
X102167854Y-50354251D03*
G04 #@! TA.AperFunction,ComponentPad*
D13*
G36*
X66570782Y-132156064D02*
G01*
X67843567Y-133428863D01*
X66570768Y-134701648D01*
X65297983Y-133428849D01*
X66570782Y-132156064D01*
G37*
G04 #@! TD.AperFunction*
D11*
X64774713Y-135224898D03*
G04 #@! TA.AperFunction,ComponentPad*
D13*
G36*
X146493247Y-98871177D02*
G01*
X146414742Y-97072890D01*
X148213029Y-96994385D01*
X148291534Y-98792672D01*
X146493247Y-98871177D01*
G37*
G04 #@! TD.AperFunction*
D11*
X149890722Y-97822001D03*
G04 #@! TA.AperFunction,ComponentPad*
D13*
G36*
X64865406Y-69343369D02*
G01*
X63708381Y-70722242D01*
X62329508Y-69565217D01*
X63486533Y-68186344D01*
X64865406Y-69343369D01*
G37*
G04 #@! TD.AperFunction*
D11*
X61651713Y-67821601D03*
G04 #@! TA.AperFunction,ComponentPad*
D13*
G36*
X105208519Y-146459809D02*
G01*
X106993121Y-146224871D01*
X107228059Y-148009473D01*
X105443457Y-148244411D01*
X105208519Y-146459809D01*
G37*
G04 #@! TD.AperFunction*
D11*
X106549811Y-149752913D03*
G04 #@! TA.AperFunction,ComponentPad*
D13*
G36*
X127617372Y-62127868D02*
G01*
X126142904Y-61095422D01*
X127175350Y-59620954D01*
X128649818Y-60653400D01*
X127617372Y-62127868D01*
G37*
G04 #@! TD.AperFunction*
D11*
X128853257Y-58793773D03*
G04 #@! TA.AperFunction,ComponentPad*
D13*
G36*
X53933948Y-109290474D02*
G01*
X54323529Y-111047809D01*
X52566194Y-111437390D01*
X52176613Y-109680055D01*
X53933948Y-109290474D01*
G37*
G04 #@! TD.AperFunction*
D11*
X50770277Y-110913674D03*
G04 #@! TA.AperFunction,ComponentPad*
D13*
G36*
X140344729Y-124332581D02*
G01*
X141244738Y-122773740D01*
X142803579Y-123673749D01*
X141903570Y-125232590D01*
X140344729Y-124332581D01*
G37*
G04 #@! TD.AperFunction*
D11*
X143773852Y-125273177D03*
G04 #@! TA.AperFunction,ComponentPad*
D13*
G36*
X86657327Y-54688591D02*
G01*
X84940634Y-55229852D01*
X84399373Y-53513159D01*
X86116066Y-52971898D01*
X86657327Y-54688591D01*
G37*
G04 #@! TD.AperFunction*
D11*
X84764572Y-51678429D03*
G04 #@! TA.AperFunction,ComponentPad*
D13*
G36*
X79174449Y-142530311D02*
G01*
X80805799Y-143291033D01*
X80045077Y-144922383D01*
X78413727Y-144161661D01*
X79174449Y-142530311D01*
G37*
G04 #@! TD.AperFunction*
D11*
X78536299Y-146028363D03*
G04 #@! TA.AperFunction,ComponentPad*
D13*
G36*
X144198172Y-82666968D02*
G01*
X143509351Y-81003981D01*
X145172338Y-80315160D01*
X145861159Y-81978147D01*
X144198172Y-82666968D01*
G37*
G04 #@! TD.AperFunction*
D11*
X147031915Y-80519062D03*
G04 #@! TA.AperFunction,ComponentPad*
D13*
G36*
X55591134Y-82878440D02*
G01*
X54975488Y-84569884D01*
X53284044Y-83954238D01*
X53899690Y-82262794D01*
X55591134Y-82878440D01*
G37*
G04 #@! TD.AperFunction*
D11*
X52050775Y-82547593D03*
G04 #@! TA.AperFunction,ComponentPad*
D13*
G36*
X121229654Y-142731500D02*
G01*
X122826278Y-141900362D01*
X123657416Y-143496986D01*
X122060792Y-144328124D01*
X121229654Y-142731500D01*
G37*
G04 #@! TD.AperFunction*
D11*
X123616363Y-145367257D03*
G04 #@! TA.AperFunction,ComponentPad*
D13*
G36*
X113247689Y-54037371D02*
G01*
X111509025Y-53571487D01*
X111974909Y-51832823D01*
X113713573Y-52298707D01*
X113247689Y-54037371D01*
G37*
G04 #@! TD.AperFunction*
D11*
X113268713Y-50481649D03*
G04 #@! TA.AperFunction,ComponentPad*
D13*
G36*
X59080601Y-125001077D02*
G01*
X60047731Y-126519187D01*
X58529621Y-127486317D01*
X57562491Y-125968207D01*
X59080601Y-125001077D01*
G37*
G04 #@! TD.AperFunction*
D11*
X56662889Y-127608425D03*
G04 #@! TA.AperFunction,ComponentPad*
D13*
G36*
X147176238Y-109232616D02*
G01*
X147488816Y-107459964D01*
X149261468Y-107772542D01*
X148948890Y-109545194D01*
X147176238Y-109232616D01*
G37*
G04 #@! TD.AperFunction*
D11*
X150720263Y-108943661D03*
G04 #@! TA.AperFunction,ComponentPad*
D13*
G36*
X71383458Y-61227313D02*
G01*
X69955416Y-62323075D01*
X68859654Y-60895033D01*
X70287696Y-59799271D01*
X71383458Y-61227313D01*
G37*
G04 #@! TD.AperFunction*
D11*
X68575314Y-59046047D03*
G04 #@! TA.AperFunction,ComponentPad*
D13*
G36*
X94893589Y-148036885D02*
G01*
X96686738Y-148193776D01*
X96529847Y-149986925D01*
X94736698Y-149830034D01*
X94893589Y-148036885D01*
G37*
G04 #@! TD.AperFunction*
D11*
X95490328Y-151542239D03*
G04 #@! TA.AperFunction,ComponentPad*
D13*
G36*
X136304929Y-67953763D02*
G01*
X135088875Y-66626657D01*
X136415981Y-65410603D01*
X137632035Y-66737709D01*
X136304929Y-67953763D01*
G37*
G04 #@! TD.AperFunction*
D11*
X138233149Y-64966195D03*
G04 #@! TA.AperFunction,ComponentPad*
D13*
G36*
X51465567Y-99099707D02*
G01*
X51465557Y-100899707D01*
X49665557Y-100899697D01*
X49665567Y-99099697D01*
X51465567Y-99099707D01*
G37*
G04 #@! TD.AperFunction*
D11*
X48025562Y-99999686D03*
G04 #@! TA.AperFunction,ComponentPad*
D13*
G36*
X135261542Y-133532358D02*
G01*
X136477612Y-132205266D01*
X137804704Y-133421336D01*
X136588634Y-134748428D01*
X135261542Y-133532358D01*
G37*
G04 #@! TD.AperFunction*
D11*
X138405797Y-135192857D03*
G04 #@! TA.AperFunction,ComponentPad*
D13*
G36*
X96646404Y-51338479D02*
G01*
X94853253Y-51495348D01*
X94696384Y-49702197D01*
X96489535Y-49545328D01*
X96646404Y-51338479D01*
G37*
G04 #@! TD.AperFunction*
D11*
X95450034Y-47990002D03*
G04 #@! TA.AperFunction,ComponentPad*
D13*
G36*
X69526240Y-138235275D02*
G01*
X70954269Y-139331054D01*
X69858490Y-140759083D01*
X68430461Y-139663304D01*
X69526240Y-138235275D01*
G37*
G04 #@! TD.AperFunction*
D11*
X68146099Y-141512287D03*
G04 #@! TA.AperFunction,ComponentPad*
D13*
G36*
X148413653Y-92377557D02*
G01*
X148101097Y-90604901D01*
X149873753Y-90292345D01*
X150186309Y-92065001D01*
X148413653Y-92377557D01*
G37*
G04 #@! TD.AperFunction*
D11*
X151645117Y-90893899D03*
G04 #@! TA.AperFunction,ComponentPad*
D13*
G36*
X59058090Y-72849646D02*
G01*
X58090941Y-74367745D01*
X56572842Y-73400596D01*
X57539991Y-71882497D01*
X59058090Y-72849646D01*
G37*
G04 #@! TD.AperFunction*
D11*
X55673260Y-71760367D03*
G04 #@! TA.AperFunction,ComponentPad*
D13*
G36*
X111873027Y-147789250D02*
G01*
X113611696Y-147323387D01*
X114077559Y-149062056D01*
X112338890Y-149527919D01*
X111873027Y-147789250D01*
G37*
G04 #@! TD.AperFunction*
D11*
X113632679Y-150879109D03*
G04 #@! TA.AperFunction,ComponentPad*
D13*
G36*
X123585636Y-56642191D02*
G01*
X121989022Y-55811033D01*
X122820180Y-54214419D01*
X124416794Y-55045577D01*
X123585636Y-56642191D01*
G37*
G04 #@! TD.AperFunction*
D11*
X124375764Y-53175305D03*
G04 #@! TA.AperFunction,ComponentPad*
D13*
G36*
X53210305Y-116071967D02*
G01*
X53825931Y-117763417D01*
X52134481Y-118379043D01*
X51518855Y-116687593D01*
X53210305Y-116071967D01*
G37*
G04 #@! TD.AperFunction*
D11*
X50285569Y-118094221D03*
G04 #@! TA.AperFunction,ComponentPad*
D13*
G36*
X145461407Y-119805222D02*
G01*
X146150248Y-118142243D01*
X147813227Y-118831084D01*
X147124386Y-120494063D01*
X145461407Y-119805222D01*
G37*
G04 #@! TD.AperFunction*
D11*
X148983965Y-120290183D03*
G04 #@! TA.AperFunction,ComponentPad*
D13*
G36*
X79814003Y-54580666D02*
G01*
X78182644Y-55341369D01*
X77421941Y-53710010D01*
X79053300Y-52949307D01*
X79814003Y-54580666D01*
G37*
G04 #@! TD.AperFunction*
D11*
X77544536Y-51843310D03*
G04 #@! TA.AperFunction,ComponentPad*
D13*
G36*
X84163352Y-147233421D02*
G01*
X85880039Y-147774702D01*
X85338758Y-149491389D01*
X83622071Y-148950108D01*
X84163352Y-147233421D01*
G37*
G04 #@! TD.AperFunction*
D11*
X83987247Y-150784841D03*
G04 #@! TA.AperFunction,ComponentPad*
D13*
G36*
X143685483Y-75817772D02*
G01*
X142785493Y-74258920D01*
X144344345Y-73358930D01*
X145244335Y-74917782D01*
X143685483Y-75817772D01*
G37*
G04 #@! TD.AperFunction*
D11*
X146214626Y-73318365D03*
G04 #@! TA.AperFunction,ComponentPad*
D13*
G36*
X51342996Y-88290822D02*
G01*
X50953394Y-90048152D01*
X49196064Y-89658550D01*
X49585666Y-87901220D01*
X51342996Y-88290822D01*
G37*
G04 #@! TD.AperFunction*
D11*
X47789742Y-88424914D03*
G04 #@! TA.AperFunction,ComponentPad*
D13*
G36*
X128028411Y-141598381D02*
G01*
X129502891Y-140565953D01*
X130535319Y-142040433D01*
X129060839Y-143072861D01*
X128028411Y-141598381D01*
G37*
G04 #@! TD.AperFunction*
D11*
X130738735Y-143900063D03*
G04 #@! TA.AperFunction,ComponentPad*
D13*
G36*
X107453580Y-50282089D02*
G01*
X105668981Y-50047130D01*
X105903940Y-48262531D01*
X107688539Y-48497490D01*
X107453580Y-50282089D01*
G37*
G04 #@! TD.AperFunction*
D11*
X107010312Y-46754042D03*
G04 #@! TA.AperFunction,ComponentPad*
D13*
G36*
X60828860Y-131693197D02*
G01*
X61985869Y-133072084D01*
X60606982Y-134229093D01*
X59449973Y-132850206D01*
X60828860Y-131693197D01*
G37*
G04 #@! TD.AperFunction*
D11*
X58772157Y-134593813D03*
G04 #@! TA.AperFunction,ComponentPad*
D13*
G36*
X153101305Y-104595100D02*
G01*
X151331447Y-104267076D01*
X151659471Y-102497218D01*
X153429329Y-102825242D01*
X153101305Y-104595100D01*
G37*
G04 #@! TD.AperFunction*
D11*
X152843266Y-101048691D03*
G04 #@! TA.AperFunction,ComponentPad*
D13*
G36*
X64112063Y-60817877D02*
G01*
X65012063Y-62376723D01*
X63453217Y-63276723D01*
X62553217Y-61717877D01*
X64112063Y-60817877D01*
G37*
G04 #@! TD.AperFunction*
D11*
X61582936Y-63317300D03*
G04 #@! TA.AperFunction,ComponentPad*
D13*
G36*
X99993216Y-153246169D02*
G01*
X100382807Y-151488836D01*
X102140140Y-151878427D01*
X101750549Y-153635760D01*
X99993216Y-153246169D01*
G37*
G04 #@! TD.AperFunction*
D11*
X103546470Y-153112054D03*
G04 #@! TA.AperFunction,ComponentPad*
D13*
G36*
X136049848Y-60661282D02*
G01*
X134575374Y-61693720D01*
X133542936Y-60219246D01*
X135017410Y-59186808D01*
X136049848Y-60661282D01*
G37*
G04 #@! TD.AperFunction*
D11*
X133339508Y-58359618D03*
G04 #@! TA.AperFunction,ComponentPad*
D13*
G36*
X46733201Y-104663259D02*
G01*
X48517802Y-104898206D01*
X48282855Y-106682807D01*
X46498254Y-106447860D01*
X46733201Y-104663259D01*
G37*
G04 #@! TD.AperFunction*
D11*
X47176492Y-108191303D03*
G04 #@! TA.AperFunction,ComponentPad*
D13*
G36*
X143090928Y-132822105D02*
G01*
X141616454Y-131789667D01*
X142648892Y-130315193D01*
X144123366Y-131347631D01*
X143090928Y-132822105D01*
G37*
G04 #@! TD.AperFunction*
D11*
X144326794Y-129488003D03*
G04 #@! TA.AperFunction,ComponentPad*
D13*
G36*
X90776532Y-47559930D02*
G01*
X90356330Y-49310196D01*
X88606064Y-48889994D01*
X89026266Y-47139728D01*
X90776532Y-47559930D01*
G37*
G04 #@! TD.AperFunction*
D11*
X87221478Y-47632010D03*
G04 #@! TA.AperFunction,ComponentPad*
D13*
G36*
X73581697Y-143957155D02*
G01*
X75140537Y-144857165D01*
X74240527Y-146416005D01*
X72681687Y-145515995D01*
X73581697Y-143957155D01*
G37*
G04 #@! TD.AperFunction*
D11*
X72641098Y-147386276D03*
G04 #@! TA.AperFunction,ComponentPad*
D13*
G36*
X52442961Y-75233712D02*
G01*
X53599979Y-76612592D01*
X52221099Y-77769610D01*
X51064081Y-76390730D01*
X52442961Y-75233712D01*
G37*
G04 #@! TD.AperFunction*
D11*
X50386278Y-78134341D03*
G04 #@! TA.AperFunction,ComponentPad*
D13*
G36*
X118545416Y-148512853D02*
G01*
X119973452Y-147417083D01*
X121069222Y-148845119D01*
X119641186Y-149940889D01*
X118545416Y-148512853D01*
G37*
G04 #@! TD.AperFunction*
D11*
X121353573Y-150694104D03*
G04 #@! TA.AperFunction,ComponentPad*
D13*
G36*
X120725837Y-49866835D02*
G01*
X119693399Y-51341309D01*
X118218925Y-50308871D01*
X119251363Y-48834397D01*
X120725837Y-49866835D01*
G37*
G04 #@! TD.AperFunction*
D11*
X117391735Y-48630969D03*
G04 #@! TA.AperFunction,ComponentPad*
D13*
G36*
X50751980Y-123010811D02*
G01*
X52509313Y-122621220D01*
X52898904Y-124378553D01*
X51141571Y-124768144D01*
X50751980Y-123010811D01*
G37*
G04 #@! TD.AperFunction*
D11*
X52375198Y-126174474D03*
G04 #@! TA.AperFunction,ComponentPad*
D13*
G36*
X152574943Y-116334348D02*
G01*
X150836277Y-115868474D01*
X151302151Y-114129808D01*
X153040817Y-114595682D01*
X152574943Y-116334348D01*
G37*
G04 #@! TD.AperFunction*
D11*
X152595947Y-112778626D03*
G04 #@! TA.AperFunction,ComponentPad*
D13*
G36*
X72996067Y-53276468D02*
G01*
X73074582Y-55074755D01*
X71276295Y-55153270D01*
X71197780Y-53354983D01*
X72996067Y-53276468D01*
G37*
G04 #@! TD.AperFunction*
D11*
X69598599Y-54325663D03*
G04 #@! TA.AperFunction,ComponentPad*
D13*
G36*
X90055716Y-151211865D02*
G01*
X91828367Y-151524444D01*
X91515788Y-153297095D01*
X89743137Y-152984516D01*
X90055716Y-151211865D01*
G37*
G04 #@! TD.AperFunction*
D11*
X90344668Y-154755888D03*
G04 #@! TA.AperFunction,ComponentPad*
D13*
G36*
X45269531Y-92928498D02*
G01*
X47023397Y-93333410D01*
X46618485Y-95087276D01*
X44864619Y-94682364D01*
X45269531Y-92928498D01*
G37*
G04 #@! TD.AperFunction*
D11*
X45372632Y-96482787D03*
G04 #@! TA.AperFunction,ComponentPad*
D13*
G36*
X135417076Y-142098874D02*
G01*
X134585928Y-140502254D01*
X136182548Y-139671106D01*
X137013696Y-141267726D01*
X135417076Y-142098874D01*
G37*
G04 #@! TD.AperFunction*
D11*
X138052820Y-139712148D03*
G04 #@! TA.AperFunction,ComponentPad*
D13*
G36*
X102347336Y-45129409D02*
G01*
X101731700Y-46820855D01*
X100040254Y-46205219D01*
X100655890Y-44513773D01*
X102347336Y-45129409D01*
G37*
G04 #@! TD.AperFunction*
D11*
X98806975Y-44798582D03*
G04 #@! TA.AperFunction,ComponentPad*
D13*
G36*
X61179754Y-138887131D02*
G01*
X62804408Y-138112211D01*
X63579328Y-139736865D01*
X61954674Y-140511785D01*
X61179754Y-138887131D01*
G37*
G04 #@! TD.AperFunction*
D11*
X63473039Y-141604564D03*
G04 #@! TA.AperFunction,ComponentPad*
D13*
G36*
X155860459Y-97291523D02*
G01*
X154067309Y-97448403D01*
X153910429Y-95655253D01*
X155703579Y-95498373D01*
X155860459Y-97291523D01*
G37*
G04 #@! TD.AperFunction*
D11*
X154664068Y-93943054D03*
G04 #@! TA.AperFunction,ComponentPad*
D13*
G36*
X57639342Y-64536761D02*
G01*
X58606481Y-66054866D01*
X57088376Y-67022005D01*
X56121237Y-65503900D01*
X57639342Y-64536761D01*
G37*
G04 #@! TD.AperFunction*
D11*
X55221645Y-67144125D03*
G04 #@! TA.AperFunction,ComponentPad*
D13*
G36*
X108321862Y-152380698D02*
G01*
X110094518Y-152068144D01*
X110407072Y-153840800D01*
X108634416Y-154153354D01*
X108321862Y-152380698D01*
G37*
G04 #@! TD.AperFunction*
D11*
X109805515Y-155612163D03*
G04 #@! TA.AperFunction,ComponentPad*
D13*
G36*
X131846725Y-54346026D02*
G01*
X130519626Y-55562089D01*
X129303563Y-54234990D01*
X130630662Y-53018927D01*
X131846725Y-54346026D01*
G37*
G04 #@! TD.AperFunction*
D11*
X128859144Y-52417824D03*
G04 #@! TA.AperFunction,ComponentPad*
D13*
G36*
X45387216Y-112258823D02*
G01*
X47180366Y-112101943D01*
X47337246Y-113895093D01*
X45544096Y-114051973D01*
X45387216Y-112258823D01*
G37*
G04 #@! TD.AperFunction*
D11*
X46583607Y-115607292D03*
G04 #@! TA.AperFunction,ComponentPad*
D13*
G36*
X83057245Y-46639454D02*
G01*
X83214125Y-48432604D01*
X81420975Y-48589484D01*
X81264095Y-46796334D01*
X83057245Y-46639454D01*
G37*
G04 #@! TD.AperFunction*
D11*
X79708776Y-47835845D03*
G04 #@! TA.AperFunction,ComponentPad*
D13*
G36*
X76400744Y-150886621D02*
G01*
X77496514Y-149458585D01*
X78924550Y-150554355D01*
X77828780Y-151982391D01*
X76400744Y-150886621D01*
G37*
G04 #@! TD.AperFunction*
D11*
X79677765Y-152266742D03*
G04 #@! TA.AperFunction,ComponentPad*
D13*
G36*
X152343993Y-77986376D02*
G01*
X150712639Y-78747088D01*
X149951927Y-77115734D01*
X151583281Y-76355022D01*
X152343993Y-77986376D01*
G37*
G04 #@! TD.AperFunction*
D11*
X150074510Y-75249033D03*
G04 #@! TA.AperFunction,ComponentPad*
D13*
G36*
X126163163Y-147116721D02*
G01*
X127722015Y-146216733D01*
X128622003Y-147775585D01*
X127063151Y-148675573D01*
X126163163Y-147116721D01*
G37*
G04 #@! TD.AperFunction*
D11*
X128662567Y-149645867D03*
G04 #@! TA.AperFunction,ComponentPad*
D13*
G36*
X114496460Y-45373106D02*
G01*
X113665312Y-46969726D01*
X112068692Y-46138578D01*
X112899840Y-44541958D01*
X114496460Y-45373106D01*
G37*
G04 #@! TD.AperFunction*
D11*
X111029568Y-44583000D03*
G04 #@! TA.AperFunction,ComponentPad*
D13*
G36*
X52319972Y-130542225D02*
G01*
X54011418Y-129926589D01*
X54627054Y-131618035D01*
X52935608Y-132233671D01*
X52319972Y-130542225D01*
G37*
G04 #@! TD.AperFunction*
D11*
X54342245Y-133466950D03*
G04 #@! TA.AperFunction,ComponentPad*
D13*
G36*
X155892195Y-109707864D02*
G01*
X154229212Y-109019033D01*
X154918043Y-107356050D01*
X156581026Y-108044881D01*
X155892195Y-109707864D01*
G37*
G04 #@! TD.AperFunction*
D11*
X156377135Y-106185303D03*
G04 #@! TA.AperFunction,ComponentPad*
D13*
G36*
X65399703Y-55116474D02*
G01*
X66044766Y-56796919D01*
X64364321Y-57441982D01*
X63719258Y-55761537D01*
X65399703Y-55116474D01*
G37*
G04 #@! TD.AperFunction*
D11*
X62510718Y-57189482D03*
G04 #@! TA.AperFunction,ComponentPad*
D13*
G36*
X95191206Y-156736147D02*
G01*
X95732476Y-155019457D01*
X97449166Y-155560727D01*
X96907896Y-157277417D01*
X95191206Y-156736147D01*
G37*
G04 #@! TD.AperFunction*
D11*
X98742628Y-156912229D03*
G04 #@! TA.AperFunction,ComponentPad*
D13*
G36*
X142110390Y-61106330D02*
G01*
X140672847Y-62189597D01*
X139589580Y-60752054D01*
X141027123Y-59668787D01*
X142110390Y-61106330D01*
G37*
G04 #@! TD.AperFunction*
D11*
X139321375Y-58900658D03*
G04 #@! TA.AperFunction,ComponentPad*
D13*
G36*
X42850876Y-100163539D02*
G01*
X44608209Y-100553130D01*
X44218618Y-102310463D01*
X42461285Y-101920872D01*
X42850876Y-100163539D01*
G37*
G04 #@! TD.AperFunction*
D11*
X42984991Y-103716793D03*
G04 #@! TA.AperFunction,ComponentPad*
D13*
G36*
X142061884Y-138361277D02*
G01*
X141244701Y-136757466D01*
X142848512Y-135940283D01*
X143665695Y-137544094D01*
X142061884Y-138361277D01*
G37*
G04 #@! TD.AperFunction*
D11*
X144718354Y-135997644D03*
G04 #@! TA.AperFunction,ComponentPad*
D13*
G36*
X94806271Y-42796389D02*
G01*
X94633748Y-44588102D01*
X92842035Y-44415579D01*
X93014558Y-42623866D01*
X94806271Y-42796389D01*
G37*
G04 #@! TD.AperFunction*
D11*
X91295847Y-43362536D03*
G04 #@! TA.AperFunction,ComponentPad*
D13*
G36*
X65073215Y-145881581D02*
G01*
X66346007Y-144608789D01*
X67618799Y-145881581D01*
X66346007Y-147154373D01*
X65073215Y-145881581D01*
G37*
G04 #@! TD.AperFunction*
D11*
X68142059Y-147677633D03*
G04 #@! TA.AperFunction,ComponentPad*
D13*
G36*
X157204065Y-89541301D02*
G01*
X155446732Y-89930892D01*
X155057141Y-88173559D01*
X156814474Y-87783968D01*
X157204065Y-89541301D01*
G37*
G04 #@! TD.AperFunction*
D11*
X155580847Y-86377638D03*
G04 #@! TA.AperFunction,ComponentPad*
D13*
G36*
X52227788Y-72771040D02*
G01*
X50668942Y-73671040D01*
X49768942Y-72112194D01*
X51327788Y-71212194D01*
X52227788Y-72771040D01*
G37*
G04 #@! TD.AperFunction*
D11*
X49728365Y-70241913D03*
G04 #@! TA.AperFunction,ComponentPad*
D13*
G36*
X115274239Y-156007840D02*
G01*
X114977153Y-154232526D01*
X116752467Y-153935440D01*
X117049553Y-155710754D01*
X115274239Y-156007840D01*
G37*
G04 #@! TD.AperFunction*
D11*
X118518519Y-154552420D03*
G04 #@! TA.AperFunction,ComponentPad*
D13*
G36*
X126620764Y-48293714D02*
G01*
X125640413Y-49803321D01*
X124130806Y-48822970D01*
X125111157Y-47313363D01*
X126620764Y-48293714D01*
G37*
G04 #@! TD.AperFunction*
D11*
X123245561Y-47174958D03*
G04 #@! TA.AperFunction,ComponentPad*
D13*
G36*
X151900918Y-119848611D02*
G01*
X152516568Y-118157169D01*
X154208010Y-118772819D01*
X153592360Y-120464261D01*
X151900918Y-119848611D01*
G37*
G04 #@! TD.AperFunction*
D11*
X155441276Y-120179465D03*
G04 #@! TA.AperFunction,ComponentPad*
D13*
G36*
X75095239Y-47190826D02*
G01*
X75636509Y-48907516D01*
X73919819Y-49448786D01*
X73378549Y-47732096D01*
X75095239Y-47190826D01*
G37*
G04 #@! TD.AperFunction*
D11*
X72085087Y-49083598D03*
G04 #@! TA.AperFunction,ComponentPad*
D13*
G36*
X82666267Y-155737034D02*
G01*
X83511316Y-154147729D01*
X85100621Y-154992778D01*
X84255572Y-156582083D01*
X82666267Y-155737034D01*
G37*
G04 #@! TD.AperFunction*
D11*
X86126130Y-156557364D03*
G04 #@! TA.AperFunction,ComponentPad*
D13*
G36*
X150873978Y-70163191D02*
G01*
X149355873Y-71130330D01*
X148388734Y-69612225D01*
X149906839Y-68645086D01*
X150873978Y-70163191D01*
G37*
G04 #@! TD.AperFunction*
D11*
X148266614Y-67745494D03*
G04 #@! TA.AperFunction,ComponentPad*
D13*
G36*
X42762363Y-87554413D02*
G01*
X44419271Y-88257729D01*
X43715955Y-89914637D01*
X42059047Y-89211321D01*
X42762363Y-87554413D01*
G37*
G04 #@! TD.AperFunction*
D11*
X42246701Y-91072607D03*
G04 #@! TA.AperFunction,ComponentPad*
D13*
G36*
X133915114Y-147981015D02*
G01*
X133111958Y-146370133D01*
X134722840Y-145566977D01*
X135525996Y-147177859D01*
X133915114Y-147981015D01*
G37*
G04 #@! TD.AperFunction*
D11*
X136592111Y-145640654D03*
G04 #@! TA.AperFunction,ComponentPad*
D13*
G36*
X107414544Y-41569570D02*
G01*
X106948670Y-43308236D01*
X105210004Y-42842362D01*
X105675878Y-41103696D01*
X107414544Y-41569570D01*
G37*
G04 #@! TD.AperFunction*
D11*
X103858822Y-41548566D03*
G04 #@! TA.AperFunction,ComponentPad*
D13*
G36*
X54983258Y-138139087D02*
G01*
X56501363Y-137171948D01*
X57468502Y-138690053D01*
X55950397Y-139657192D01*
X54983258Y-138139087D01*
G37*
G04 #@! TD.AperFunction*
D11*
X57590622Y-140556784D03*
G04 #@! TA.AperFunction,ComponentPad*
D13*
G36*
X156378434Y-100900454D02*
G01*
X156378448Y-99100454D01*
X158178448Y-99100468D01*
X158178434Y-100900468D01*
X156378434Y-100900454D01*
G37*
G04 #@! TD.AperFunction*
D11*
X159818441Y-100000481D03*
G04 #@! TA.AperFunction,ComponentPad*
D13*
G36*
X58887681Y-59382487D02*
G01*
X58966196Y-61180774D01*
X57167909Y-61259289D01*
X57089394Y-59461002D01*
X58887681Y-59382487D01*
G37*
G04 #@! TD.AperFunction*
D11*
X55490213Y-60431682D03*
G04 #@! TA.AperFunction,ComponentPad*
D13*
G36*
X103036744Y-159613561D02*
G01*
X102879864Y-157820411D01*
X104673014Y-157663531D01*
X104829894Y-159456681D01*
X103036744Y-159613561D01*
G37*
G04 #@! TD.AperFunction*
D11*
X106385213Y-158417170D03*
G04 #@! TA.AperFunction,ComponentPad*
D13*
G36*
X137862597Y-54483083D02*
G01*
X136434561Y-55578853D01*
X135338791Y-54150817D01*
X136766827Y-53055047D01*
X137862597Y-54483083D01*
G37*
G04 #@! TD.AperFunction*
D11*
X135054440Y-52301832D03*
G04 #@! TA.AperFunction,ComponentPad*
D13*
G36*
X41234482Y-107996534D02*
G01*
X43027632Y-108153414D01*
X42870752Y-109946564D01*
X41077602Y-109789684D01*
X41234482Y-107996534D01*
G37*
G04 #@! TD.AperFunction*
D11*
X41831241Y-111501883D03*
G04 #@! TA.AperFunction,ComponentPad*
D13*
G36*
X148813930Y-133859942D02*
G01*
X147597867Y-132532843D01*
X148924966Y-131316780D01*
X150141029Y-132643879D01*
X148813930Y-133859942D01*
G37*
G04 #@! TD.AperFunction*
D11*
X150742132Y-130872361D03*
G04 #@! TA.AperFunction,ComponentPad*
D13*
G36*
X86553105Y-41429391D02*
G01*
X87018979Y-43168057D01*
X85280313Y-43633931D01*
X84814439Y-41895265D01*
X86553105Y-41429391D01*
G37*
G04 #@! TD.AperFunction*
D11*
X83463257Y-43189061D03*
G04 #@! TA.AperFunction,ComponentPad*
D13*
G36*
X70301856Y-152315720D02*
G01*
X71160741Y-150733849D01*
X72742612Y-151592734D01*
X71883727Y-153174605D01*
X70301856Y-152315720D01*
G37*
G04 #@! TD.AperFunction*
D11*
X73754430Y-153166211D03*
G04 #@! TA.AperFunction,ComponentPad*
D13*
G36*
X154045277Y-81287391D02*
G01*
X153429655Y-79595939D01*
X155121107Y-78980317D01*
X155736729Y-80671769D01*
X154045277Y-81287391D01*
G37*
G04 #@! TD.AperFunction*
D11*
X156970018Y-79265142D03*
G04 #@! TA.AperFunction,ComponentPad*
D13*
G36*
X45986736Y-75083734D02*
G01*
X47248373Y-76367585D01*
X45964522Y-77629222D01*
X44702885Y-76345371D01*
X45986736Y-75083734D01*
G37*
G04 #@! TD.AperFunction*
D11*
X44163973Y-78136788D03*
G04 #@! TA.AperFunction,ComponentPad*
D13*
G36*
X123523266Y-155652829D02*
G01*
X122819950Y-153995921D01*
X124476858Y-153292605D01*
X125180174Y-154949513D01*
X123523266Y-155652829D01*
G37*
G04 #@! TD.AperFunction*
D11*
X126338144Y-153480259D03*
G04 #@! TA.AperFunction,ComponentPad*
D13*
G36*
X120279604Y-42899324D02*
G01*
X119738334Y-44616014D01*
X118021644Y-44074744D01*
X118562914Y-42358054D01*
X120279604Y-42899324D01*
G37*
G04 #@! TD.AperFunction*
D11*
X116728182Y-42723242D03*
G04 #@! TA.AperFunction,ComponentPad*
D13*
G36*
X46385327Y-128448168D02*
G01*
X47944173Y-127548168D01*
X48844173Y-129107014D01*
X47285327Y-130007014D01*
X46385327Y-128448168D01*
G37*
G04 #@! TD.AperFunction*
D11*
X48884750Y-130977295D03*
G04 #@! TA.AperFunction,ComponentPad*
D13*
G36*
X157908923Y-115244805D02*
G01*
X156443515Y-114199539D01*
X157488781Y-112734131D01*
X158954189Y-113779397D01*
X157908923Y-115244805D01*
G37*
G04 #@! TD.AperFunction*
D11*
X159173838Y-111921614D03*
G04 #@! TA.AperFunction,ComponentPad*
D13*
G36*
X66873205Y-48905872D02*
G01*
X67905643Y-50380346D01*
X66431169Y-51412784D01*
X65398731Y-49938310D01*
X66873205Y-48905872D01*
G37*
G04 #@! TD.AperFunction*
D11*
X64571541Y-51616212D03*
G04 #@! TA.AperFunction,ComponentPad*
D13*
G36*
X144996226Y-63419193D02*
G01*
X143839220Y-62040303D01*
X145218110Y-60883297D01*
X146375116Y-62262187D01*
X144996226Y-63419193D01*
G37*
G04 #@! TD.AperFunction*
D11*
X147052934Y-60518581D03*
G04 #@! TA.AperFunction,ComponentPad*
D13*
G36*
X40797569Y-95241766D02*
G01*
X42013632Y-96568865D01*
X40686533Y-97784928D01*
X39470470Y-96457829D01*
X40797569Y-95241766D01*
G37*
G04 #@! TD.AperFunction*
D11*
X38869367Y-98229347D03*
G04 #@! TA.AperFunction,ComponentPad*
D13*
G36*
X141117930Y-144434688D02*
G01*
X140328862Y-142816858D01*
X141946692Y-142027790D01*
X142735760Y-143645620D01*
X141117930Y-144434688D01*
G37*
G04 #@! TD.AperFunction*
D11*
X143815247Y-142117777D03*
G04 #@! TA.AperFunction,ComponentPad*
D13*
G36*
X99704162Y-39812313D02*
G01*
X98873014Y-41408933D01*
X97276394Y-40577785D01*
X98107542Y-38981165D01*
X99704162Y-39812313D01*
G37*
G04 #@! TD.AperFunction*
D11*
X96237270Y-39022207D03*
G04 #@! TA.AperFunction,ComponentPad*
D13*
G36*
X59462695Y-144678215D02*
G01*
X61143140Y-144033152D01*
X61788203Y-145713597D01*
X60107758Y-146358660D01*
X59462695Y-144678215D01*
G37*
G04 #@! TD.AperFunction*
D11*
X61535703Y-147567200D03*
G04 #@! TA.AperFunction,ComponentPad*
D13*
G36*
X51797974Y-63398339D02*
G01*
X52587042Y-65016169D01*
X50969212Y-65805237D01*
X50180144Y-64187407D01*
X51797974Y-63398339D01*
G37*
G04 #@! TD.AperFunction*
D11*
X49100657Y-65715250D03*
G04 #@! TA.AperFunction,ComponentPad*
D13*
G36*
X111244209Y-160747683D02*
G01*
X110854618Y-158990350D01*
X112611951Y-158600759D01*
X113001542Y-160358092D01*
X111244209Y-160747683D01*
G37*
G04 #@! TD.AperFunction*
D11*
X114407872Y-159124465D03*
G04 #@! TA.AperFunction,ComponentPad*
D13*
G36*
X132334458Y-48654689D02*
G01*
X130775612Y-49554689D01*
X129875612Y-47995843D01*
X131434458Y-47095843D01*
X132334458Y-48654689D01*
G37*
G04 #@! TD.AperFunction*
D11*
X129835035Y-46125562D03*
G04 #@! TA.AperFunction,ComponentPad*
D13*
G36*
X41460067Y-116027367D02*
G01*
X43202733Y-116478051D01*
X42752049Y-118220717D01*
X41009383Y-117770033D01*
X41460067Y-116027367D01*
G37*
G04 #@! TD.AperFunction*
D11*
X41470092Y-119583138D03*
G04 #@! TA.AperFunction,ComponentPad*
D13*
G36*
X154214730Y-127861606D02*
G01*
X153131463Y-126424063D01*
X154569006Y-125340796D01*
X155652273Y-126778339D01*
X154214730Y-127861606D01*
G37*
G04 #@! TD.AperFunction*
D11*
X156420402Y-125072591D03*
G04 #@! TA.AperFunction,ComponentPad*
D13*
G36*
X78515250Y-42114773D02*
G01*
X78874112Y-43878637D01*
X77110248Y-44237499D01*
X76751386Y-42473635D01*
X78515250Y-42114773D01*
G37*
G04 #@! TD.AperFunction*
D11*
X75323741Y-43682530D03*
G04 #@! TA.AperFunction,ComponentPad*
D13*
G36*
X76730116Y-157122369D02*
G01*
X77762554Y-155647895D01*
X79237028Y-156680333D01*
X78204590Y-158154807D01*
X76730116Y-157122369D01*
G37*
G04 #@! TD.AperFunction*
D11*
X80064218Y-158358235D03*
G04 #@! TA.AperFunction,ComponentPad*
D13*
G36*
X41001214Y-81766235D02*
G01*
X42510821Y-82746586D01*
X41530470Y-84256193D01*
X40020863Y-83275842D01*
X41001214Y-81766235D01*
G37*
G04 #@! TD.AperFunction*
D11*
X39882458Y-85141438D03*
G04 #@! TA.AperFunction,ComponentPad*
D13*
G36*
X131760796Y-153894200D02*
G01*
X130793657Y-152376095D01*
X132311762Y-151408956D01*
X133278901Y-152927061D01*
X131760796Y-153894200D01*
G37*
G04 #@! TD.AperFunction*
D11*
X134178493Y-151286836D03*
G04 #@! TA.AperFunction,ComponentPad*
D13*
G36*
X111226813Y-41515537D02*
G01*
X109454162Y-41202954D01*
X109766745Y-39430303D01*
X111539396Y-39742886D01*
X111226813Y-41515537D01*
G37*
G04 #@! TD.AperFunction*
D11*
X110937867Y-37971512D03*
G04 #@! TA.AperFunction,ComponentPad*
D13*
G36*
X49646480Y-135681214D02*
G01*
X51410344Y-135322352D01*
X51769206Y-137086216D01*
X50005342Y-137445078D01*
X49646480Y-135681214D01*
G37*
G04 #@! TD.AperFunction*
D11*
X51214237Y-138872723D03*
G04 #@! TA.AperFunction,ComponentPad*
D13*
G36*
X161285728Y-107713387D02*
G01*
X159759241Y-106759532D01*
X160713096Y-105233045D01*
X162239583Y-106186900D01*
X161285728Y-107713387D01*
G37*
G04 #@! TD.AperFunction*
D11*
X162345406Y-104319174D03*
G04 #@! TA.AperFunction,ComponentPad*
D13*
G36*
X59856161Y-52712671D02*
G01*
X60457014Y-54409426D01*
X58760259Y-55010279D01*
X58159406Y-53313524D01*
X59856161Y-52712671D01*
G37*
G04 #@! TD.AperFunction*
D11*
X56913900Y-54709345D03*
G04 #@! TA.AperFunction,ComponentPad*
D13*
G36*
X97660918Y-161875899D02*
G01*
X98505967Y-160286594D01*
X100095272Y-161131643D01*
X99250223Y-162720948D01*
X97660918Y-161875899D01*
G37*
G04 #@! TD.AperFunction*
D11*
X101120781Y-162696229D03*
G04 #@! TA.AperFunction,ComponentPad*
D13*
G36*
X143530138Y-55943788D02*
G01*
X141813448Y-56485058D01*
X141272178Y-54768368D01*
X142988868Y-54227098D01*
X143530138Y-55943788D01*
G37*
G04 #@! TD.AperFunction*
D11*
X141637366Y-52933636D03*
G04 #@! TA.AperFunction,ComponentPad*
D13*
G36*
X37842077Y-103081535D02*
G01*
X39533523Y-103697171D01*
X38917887Y-105388617D01*
X37226441Y-104772981D01*
X37842077Y-103081535D01*
G37*
G04 #@! TD.AperFunction*
D11*
X37511250Y-106621896D03*
G04 #@! TA.AperFunction,ComponentPad*
D13*
G36*
X91497602Y-38363449D02*
G01*
X90881966Y-40054895D01*
X89190520Y-39439259D01*
X89806156Y-37747813D01*
X91497602Y-38363449D01*
G37*
G04 #@! TD.AperFunction*
D11*
X87957241Y-38032622D03*
G04 #@! TA.AperFunction,ComponentPad*
D13*
G36*
X64550369Y-151299287D02*
G01*
X66132240Y-150440402D01*
X66991125Y-152022273D01*
X65409254Y-152881158D01*
X64550369Y-151299287D01*
G37*
G04 #@! TD.AperFunction*
D11*
X66982731Y-153892976D03*
G04 #@! TA.AperFunction,ComponentPad*
D13*
G36*
X160844699Y-86108753D02*
G01*
X159106033Y-85642879D01*
X159571907Y-83904213D01*
X161310573Y-84370087D01*
X160844699Y-86108753D01*
G37*
G04 #@! TD.AperFunction*
D11*
X160865703Y-82553031D03*
G04 #@! TA.AperFunction,ComponentPad*
D13*
G36*
X45835914Y-72815726D02*
G01*
X44119224Y-73356996D01*
X43577954Y-71640306D01*
X45294644Y-71099036D01*
X45835914Y-72815726D01*
G37*
G04 #@! TD.AperFunction*
D11*
X43943142Y-69805574D03*
G04 #@! TA.AperFunction,ComponentPad*
D13*
G36*
X119259338Y-159778596D02*
G01*
X119416218Y-157985446D01*
X121209368Y-158142326D01*
X121052488Y-159935476D01*
X119259338Y-159778596D01*
G37*
G04 #@! TD.AperFunction*
D11*
X122764687Y-159181837D03*
G04 #@! TA.AperFunction,ComponentPad*
D13*
G36*
X126271558Y-42714965D02*
G01*
X125009921Y-43998816D01*
X123726070Y-42737179D01*
X124987707Y-41453328D01*
X126271558Y-42714965D01*
G37*
G04 #@! TD.AperFunction*
D11*
X123187158Y-40945762D03*
G04 #@! TA.AperFunction,ComponentPad*
D13*
G36*
X41360972Y-124833945D02*
G01*
X43082321Y-124307676D01*
X43608590Y-126029025D01*
X41887241Y-126555294D01*
X41360972Y-124833945D01*
G37*
G04 #@! TD.AperFunction*
D11*
X43227405Y-127860499D03*
G04 #@! TA.AperFunction,ComponentPad*
D13*
G36*
X160550638Y-121314965D02*
G01*
X158807972Y-120864281D01*
X159258656Y-119121615D01*
X161001322Y-119572299D01*
X160550638Y-121314965D01*
G37*
G04 #@! TD.AperFunction*
D11*
X160540613Y-117759194D03*
G04 #@! TA.AperFunction,ComponentPad*
D13*
G36*
X70316201Y-43901150D02*
G01*
X70690442Y-45661815D01*
X68929777Y-46036056D01*
X68555536Y-44275391D01*
X70316201Y-43901150D01*
G37*
G04 #@! TD.AperFunction*
D11*
X67138495Y-45496699D03*
G04 #@! TA.AperFunction,ComponentPad*
D13*
G36*
X83971044Y-161465747D02*
G01*
X84911542Y-159930995D01*
X86446294Y-160871493D01*
X85505796Y-162406245D01*
X83971044Y-161465747D01*
G37*
G04 #@! TD.AperFunction*
D11*
X87374375Y-162495766D03*
G04 #@! TA.AperFunction,ComponentPad*
D13*
G36*
X153042795Y-65703285D02*
G01*
X151249645Y-65860165D01*
X151092765Y-64067015D01*
X152885915Y-63910135D01*
X153042795Y-65703285D01*
G37*
G04 #@! TD.AperFunction*
D11*
X151846404Y-62354816D03*
G04 #@! TA.AperFunction,ComponentPad*
D13*
G36*
X36413216Y-89439310D02*
G01*
X38197817Y-89674257D01*
X37962870Y-91458858D01*
X36178269Y-91223911D01*
X36413216Y-89439310D01*
G37*
G04 #@! TD.AperFunction*
D11*
X36856507Y-92967354D03*
G04 #@! TA.AperFunction,ComponentPad*
D13*
G36*
X139027257Y-150163166D02*
G01*
X138561383Y-148424500D01*
X140300049Y-147958626D01*
X140765923Y-149697292D01*
X139027257Y-150163166D01*
G37*
G04 #@! TD.AperFunction*
D11*
X142117105Y-148403496D03*
G04 #@! TA.AperFunction,ComponentPad*
D13*
G36*
X104986717Y-35547834D02*
G01*
X104908202Y-37346121D01*
X103109915Y-37267606D01*
X103188430Y-35469319D01*
X104986717Y-35547834D01*
G37*
G04 #@! TD.AperFunction*
D11*
X101510734Y-36296926D03*
G04 #@! TA.AperFunction,ComponentPad*
D13*
G36*
X53020542Y-143684898D02*
G01*
X54579388Y-142784898D01*
X55479388Y-144343744D01*
X53920542Y-145243744D01*
X53020542Y-143684898D01*
G37*
G04 #@! TD.AperFunction*
D11*
X55519965Y-146214025D03*
G04 #@! TA.AperFunction,ComponentPad*
D13*
G36*
X165114487Y-99183206D02*
G01*
X163344629Y-99511230D01*
X163016605Y-97741372D01*
X164786463Y-97413348D01*
X165114487Y-99183206D01*
G37*
G04 #@! TD.AperFunction*
D11*
X163602668Y-95964821D03*
G04 #@! TA.AperFunction,ComponentPad*
D13*
G36*
X51688177Y-56628031D02*
G01*
X53067057Y-57785049D01*
X51910039Y-59163929D01*
X50531159Y-58006911D01*
X51688177Y-56628031D01*
G37*
G04 #@! TD.AperFunction*
D11*
X50166428Y-59841732D03*
G04 #@! TA.AperFunction,ComponentPad*
D13*
G36*
X106014391Y-163533833D02*
G01*
X106703222Y-161870850D01*
X108366205Y-162559681D01*
X107677374Y-164222664D01*
X106014391Y-163533833D01*
G37*
G04 #@! TD.AperFunction*
D11*
X109536952Y-164018773D03*
G04 #@! TA.AperFunction,ComponentPad*
D13*
G36*
X138979854Y-48330356D02*
G01*
X137707062Y-49603148D01*
X136434270Y-48330356D01*
X137707062Y-47057564D01*
X138979854Y-48330356D01*
G37*
G04 #@! TD.AperFunction*
D11*
X135911010Y-46534304D03*
G04 #@! TA.AperFunction,ComponentPad*
D13*
G36*
X36263058Y-111780505D02*
G01*
X38061345Y-111701990D01*
X38139860Y-113500277D01*
X36341573Y-113578792D01*
X36263058Y-111780505D01*
G37*
G04 #@! TD.AperFunction*
D11*
X37312253Y-115177973D03*
G04 #@! TA.AperFunction,ComponentPad*
D13*
G36*
X154838117Y-134350817D02*
G01*
X153565325Y-133078025D01*
X154838117Y-131805233D01*
X156110909Y-133078025D01*
X154838117Y-134350817D01*
G37*
G04 #@! TD.AperFunction*
D11*
X156634169Y-131281973D03*
G04 #@! TA.AperFunction,ComponentPad*
D13*
G36*
X82653676Y-37355954D02*
G01*
X82888623Y-39140555D01*
X81104022Y-39375502D01*
X80869075Y-37590901D01*
X82653676Y-37355954D01*
G37*
G04 #@! TD.AperFunction*
D11*
X79360579Y-38697264D03*
G04 #@! TA.AperFunction,ComponentPad*
D13*
G36*
X70375084Y-158394688D02*
G01*
X71135796Y-156763334D01*
X72767150Y-157524046D01*
X72006438Y-159155400D01*
X70375084Y-158394688D01*
G37*
G04 #@! TD.AperFunction*
D11*
X73873139Y-159032817D03*
G04 #@! TA.AperFunction,ComponentPad*
D13*
G36*
X161640863Y-76612153D02*
G01*
X160122758Y-77579292D01*
X159155619Y-76061187D01*
X160673724Y-75094048D01*
X161640863Y-76612153D01*
G37*
G04 #@! TD.AperFunction*
D11*
X159033499Y-74194456D03*
G04 #@! TA.AperFunction,ComponentPad*
D13*
G36*
X39481617Y-75531937D02*
G01*
X41040463Y-76431937D01*
X40140463Y-77990783D01*
X38581617Y-77090783D01*
X39481617Y-75531937D01*
G37*
G04 #@! TD.AperFunction*
D11*
X38541040Y-78961064D03*
G04 #@! TA.AperFunction,ComponentPad*
D13*
G36*
X127895839Y-158671538D02*
G01*
X127660892Y-156886937D01*
X129445493Y-156651990D01*
X129680440Y-158436591D01*
X127895839Y-158671538D01*
G37*
G04 #@! TD.AperFunction*
D11*
X131188936Y-157330228D03*
G04 #@! TA.AperFunction,ComponentPad*
D13*
G36*
X119129913Y-36992908D02*
G01*
X118664039Y-38731574D01*
X116925373Y-38265700D01*
X117391247Y-36527034D01*
X119129913Y-36992908D01*
G37*
G04 #@! TD.AperFunction*
D11*
X115574191Y-36971904D03*
G04 #@! TA.AperFunction,ComponentPad*
D13*
G36*
X43251703Y-133578943D02*
G01*
X44769808Y-132611804D01*
X45736947Y-134129909D01*
X44218842Y-135097048D01*
X43251703Y-133578943D01*
G37*
G04 #@! TD.AperFunction*
D11*
X45859067Y-135996640D03*
G04 #@! TA.AperFunction,ComponentPad*
D13*
G36*
X164249909Y-113648960D02*
G01*
X162547976Y-113062937D01*
X163133999Y-111361004D01*
X164835932Y-111947027D01*
X164249909Y-113648960D01*
G37*
G04 #@! TD.AperFunction*
D11*
X164518898Y-110103364D03*
G04 #@! TA.AperFunction,ComponentPad*
D13*
G36*
X61491588Y-46249178D02*
G01*
X62587358Y-47677214D01*
X61159322Y-48772984D01*
X60063552Y-47344948D01*
X61491588Y-46249178D01*
G37*
G04 #@! TD.AperFunction*
D11*
X59310337Y-49057335D03*
G04 #@! TA.AperFunction,ComponentPad*
D13*
G36*
X92069897Y-165736055D02*
G01*
X92226777Y-163942905D01*
X94019927Y-164099785D01*
X93863047Y-165892935D01*
X92069897Y-165736055D01*
G37*
G04 #@! TD.AperFunction*
D11*
X95575246Y-165139296D03*
G04 #@! TA.AperFunction,ComponentPad*
D13*
G36*
X150521432Y-56164280D02*
G01*
X149607863Y-57715213D01*
X148056930Y-56801644D01*
X148970499Y-55250711D01*
X150521432Y-56164280D01*
G37*
G04 #@! TD.AperFunction*
D11*
X147100643Y-55193814D03*
D12*
X34540852Y-98729342D03*
D11*
X34540852Y-101269342D03*
G04 #@! TA.AperFunction,ComponentPad*
D13*
G36*
X147525601Y-146493348D02*
G01*
X146198502Y-145277285D01*
X147414565Y-143950186D01*
X148741664Y-145166249D01*
X147525601Y-146493348D01*
G37*
G04 #@! TD.AperFunction*
D11*
X149186083Y-143349083D03*
G04 #@! TA.AperFunction,ComponentPad*
D13*
G36*
X96493824Y-33823801D02*
G01*
X96399619Y-35621334D01*
X94602086Y-35527129D01*
X94696291Y-33729596D01*
X96493824Y-33823801D01*
G37*
G04 #@! TD.AperFunction*
D11*
X93011435Y-34542531D03*
G04 #@! TA.AperFunction,ComponentPad*
D13*
G36*
X57715312Y-151540769D02*
G01*
X58811082Y-150112733D01*
X60239118Y-151208503D01*
X59143348Y-152636539D01*
X57715312Y-151540769D01*
G37*
G04 #@! TD.AperFunction*
D11*
X60992333Y-152920890D03*
G04 #@! TA.AperFunction,ComponentPad*
D13*
G36*
X166906229Y-89654629D02*
G01*
X165527349Y-90811647D01*
X164370331Y-89432767D01*
X165749211Y-88275749D01*
X166906229Y-89654629D01*
G37*
G04 #@! TD.AperFunction*
D11*
X164005600Y-87597946D03*
G04 #@! TA.AperFunction,ComponentPad*
D13*
G36*
X44817499Y-62271128D02*
G01*
X46335604Y-63238267D01*
X45368465Y-64756372D01*
X43850360Y-63789233D01*
X44817499Y-62271128D01*
G37*
G04 #@! TD.AperFunction*
D11*
X43728240Y-65655964D03*
G04 #@! TA.AperFunction,ComponentPad*
D13*
G36*
X115218901Y-165184554D02*
G01*
X114753027Y-163445888D01*
X116491693Y-162980014D01*
X116957567Y-164718680D01*
X115218901Y-165184554D01*
G37*
G04 #@! TD.AperFunction*
D11*
X118308749Y-163424884D03*
G04 #@! TA.AperFunction,ComponentPad*
D13*
G36*
X132859105Y-41579241D02*
G01*
X132027957Y-43175861D01*
X130431337Y-42344713D01*
X131262485Y-40748093D01*
X132859105Y-41579241D01*
G37*
G04 #@! TD.AperFunction*
D11*
X129392213Y-40789135D03*
G04 #@! TA.AperFunction,ComponentPad*
D13*
G36*
X36650836Y-120590957D02*
G01*
X38437419Y-120371592D01*
X38656784Y-122158175D01*
X36870201Y-122377540D01*
X36650836Y-120590957D01*
G37*
G04 #@! TD.AperFunction*
D11*
X37963358Y-123895634D03*
G04 #@! TA.AperFunction,ComponentPad*
D13*
G36*
X73384072Y-37990822D02*
G01*
X74284072Y-39549668D01*
X72725226Y-40449668D01*
X71825226Y-38890822D01*
X73384072Y-37990822D01*
G37*
G04 #@! TD.AperFunction*
D11*
X70854945Y-40490245D03*
G04 #@! TA.AperFunction,ComponentPad*
D13*
G36*
X77748025Y-163984958D02*
G01*
X77982972Y-162200357D01*
X79767573Y-162435304D01*
X79532626Y-164219905D01*
X77748025Y-163984958D01*
G37*
G04 #@! TD.AperFunction*
D11*
X81276069Y-163541667D03*
G04 #@! TA.AperFunction,ComponentPad*
D13*
G36*
X159710996Y-67813811D02*
G01*
X158332116Y-68970829D01*
X157175098Y-67591949D01*
X158553978Y-66434931D01*
X159710996Y-67813811D01*
G37*
G04 #@! TD.AperFunction*
D11*
X156810367Y-65757128D03*
G04 #@! TA.AperFunction,ComponentPad*
D13*
G36*
X34540000Y-83264470D02*
G01*
X36297333Y-83654061D01*
X35907742Y-85411394D01*
X34150409Y-85021803D01*
X34540000Y-83264470D01*
G37*
G04 #@! TD.AperFunction*
D11*
X34674115Y-86817724D03*
G04 #@! TA.AperFunction,ComponentPad*
D13*
G36*
X136839073Y-156518503D02*
G01*
X135939073Y-154959657D01*
X137497919Y-154059657D01*
X138397919Y-155618503D01*
X136839073Y-156518503D01*
G37*
G04 #@! TD.AperFunction*
D11*
X139368200Y-154019080D03*
G04 #@! TA.AperFunction,ComponentPad*
D13*
G36*
X110832022Y-32731892D02*
G01*
X110941909Y-34528535D01*
X109145266Y-34638422D01*
X109035379Y-32841779D01*
X110832022Y-32731892D01*
G37*
G04 #@! TD.AperFunction*
D11*
X107453382Y-33840221D03*
G04 #@! TA.AperFunction,ComponentPad*
D13*
G36*
X167727585Y-105129823D02*
G01*
X165929298Y-105051308D01*
X166007813Y-103253021D01*
X167806100Y-103331536D01*
X167727585Y-105129823D01*
G37*
G04 #@! TD.AperFunction*
D11*
X166978493Y-101653840D03*
G04 #@! TA.AperFunction,ComponentPad*
D13*
G36*
X53468868Y-50399023D02*
G01*
X54741660Y-51671815D01*
X53468868Y-52944607D01*
X52196076Y-51671815D01*
X53468868Y-50399023D01*
G37*
G04 #@! TD.AperFunction*
D11*
X51672816Y-53467867D03*
G04 #@! TA.AperFunction,ComponentPad*
D13*
G36*
X100800280Y-168094235D02*
G01*
X100721765Y-166295948D01*
X102520052Y-166217433D01*
X102598567Y-168015720D01*
X100800280Y-168094235D01*
G37*
G04 #@! TD.AperFunction*
D11*
X104197748Y-167045040D03*
G04 #@! TA.AperFunction,ComponentPad*
D13*
G36*
X145470690Y-49187172D02*
G01*
X144313672Y-50566052D01*
X142934792Y-49409034D01*
X144091810Y-48030154D01*
X145470690Y-49187172D01*
G37*
G04 #@! TD.AperFunction*
D11*
X142256989Y-47665423D03*
G04 #@! TA.AperFunction,ComponentPad*
D13*
G36*
X32059165Y-106755133D02*
G01*
X33843766Y-106520186D01*
X34078713Y-108304787D01*
X32294112Y-108539734D01*
X32059165Y-106755133D01*
G37*
G04 #@! TD.AperFunction*
D11*
X33400475Y-110048230D03*
G04 #@! TA.AperFunction,ComponentPad*
D13*
G36*
X154727283Y-140970415D02*
G01*
X153252809Y-139937977D01*
X154285247Y-138463503D01*
X155759721Y-139495941D01*
X154727283Y-140970415D01*
G37*
G04 #@! TD.AperFunction*
D11*
X155963149Y-137636313D03*
G04 #@! TA.AperFunction,ComponentPad*
D13*
G36*
X87186103Y-32571579D02*
G01*
X87727373Y-34288269D01*
X86010683Y-34829539D01*
X85469413Y-33112849D01*
X87186103Y-32571579D01*
G37*
G04 #@! TD.AperFunction*
D11*
X84175951Y-34464351D03*
G04 #@! TA.AperFunction,ComponentPad*
D13*
G36*
X63849370Y-158446675D02*
G01*
X64610082Y-156815321D01*
X66241436Y-157576033D01*
X65480724Y-159207387D01*
X63849370Y-158446675D01*
G37*
G04 #@! TD.AperFunction*
D11*
X67347425Y-159084804D03*
D14*
X89795422Y-95022315D02*
X89264521Y-95553216D01*
X94731152Y-95022315D02*
X89795422Y-95022315D01*
X96520051Y-96811214D02*
X94731152Y-95022315D01*
X88290941Y-95553216D02*
X84520034Y-99324123D01*
X89264521Y-95553216D02*
X88290941Y-95553216D01*
X82337158Y-101506999D02*
X82337158Y-105569060D01*
X84520034Y-99324123D02*
X82337158Y-101506999D01*
X82337158Y-111905990D02*
X83269165Y-112837997D01*
X82337158Y-105569060D02*
X82337158Y-111905990D01*
X83269165Y-115523191D02*
X87448240Y-119702266D01*
X83269165Y-112837997D02*
X83269165Y-115523191D01*
X89382900Y-119702266D02*
X94498071Y-124817437D01*
X87448240Y-119702266D02*
X89382900Y-119702266D01*
X102665532Y-126183235D02*
X103565531Y-127083234D01*
X95863869Y-126183235D02*
X102665532Y-126183235D01*
X94498071Y-124817437D02*
X95863869Y-126183235D01*
X104850217Y-125798548D02*
X113429815Y-125798548D01*
X103565531Y-127083234D02*
X104850217Y-125798548D01*
X120762898Y-122678279D02*
X122668886Y-120772291D01*
X116550084Y-122678279D02*
X120762898Y-122678279D01*
X113429815Y-125798548D02*
X116550084Y-122678279D01*
X122668886Y-119559269D02*
X129859759Y-112368396D01*
X122668886Y-120772291D02*
X122668886Y-119559269D01*
X133785045Y-105132611D02*
X133785045Y-101475171D01*
X129859759Y-109057897D02*
X133785045Y-105132611D01*
X129859759Y-112368396D02*
X129859759Y-109057897D01*
X132885046Y-90132777D02*
X133617178Y-89400645D01*
X132885046Y-100575172D02*
X132885046Y-90132777D01*
X133785045Y-101475171D02*
X132885046Y-100575172D01*
X120387399Y-69151656D02*
X120387399Y-67998417D01*
X128941779Y-77706036D02*
X120387399Y-69151656D01*
X129054236Y-77706036D02*
X128941779Y-77706036D01*
X109372585Y-61709699D02*
X108488891Y-61709699D01*
X115661303Y-67998417D02*
X109372585Y-61709699D01*
X120387399Y-67998417D02*
X115661303Y-67998417D01*
X131291325Y-79943125D02*
X129054236Y-77706036D01*
X131291325Y-87074792D02*
X131291325Y-79943125D01*
X133617178Y-89400645D02*
X131291325Y-87074792D01*
X104176195Y-111038701D02*
X105147427Y-111038701D01*
X100535924Y-107398430D02*
X104176195Y-111038701D01*
X100535924Y-106125638D02*
X100535924Y-107398430D01*
X110557351Y-111938700D02*
X111248020Y-111248031D01*
X106047426Y-111938700D02*
X110557351Y-111938700D01*
X105147427Y-111038701D02*
X106047426Y-111938700D01*
X115812768Y-107971276D02*
X117094424Y-107971276D01*
X112536013Y-111248031D02*
X115812768Y-107971276D01*
X111248020Y-111248031D02*
X112536013Y-111248031D01*
X117094424Y-106074976D02*
X121305399Y-101864001D01*
X117094424Y-107971276D02*
X117094424Y-106074976D01*
X122823439Y-100345961D02*
X122823439Y-93884506D01*
X121305399Y-101864001D02*
X122823439Y-100345961D01*
X121923440Y-86178816D02*
X121023708Y-85279084D01*
X121923440Y-92984507D02*
X121923440Y-86178816D01*
X122823439Y-93884506D02*
X121923440Y-92984507D01*
X115798865Y-78781449D02*
X115798865Y-77436960D01*
X121023708Y-84006292D02*
X115798865Y-78781449D01*
X121023708Y-85279084D02*
X121023708Y-84006292D01*
X113319490Y-77436960D02*
X107582915Y-71700385D01*
X115798865Y-77436960D02*
X113319490Y-77436960D01*
X99833412Y-71700385D02*
X97302766Y-69169739D01*
X107582915Y-71700385D02*
X99833412Y-71700385D01*
X95937580Y-70534925D02*
X86260291Y-70534925D01*
X97302766Y-69169739D02*
X95937580Y-70534925D01*
X78806891Y-73110451D02*
X75958732Y-75958610D01*
X83684765Y-73110451D02*
X78806891Y-73110451D01*
X86260291Y-70534925D02*
X83684765Y-73110451D01*
X75958732Y-77231402D02*
X68160737Y-85029397D01*
X68160737Y-85029397D02*
X67895667Y-85029397D01*
X75958732Y-75958610D02*
X75958732Y-77231402D01*
X63350082Y-93211836D02*
X63350082Y-96793438D01*
X67895667Y-88666251D02*
X63350082Y-93211836D01*
X67895667Y-85029397D02*
X67895667Y-88666251D01*
X64092475Y-108962421D02*
X63192476Y-109862420D01*
X64092475Y-97535831D02*
X64092475Y-108962421D01*
X63350082Y-96793438D02*
X64092475Y-97535831D01*
X65642126Y-119210069D02*
X67744586Y-121312529D01*
X67744586Y-121312529D02*
X67744586Y-122585321D01*
X65642126Y-112312070D02*
X65642126Y-119210069D01*
X63192476Y-109862420D02*
X65642126Y-112312070D01*
X105310826Y-89364156D02*
X103822683Y-87876013D01*
X105310826Y-93351700D02*
X105310826Y-89364156D01*
X104410827Y-94251699D02*
X105310826Y-93351700D01*
X99653990Y-83707320D02*
X99288655Y-83707320D01*
X103822683Y-87876013D02*
X99653990Y-83707320D01*
X97845868Y-82264533D02*
X92653745Y-82264533D01*
X99288655Y-83707320D02*
X97845868Y-82264533D01*
X87103828Y-82264533D02*
X85352898Y-84015463D01*
X92653745Y-82264533D02*
X87103828Y-82264533D01*
X83758396Y-84015463D02*
X78806519Y-88967340D01*
X85352898Y-84015463D02*
X83758396Y-84015463D01*
X78806519Y-92125503D02*
X74313722Y-96618300D01*
X78806519Y-88967340D02*
X78806519Y-92125503D01*
X73413723Y-105485046D02*
X72888296Y-106010473D01*
X73413723Y-97518299D02*
X73413723Y-105485046D01*
X74313722Y-96618300D02*
X73413723Y-97518299D01*
X73677149Y-114420588D02*
X75111939Y-115855378D01*
X73677149Y-106799326D02*
X73677149Y-114420588D01*
X72888296Y-106010473D02*
X73677149Y-106799326D01*
X77775624Y-121448533D02*
X81038323Y-124711232D01*
X77775624Y-118519063D02*
X77775624Y-121448533D01*
X75111939Y-115855378D02*
X77775624Y-118519063D01*
X83690309Y-124711232D02*
X90166549Y-131187472D01*
X81038323Y-124711232D02*
X83690309Y-124711232D01*
X90226172Y-131247095D02*
X98589585Y-131247095D01*
X98589585Y-131247095D02*
X101490863Y-134148373D01*
X90166549Y-131187472D02*
X90226172Y-131247095D01*
X113261382Y-133248374D02*
X113622317Y-132887439D01*
X102390862Y-133248374D02*
X113261382Y-133248374D01*
X101490863Y-134148373D02*
X102390862Y-133248374D01*
X122142097Y-130073351D02*
X124967758Y-127247690D01*
X116436405Y-130073351D02*
X122142097Y-130073351D01*
X113622317Y-132887439D02*
X116436405Y-130073351D01*
X133272754Y-117669902D02*
X133943301Y-117669902D01*
X124967758Y-125974898D02*
X133272754Y-117669902D01*
X124967758Y-127247690D02*
X124967758Y-125974898D01*
X133943301Y-117669902D02*
X133943301Y-113240226D01*
X139194128Y-107989399D02*
X139194128Y-105160142D01*
X133943301Y-113240226D02*
X139194128Y-107989399D01*
X88550146Y-104822679D02*
X88550146Y-106610572D01*
X91954120Y-101418705D02*
X88550146Y-104822679D01*
X88550146Y-112076049D02*
X89266167Y-112792070D01*
X88550146Y-106610572D02*
X88550146Y-112076049D01*
X89266167Y-114292495D02*
X93321808Y-118348136D01*
X89266167Y-112792070D02*
X89266167Y-114292495D01*
X96378114Y-118348136D02*
X99999978Y-121970000D01*
X93321808Y-118348136D02*
X96378114Y-118348136D01*
X107533356Y-121970000D02*
X108261370Y-122698014D01*
X99999978Y-121970000D02*
X107533356Y-121970000D01*
X110928596Y-120030788D02*
X116807777Y-120030788D01*
X108261370Y-122698014D02*
X110928596Y-120030788D01*
X122841732Y-113996833D02*
X124243132Y-113996833D01*
X116807777Y-120030788D02*
X122841732Y-113996833D01*
X124243132Y-110185563D02*
X129267914Y-105160781D01*
X124243132Y-113996833D02*
X124243132Y-110185563D01*
X130870192Y-95829611D02*
X130870192Y-94556819D01*
X129267914Y-97431889D02*
X130870192Y-95829611D01*
X129267914Y-105160781D02*
X129267914Y-97431889D01*
X128483417Y-92170044D02*
X128483417Y-83555181D01*
X130870192Y-94556819D02*
X128483417Y-92170044D01*
X122049319Y-73715549D02*
X122087046Y-73677822D01*
X122049319Y-77121083D02*
X122049319Y-73715549D01*
X128483417Y-83555181D02*
X122049319Y-77121083D01*
X113288688Y-66387230D02*
X112234154Y-66387230D01*
X120579280Y-73677822D02*
X113288688Y-66387230D01*
X122087046Y-73677822D02*
X120579280Y-73677822D01*
X102733280Y-65609716D02*
X100000112Y-62876548D01*
X111456640Y-65609716D02*
X102733280Y-65609716D01*
X112234154Y-66387230D02*
X111456640Y-65609716D01*
X86970334Y-63776547D02*
X86857091Y-63889790D01*
X99100113Y-63776547D02*
X86970334Y-63776547D01*
X100000112Y-62876548D02*
X99100113Y-63776547D01*
X77238138Y-66848752D02*
X74489424Y-69597466D01*
X83898129Y-66848752D02*
X77238138Y-66848752D01*
X86857091Y-63889790D02*
X83898129Y-66848752D01*
X111524063Y-104827335D02*
X113384189Y-102967209D01*
X107577395Y-104827335D02*
X111524063Y-104827335D01*
X116933767Y-99417631D02*
X116933767Y-97770637D01*
X113384189Y-102967209D02*
X116933767Y-99417631D01*
X116933767Y-91507207D02*
X117606124Y-90834850D01*
X116933767Y-97770637D02*
X116933767Y-91507207D01*
X115035636Y-88264362D02*
X115035636Y-83591517D01*
X117606124Y-90834850D02*
X115035636Y-88264362D01*
X109342595Y-77898476D02*
X109342595Y-77445061D01*
X115035636Y-83591517D02*
X109342595Y-77898476D01*
X104957320Y-77445061D02*
X101150996Y-73638737D01*
X109342595Y-77445061D02*
X104957320Y-77445061D01*
X92063743Y-73638737D02*
X91515523Y-73090517D01*
X101150996Y-73638737D02*
X92063743Y-73638737D01*
X88349436Y-76256604D02*
X81781124Y-76256604D01*
X91515523Y-73090517D02*
X88349436Y-76256604D01*
X74296410Y-82151565D02*
X73396411Y-83051564D01*
X75886163Y-82151565D02*
X74296410Y-82151565D01*
X81781124Y-76256604D02*
X75886163Y-82151565D01*
X67706656Y-90687698D02*
X67706656Y-92840658D01*
X73396411Y-84997943D02*
X67706656Y-90687698D01*
X73396411Y-83051564D02*
X73396411Y-84997943D01*
X65754893Y-99395959D02*
X65754893Y-104508363D01*
X67706656Y-97444196D02*
X65754893Y-99395959D01*
X67706656Y-92840658D02*
X67706656Y-97444196D01*
X67075208Y-115552373D02*
X68118947Y-116596112D01*
X67075208Y-105828678D02*
X67075208Y-115552373D01*
X65754893Y-104508363D02*
X67075208Y-105828678D01*
X74807795Y-124008219D02*
X74807795Y-127492301D01*
X68118947Y-117319371D02*
X74807795Y-124008219D01*
X68118947Y-116596112D02*
X68118947Y-117319371D01*
X84571334Y-135650112D02*
X85233103Y-135650112D01*
X76413523Y-127492301D02*
X84571334Y-135650112D01*
X74807795Y-127492301D02*
X76413523Y-127492301D01*
X95758732Y-139804246D02*
X98261970Y-139804246D01*
X91604598Y-135650112D02*
X95758732Y-139804246D01*
X85233103Y-135650112D02*
X91604598Y-135650112D01*
X95259074Y-88385471D02*
X91867426Y-88385471D01*
X97484089Y-90610486D02*
X95259074Y-88385471D01*
X87308720Y-88385471D02*
X85704218Y-89989973D01*
X91867426Y-88385471D02*
X87308720Y-88385471D01*
X80913663Y-94780528D02*
X80520730Y-94780528D01*
X85704218Y-89989973D02*
X80913663Y-94780528D01*
X80520730Y-98992026D02*
X77548531Y-101964225D01*
X80520730Y-94780528D02*
X80520730Y-98992026D01*
X77548531Y-110331844D02*
X77642245Y-110425558D01*
X77548531Y-101964225D02*
X77548531Y-110331844D01*
X81175220Y-113958533D02*
X81175220Y-118824723D01*
X77642245Y-110425558D02*
X81175220Y-113958533D01*
X87982667Y-125632170D02*
X87982667Y-125771138D01*
X81175220Y-118824723D02*
X87982667Y-125632170D01*
X93124567Y-125771138D02*
X97373523Y-130020094D01*
X87982667Y-125771138D02*
X93124567Y-125771138D01*
X107576740Y-130020094D02*
X108214740Y-130658094D01*
X97373523Y-130020094D02*
X107576740Y-130020094D01*
X117289810Y-129037868D02*
X119079372Y-127248306D01*
X109834966Y-129037868D02*
X117289810Y-129037868D01*
X108214740Y-130658094D02*
X109834966Y-129037868D01*
X127540081Y-120814069D02*
X128440080Y-119914070D01*
X125513609Y-120814069D02*
X127540081Y-120814069D01*
X119079372Y-127248306D02*
X125513609Y-120814069D01*
X134697210Y-109346907D02*
X134882735Y-109346907D01*
X128440080Y-115604037D02*
X134697210Y-109346907D01*
X128440080Y-119914070D02*
X128440080Y-115604037D01*
X135012046Y-99035138D02*
X137311392Y-96735792D01*
X135012046Y-109217596D02*
X135012046Y-99035138D01*
X134882735Y-109346907D02*
X135012046Y-109217596D01*
X135910718Y-84419423D02*
X135116393Y-83625098D01*
X135910718Y-95335118D02*
X135910718Y-84419423D01*
X137311392Y-96735792D02*
X135910718Y-95335118D01*
X130281237Y-74990926D02*
X128281651Y-72991340D01*
X128281651Y-72991340D02*
X128281651Y-71718548D01*
X135116393Y-83126126D02*
X130281237Y-78290970D01*
X130281237Y-78290970D02*
X130281237Y-74990926D01*
X135116393Y-83625098D02*
X135116393Y-83126126D01*
X95198809Y-111615262D02*
X98090162Y-114506615D01*
X95198809Y-109222998D02*
X95198809Y-111615262D01*
X100976867Y-117393320D02*
X103855995Y-117393320D01*
X98090162Y-114506615D02*
X100976867Y-117393320D01*
X110881554Y-117393320D02*
X111003230Y-117271644D01*
X103855995Y-117393320D02*
X110881554Y-117393320D01*
X117529725Y-113889060D02*
X118100534Y-113889060D01*
X114147141Y-117271644D02*
X117529725Y-113889060D01*
X111003230Y-117271644D02*
X114147141Y-117271644D01*
X123768532Y-108221062D02*
X123768532Y-107494224D01*
X118100534Y-113889060D02*
X123768532Y-108221062D01*
X126664283Y-98828604D02*
X126830325Y-98828604D01*
X123768532Y-101724355D02*
X126664283Y-98828604D01*
X123768532Y-107494224D02*
X123768532Y-101724355D01*
X126830325Y-89392716D02*
X126472426Y-89034817D01*
X126830325Y-98828604D02*
X126830325Y-89392716D01*
X124727277Y-81860573D02*
X122369195Y-79502491D01*
X124727277Y-87289668D02*
X124727277Y-81860573D01*
X126472426Y-89034817D02*
X124727277Y-87289668D01*
X114745667Y-71878963D02*
X114745667Y-71673989D01*
X122369195Y-79502491D02*
X114745667Y-71878963D01*
X108002778Y-70473384D02*
X104366111Y-66836717D01*
X113545062Y-70473384D02*
X108002778Y-70473384D01*
X114745667Y-71673989D02*
X113545062Y-70473384D01*
X93353111Y-66836717D02*
X92447118Y-65930724D01*
X104366111Y-66836717D02*
X93353111Y-66836717D01*
X81404883Y-68498603D02*
X80504884Y-69398602D01*
X89879239Y-68498603D02*
X81404883Y-68498603D01*
X92447118Y-65930724D02*
X89879239Y-68498603D01*
X70155701Y-75668275D02*
X70155701Y-77099517D01*
X76425374Y-69398602D02*
X70155701Y-75668275D01*
X80504884Y-69398602D02*
X76425374Y-69398602D01*
X62895627Y-88213475D02*
X62895627Y-88300901D01*
X70155701Y-80953401D02*
X62895627Y-88213475D01*
X70155701Y-77099517D02*
X70155701Y-80953401D01*
X62895627Y-95431931D02*
X59888682Y-98438876D01*
X59888682Y-98438876D02*
X59888682Y-101751155D01*
X62895627Y-88300901D02*
X62895627Y-95431931D01*
X111262999Y-90594491D02*
X111544294Y-90313196D01*
X111262999Y-95328180D02*
X111262999Y-90594491D01*
X110363000Y-96228179D02*
X111262999Y-95328180D01*
X111544294Y-86721587D02*
X109085750Y-84263043D01*
X111544294Y-90313196D02*
X111544294Y-86721587D01*
X104352351Y-79529644D02*
X103609495Y-79529644D01*
X109085750Y-84263043D02*
X104352351Y-79529644D01*
X96890537Y-78161063D02*
X95990538Y-77261064D01*
X102240914Y-78161063D02*
X96890537Y-78161063D01*
X103609495Y-79529644D02*
X102240914Y-78161063D01*
X88352945Y-77261064D02*
X87413878Y-78200131D01*
X95990538Y-77261064D02*
X88352945Y-77261064D01*
X83025510Y-82588499D02*
X79249848Y-82588499D01*
X87413878Y-78200131D02*
X83025510Y-82588499D01*
X72985309Y-90125830D02*
X72871092Y-90125830D01*
X79249848Y-83861291D02*
X72985309Y-90125830D01*
X79249848Y-82588499D02*
X79249848Y-83861291D01*
X69455779Y-96340883D02*
X69455779Y-99999938D01*
X72871092Y-92925570D02*
X69455779Y-96340883D01*
X72871092Y-90125830D02*
X72871092Y-92925570D01*
X70355778Y-100899937D02*
X70355778Y-110442265D01*
X70355778Y-110442265D02*
X69809777Y-110988266D01*
X69455779Y-99999938D02*
X70355778Y-100899937D01*
X74234909Y-116794310D02*
X74234909Y-121619371D01*
X69809777Y-112369178D02*
X74234909Y-116794310D01*
X69809777Y-110988266D02*
X69809777Y-112369178D01*
X82463439Y-129101234D02*
X82463439Y-130374026D01*
X74981576Y-121619371D02*
X82463439Y-129101234D01*
X74234909Y-121619371D02*
X74981576Y-121619371D01*
X93062525Y-135899410D02*
X93669858Y-135899410D01*
X87537141Y-130374026D02*
X93062525Y-135899410D01*
X82463439Y-130374026D02*
X87537141Y-130374026D01*
X106385785Y-137207405D02*
X106560549Y-137207405D01*
X105077790Y-135899410D02*
X106385785Y-137207405D01*
X93669858Y-135899410D02*
X105077790Y-135899410D01*
X118082110Y-135278696D02*
X119531315Y-133829491D01*
X108489258Y-135278696D02*
X118082110Y-135278696D01*
X106560549Y-137207405D02*
X108489258Y-135278696D01*
X126874665Y-129904517D02*
X130873256Y-125905926D01*
X123456289Y-129904517D02*
X126874665Y-129904517D01*
X119531315Y-133829491D02*
X123456289Y-129904517D01*
X81980578Y-61842021D02*
X80767751Y-63054848D01*
X92769363Y-61842021D02*
X81980578Y-61842021D01*
X94719777Y-59891607D02*
X92769363Y-61842021D01*
X76211456Y-67097475D02*
X72412708Y-67097475D01*
X72412708Y-67097475D02*
X68434693Y-71075490D01*
X80254083Y-63054848D02*
X76211456Y-67097475D01*
X80767751Y-63054848D02*
X80254083Y-63054848D01*
X68434693Y-73363981D02*
X59400977Y-82397697D01*
X59400977Y-82397697D02*
X59400977Y-83183131D01*
X68434693Y-71075490D02*
X68434693Y-73363981D01*
X56014509Y-107093921D02*
X56014509Y-113868344D01*
X56201234Y-106907196D02*
X56014509Y-107093921D01*
X56201234Y-99238881D02*
X56201234Y-106907196D01*
X54997290Y-98034937D02*
X56201234Y-99238881D01*
X69557141Y-136099724D02*
X74104596Y-140647179D01*
X69557141Y-134421029D02*
X69557141Y-136099724D01*
X63850756Y-128714644D02*
X69557141Y-134421029D01*
X62577964Y-128714644D02*
X63850756Y-128714644D01*
X100380105Y-149752913D02*
X106549811Y-149752913D01*
X98337067Y-147709875D02*
X100380105Y-149752913D01*
X89673931Y-147709875D02*
X98337067Y-147709875D01*
X89351143Y-148032663D02*
X89673931Y-147709875D01*
X58698107Y-90725286D02*
X55897289Y-93526104D01*
X55897289Y-97134938D02*
X54997290Y-98034937D01*
X58698107Y-83886001D02*
X58698107Y-90725286D01*
X55897289Y-93526104D02*
X55897289Y-97134938D01*
X59400977Y-83183131D02*
X58698107Y-83886001D01*
X59574510Y-117428345D02*
X59574510Y-124390454D01*
X62577964Y-127393908D02*
X62577964Y-128714644D01*
X56014509Y-113868344D02*
X59574510Y-117428345D01*
X59574510Y-124390454D02*
X62577964Y-127393908D01*
X83551582Y-145574352D02*
X86892832Y-145574352D01*
X86892832Y-145574352D02*
X89351143Y-148032663D01*
X78624409Y-140647179D02*
X83551582Y-145574352D01*
X74104596Y-140647179D02*
X78624409Y-140647179D01*
X133798907Y-139199999D02*
X137806049Y-135192857D01*
X129964329Y-139199999D02*
X133798907Y-139199999D01*
X123616363Y-145367257D02*
X123797071Y-145367257D01*
X137806049Y-135192857D02*
X138405797Y-135192857D01*
X123797071Y-145367257D02*
X129964329Y-139199999D01*
X148983965Y-120290183D02*
X148983965Y-112495921D01*
X138405797Y-135192857D02*
X140839433Y-132759221D01*
X146127463Y-124323407D02*
X146127463Y-123146685D01*
X145000854Y-125450016D02*
X146127463Y-124323407D01*
X146127463Y-123146685D02*
X148983965Y-120290183D01*
X140839433Y-129984275D02*
X145000853Y-125822855D01*
X145000853Y-125822855D02*
X145000854Y-125450016D01*
X140839433Y-132759221D02*
X140839433Y-129984275D01*
D15*
X151945264Y-109534622D02*
X151945264Y-105212972D01*
X148983965Y-112495921D02*
X151945264Y-109534622D01*
X152667224Y-101028634D02*
X152209568Y-100570978D01*
X150697769Y-82683800D02*
X150697769Y-81729714D01*
X150697769Y-81729714D02*
X147441627Y-78473572D01*
X147441627Y-78473572D02*
X147441627Y-72732364D01*
X142066857Y-66468098D02*
X142915573Y-65619382D01*
X142646833Y-69497646D02*
X142066857Y-68917670D01*
X142066857Y-68917670D02*
X142066857Y-66468098D01*
X144206909Y-69497646D02*
X142646833Y-69497646D01*
X147441627Y-72732364D02*
X144206909Y-69497646D01*
X152648362Y-101048691D02*
X152843266Y-101048691D01*
X151006437Y-102690616D02*
X152648362Y-101048691D01*
X151006437Y-104401702D02*
X151006437Y-102690616D01*
X151817707Y-105212972D02*
X151006437Y-104401702D01*
X151945264Y-105212972D02*
X151817707Y-105212972D01*
X152915551Y-100976406D02*
X152915551Y-90351331D01*
X152843266Y-101048691D02*
X152915551Y-100976406D01*
D14*
X109306347Y-146996377D02*
X118843766Y-146996377D01*
X118843766Y-146996377D02*
X120472886Y-145367257D01*
X106549811Y-149752913D02*
X109306347Y-146996377D01*
X120472886Y-145367257D02*
X123616363Y-145367257D01*
D15*
X149871651Y-83778847D02*
X151024268Y-82626230D01*
X149871651Y-87307431D02*
X149871651Y-83778847D01*
X152915551Y-90351331D02*
X149871651Y-87307431D01*
D14*
X88141068Y-140374039D02*
X89181642Y-140374039D01*
X81029475Y-133262446D02*
X88141068Y-140374039D01*
X76709204Y-133262446D02*
X81029475Y-133262446D01*
X99434824Y-142793062D02*
X103743732Y-142793062D01*
X97015801Y-140374039D02*
X99434824Y-142793062D01*
X89181642Y-140374039D02*
X97015801Y-140374039D01*
X103743732Y-142793062D02*
X105650104Y-140886690D01*
X117696762Y-140886690D02*
X118630267Y-139953185D01*
X105650104Y-140886690D02*
X117696762Y-140886690D01*
X141918905Y-119795103D02*
X141918905Y-119547349D01*
X131947882Y-129766126D02*
X141918905Y-119795103D01*
X131947882Y-131948170D02*
X131947882Y-129766126D01*
X146218736Y-108672173D02*
X146218736Y-105022590D01*
X146218736Y-105022590D02*
X147118735Y-104122591D01*
X141918905Y-119547349D02*
X141918905Y-112972004D01*
X141918905Y-112972004D02*
X146218736Y-108672173D01*
X146675269Y-94386813D02*
X146675269Y-87493659D01*
X146087732Y-94974350D02*
X146675269Y-94386813D01*
X146087732Y-103091588D02*
X146087732Y-94974350D01*
X147118735Y-104122591D02*
X146087732Y-103091588D01*
X116000064Y-53213000D02*
X113268713Y-50481649D01*
X128853257Y-58793773D02*
X124239044Y-58793773D01*
X118658271Y-53213000D02*
X116000064Y-53213000D01*
X124239044Y-58793773D02*
X118658271Y-53213000D01*
X81279544Y-51843310D02*
X77544536Y-51843310D01*
X95450034Y-47990002D02*
X92871185Y-50568851D01*
X92871185Y-50568851D02*
X87911925Y-50568851D01*
X55892319Y-70533366D02*
X55084299Y-70533366D01*
X59107418Y-67318267D02*
X55892319Y-70533366D01*
X96350033Y-48890001D02*
X95450034Y-47990002D01*
X113141263Y-50609099D02*
X104238664Y-50609099D01*
X113268713Y-50481649D02*
X113141263Y-50609099D01*
X104238664Y-50609099D02*
X102519566Y-48890001D01*
X102519566Y-48890001D02*
X96350033Y-48890001D01*
X133442699Y-63383215D02*
X128853257Y-58793773D01*
X140403140Y-71709743D02*
X139130348Y-71709743D01*
X139130348Y-71709743D02*
X133442699Y-66022094D01*
X133442699Y-66022094D02*
X133442699Y-63383215D01*
D15*
X83563680Y-51066320D02*
X82056534Y-51066320D01*
X84176571Y-50453428D02*
X83563680Y-51066320D01*
X87796502Y-50453428D02*
X84176571Y-50453428D01*
X87911925Y-50568851D02*
X87796502Y-50453428D01*
X82056534Y-51066320D02*
X81279544Y-51843310D01*
X61582936Y-63317300D02*
X61582936Y-62140708D01*
X61582936Y-64842749D02*
X61582936Y-63317300D01*
X61582936Y-62140708D02*
X63537172Y-60186472D01*
X65621887Y-60186472D02*
X68899351Y-56909008D01*
X59107418Y-67318267D02*
X61582936Y-64842749D01*
X71959869Y-56909008D02*
X77025567Y-51843310D01*
X68899351Y-56909008D02*
X71959869Y-56909008D01*
X77025567Y-51843310D02*
X77544536Y-51843310D01*
X63537172Y-60186472D02*
X65621887Y-60186472D01*
X50386278Y-75231388D02*
X50613833Y-75003833D01*
X50386278Y-78134341D02*
X50386278Y-75231388D01*
X50613833Y-75003833D02*
X55084299Y-70533366D01*
X46645424Y-96482787D02*
X45372632Y-96482787D01*
X47348407Y-95779804D02*
X46645424Y-96482787D01*
X46564741Y-92415118D02*
X47348407Y-93198784D01*
X46564741Y-85903273D02*
X46564741Y-92415118D01*
X47348407Y-93198784D02*
X47348407Y-95779804D01*
X50386278Y-82081736D02*
X46564741Y-85903273D01*
X50386278Y-78134341D02*
X50386278Y-82081736D01*
X119329177Y-139953185D02*
X123952362Y-135330000D01*
X118630267Y-139953185D02*
X119329177Y-139953185D01*
X131828580Y-131948170D02*
X131947882Y-131948170D01*
X128446750Y-135330000D02*
X131828580Y-131948170D01*
X123952362Y-135330000D02*
X128446750Y-135330000D01*
X143184341Y-76418332D02*
X140403140Y-73637131D01*
X140403140Y-73637131D02*
X140403140Y-71709743D01*
X146675269Y-85603700D02*
X143184341Y-82112772D01*
X146675269Y-87493659D02*
X146675269Y-85603700D01*
X143184341Y-82112772D02*
X143184341Y-76418332D01*
D14*
X129508652Y-69078837D02*
X126237165Y-65807350D01*
X129508652Y-72868545D02*
X129508652Y-69078837D01*
X135376058Y-77463159D02*
X134103266Y-77463159D01*
X134103266Y-77463159D02*
X129508652Y-72868545D01*
X122383960Y-65807350D02*
X114401250Y-57824640D01*
X114401250Y-57824640D02*
X113298041Y-57824640D01*
X126237165Y-65807350D02*
X122383960Y-65807350D01*
X102456598Y-54726472D02*
X98023521Y-54726472D01*
X105554766Y-57824640D02*
X102456598Y-54726472D01*
X113298041Y-57824640D02*
X105554766Y-57824640D01*
X82862542Y-56533173D02*
X82249586Y-57146129D01*
X96216820Y-56533173D02*
X82862542Y-56533173D01*
X98023521Y-54726472D02*
X96216820Y-56533173D01*
X50770277Y-103949577D02*
X50770277Y-110913674D01*
X51792577Y-102927277D02*
X50770277Y-103949577D01*
X51792577Y-95634592D02*
X51792577Y-102927277D01*
X50976430Y-94818445D02*
X51792577Y-95634592D01*
X50976430Y-93545653D02*
X50976430Y-94818445D01*
X91551227Y-150784841D02*
X93972355Y-153205969D01*
X83987247Y-150784841D02*
X91551227Y-150784841D01*
X137295417Y-80655310D02*
X135376058Y-78735951D01*
X135376058Y-78735951D02*
X135376058Y-77463159D01*
X139790982Y-91178704D02*
X137295417Y-88683139D01*
X137295417Y-88683139D02*
X137295417Y-80655310D01*
X76244600Y-62209357D02*
X72054173Y-62209357D01*
X69231173Y-65032357D02*
X67958381Y-65032357D01*
X72054173Y-62209357D02*
X69231173Y-65032357D01*
X81307828Y-57146129D02*
X76244600Y-62209357D01*
X82249586Y-57146129D02*
X81307828Y-57146129D01*
X62344256Y-72548830D02*
X61014387Y-72548830D01*
X67958381Y-66934705D02*
X62344256Y-72548830D01*
X61014387Y-72548830D02*
X57026180Y-76537037D01*
X57026180Y-76537037D02*
X57026180Y-77628960D01*
X67958381Y-65032357D02*
X67958381Y-66934705D01*
X52504786Y-92017297D02*
X50976430Y-93545653D01*
X57026180Y-82981656D02*
X52504786Y-87503050D01*
X57026180Y-77628960D02*
X57026180Y-82981656D01*
X52504786Y-87503050D02*
X52504786Y-92017297D01*
X54152941Y-122573122D02*
X56662889Y-125083070D01*
X56662889Y-125083070D02*
X56662889Y-127608425D01*
X54152941Y-114296338D02*
X54152941Y-122573122D01*
X50770277Y-110913674D02*
X54152941Y-114296338D01*
X63547712Y-136853739D02*
X68146099Y-141452126D01*
X68146099Y-141452126D02*
X68146099Y-141512287D01*
X60964315Y-131366187D02*
X63547712Y-133949585D01*
X63547712Y-133949585D02*
X63547712Y-136853739D01*
X60420651Y-131366187D02*
X60964315Y-131366187D01*
X56662889Y-127608425D02*
X60420651Y-131366187D01*
X72258123Y-141512287D02*
X79109197Y-148363361D01*
X79109197Y-148363361D02*
X81565767Y-148363361D01*
X68146099Y-141512287D02*
X72258123Y-141512287D01*
X81565767Y-148363361D02*
X83987247Y-150784841D01*
D15*
X98885969Y-153205969D02*
X97924031Y-153205969D01*
X99835984Y-154155984D02*
X98885969Y-153205969D01*
D14*
X93972355Y-153205969D02*
X97924031Y-153205969D01*
D15*
X126036598Y-145889723D02*
X130562077Y-145889723D01*
X102502540Y-154155984D02*
X103546470Y-153112054D01*
X99835984Y-154155984D02*
X102502540Y-154155984D01*
X130562077Y-145889723D02*
X134090000Y-142361800D01*
X137152821Y-138812149D02*
X138052820Y-139712148D01*
X135816397Y-138812149D02*
X137152821Y-138812149D01*
X134090000Y-140538546D02*
X135816397Y-138812149D01*
X134090000Y-142361800D02*
X134090000Y-140538546D01*
X103546470Y-153112054D02*
X104915390Y-151743134D01*
X112676742Y-151743134D02*
X112678742Y-151741134D01*
X104915390Y-151743134D02*
X112676742Y-151743134D01*
D14*
X115547289Y-152708408D02*
X117395823Y-150859875D01*
X117395823Y-150859875D02*
X121066446Y-150859875D01*
X121066446Y-150859875D02*
X126036598Y-145889723D01*
X113646016Y-152708408D02*
X115547289Y-152708408D01*
X112678742Y-151741134D02*
X113646016Y-152708408D01*
X57415836Y-102408039D02*
X57415836Y-107508556D01*
X58800287Y-92942574D02*
X58800287Y-101023588D01*
X58800287Y-101023588D02*
X57415836Y-102408039D01*
X58548534Y-92690821D02*
X58800287Y-92942574D01*
X60565552Y-121163033D02*
X61582595Y-122180076D01*
X60565552Y-110658272D02*
X60565552Y-121163033D01*
X57415836Y-107508556D02*
X60565552Y-110658272D01*
X66182002Y-130215639D02*
X70784142Y-134817779D01*
X66182002Y-126779483D02*
X66182002Y-130215639D01*
X61582595Y-122180076D02*
X66182002Y-126779483D01*
X82655911Y-143710972D02*
X84090270Y-143710972D01*
X73762718Y-134817779D02*
X82655911Y-143710972D01*
X70784142Y-134817779D02*
X73762718Y-134817779D01*
X64573156Y-83455072D02*
X59448533Y-88579695D01*
X64573156Y-79546128D02*
X64573156Y-83455072D01*
X59448533Y-88579695D02*
X59448533Y-91790822D01*
X59448533Y-91790822D02*
X58548534Y-92690821D01*
X84090270Y-143710972D02*
X91661003Y-143710972D01*
X99099762Y-146656608D02*
X99999761Y-147556607D01*
X91661003Y-143710972D02*
X94606639Y-146656608D01*
X94606639Y-146656608D02*
X99099762Y-146656608D01*
X127732310Y-140789950D02*
X130549262Y-137972998D01*
X130549262Y-137972998D02*
X131862774Y-137972998D01*
X116613052Y-145644732D02*
X117853958Y-145644732D01*
X117853958Y-145644732D02*
X122708740Y-140789950D01*
X122708740Y-140789950D02*
X127732310Y-140789950D01*
X145134397Y-118085665D02*
X148529954Y-114690108D01*
X143773852Y-125273177D02*
X145134397Y-123912632D01*
X148529954Y-114690108D02*
X148529954Y-111133970D01*
X148529954Y-111133970D02*
X150720263Y-108943661D01*
X145134397Y-123912632D02*
X145134397Y-118085665D01*
X114442626Y-146542366D02*
X115340260Y-145644732D01*
X109883827Y-146542366D02*
X114442626Y-146542366D01*
X109239322Y-145897861D02*
X109883827Y-146542366D01*
X99999761Y-147556607D02*
X101658507Y-145897861D01*
X101658507Y-145897861D02*
X109239322Y-145897861D01*
X115340260Y-145644732D02*
X116613052Y-145644732D01*
X140385423Y-128661606D02*
X143773852Y-125273177D01*
X140385423Y-131414103D02*
X140385423Y-128661606D01*
X133826528Y-137972998D02*
X140385423Y-131414103D01*
X131862774Y-137972998D02*
X133826528Y-137972998D01*
D15*
X117238648Y-48925045D02*
X117315045Y-48925045D01*
D14*
X146214626Y-73318365D02*
X145828312Y-73318365D01*
X139460150Y-66950203D02*
X139460150Y-63002923D01*
X145828312Y-73318365D02*
X139460150Y-66950203D01*
X149820264Y-108043662D02*
X149820264Y-99708421D01*
X149820264Y-99708421D02*
X151645117Y-97883568D01*
X151645117Y-97883568D02*
X151645117Y-90893899D01*
X150720263Y-108943661D02*
X149820264Y-108043662D01*
D15*
X134816845Y-58359618D02*
X139460150Y-63002923D01*
X133339508Y-58359618D02*
X134816845Y-58359618D01*
X118550969Y-48630969D02*
X117391735Y-48630969D01*
X131373079Y-58359618D02*
X123552165Y-50538704D01*
X123552165Y-50538704D02*
X123204004Y-50538704D01*
X133339508Y-58359618D02*
X131373079Y-58359618D01*
X119156892Y-48025046D02*
X118550969Y-48630969D01*
X123204004Y-50538704D02*
X120690346Y-48025046D01*
X120690346Y-48025046D02*
X119156892Y-48025046D01*
D14*
X146214626Y-77885811D02*
X146214626Y-73318365D01*
X149227990Y-80899175D02*
X146214626Y-77885811D01*
X151645117Y-90893899D02*
X149227990Y-88476772D01*
X149227990Y-88476772D02*
X149227990Y-80899175D01*
D15*
X111418080Y-48166004D02*
X116926770Y-48166004D01*
X116926770Y-48166004D02*
X117391735Y-48630969D01*
X98806975Y-45431577D02*
X100521263Y-47145865D01*
X98806975Y-44798582D02*
X98806975Y-45431577D01*
X101866326Y-47145865D02*
X103483150Y-45529041D01*
X108781117Y-45529041D02*
X111418080Y-48166004D01*
X100521263Y-47145865D02*
X101866326Y-47145865D01*
X103483150Y-45529041D02*
X108781117Y-45529041D01*
D14*
X132765119Y-127132927D02*
X136588431Y-123309615D01*
X130814643Y-127132927D02*
X132765119Y-127132927D01*
X125711808Y-132235762D02*
X130814643Y-127132927D01*
X125711808Y-133508554D02*
X125711808Y-132235762D01*
X143286372Y-101199761D02*
X145196085Y-99290048D01*
X145196085Y-99290048D02*
X145196085Y-94050035D01*
X143286372Y-109474229D02*
X143286372Y-101199761D01*
X143443545Y-109631402D02*
X143286372Y-109474229D01*
X119592499Y-55007481D02*
X118636790Y-55007481D01*
X129428109Y-64843091D02*
X119592499Y-55007481D01*
X132215698Y-64843091D02*
X129428109Y-64843091D01*
X85007860Y-51435141D02*
X84764572Y-51678429D01*
X100699747Y-51822358D02*
X92629487Y-51822358D01*
X92242270Y-51435141D02*
X85007860Y-51435141D01*
X92629487Y-51822358D02*
X92242270Y-51435141D01*
X102167854Y-50354251D02*
X100699747Y-51822358D01*
X62301802Y-66594600D02*
X60839027Y-66594600D01*
X68575314Y-60321089D02*
X62301802Y-66594600D01*
X68575314Y-59046047D02*
X68575314Y-60321089D01*
X60839027Y-66594600D02*
X55673260Y-71760367D01*
X48225517Y-97983769D02*
X46083124Y-100126162D01*
X48225517Y-88860689D02*
X48225517Y-97983769D01*
X47789742Y-88424914D02*
X48225517Y-88860689D01*
X115652065Y-135851098D02*
X122096472Y-135851098D01*
X124439016Y-133508554D02*
X125711808Y-133508554D01*
X122096472Y-135851098D02*
X124439016Y-133508554D01*
X112346035Y-139157128D02*
X115652065Y-135851098D01*
X141464894Y-113546815D02*
X141464894Y-111610053D01*
X136588431Y-118423278D02*
X141464894Y-113546815D01*
X141464894Y-111610053D02*
X143443545Y-109631402D01*
X136588431Y-123309615D02*
X136588431Y-118423278D01*
X141377089Y-80950418D02*
X141377089Y-78460705D01*
X142792536Y-91646486D02*
X142792536Y-82365865D01*
X145196085Y-94050035D02*
X142792536Y-91646486D01*
X142792536Y-82365865D02*
X141377089Y-80950418D01*
X135689990Y-69590175D02*
X132215698Y-66115883D01*
X132215698Y-66115883D02*
X132215698Y-64843091D01*
X141377089Y-78460705D02*
X135689990Y-72773606D01*
X135689990Y-72773606D02*
X135689990Y-69590175D01*
X84764572Y-51678429D02*
X83178703Y-51678429D01*
X73240758Y-56273015D02*
X70467726Y-59046047D01*
X78584117Y-56273015D02*
X73240758Y-56273015D01*
X83178703Y-51678429D02*
X78584117Y-56273015D01*
X70467726Y-59046047D02*
X68575314Y-59046047D01*
X107563497Y-51254250D02*
X103067853Y-51254250D01*
X118636790Y-55007481D02*
X111316728Y-55007481D01*
X111316728Y-55007481D02*
X107563497Y-51254250D01*
X103067853Y-51254250D02*
X102167854Y-50354251D01*
D15*
X46083124Y-107097935D02*
X47176492Y-108191303D01*
X46083124Y-100126162D02*
X46083124Y-107097935D01*
X48076491Y-118683669D02*
X48076491Y-109091302D01*
X49300022Y-119907200D02*
X48076491Y-118683669D01*
X51102406Y-126174474D02*
X49300022Y-124372090D01*
X48076491Y-109091302D02*
X47176492Y-108191303D01*
X52375198Y-126174474D02*
X51102406Y-126174474D01*
X49300022Y-124372090D02*
X49300022Y-119907200D01*
X62200247Y-141604564D02*
X63473039Y-141604564D01*
X60854744Y-140259061D02*
X62200247Y-141604564D01*
X55774751Y-129574027D02*
X55774751Y-133791929D01*
X60854744Y-138871922D02*
X60854744Y-140259061D01*
X55774751Y-133791929D02*
X60854744Y-138871922D01*
X52375198Y-126174474D02*
X55774751Y-129574027D01*
D14*
X50838288Y-82268966D02*
X47789742Y-85317512D01*
X55673260Y-76465980D02*
X50838288Y-81300952D01*
X47789742Y-85317512D02*
X47789742Y-88424914D01*
X50838288Y-81300952D02*
X50838288Y-82268966D01*
X55673260Y-71760367D02*
X55673260Y-76465980D01*
X89305586Y-58529461D02*
X88735414Y-57959289D01*
X102944291Y-58529461D02*
X89305586Y-58529461D01*
X103693958Y-57779794D02*
X102944291Y-58529461D01*
X66475717Y-69848489D02*
X62548375Y-73775831D01*
X68520503Y-69848489D02*
X66475717Y-69848489D01*
X74398103Y-63970889D02*
X68520503Y-69848489D01*
X74398103Y-63436358D02*
X74398103Y-63970889D01*
X54831486Y-96384779D02*
X52368877Y-98847388D01*
X54815376Y-89165373D02*
X54831486Y-89181483D01*
X54815376Y-87892581D02*
X54815376Y-89165373D01*
X52368877Y-98847388D02*
X52368877Y-104166939D01*
X54831486Y-89181483D02*
X54831486Y-96384779D01*
X54650539Y-119535186D02*
X55749441Y-120634088D01*
X54650539Y-106448601D02*
X54650539Y-119535186D01*
X52368877Y-104166939D02*
X54650539Y-106448601D01*
X72877595Y-141236140D02*
X77669818Y-146028363D01*
X72877595Y-140791915D02*
X72877595Y-141236140D01*
X77669818Y-146028363D02*
X78536299Y-146028363D01*
X67310578Y-135224898D02*
X72877595Y-140791915D01*
X64774713Y-135224898D02*
X67310578Y-135224898D01*
X107274947Y-58679793D02*
X104593957Y-58679793D01*
X104593957Y-58679793D02*
X103693958Y-57779794D01*
X111249323Y-62654169D02*
X107274947Y-58679793D01*
X117414817Y-62654169D02*
X111249323Y-62654169D01*
X77851094Y-61256159D02*
X75670895Y-63436358D01*
X75670895Y-63436358D02*
X74398103Y-63436358D01*
X85438544Y-61256159D02*
X77851094Y-61256159D01*
X88735414Y-57959289D02*
X85438544Y-61256159D01*
X57480191Y-85227766D02*
X54815376Y-87892581D01*
X57480191Y-83115877D02*
X57480191Y-85227766D01*
X62548375Y-78047693D02*
X57480191Y-83115877D01*
X62548375Y-73775831D02*
X62548375Y-78047693D01*
X55749441Y-121207453D02*
X61350963Y-126808975D01*
X64774713Y-133952106D02*
X64774713Y-135224898D01*
X61350963Y-130528356D02*
X64774713Y-133952106D01*
X61350963Y-126808975D02*
X61350963Y-130528356D01*
X55749441Y-120634088D02*
X55749441Y-121207453D01*
X88898630Y-150330830D02*
X94278919Y-150330830D01*
X94278919Y-150330830D02*
X95490328Y-151542239D01*
X84596163Y-146028363D02*
X88898630Y-150330830D01*
X78536299Y-146028363D02*
X84596163Y-146028363D01*
X127384190Y-143900063D02*
X130738735Y-143900063D01*
X119471909Y-147010302D02*
X124273951Y-147010302D01*
X124273951Y-147010302D02*
X127384190Y-143900063D01*
D15*
X143016446Y-129488003D02*
X144326794Y-129488003D01*
X141291444Y-131213005D02*
X143016446Y-129488003D01*
X141291444Y-134120212D02*
X138991798Y-136419858D01*
X138991798Y-136419858D02*
X137439858Y-136419858D01*
X141291444Y-131213005D02*
X141291444Y-134120212D01*
D14*
X130738735Y-143120981D02*
X137439858Y-136419858D01*
X130738735Y-143900063D02*
X130738735Y-143120981D01*
X115603102Y-150879109D02*
X119471909Y-147010302D01*
X113632679Y-150879109D02*
X115603102Y-150879109D01*
D15*
X151323155Y-112778626D02*
X150208966Y-113892815D01*
X149656859Y-121430290D02*
X149656859Y-122885146D01*
X150208966Y-120878184D02*
X149656859Y-121430290D01*
X144326794Y-128215211D02*
X144326794Y-129488003D01*
X150208966Y-113892815D02*
X150208966Y-120878184D01*
X152595947Y-112778626D02*
X151323155Y-112778626D01*
X149656859Y-122885146D02*
X144326794Y-128215211D01*
X153585419Y-95021703D02*
X154664068Y-93943054D01*
X154068267Y-97908997D02*
X153585419Y-97426149D01*
X153585419Y-97426149D02*
X153585419Y-95021703D01*
X154068267Y-105512344D02*
X154068267Y-97908997D01*
X152595947Y-106984664D02*
X154068267Y-105512344D01*
X152595947Y-112778626D02*
X152595947Y-106984664D01*
X113347962Y-151163826D02*
X113632679Y-150879109D01*
X95868741Y-151163826D02*
X113347962Y-151163826D01*
X95490328Y-151542239D02*
X95868741Y-151163826D01*
D14*
X79837903Y-138207107D02*
X79837903Y-138730630D01*
X70360820Y-128730024D02*
X79837903Y-138207107D01*
X68646429Y-128730024D02*
X70360820Y-128730024D01*
X102012583Y-144766953D02*
X109924376Y-144766953D01*
X101035222Y-143789592D02*
X102012583Y-144766953D01*
X96028755Y-143789592D02*
X101035222Y-143789592D01*
X95428566Y-144389781D02*
X96028755Y-143789592D01*
X94155774Y-144389781D02*
X95428566Y-144389781D01*
X65338736Y-124149539D02*
X68646429Y-127457232D01*
X68646429Y-127457232D02*
X68646429Y-128730024D01*
X65338736Y-120445205D02*
X65338736Y-124149539D01*
X61792553Y-116899022D02*
X65338736Y-120445205D01*
X61792553Y-115825874D02*
X61792553Y-116899022D01*
X85722271Y-138730630D02*
X90248602Y-143256961D01*
X93022954Y-143256961D02*
X94155774Y-144389781D01*
X79837903Y-138730630D02*
X85722271Y-138730630D01*
X90248602Y-143256961D02*
X93022954Y-143256961D01*
X144680386Y-118875629D02*
X144680386Y-116723714D01*
X144680386Y-116723714D02*
X146684317Y-114719783D01*
X138033793Y-125522222D02*
X144680386Y-118875629D01*
X138033793Y-129184665D02*
X138033793Y-125522222D01*
X146684317Y-106372971D02*
X148990723Y-104066565D01*
X148990723Y-104066565D02*
X148990723Y-98722000D01*
X148990723Y-98722000D02*
X149890722Y-97822001D01*
X146684317Y-114719783D02*
X146684317Y-106372971D01*
X148278199Y-89965335D02*
X148278199Y-85507894D01*
X147774087Y-90469447D02*
X148278199Y-89965335D01*
X147031915Y-84261610D02*
X147031915Y-80519062D01*
X149890722Y-97822001D02*
X147774087Y-95705366D01*
X147774087Y-95705366D02*
X147774087Y-90469447D01*
X148278199Y-85507894D02*
X147031915Y-84261610D01*
X121676436Y-141180186D02*
X123293673Y-139562949D01*
X113350628Y-141340701D02*
X117884820Y-141340700D01*
X118045334Y-141180186D02*
X121676436Y-141180186D01*
X123293673Y-139562949D02*
X125204107Y-139562949D01*
X109924376Y-144766953D02*
X113350628Y-141340701D01*
X117884820Y-141340700D02*
X118045334Y-141180186D01*
X132786180Y-134432278D02*
X138033793Y-129184665D01*
X126104106Y-138311884D02*
X129983712Y-134432278D01*
X129983712Y-134432278D02*
X132786180Y-134432278D01*
X125204107Y-139562949D02*
X126104106Y-138662950D01*
X126104106Y-138662950D02*
X126104106Y-138311884D01*
X81864477Y-50616309D02*
X75153711Y-50616309D01*
X125162173Y-53175305D02*
X124375764Y-53175305D01*
X130080258Y-58093390D02*
X125162173Y-53175305D01*
X138233149Y-64966195D02*
X136003650Y-64966195D01*
X130080258Y-59042803D02*
X130080258Y-58093390D01*
X136003650Y-64966195D02*
X130080258Y-59042803D01*
X113223041Y-48620015D02*
X108876285Y-48620015D01*
X108876285Y-48620015D02*
X107010312Y-46754042D01*
X113980081Y-49377055D02*
X113223041Y-48620015D01*
X119262644Y-53175305D02*
X115464395Y-49377056D01*
X124375764Y-53175305D02*
X119262644Y-53175305D01*
X115464395Y-49377056D02*
X113980081Y-49377055D01*
D15*
X84783739Y-47697047D02*
X81864477Y-50616309D01*
X87207654Y-47697047D02*
X84783739Y-47697047D01*
X73307953Y-50616309D02*
X75153711Y-50616309D01*
X69598599Y-54325663D02*
X73307953Y-50616309D01*
X69598599Y-54339132D02*
X69598599Y-54325663D01*
X57655876Y-68044124D02*
X58931491Y-66768509D01*
X58931491Y-66768509D02*
X58931491Y-64155743D01*
X58931491Y-64155743D02*
X64870231Y-58217003D01*
X64870231Y-58217003D02*
X65720728Y-58217003D01*
X65720728Y-58217003D02*
X69598599Y-54339132D01*
X55221645Y-67144125D02*
X56121644Y-68044124D01*
X56121644Y-68044124D02*
X57655876Y-68044124D01*
D14*
X142271545Y-70403666D02*
X138233149Y-66365270D01*
X138233149Y-66365270D02*
X138233149Y-64966195D01*
X147031915Y-79626666D02*
X142271545Y-74866296D01*
X142271545Y-74866296D02*
X142271545Y-70403666D01*
X147031915Y-80519062D02*
X147031915Y-79626666D01*
D15*
X106110313Y-47654041D02*
X100393029Y-47654041D01*
X107010312Y-46754042D02*
X106110313Y-47654041D01*
X100393029Y-47654041D02*
X99503989Y-46765001D01*
X99503989Y-46765001D02*
X88088487Y-46765001D01*
X88088487Y-46765001D02*
X87221478Y-47632010D01*
D14*
X142670000Y-105155595D02*
X142670000Y-100000171D01*
X139000543Y-114195204D02*
X139000543Y-108825052D01*
X139000543Y-108825052D02*
X142670000Y-105155595D01*
X141341033Y-85196413D02*
X141162788Y-85018168D01*
X141341033Y-98671204D02*
X141341033Y-85196413D01*
X142670000Y-100000171D02*
X141341033Y-98671204D01*
X127464166Y-64644526D02*
X122993742Y-60174102D01*
X127464166Y-65469799D02*
X127464166Y-64644526D01*
X133127294Y-71132927D02*
X127464166Y-65469799D01*
X134402749Y-71132927D02*
X133127294Y-71132927D01*
X97775153Y-52662142D02*
X91653309Y-52662142D01*
X99270260Y-54157249D02*
X97775153Y-52662142D01*
X107686540Y-54157249D02*
X99270260Y-54157249D01*
X108168537Y-53675252D02*
X107686540Y-54157249D01*
X72204126Y-147386276D02*
X72641098Y-147386276D01*
X66919098Y-142101248D02*
X72204126Y-147386276D01*
X66919098Y-140867194D02*
X66919098Y-142101248D01*
X60645718Y-134593813D02*
X66919098Y-140867194D01*
X58772157Y-134593813D02*
X60645718Y-134593813D01*
X136603059Y-74606029D02*
X134402749Y-72405719D01*
X134402749Y-72405719D02*
X134402749Y-71132927D01*
X141162788Y-85018168D02*
X141162788Y-83731336D01*
X136603059Y-79171607D02*
X136603059Y-74606029D01*
X141162788Y-83731336D02*
X136603059Y-79171607D01*
X117444034Y-60174102D02*
X112731424Y-55461492D01*
X109954777Y-55461492D02*
X108168537Y-53675252D01*
X122993742Y-60174102D02*
X117444034Y-60174102D01*
X112731424Y-55461492D02*
X109954777Y-55461492D01*
X77999184Y-57500016D02*
X75462927Y-57500016D01*
X79830821Y-55668379D02*
X77999184Y-57500016D01*
X91653309Y-52662142D02*
X88647072Y-55668379D01*
X88647072Y-55668379D02*
X79830821Y-55668379D01*
X66940750Y-63805356D02*
X62924505Y-67821601D01*
X62924505Y-67821601D02*
X61651713Y-67821601D01*
X69267879Y-63805356D02*
X66940750Y-63805356D01*
X75462927Y-57610308D02*
X69267879Y-63805356D01*
X75462927Y-57500016D02*
X75462927Y-57610308D01*
X54487218Y-80111150D02*
X52050775Y-82547593D01*
X54487218Y-78351960D02*
X54487218Y-80111150D01*
X56437219Y-76401959D02*
X54487218Y-78351960D01*
X61651713Y-71269436D02*
X56519190Y-76401959D01*
X61651713Y-67821601D02*
X61651713Y-71269436D01*
X56519190Y-76401959D02*
X56437219Y-76401959D01*
X48925561Y-92538449D02*
X48925561Y-99099687D01*
X48925561Y-99099687D02*
X48025562Y-99999686D01*
X52050775Y-89413235D02*
X48925561Y-92538449D01*
X52050775Y-82547593D02*
X52050775Y-89413235D01*
X49385570Y-111344929D02*
X50285569Y-112244928D01*
X50285569Y-112244928D02*
X50285569Y-118094221D01*
X49385570Y-101359694D02*
X49385570Y-111344929D01*
X48025562Y-99999686D02*
X49385570Y-101359694D01*
X50285569Y-118094221D02*
X53675925Y-121484577D01*
X53675925Y-126437423D02*
X58772157Y-131533655D01*
X58772157Y-131533655D02*
X58772157Y-134593813D01*
X53675925Y-121484577D02*
X53675925Y-126437423D01*
X80203816Y-148817372D02*
X86142332Y-154755888D01*
X86142332Y-154755888D02*
X90344668Y-154755888D01*
X72641098Y-147386276D02*
X76855347Y-147386276D01*
X78286443Y-148817372D02*
X80203816Y-148817372D01*
X76855347Y-147386276D02*
X78286443Y-148817372D01*
X100652923Y-155612163D02*
X109805515Y-155612163D01*
X90344668Y-154755888D02*
X91342575Y-153757981D01*
X91342575Y-153757981D02*
X98798741Y-153757981D01*
X98798741Y-153757981D02*
X100652923Y-155612163D01*
D15*
X91295847Y-43362536D02*
X88967464Y-43362536D01*
X72085087Y-47810806D02*
X72085087Y-49083598D01*
X73581449Y-46314444D02*
X72085087Y-47810806D01*
X86015556Y-46314444D02*
X73581449Y-46314444D01*
X88967464Y-43362536D02*
X86015556Y-46314444D01*
X122499842Y-48849970D02*
X122471160Y-48849970D01*
X112468512Y-47294736D02*
X111029568Y-45855792D01*
X111029568Y-45855792D02*
X111029568Y-44583000D01*
X126067696Y-52417824D02*
X122499842Y-48849970D01*
X120915927Y-47294736D02*
X112468512Y-47294736D01*
X122471160Y-48849970D02*
X120915927Y-47294736D01*
X128859144Y-52417824D02*
X126067696Y-52417824D01*
X96107904Y-43573581D02*
X94768373Y-44913112D01*
X99647171Y-43573581D02*
X96107904Y-43573581D01*
X92846423Y-44913112D02*
X91295847Y-43362536D01*
X100156846Y-44083257D02*
X99647171Y-43573581D01*
X111029568Y-44583000D02*
X110529825Y-44083257D01*
X110529825Y-44083257D02*
X100156846Y-44083257D01*
X94768373Y-44913112D02*
X92846423Y-44913112D01*
X62851866Y-55785300D02*
X60136595Y-55785300D01*
X66378681Y-54790004D02*
X63847161Y-54790004D01*
X72085087Y-49083598D02*
X66378681Y-54790004D01*
X63847161Y-54790004D02*
X62851866Y-55785300D01*
X60136595Y-55785300D02*
X55490213Y-60431682D01*
X44163973Y-78136788D02*
X44163973Y-76424648D01*
X50822836Y-67240011D02*
X52730184Y-67240011D01*
X55490213Y-64479982D02*
X55490213Y-60431682D01*
X46160924Y-71901923D02*
X50822836Y-67240011D01*
X52730184Y-67240011D02*
X55490213Y-64479982D01*
X46160924Y-74427697D02*
X46160924Y-71901923D01*
X44163973Y-76424648D02*
X46160924Y-74427697D01*
X39220011Y-92786400D02*
X38869367Y-93137044D01*
X39220011Y-90000721D02*
X39220011Y-92786400D01*
X44163973Y-78136788D02*
X44163973Y-85056759D01*
X44163973Y-85056759D02*
X39220011Y-90000721D01*
X38869367Y-93137044D02*
X38869367Y-98229347D01*
X40156229Y-118269275D02*
X41470092Y-119583138D01*
X40570093Y-99930073D02*
X40570093Y-107564877D01*
X38869367Y-98229347D02*
X40570093Y-99930073D01*
X40570093Y-107564877D02*
X40156229Y-107978740D01*
X40156229Y-107978740D02*
X40156229Y-118269275D01*
X49941445Y-138872723D02*
X51214237Y-138872723D01*
X41470092Y-119583138D02*
X45610306Y-123723352D01*
X45610306Y-132356257D02*
X49321470Y-136067421D01*
X49321470Y-136067421D02*
X49321470Y-138252748D01*
X45610306Y-123723352D02*
X45610306Y-132356257D01*
X49321470Y-138252748D02*
X49941445Y-138872723D01*
X57140611Y-143526305D02*
X57140611Y-145621521D01*
X51214237Y-138872723D02*
X52487029Y-138872723D01*
X57140611Y-145621521D02*
X65412066Y-153892976D01*
X52487029Y-138872723D02*
X57140611Y-143526305D01*
X65412066Y-153892976D02*
X66982731Y-153892976D01*
X86778485Y-163091656D02*
X87374375Y-162495766D01*
X72404676Y-153892976D02*
X80112071Y-161600371D01*
X83646034Y-161600371D02*
X85137319Y-163091656D01*
X66982731Y-153892976D02*
X72404676Y-153892976D01*
X85137319Y-163091656D02*
X86778485Y-163091656D01*
X80112071Y-161600371D02*
X83646034Y-161600371D01*
X127955745Y-161740011D02*
X131188936Y-158506820D01*
X111815714Y-161740011D02*
X127955745Y-161740011D01*
X109536952Y-164018773D02*
X111815714Y-161740011D01*
X131188936Y-158506820D02*
X131188936Y-157330228D01*
X142741737Y-151736847D02*
X149186083Y-145292501D01*
X149186083Y-145292501D02*
X149186083Y-143349083D01*
X136782317Y-151736847D02*
X142741737Y-151736847D01*
X131188936Y-157330228D02*
X136782317Y-151736847D01*
X149186083Y-142222389D02*
X149186083Y-143349083D01*
X162060678Y-129347794D02*
X149186083Y-142222389D01*
X162282321Y-128874440D02*
X162060678Y-129347794D01*
X162500410Y-128399289D02*
X162282321Y-128874440D01*
X162613400Y-128148087D02*
X162500410Y-128399289D01*
X162613400Y-125088628D02*
X162613400Y-128148087D01*
X161713401Y-124188629D02*
X162613400Y-125088628D01*
X99482737Y-164793763D02*
X108761962Y-164793763D01*
X95501282Y-163464284D02*
X98153258Y-163464284D01*
X87374375Y-162495766D02*
X94532764Y-162495766D01*
X98153258Y-163464284D02*
X99482737Y-164793763D01*
X108761962Y-164793763D02*
X109536952Y-164018773D01*
X94532764Y-162495766D02*
X95501282Y-163464284D01*
X168131110Y-102806457D02*
X166978493Y-101653840D01*
X166335824Y-109840586D02*
X168131110Y-108045300D01*
X166335824Y-116625824D02*
X166335824Y-109840586D01*
X161713401Y-121248247D02*
X166335824Y-116625824D01*
X168131110Y-108045300D02*
X168131110Y-102806457D01*
X161713401Y-124188629D02*
X161713401Y-121248247D01*
X86126130Y-155558652D02*
X86126130Y-156557364D01*
X81609219Y-151041741D02*
X86126130Y-155558652D01*
X79871572Y-151041741D02*
X81609219Y-151041741D01*
X77441108Y-148611277D02*
X79871572Y-151041741D01*
X69075703Y-148611277D02*
X77441108Y-148611277D01*
X68142059Y-147677633D02*
X69075703Y-148611277D01*
X53709251Y-133466950D02*
X54342245Y-133466950D01*
X48850011Y-120093600D02*
X48850011Y-127357960D01*
X49640009Y-129397708D02*
X53709251Y-133466950D01*
X49640009Y-128147958D02*
X49640009Y-129397708D01*
X46583607Y-117827196D02*
X48850011Y-120093600D01*
X48850011Y-127357960D02*
X49640009Y-128147958D01*
X46583607Y-115607292D02*
X46583607Y-117827196D01*
X66409631Y-147677633D02*
X68142059Y-147677633D01*
X54813360Y-133466950D02*
X60404733Y-139058322D01*
X54342245Y-133466950D02*
X54813360Y-133466950D01*
X60404733Y-139058322D02*
X60404733Y-141672735D01*
X60404733Y-141672735D02*
X66409631Y-147677633D01*
X91316226Y-156557364D02*
X93663599Y-154209991D01*
X101304700Y-157338521D02*
X105306564Y-157338521D01*
X105306564Y-157338521D02*
X106385213Y-158417170D01*
X93663599Y-154209991D02*
X98176170Y-154209991D01*
X86126130Y-156557364D02*
X91316226Y-156557364D01*
X98176170Y-154209991D02*
X101304700Y-157338521D01*
X109695341Y-158417170D02*
X114952092Y-153160419D01*
X118097518Y-153160419D02*
X118677677Y-152580260D01*
X118677677Y-152580260D02*
X125438145Y-152580260D01*
X114952092Y-153160419D02*
X118097518Y-153160419D01*
X106385213Y-158417170D02*
X109695341Y-158417170D01*
X125438145Y-152580260D02*
X126338144Y-153480259D01*
X143815247Y-142117777D02*
X145948949Y-139984075D01*
X145948949Y-139984075D02*
X145948949Y-131524640D01*
X153300997Y-124172592D02*
X155520403Y-124172592D01*
X155520403Y-124172592D02*
X156420402Y-125072591D01*
X145948949Y-131524640D02*
X153300997Y-124172592D01*
X158139779Y-84006163D02*
X159592911Y-82553031D01*
X159592911Y-82553031D02*
X160865703Y-82553031D01*
X158139779Y-93879725D02*
X158139779Y-84006163D01*
X161043442Y-96783388D02*
X158139779Y-93879725D01*
X161043442Y-103017210D02*
X161043442Y-96783388D01*
X162345406Y-104319174D02*
X161043442Y-103017210D01*
X126338144Y-153480259D02*
X126643330Y-153480259D01*
X126643330Y-153480259D02*
X132336937Y-147786652D01*
X132336937Y-146049107D02*
X135512149Y-142873895D01*
X132336937Y-147786652D02*
X132336937Y-146049107D01*
X141088056Y-141217778D02*
X142915248Y-141217778D01*
X142915248Y-141217778D02*
X143815247Y-142117777D01*
X139431940Y-142873895D02*
X141088056Y-141217778D01*
X135512149Y-142873895D02*
X139431940Y-142873895D01*
X159434231Y-105957557D02*
X161072614Y-104319174D01*
X156118505Y-110577599D02*
X159434231Y-107261873D01*
X157320401Y-124172592D02*
X157320401Y-115663991D01*
X156420402Y-125072591D02*
X157320401Y-124172592D01*
X156118505Y-114462095D02*
X156118505Y-110577599D01*
X161072614Y-104319174D02*
X162345406Y-104319174D01*
X157320401Y-115663991D02*
X156118505Y-114462095D01*
X159434231Y-107261873D02*
X159434231Y-105957557D01*
X135911010Y-46534304D02*
X135911010Y-48891010D01*
X135911010Y-48891010D02*
X140090000Y-53070000D01*
X140090000Y-55221244D02*
X141718756Y-56850000D01*
X140090000Y-53070000D02*
X140090000Y-55221244D01*
X151175822Y-62354816D02*
X151846404Y-62354816D01*
X145671006Y-56850000D02*
X151175822Y-62354816D01*
X141718756Y-56850000D02*
X145671006Y-56850000D01*
X130552827Y-44399161D02*
X123511897Y-44399161D01*
X123511897Y-44399161D02*
X118169320Y-39056584D01*
X132687970Y-46534304D02*
X130552827Y-44399161D01*
X117256623Y-39056584D02*
X115574191Y-37374152D01*
X135911010Y-46534304D02*
X132687970Y-46534304D01*
X115574191Y-37374152D02*
X115574191Y-36971904D01*
X118169320Y-39056584D02*
X117256623Y-39056584D01*
X115574191Y-36971904D02*
X114674192Y-36071905D01*
X105042827Y-35144309D02*
X103053805Y-35144309D01*
X114674192Y-36071905D02*
X105970423Y-36071905D01*
X103053805Y-35144309D02*
X102784905Y-35413209D01*
X97870876Y-37569989D02*
X97198071Y-36897184D01*
X102033601Y-37569989D02*
X97870876Y-37569989D01*
X95366088Y-36897184D02*
X93011435Y-34542531D01*
X97198071Y-36897184D02*
X95366088Y-36897184D01*
X102784905Y-35413209D02*
X102784905Y-36818685D01*
X102784905Y-36818685D02*
X102033601Y-37569989D01*
X105970423Y-36071905D02*
X105042827Y-35144309D01*
X63362378Y-46806220D02*
X63362377Y-47998241D01*
X69678353Y-40490245D02*
X63362378Y-46806220D01*
X55069555Y-53467867D02*
X51672816Y-53467867D01*
X63362377Y-47998241D02*
X61078282Y-50282336D01*
X70854945Y-40490245D02*
X69678353Y-40490245D01*
X61078282Y-50282336D02*
X58255085Y-50282336D01*
X58255085Y-50282336D02*
X55069555Y-53467867D01*
X153771758Y-74282495D02*
X153389206Y-74282495D01*
X150767755Y-63433465D02*
X151846404Y-62354816D01*
X153389206Y-74282495D02*
X152778618Y-73671907D01*
X152778618Y-67848774D02*
X150767755Y-65837911D01*
X150767755Y-65837911D02*
X150767755Y-63433465D01*
X152778618Y-73671907D02*
X152778618Y-67848774D01*
X160865703Y-81376440D02*
X153771758Y-74282495D01*
X160865703Y-82553031D02*
X160865703Y-81376440D01*
X82235483Y-40889741D02*
X71254441Y-40889741D01*
X93011435Y-34542531D02*
X91223946Y-36330020D01*
X71254441Y-40889741D02*
X70854945Y-40490245D01*
X91223946Y-36330020D02*
X86795204Y-36330020D01*
X86795204Y-36330020D02*
X82235483Y-40889741D01*
X153904202Y-107385444D02*
X155104343Y-106185303D01*
X153904202Y-116101134D02*
X153904202Y-107385444D01*
X155104343Y-106185303D02*
X156377135Y-106185303D01*
X150658977Y-119346359D02*
X153904202Y-116101134D01*
X150106870Y-121616690D02*
X150658977Y-121064584D01*
X150106870Y-124701449D02*
X150106870Y-121616690D01*
X150658977Y-121064584D02*
X150658977Y-119346359D01*
X154732131Y-87226354D02*
X155580847Y-86377638D01*
X154732131Y-89675926D02*
X154732131Y-87226354D01*
X156185469Y-91129264D02*
X154732131Y-89675926D01*
X156185469Y-98833797D02*
X156185469Y-91129264D01*
X155477136Y-99542130D02*
X156185469Y-98833797D01*
X155477136Y-105285304D02*
X155477136Y-99542130D01*
X156377135Y-106185303D02*
X155477136Y-105285304D01*
X116728182Y-43240916D02*
X116728182Y-42723242D01*
X118428290Y-44941024D02*
X116728182Y-43240916D01*
X119198625Y-44941024D02*
X118428290Y-44941024D01*
X122657560Y-48399959D02*
X119198625Y-44941024D01*
X123248160Y-48399959D02*
X122657560Y-48399959D01*
X126041024Y-51192823D02*
X123248160Y-48399959D01*
X133945431Y-51192823D02*
X126041024Y-51192823D01*
X135054440Y-52301832D02*
X133945431Y-51192823D01*
X96237270Y-39998297D02*
X96237270Y-39022207D01*
X97972916Y-41733943D02*
X96237270Y-39998297D01*
X98443943Y-41733943D02*
X97972916Y-41733943D01*
X100343246Y-43633246D02*
X98443943Y-41733943D01*
X107993298Y-42723242D02*
X107083294Y-43633246D01*
X107083294Y-43633246D02*
X100343246Y-43633246D01*
X116728182Y-42723242D02*
X107993298Y-42723242D01*
X75323741Y-43682530D02*
X67230000Y-51776271D01*
X57539844Y-55335289D02*
X56913900Y-54709345D01*
X62665466Y-55335289D02*
X57539844Y-55335289D01*
X66224484Y-51776271D02*
X62665466Y-55335289D01*
X67230000Y-51776271D02*
X66224484Y-51776271D01*
X42938972Y-76757439D02*
X42938972Y-85108972D01*
X43943142Y-69805574D02*
X43168152Y-70580564D01*
X38770000Y-92326653D02*
X38129299Y-92967354D01*
X38129299Y-92967354D02*
X36856507Y-92967354D01*
X43168152Y-76528259D02*
X42938972Y-76757439D01*
X38770000Y-89277944D02*
X38770000Y-92326653D01*
X43168152Y-70580564D02*
X43168152Y-76528259D01*
X42938972Y-85108972D02*
X38770000Y-89277944D01*
X148266614Y-67745494D02*
X146993822Y-67745494D01*
X142417996Y-64394381D02*
X134154441Y-56130826D01*
X143642709Y-64394381D02*
X142417996Y-64394381D01*
X146993822Y-67745494D02*
X143642709Y-64394381D01*
X134154441Y-53201831D02*
X135054440Y-52301832D01*
X134154441Y-56130826D02*
X134154441Y-53201831D01*
X148849509Y-72245923D02*
X147366615Y-70763029D01*
X147366615Y-68645493D02*
X148266614Y-67745494D01*
X148849509Y-77343592D02*
X148849509Y-72245923D01*
X155580847Y-84074930D02*
X148849509Y-77343592D01*
X155580847Y-86377638D02*
X155580847Y-84074930D01*
X147366615Y-70763029D02*
X147366615Y-68645493D01*
X96237270Y-39022207D02*
X93705085Y-41554392D01*
X93705085Y-41554392D02*
X89395608Y-41554392D01*
X86367471Y-44582529D02*
X76223740Y-44582529D01*
X76223740Y-44582529D02*
X75323741Y-43682530D01*
X89395608Y-41554392D02*
X86367471Y-44582529D01*
X56913900Y-54709345D02*
X56913900Y-56852517D01*
X50834586Y-66130247D02*
X47159259Y-69805574D01*
X47159259Y-69805574D02*
X43943142Y-69805574D01*
X51932600Y-66130247D02*
X50834586Y-66130247D01*
X52912052Y-65150795D02*
X51932600Y-66130247D01*
X52912052Y-60854365D02*
X52912052Y-65150795D01*
X56913900Y-56852517D02*
X52912052Y-60854365D01*
X39638370Y-117504090D02*
X39638370Y-119561960D01*
X39638370Y-119561960D02*
X45160295Y-125083885D01*
X45160295Y-125083885D02*
X45160295Y-132542656D01*
X45160295Y-132542656D02*
X46759066Y-134141427D01*
X46759066Y-135096641D02*
X45859067Y-135996640D01*
X46759066Y-134141427D02*
X46759066Y-135096641D01*
X37312253Y-115177973D02*
X39638370Y-117504090D01*
X56690600Y-144436474D02*
X52734126Y-140480000D01*
X52734126Y-140480000D02*
X50342427Y-140480000D01*
X50342427Y-140480000D02*
X45859067Y-135996640D01*
X56690600Y-145807921D02*
X56690600Y-144436474D01*
X60992333Y-152920890D02*
X60992333Y-150109653D01*
X60992333Y-150109653D02*
X56690600Y-145807921D01*
X73221884Y-155429980D02*
X81276069Y-163484165D01*
X81276069Y-163484165D02*
X81276069Y-163541667D01*
X60992333Y-152920890D02*
X63318749Y-152920890D01*
X65827839Y-155429980D02*
X73221884Y-155429980D01*
X63318749Y-152920890D02*
X65827839Y-155429980D01*
X97966859Y-163914295D02*
X99944987Y-165892423D01*
X95314882Y-163914295D02*
X97966859Y-163914295D01*
X91352869Y-163720767D02*
X91905751Y-163167884D01*
X81455169Y-163720767D02*
X91352869Y-163720767D01*
X81276069Y-163541667D02*
X81455169Y-163720767D01*
X99944987Y-165892423D02*
X103045131Y-165892423D01*
X91905751Y-163167884D02*
X94568471Y-163167884D01*
X94568471Y-163167884D02*
X95314882Y-163914295D01*
X103045131Y-165892423D02*
X104197748Y-167045040D01*
X39706218Y-107792340D02*
X39706218Y-112784008D01*
X39858533Y-107640025D02*
X39706218Y-107792340D01*
X39858533Y-103562545D02*
X39858533Y-107640025D01*
X37485001Y-101189013D02*
X39858533Y-103562545D01*
X37485001Y-93595848D02*
X37485001Y-101189013D01*
X39706218Y-112784008D02*
X37312253Y-115177973D01*
X36856507Y-92967354D02*
X37485001Y-93595848D01*
X63088228Y-57766992D02*
X62510718Y-57189482D01*
X65534328Y-57766992D02*
X63088228Y-57766992D01*
X66369776Y-56931544D02*
X65534328Y-57766992D01*
X66369776Y-55730224D02*
X66369776Y-56931544D01*
X68999338Y-53100662D02*
X66369776Y-55730224D01*
X69881025Y-53100662D02*
X68999338Y-53100662D01*
X73207891Y-49773796D02*
X69881025Y-53100662D01*
X77770825Y-49773796D02*
X73207891Y-49773796D01*
X79708776Y-47835845D02*
X77770825Y-49773796D01*
X62510718Y-58095887D02*
X50364692Y-70241913D01*
X62510718Y-57189482D02*
X62510718Y-58095887D01*
X50364692Y-70241913D02*
X49728365Y-70241913D01*
X43146700Y-91972606D02*
X43146700Y-98526700D01*
X42246701Y-91072607D02*
X43146700Y-91972606D01*
X44933219Y-108399905D02*
X41831241Y-111501883D01*
X44933219Y-100313219D02*
X44933219Y-108399905D01*
X43146700Y-98526700D02*
X44933219Y-100313219D01*
X41831241Y-111501883D02*
X41831241Y-113711241D01*
X41831241Y-113711241D02*
X48400000Y-120280000D01*
X49169183Y-130692862D02*
X48884750Y-130977295D01*
X49169183Y-128313542D02*
X49169183Y-130692862D01*
X48400000Y-127544359D02*
X49169183Y-128313542D01*
X48400000Y-120280000D02*
X48400000Y-127544359D01*
X52599406Y-134691951D02*
X55401951Y-134691951D01*
X48884750Y-130977295D02*
X52599406Y-134691951D01*
X62435702Y-144866079D02*
X62435702Y-146667201D01*
X59954722Y-142385099D02*
X62435702Y-144866079D01*
X55401951Y-134691951D02*
X59954722Y-139244722D01*
X62435702Y-146667201D02*
X61535703Y-147567200D01*
X59954722Y-139244722D02*
X59954722Y-142385099D01*
X80064218Y-157047887D02*
X80064218Y-158358235D01*
X72077618Y-149061287D02*
X80064218Y-157047887D01*
X63029790Y-149061287D02*
X72077618Y-149061287D01*
X61535703Y-147567200D02*
X63029790Y-149061287D01*
X162377667Y-89225879D02*
X164005600Y-87597946D01*
X162377667Y-99003904D02*
X162377667Y-89225879D01*
X164518898Y-110103364D02*
X164518898Y-101145135D01*
X164518898Y-101145135D02*
X162377667Y-99003904D01*
X49161277Y-70809001D02*
X49728365Y-70241913D01*
X49161277Y-82670327D02*
X49161277Y-70809001D01*
X46114730Y-85716874D02*
X49161277Y-82670327D01*
X46114730Y-88477370D02*
X46114730Y-85716874D01*
X42246701Y-91072607D02*
X43519493Y-91072607D01*
X43519493Y-91072607D02*
X46114730Y-88477370D01*
X89610881Y-158358235D02*
X90102512Y-157866604D01*
X101120781Y-161423437D02*
X101120781Y-162696229D01*
X97563948Y-157866604D02*
X101120781Y-161423437D01*
X90102512Y-157866604D02*
X97563948Y-157866604D01*
X80064218Y-158358235D02*
X89610881Y-158358235D01*
X111724896Y-157660436D02*
X108762650Y-160622682D01*
X103194328Y-160622682D02*
X101120781Y-162696229D01*
X122764687Y-159181837D02*
X121243286Y-157660436D01*
X108762650Y-160622682D02*
X103194328Y-160622682D01*
X121243286Y-157660436D02*
X111724896Y-157660436D01*
X134404092Y-148306025D02*
X138220224Y-148306025D01*
X123528280Y-159181837D02*
X134404092Y-148306025D01*
X122764687Y-159181837D02*
X123528280Y-159181837D01*
X138220224Y-148306025D02*
X139022752Y-147503497D01*
X139022752Y-147503497D02*
X141217106Y-147503497D01*
X141217106Y-147503497D02*
X142117105Y-148403496D01*
X148843357Y-137080090D02*
X154641474Y-131281973D01*
X154641474Y-131281973D02*
X156634169Y-131281973D01*
X146848971Y-142398838D02*
X146848971Y-138210974D01*
X142117105Y-147130704D02*
X146848971Y-142398838D01*
X142117105Y-148403496D02*
X142117105Y-147130704D01*
X147979855Y-137080090D02*
X148843357Y-137080090D01*
X146848971Y-138210974D02*
X147979855Y-137080090D01*
X159729210Y-114520563D02*
X158482962Y-115766809D01*
X163246106Y-110103364D02*
X159729210Y-113620260D01*
X159729210Y-113620260D02*
X159729210Y-114520563D01*
X164518898Y-110103364D02*
X163246106Y-110103364D01*
X158482962Y-129433180D02*
X156634169Y-131281973D01*
X158482962Y-115766809D02*
X158482962Y-129433180D01*
X164005600Y-87597946D02*
X162540715Y-86133061D01*
X156810367Y-76048282D02*
X156810367Y-65757128D01*
X162540715Y-81778630D02*
X156810367Y-76048282D01*
X162540715Y-86133061D02*
X162540715Y-81778630D01*
X148584061Y-58490234D02*
X145875642Y-55781815D01*
X145875642Y-52809520D02*
X142256989Y-49190867D01*
X142256989Y-49190867D02*
X142256989Y-47665423D01*
X150720065Y-58490234D02*
X148584061Y-58490234D01*
X145875642Y-55781815D02*
X145875642Y-52809520D01*
X156810367Y-65757128D02*
X156810367Y-64580536D01*
X156810367Y-64580536D02*
X150720065Y-58490234D01*
X132786948Y-146235507D02*
X133780488Y-145241967D01*
X132786948Y-148844457D02*
X132786948Y-146235507D01*
X125653566Y-155977839D02*
X132786948Y-148844457D01*
X136193424Y-145241967D02*
X136592111Y-145640654D01*
X119943938Y-155977839D02*
X125653566Y-155977839D01*
X133780488Y-145241967D02*
X136193424Y-145241967D01*
X118518519Y-154552420D02*
X119943938Y-155977839D01*
X163770000Y-101790000D02*
X163770000Y-107325452D01*
X161512711Y-99532711D02*
X163770000Y-101790000D01*
X163770000Y-107325452D02*
X159173838Y-111921614D01*
X161512711Y-91811369D02*
X161512711Y-99532711D01*
X160612712Y-90911370D02*
X161512711Y-91811369D01*
X79677765Y-153539534D02*
X83920596Y-157782365D01*
X79677765Y-152266742D02*
X79677765Y-153539534D01*
X97797638Y-154694447D02*
X98742628Y-155639437D01*
X93815553Y-154694447D02*
X97797638Y-154694447D01*
X89916112Y-157416593D02*
X91093407Y-157416593D01*
X89550341Y-157782365D02*
X89916112Y-157416593D01*
X83920596Y-157782365D02*
X89550341Y-157782365D01*
X91093407Y-157416593D02*
X93815553Y-154694447D01*
X98742628Y-155639437D02*
X98742628Y-156912229D01*
X117576529Y-153610430D02*
X118518519Y-154552420D01*
X98742628Y-156912229D02*
X102003070Y-160172671D01*
X102003070Y-160172671D02*
X108576251Y-160172671D01*
X115138492Y-153610430D02*
X117576529Y-153610430D01*
X108576251Y-160172671D02*
X115138492Y-153610430D01*
X147237639Y-130872361D02*
X150742132Y-130872361D01*
X136592111Y-145640654D02*
X142886526Y-145640654D01*
X142886526Y-145640654D02*
X146398960Y-142128220D01*
X146398960Y-131711040D02*
X147237639Y-130872361D01*
X146398960Y-142128220D02*
X146398960Y-131711040D01*
X159279199Y-112026975D02*
X159173838Y-111921614D01*
X150742132Y-130872361D02*
X153717639Y-130872361D01*
X158032951Y-115580409D02*
X159279199Y-114334163D01*
X159279199Y-114334163D02*
X159279199Y-112026975D01*
X153717639Y-130872361D02*
X158032951Y-126557049D01*
X158032951Y-126557049D02*
X158032951Y-115580409D01*
X123187158Y-40945762D02*
X123187158Y-39672970D01*
X101840570Y-34694298D02*
X101510734Y-35024134D01*
X101510734Y-35024134D02*
X101510734Y-36296926D01*
X118927631Y-35413443D02*
X105948372Y-35413443D01*
X123187158Y-39672970D02*
X118927631Y-35413443D01*
X105948372Y-35413443D02*
X105229227Y-34694298D01*
X105229227Y-34694298D02*
X101840570Y-34694298D01*
X78329127Y-37665812D02*
X79360579Y-38697264D01*
X61626214Y-49097994D02*
X62912368Y-47811840D01*
X59350996Y-49097994D02*
X61626214Y-49097994D01*
X62912368Y-46619820D02*
X71866376Y-37665812D01*
X62912368Y-47811840D02*
X62912368Y-46619820D01*
X71866376Y-37665812D02*
X78329127Y-37665812D01*
X59310337Y-49057335D02*
X59350996Y-49097994D01*
X34674115Y-86817724D02*
X35112276Y-86817724D01*
X37316039Y-72068165D02*
X37552102Y-71832102D01*
X37316039Y-84613961D02*
X37316039Y-72068165D01*
X35112276Y-86817724D02*
X37316039Y-84613961D01*
X43728240Y-65655964D02*
X37552102Y-71832102D01*
X32865840Y-104782839D02*
X34990840Y-106907839D01*
X34990840Y-108457865D02*
X33400475Y-110048230D01*
X34990840Y-106907839D02*
X34990840Y-108457865D01*
X32865840Y-88625999D02*
X32865840Y-104782839D01*
X34674115Y-86817724D02*
X32865840Y-88625999D01*
X54270346Y-49057335D02*
X59310337Y-49057335D01*
X50447815Y-54046633D02*
X50447815Y-52879866D01*
X43525350Y-60969098D02*
X50447815Y-54046633D01*
X43525350Y-65453074D02*
X43525350Y-60969098D01*
X50447815Y-52879866D02*
X54270346Y-49057335D01*
X43728240Y-65655964D02*
X43525350Y-65453074D01*
X155681813Y-71302430D02*
X154781814Y-70402431D01*
X155681813Y-75556139D02*
X155681813Y-71302430D01*
X162090704Y-81965030D02*
X155681813Y-75556139D01*
X162090704Y-86199296D02*
X162090704Y-81965030D01*
X160612712Y-87677288D02*
X162090704Y-86199296D01*
X160612712Y-90911370D02*
X160612712Y-87677288D01*
X154781814Y-70402431D02*
X154781814Y-63188393D01*
X142391052Y-52933636D02*
X141637366Y-52933636D01*
X150587231Y-61129815D02*
X142391052Y-52933636D01*
X152723236Y-61129815D02*
X150587231Y-61129815D01*
X154781814Y-63188393D02*
X152723236Y-61129815D01*
X132099379Y-45309303D02*
X136418437Y-45309303D01*
X125255374Y-41239146D02*
X128029222Y-41239146D01*
X136418437Y-45309303D02*
X141637366Y-50528232D01*
X128029222Y-41239146D02*
X132099379Y-45309303D01*
X123187158Y-40945762D02*
X124961991Y-40945762D01*
X124961991Y-40945762D02*
X125255374Y-41239146D01*
X141637366Y-50528232D02*
X141637366Y-52933636D01*
X80905042Y-35880009D02*
X79360579Y-37424472D01*
X79360579Y-37424472D02*
X79360579Y-38697264D01*
X87256402Y-35880009D02*
X80905042Y-35880009D01*
X101510734Y-36296926D02*
X98531338Y-33317530D01*
X89818881Y-33317530D02*
X87256402Y-35880009D01*
X98531338Y-33317530D02*
X89818881Y-33317530D01*
X140718629Y-58900658D02*
X139321375Y-58900658D01*
X142435400Y-60617429D02*
X140718629Y-58900658D01*
X142435400Y-61318003D02*
X142435400Y-60617429D01*
X144861600Y-63744203D02*
X142435400Y-61318003D01*
X146078325Y-63744203D02*
X144861600Y-63744203D01*
X151198988Y-68864866D02*
X146078325Y-63744203D01*
X151198988Y-74124555D02*
X151198988Y-68864866D01*
X150074510Y-75249033D02*
X151198988Y-74124555D01*
X84275145Y-41104381D02*
X83463257Y-41916269D01*
X90292116Y-41104381D02*
X84275145Y-41104381D01*
X93599291Y-37797206D02*
X90292116Y-41104381D01*
X96825271Y-37797206D02*
X93599291Y-37797206D01*
X97684220Y-38656155D02*
X96825271Y-37797206D01*
X100966411Y-38656155D02*
X97684220Y-38656155D01*
X103858822Y-41548566D02*
X100966411Y-38656155D01*
X83463257Y-41916269D02*
X83463257Y-43189061D01*
X64571541Y-50305864D02*
X64571541Y-51616212D01*
X66296543Y-48580862D02*
X64571541Y-50305864D01*
X82063959Y-41789763D02*
X75022129Y-41789763D01*
X68231030Y-48580862D02*
X66296543Y-48580862D01*
X75022129Y-41789763D02*
X68231030Y-48580862D01*
X83463257Y-43189061D02*
X82063959Y-41789763D01*
X49100657Y-65715250D02*
X46220464Y-65715250D01*
X39695853Y-84954833D02*
X39882458Y-85141438D01*
X39695853Y-82611961D02*
X39695853Y-84954833D01*
X42488962Y-79818852D02*
X39695853Y-82611961D01*
X42488962Y-69446752D02*
X42488962Y-79818852D01*
X46220464Y-65715250D02*
X42488962Y-69446752D01*
X94053845Y-163617895D02*
X95575246Y-165139296D01*
X92092151Y-163617895D02*
X94053845Y-163617895D01*
X90943378Y-164766668D02*
X92092151Y-163617895D01*
X78070100Y-164766668D02*
X90943378Y-164766668D01*
X73873139Y-159032817D02*
X73873139Y-160569707D01*
X73873139Y-160569707D02*
X78070100Y-164766668D01*
X139083767Y-153734647D02*
X139368200Y-154019080D01*
X127807281Y-162524885D02*
X136597519Y-153734647D01*
X119208748Y-162524885D02*
X127807281Y-162524885D01*
X136597519Y-153734647D02*
X139083767Y-153734647D01*
X118308749Y-163424884D02*
X119208748Y-162524885D01*
X154652801Y-137636313D02*
X155963149Y-137636313D01*
X152927799Y-139361315D02*
X154652801Y-137636313D01*
X152927799Y-142187196D02*
X152927799Y-139361315D01*
X141095915Y-154019080D02*
X152927799Y-142187196D01*
X139368200Y-154019080D02*
X141095915Y-154019080D01*
X138187607Y-57766890D02*
X138187607Y-53621997D01*
X119338156Y-41498241D02*
X111703744Y-41498241D01*
X106953175Y-40648567D02*
X104758821Y-40648567D01*
X128666384Y-49879699D02*
X125362258Y-46575573D01*
X108145155Y-41840547D02*
X106953175Y-40648567D01*
X123245561Y-45405646D02*
X119338156Y-41498241D01*
X139321375Y-58900658D02*
X138187607Y-57766890D01*
X138187607Y-53621997D02*
X134445309Y-49879699D01*
X104758821Y-40648567D02*
X103858822Y-41548566D01*
X111361438Y-41840547D02*
X108145155Y-41840547D01*
X125362258Y-46575573D02*
X123844946Y-46575573D01*
X123844946Y-46575573D02*
X123245561Y-47174958D01*
X111703744Y-41498241D02*
X111361438Y-41840547D01*
X134445309Y-49879699D02*
X128666384Y-49879699D01*
X123245561Y-47174958D02*
X123245561Y-45405646D01*
X49100657Y-65715250D02*
X49100657Y-62720505D01*
X55688899Y-54121344D02*
X57200234Y-52610009D01*
X59156401Y-52610009D02*
X60150198Y-51616212D01*
X60150198Y-51616212D02*
X64571541Y-51616212D01*
X49100657Y-62720505D02*
X55688899Y-56132263D01*
X55688899Y-56132263D02*
X55688899Y-54121344D01*
X57200234Y-52610009D02*
X59156401Y-52610009D01*
X95575246Y-165139296D02*
X97159296Y-165139296D01*
X115084277Y-162655004D02*
X117538869Y-162655004D01*
X112495507Y-165243774D02*
X115084277Y-162655004D01*
X117538869Y-162655004D02*
X118308749Y-163424884D01*
X108793247Y-165243774D02*
X112495507Y-165243774D01*
X105617775Y-168419245D02*
X108793247Y-165243774D01*
X97159296Y-165139296D02*
X100439245Y-168419245D01*
X100439245Y-168419245D02*
X105617775Y-168419245D01*
X43227405Y-127860499D02*
X42564633Y-127860499D01*
X42564633Y-127860499D02*
X39188359Y-124484225D01*
X39188359Y-124484225D02*
X39188359Y-118867081D01*
X39188359Y-118867081D02*
X35938048Y-115616770D01*
X35938048Y-108195098D02*
X37511250Y-106621896D01*
X35938048Y-115616770D02*
X35938048Y-108195098D01*
X42327406Y-128760498D02*
X42327406Y-134250996D01*
X50052756Y-141306346D02*
X50052756Y-142019608D01*
X45298051Y-137221641D02*
X45968051Y-137221641D01*
X54247173Y-146214025D02*
X55519965Y-146214025D01*
X50052756Y-142019608D02*
X54247173Y-146214025D01*
X42327406Y-134250996D02*
X45298051Y-137221641D01*
X45968051Y-137221641D02*
X50052756Y-141306346D01*
X43227405Y-127860499D02*
X42327406Y-128760498D01*
X55519965Y-146214025D02*
X55519965Y-149805058D01*
X55519965Y-149805058D02*
X61554896Y-155839989D01*
X65601437Y-155839989D02*
X65641439Y-155879991D01*
X65641439Y-155879991D02*
X71993105Y-155879991D01*
X71993105Y-155879991D02*
X73873139Y-157760025D01*
X61554896Y-155839989D02*
X65601437Y-155839989D01*
X73873139Y-157760025D02*
X73873139Y-159032817D01*
X35034999Y-89988897D02*
X39882458Y-85141438D01*
X35034999Y-96008001D02*
X35034999Y-89988897D01*
X36611251Y-97584253D02*
X35034999Y-96008001D01*
X36611251Y-105721897D02*
X36611251Y-97584253D01*
X37511250Y-106621896D02*
X36611251Y-105721897D01*
X42136275Y-96905857D02*
X42136275Y-102868077D01*
X42338642Y-96323204D02*
X42338642Y-96703490D01*
X41021700Y-95006262D02*
X42338642Y-96323204D01*
X42136275Y-102868077D02*
X42984991Y-103716793D01*
X41021700Y-88835442D02*
X41021700Y-95006262D01*
X45849450Y-84169152D02*
X45687990Y-84169152D01*
X42338642Y-96703490D02*
X42136275Y-96905857D01*
X45687990Y-84169152D02*
X41021700Y-88835442D01*
X56390354Y-140556784D02*
X57590622Y-140556784D01*
X52439238Y-136605668D02*
X56390354Y-140556784D01*
X52439238Y-135891612D02*
X52439238Y-136605668D01*
X51544968Y-134997342D02*
X52439238Y-135891612D01*
X47077996Y-123281787D02*
X47077996Y-127295863D01*
X50797342Y-134997342D02*
X51544968Y-134997342D01*
X46060317Y-130260317D02*
X50797342Y-134997342D01*
X46060317Y-128313542D02*
X46060317Y-130260317D01*
X47077996Y-127295863D02*
X46060317Y-128313542D01*
X71976403Y-150115392D02*
X73754430Y-151893419D01*
X62270893Y-150115392D02*
X71976403Y-150115392D01*
X57590622Y-145435121D02*
X62270893Y-150115392D01*
X57590622Y-140556784D02*
X57590622Y-145435121D01*
X73754430Y-151893419D02*
X73754430Y-153166211D01*
X78754096Y-159605985D02*
X73754430Y-154606319D01*
X73754430Y-154606319D02*
X73754430Y-153166211D01*
X85640420Y-159605985D02*
X78754096Y-159605985D01*
X86749266Y-160714831D02*
X85640420Y-159605985D01*
X92500801Y-160714831D02*
X86749266Y-160714831D01*
X93400800Y-159814832D02*
X92500801Y-160714831D01*
X134178493Y-152487104D02*
X134178493Y-151286836D01*
X115690245Y-160406838D02*
X123681356Y-160406838D01*
X129868984Y-154219210D02*
X132446387Y-154219210D01*
X123681356Y-160406838D02*
X129868984Y-154219210D01*
X114407872Y-159124465D02*
X115690245Y-160406838D01*
X132446387Y-154219210D02*
X134178493Y-152487104D01*
X141046767Y-151286836D02*
X145873492Y-146460111D01*
X134178493Y-151286836D02*
X141046767Y-151286836D01*
X145873492Y-144848672D02*
X145873492Y-146460111D01*
X150577312Y-137315579D02*
X150577312Y-140144852D01*
X150577312Y-140144852D02*
X145873492Y-144848672D01*
X161440612Y-120884625D02*
X161440612Y-118659193D01*
X159240468Y-123084769D02*
X161440612Y-120884625D01*
X159240468Y-130488676D02*
X159240468Y-123084769D01*
X152413565Y-137315579D02*
X159240468Y-130488676D01*
X150577312Y-137315579D02*
X152413565Y-137315579D01*
X161440612Y-118659193D02*
X160540613Y-117759194D01*
X161813405Y-117759194D02*
X160540613Y-117759194D01*
X165743899Y-113828700D02*
X161813405Y-117759194D01*
X164875460Y-95964821D02*
X165439497Y-96528858D01*
X163602668Y-95964821D02*
X164875460Y-95964821D01*
X129392213Y-40789135D02*
X125441774Y-40789135D01*
X119616071Y-34963432D02*
X108576593Y-34963432D01*
X125441774Y-40789135D02*
X119616071Y-34963432D01*
X108576593Y-34963432D02*
X107453382Y-33840221D01*
X167231239Y-92336250D02*
X163602668Y-95964821D01*
X166019536Y-84905630D02*
X166019536Y-84509536D01*
X167231239Y-92336250D02*
X167231239Y-86117333D01*
X167231239Y-86117333D02*
X166019536Y-84905630D01*
X158830609Y-74397346D02*
X159033499Y-74194456D01*
X158830609Y-77320609D02*
X158830609Y-74397346D01*
X166019536Y-84509536D02*
X158830609Y-77320609D01*
X147100643Y-56304992D02*
X147100643Y-55193814D01*
X148835874Y-58040223D02*
X147100643Y-56304992D01*
X150906464Y-58040223D02*
X148835874Y-58040223D01*
X160036006Y-67169765D02*
X150906464Y-58040223D01*
X159033499Y-74194456D02*
X160036006Y-73191949D01*
X160036006Y-73191949D02*
X160036006Y-67169765D01*
X147100643Y-50357489D02*
X147100643Y-55193814D01*
X144448298Y-47705144D02*
X147100643Y-50357489D01*
X144109712Y-47705144D02*
X144448298Y-47705144D01*
X142844990Y-46440422D02*
X144109712Y-47705144D01*
X139709831Y-46440422D02*
X142844990Y-46440422D01*
X133158545Y-39889136D02*
X139709831Y-46440422D01*
X130292212Y-39889136D02*
X133158545Y-39889136D01*
X129392213Y-40789135D02*
X130292212Y-39889136D01*
X84175951Y-34464351D02*
X85075950Y-35364350D01*
X85075950Y-35364350D02*
X87135650Y-35364350D01*
X106480680Y-32867519D02*
X107453382Y-33840221D01*
X89632481Y-32867519D02*
X106480680Y-32867519D01*
X87135650Y-35364350D02*
X89632481Y-32867519D01*
X114407872Y-159411397D02*
X114407872Y-159124465D01*
X107041744Y-161072693D02*
X112746576Y-161072693D01*
X104193207Y-163921230D02*
X107041744Y-161072693D01*
X99246614Y-163921230D02*
X104193207Y-163921230D01*
X97335908Y-162010524D02*
X99246614Y-163921230D01*
X97335908Y-161672906D02*
X97335908Y-162010524D01*
X112746576Y-161072693D02*
X114407872Y-159411397D01*
X95477834Y-159814832D02*
X97335908Y-161672906D01*
X93400800Y-159814832D02*
X95477834Y-159814832D01*
X45805204Y-123281787D02*
X47077996Y-123281787D01*
X45020345Y-117836029D02*
X45020345Y-122496928D01*
X40606240Y-113421924D02*
X45020345Y-117836029D01*
X40606240Y-108165140D02*
X40606240Y-113421924D01*
X42084992Y-106686388D02*
X40606240Y-108165140D01*
X45020345Y-122496928D02*
X45805204Y-123281787D01*
X42084992Y-104616792D02*
X42084992Y-106686388D01*
X42984991Y-103716793D02*
X42084992Y-104616792D01*
X165834833Y-105454833D02*
X166764833Y-105454833D01*
X165439497Y-105059497D02*
X165834833Y-105454833D01*
X165439497Y-96528858D02*
X165439497Y-105059497D01*
X167095001Y-105785001D02*
X167095001Y-108444999D01*
X167095001Y-108444999D02*
X165743899Y-109796101D01*
X165743899Y-109796101D02*
X165743899Y-113828700D01*
X166764833Y-105454833D02*
X167095001Y-105785001D01*
X144718354Y-136951070D02*
X144718354Y-135997644D01*
X139245540Y-142423884D02*
X144718354Y-136951070D01*
X135325749Y-142423884D02*
X139245540Y-142423884D01*
X128662567Y-149087066D02*
X135325749Y-142423884D01*
X128662567Y-149645867D02*
X128662567Y-149087066D01*
X155441276Y-121310461D02*
X155441276Y-120179465D01*
X144718354Y-132033383D02*
X155441276Y-121310461D01*
X144718354Y-135997644D02*
X144718354Y-132033383D01*
X157602136Y-102216786D02*
X159818441Y-100000481D01*
X157602136Y-108457558D02*
X157602136Y-102216786D01*
X155441276Y-110618418D02*
X157602136Y-108457558D01*
X155441276Y-120179465D02*
X155441276Y-110618418D01*
X157689768Y-79984892D02*
X156970018Y-79265142D01*
X157689768Y-97871808D02*
X157689768Y-79984892D01*
X159818441Y-100000481D02*
X157689768Y-97871808D01*
X156970018Y-78499717D02*
X152328608Y-73858307D01*
X156970018Y-79265142D02*
X156970018Y-78499717D01*
X150317745Y-63783392D02*
X147052934Y-60518581D01*
X150317745Y-66024311D02*
X150317745Y-63783392D01*
X152328608Y-68035174D02*
X150317745Y-66024311D01*
X152328608Y-73858307D02*
X152328608Y-68035174D01*
X147052934Y-60518581D02*
X143788581Y-60518581D01*
X131327583Y-46125562D02*
X129835035Y-46125562D01*
X138637618Y-53435597D02*
X131327583Y-46125562D01*
X138637618Y-55367618D02*
X138637618Y-53435597D01*
X143788581Y-60518581D02*
X138637618Y-55367618D01*
X114014586Y-41048231D02*
X110937867Y-37971512D01*
X119524556Y-41048231D02*
X114014586Y-41048231D01*
X129835035Y-46125562D02*
X124601887Y-46125562D01*
X124601887Y-46125562D02*
X119524556Y-41048231D01*
X110937867Y-37971512D02*
X102285561Y-37971512D01*
X102285561Y-37971512D02*
X102237073Y-38020000D01*
X102237073Y-38020000D02*
X97684476Y-38020000D01*
X88642668Y-37347195D02*
X87957241Y-38032622D01*
X97011671Y-37347195D02*
X88642668Y-37347195D01*
X97684476Y-38020000D02*
X97011671Y-37347195D01*
X87957241Y-38032622D02*
X85767378Y-38032622D01*
X71818440Y-41339752D02*
X69582052Y-43576140D01*
X67786262Y-43576140D02*
X67138495Y-44223907D01*
X69582052Y-43576140D02*
X67786262Y-43576140D01*
X82460248Y-41339752D02*
X71818440Y-41339752D01*
X67138495Y-44223907D02*
X67138495Y-45496699D01*
X85767378Y-38032622D02*
X82460248Y-41339752D01*
X50166428Y-57690144D02*
X50166428Y-59841732D01*
X51553551Y-56303021D02*
X50166428Y-57690144D01*
X58441485Y-50732347D02*
X52870811Y-56303021D01*
X61902847Y-50732347D02*
X58441485Y-50732347D01*
X67138495Y-45496699D02*
X61902847Y-50732347D01*
X52870811Y-56303021D02*
X51553551Y-56303021D01*
X47110625Y-64110258D02*
X38256607Y-72964276D01*
X38256607Y-78676631D02*
X38541040Y-78961064D01*
X38256607Y-72964276D02*
X38256607Y-78676631D01*
X50166428Y-59841732D02*
X47110625Y-62897535D01*
X47110625Y-62897535D02*
X47110625Y-64110258D01*
X33315851Y-100044341D02*
X34540852Y-101269342D01*
X33315851Y-89966874D02*
X33315851Y-100044341D01*
X38541040Y-84741685D02*
X33315851Y-89966874D01*
X38541040Y-78961064D02*
X38541040Y-84741685D01*
X36690566Y-123895634D02*
X37963358Y-123895634D01*
X35440851Y-122645919D02*
X36690566Y-123895634D01*
X35440851Y-102169341D02*
X35440851Y-122645919D01*
X34540852Y-101269342D02*
X35440851Y-102169341D01*
X37963358Y-123895634D02*
X41630000Y-127562276D01*
X49602745Y-141604689D02*
X49602745Y-143919397D01*
X41630000Y-127562276D02*
X41630000Y-134216986D01*
X41630000Y-134216986D02*
X45084666Y-137671652D01*
X45084666Y-137671652D02*
X45669708Y-137671652D01*
X49602745Y-143919397D02*
X49481163Y-144040979D01*
X45669708Y-137671652D02*
X49602745Y-141604689D01*
X67347425Y-159084804D02*
X67347425Y-158222388D01*
X67347425Y-158222388D02*
X65415037Y-156290000D01*
X49481163Y-144402667D02*
X49481163Y-144040979D01*
X61368496Y-156290000D02*
X49481163Y-144402667D01*
X65415037Y-156290000D02*
X61368496Y-156290000D01*
M02*
