M48
; DRILL file {KiCad 5.1.9+dfsg1-1+deb11u1} date Tue Jul 30 12:36:07 2024
; FORMAT={-:-/ absolute / metric / decimal}
; #@! TF.CreationDate,2024-07-30T12:36:07+01:00
; #@! TF.GenerationSoftware,Kicad,Pcbnew,5.1.9+dfsg1-1+deb11u1
; #@! TF.FileFunction,Plated,1,2,PTH
FMAT,2
METRIC
T1C0.900
%
G90
G05
T1
X33.069Y-107.53
X33.4Y-110.048
X34.541Y-98.729
X34.541Y-101.269
X34.674Y-86.818
X35.224Y-84.338
X36.26Y-95.42
X36.857Y-92.967
X37.188Y-90.449
X37.201Y-112.64
X37.312Y-115.178
X37.511Y-106.622
X37.654Y-121.375
X37.963Y-123.896
X38.38Y-104.235
X38.541Y-78.961
X38.869Y-98.229
X39.811Y-76.761
X39.882Y-85.141
X40.742Y-96.513
X41.266Y-83.011
X41.47Y-119.583
X41.831Y-111.502
X42.053Y-108.972
X42.106Y-117.124
X42.247Y-91.073
X42.485Y-125.431
X42.985Y-103.717
X43.227Y-127.86
X43.239Y-88.735
X43.51Y-106.19
X43.535Y-101.237
X43.728Y-65.656
X43.943Y-69.806
X44.164Y-78.137
X44.494Y-133.854
X44.707Y-72.228
X45.093Y-63.514
X45.373Y-96.483
X45.849Y-84.169
X45.859Y-135.997
X45.944Y-94.008
X45.976Y-76.356
X46.362Y-113.077
X46.442Y-120.823
X46.584Y-115.607
X47.078Y-123.282
X47.176Y-108.191
X47.431Y-82.181
X47.508Y-105.673
X47.615Y-128.778
X47.79Y-88.425
X48.024Y-141.96
X48.026Y-100.0
X48.885Y-130.977
X49.101Y-65.715
X49.481Y-144.041
X49.728Y-70.242
X50.166Y-59.842
X50.27Y-88.975
X50.286Y-118.094
X50.386Y-78.134
X50.566Y-100.0
X50.708Y-136.384
X50.77Y-110.914
X50.976Y-93.546
X50.998Y-72.442
X51.214Y-138.873
X51.384Y-64.602
X51.673Y-53.468
X51.799Y-57.896
X51.825Y-123.695
X52.051Y-82.548
X52.332Y-76.502
X52.369Y-104.167
X52.375Y-126.174
X52.672Y-117.226
X53.25Y-110.364
X53.469Y-51.672
X53.474Y-131.08
X53.495Y-93.877
X54.25Y-144.014
X54.342Y-133.467
X54.438Y-83.416
X54.815Y-87.893
X54.899Y-103.946
X54.997Y-98.035
X55.222Y-67.144
X55.49Y-60.432
X55.52Y-146.214
X55.673Y-71.76
X55.749Y-120.634
X56.015Y-113.868
X56.226Y-138.415
X56.663Y-127.608
X56.914Y-54.709
X57.026Y-77.629
X57.269Y-88.55
X57.364Y-65.779
X57.416Y-107.509
X57.535Y-98.146
X57.591Y-140.557
X57.815Y-73.125
X58.028Y-60.321
X58.051Y-119.561
X58.437Y-113.105
X58.549Y-92.691
X58.772Y-134.594
X58.805Y-126.244
X58.977Y-151.375
X59.279Y-78.802
X59.308Y-53.861
X59.31Y-49.057
X59.401Y-83.183
X59.889Y-101.751
X59.917Y-107.067
X60.625Y-145.196
X60.718Y-132.961
X60.992Y-152.921
X61.05Y-93.132
X61.325Y-47.511
X61.536Y-147.567
X61.583Y-122.18
X61.583Y-63.317
X61.652Y-67.822
X61.748Y-84.155
X61.793Y-115.826
X62.38Y-139.312
X62.426Y-101.64
X62.511Y-57.189
X62.548Y-73.776
X62.578Y-128.715
X62.896Y-88.301
X63.192Y-109.862
X63.35Y-96.793
X63.473Y-141.605
X63.597Y-69.454
X63.782Y-120.91
X63.783Y-62.047
X64.139Y-114.854
X64.572Y-51.616
X64.573Y-79.546
X64.593Y-127.168
X64.629Y-75.233
X64.775Y-135.225
X64.882Y-56.279
X65.045Y-158.011
X65.318Y-89.065
X65.646Y-109.205
X65.755Y-104.508
X65.771Y-151.661
X65.88Y-97.015
X66.346Y-145.882
X66.571Y-133.429
X66.652Y-50.159
X66.773Y-80.816
X66.983Y-153.893
X67.138Y-45.497
X67.347Y-159.085
X67.707Y-92.841
X67.745Y-122.585
X67.896Y-85.029
X67.958Y-65.032
X68.119Y-116.596
X68.142Y-147.678
X68.146Y-141.512
X68.273Y-104.177
X68.435Y-71.075
X68.575Y-59.046
X68.646Y-128.73
X69.456Y-100.0
X69.599Y-54.326
X69.623Y-44.969
X69.674Y-66.905
X69.692Y-139.497
X69.81Y-110.988
X69.825Y-121.128
X70.122Y-61.061
X70.156Y-77.1
X70.186Y-93.39
X70.198Y-86.103
X70.307Y-72.791
X70.372Y-115.423
X70.519Y-127.014
X70.784Y-134.818
X70.855Y-40.49
X71.522Y-151.954
X71.571Y-157.959
X71.996Y-100.0
X72.085Y-49.084
X72.136Y-54.215
X72.171Y-78.646
X72.197Y-110.12
X72.417Y-132.872
X72.641Y-147.386
X72.871Y-90.126
X72.888Y-106.01
X73.055Y-39.22
X73.396Y-83.052
X73.754Y-153.166
X73.873Y-159.033
X73.911Y-145.187
X74.105Y-140.647
X74.235Y-121.619
X74.314Y-96.618
X74.398Y-63.436
X74.489Y-69.597
X74.508Y-48.32
X74.808Y-127.492
X75.112Y-115.855
X75.258Y-90.995
X75.324Y-43.683
X75.368Y-105.461
X75.463Y-57.5
X75.469Y-138.505
X75.539Y-84.416
X75.855Y-65.517
X75.959Y-75.959
X76.122Y-71.543
X76.181Y-119.987
X76.524Y-125.62
X76.709Y-133.262
X76.733Y-59.7
X76.832Y-96.95
X77.254Y-114.491
X77.545Y-51.843
X77.549Y-101.964
X77.642Y-110.426
X77.663Y-150.72
X77.755Y-77.755
X77.813Y-43.176
X77.984Y-156.901
X78.166Y-131.182
X78.536Y-146.028
X78.618Y-54.145
X78.758Y-163.21
X78.807Y-88.967
X79.25Y-82.588
X79.361Y-38.697
X79.61Y-143.726
X79.678Y-152.267
X79.709Y-47.836
X79.838Y-138.731
X79.944Y-109.352
X80.064Y-158.358
X80.079Y-101.743
X80.505Y-69.399
X80.521Y-94.781
X80.768Y-63.055
X81.011Y-136.478
X81.038Y-124.711
X81.06Y-90.14
X81.175Y-118.825
X81.196Y-84.221
X81.276Y-163.542
X81.781Y-76.257
X81.87Y-71.541
X81.879Y-38.366
X81.941Y-65.308
X82.239Y-47.614
X82.25Y-57.146
X82.337Y-105.569
X82.463Y-130.374
X82.585Y-122.696
X82.971Y-117.029
X82.974Y-95.438
X83.222Y-59.493
X83.269Y-112.838
X83.327Y-78.272
X83.463Y-43.189
X83.733Y-128.174
X83.883Y-155.365
X83.987Y-150.785
X84.09Y-143.711
X84.176Y-34.464
X84.52Y-99.324
X84.751Y-148.362
X84.76Y-104.805
X84.765Y-51.678
X84.959Y-141.324
X85.209Y-161.169
X85.233Y-135.65
X85.284Y-111.292
X85.353Y-84.015
X85.528Y-54.101
X85.704Y-89.99
X85.917Y-42.532
X86.126Y-156.557
X86.205Y-133.303
X86.26Y-70.535
X86.598Y-33.701
X86.857Y-63.89
X87.058Y-99.435
X87.069Y-85.888
X87.221Y-47.632
X87.334Y-72.837
X87.374Y-162.496
X87.414Y-78.2
X87.448Y-119.702
X87.726Y-66.277
X87.785Y-91.447
X87.957Y-38.033
X87.983Y-125.771
X88.55Y-106.611
X88.684Y-80.4
X88.735Y-57.959
X88.813Y-117.56
X89.056Y-123.469
X89.182Y-140.374
X89.265Y-95.553
X89.266Y-112.792
X89.351Y-148.033
X89.393Y-60.413
X89.691Y-48.225
X89.839Y-137.921
X89.901Y-145.553
X90.04Y-166.64
X90.167Y-131.187
X90.344Y-38.901
X90.345Y-154.756
X90.75Y-105.341
X90.786Y-152.254
X90.899Y-110.846
X90.921Y-159.265
X90.93Y-128.765
X91.296Y-43.363
X91.516Y-73.091
X91.611Y-96.525
X91.653Y-52.662
X91.867Y-88.385
X91.954Y-101.419
X92.094Y-55.164
X92.279Y-75.513
X92.447Y-65.931
X92.654Y-82.265
X92.997Y-68.411
X93.011Y-34.543
X93.045Y-164.918
X93.322Y-118.348
X93.324Y-90.466
X93.401Y-159.815
X93.626Y-84.611
X93.67Y-135.899
X93.824Y-43.606
X94.111Y-133.398
X94.156Y-144.39
X94.191Y-115.961
X94.456Y-100.978
X94.487Y-141.872
X94.498Y-124.817
X94.72Y-59.892
X95.048Y-122.338
X95.051Y-62.41
X95.199Y-109.223
X95.45Y-47.99
X95.49Y-151.542
X95.548Y-34.675
X95.575Y-165.139
X95.66Y-161.81
X95.671Y-50.52
X95.712Y-149.012
X95.991Y-77.261
X96.237Y-39.022
X96.32Y-156.148
X96.372Y-106.97
X96.432Y-79.762
X96.52Y-96.811
X97.303Y-69.17
X97.374Y-130.02
X97.484Y-90.61
X97.524Y-71.7
X97.595Y-127.49
X98.024Y-54.726
X98.09Y-114.507
X98.134Y-57.264
X98.141Y-93.064
X98.262Y-139.804
X98.373Y-137.267
X98.393Y-98.527
X98.422Y-111.988
X98.49Y-40.195
X98.743Y-156.912
X98.807Y-44.799
X98.878Y-161.504
X99.289Y-83.707
X99.399Y-86.245
X100.0Y-147.557
X100.0Y-145.017
X100.0Y-121.97
X100.0Y-119.43
X100.0Y-65.417
X100.0Y-62.877
X100.315Y-103.595
X100.536Y-106.126
X101.04Y-76.176
X101.067Y-152.562
X101.121Y-162.696
X101.151Y-73.639
X101.194Y-45.667
X101.38Y-131.611
X101.41Y-41.47
X101.491Y-134.148
X101.511Y-36.297
X101.66Y-167.156
X102.057Y-52.892
X102.168Y-50.354
X102.865Y-96.267
X103.059Y-90.298
X103.168Y-82.031
X103.234Y-124.565
X103.306Y-114.914
X103.473Y-60.31
X103.522Y-140.263
X103.546Y-153.112
X103.566Y-127.083
X103.609Y-79.53
X103.694Y-57.78
X103.744Y-142.793
X103.823Y-87.876
X103.855Y-158.639
X103.856Y-117.393
X103.859Y-41.549
X104.035Y-69.355
X104.048Y-36.408
X104.074Y-108.737
X104.198Y-167.045
X104.366Y-66.837
X104.411Y-94.252
X105.147Y-111.039
X105.435Y-103.463
X106.119Y-134.706
X106.218Y-147.235
X106.312Y-42.206
X106.385Y-158.417
X106.55Y-149.753
X106.561Y-137.207
X106.679Y-49.272
X106.926Y-74.154
X107.01Y-46.754
X107.19Y-163.047
X107.393Y-120.311
X107.453Y-33.84
X107.557Y-128.205
X107.577Y-104.827
X107.583Y-71.7
X107.727Y-56.177
X107.816Y-86.463
X107.939Y-64.189
X107.976Y-97.097
X108.169Y-53.675
X108.215Y-130.658
X108.261Y-122.698
X108.371Y-79.792
X108.489Y-61.71
X109.086Y-84.263
X109.343Y-77.445
X109.364Y-153.111
X109.375Y-142.287
X109.452Y-109.452
X109.537Y-164.019
X109.599Y-91.946
X109.638Y-115.129
X109.806Y-155.612
X109.924Y-144.767
X109.989Y-33.685
X110.363Y-96.228
X110.497Y-40.473
X110.904Y-102.417
X110.938Y-37.972
X111.003Y-117.272
X111.03Y-44.583
X111.248Y-111.248
X111.365Y-68.774
X111.544Y-90.313
X111.582Y-136.735
X111.928Y-159.674
X112.234Y-66.387
X112.257Y-123.546
X112.346Y-139.157
X112.534Y-60.247
X112.611Y-52.935
X112.65Y-130.541
X112.975Y-148.426
X113.269Y-50.482
X113.283Y-45.756
X113.298Y-57.825
X113.32Y-85.464
X113.384Y-102.967
X113.43Y-125.799
X113.573Y-73.927
X113.622Y-132.887
X113.633Y-150.879
X114.342Y-79.518
X114.408Y-159.124
X114.415Y-98.102
X114.746Y-71.674
X114.792Y-106.898
X115.036Y-83.592
X115.175Y-118.085
X115.353Y-92.008
X115.574Y-36.972
X115.744Y-143.258
X115.799Y-77.437
X115.855Y-164.082
X116.013Y-154.972
X116.085Y-112.343
X116.341Y-64.956
X116.613Y-145.645
X116.728Y-42.723
X116.808Y-120.031
X116.934Y-97.771
X117.094Y-107.971
X117.392Y-48.631
X117.415Y-62.654
X117.557Y-137.651
X117.606Y-90.835
X117.622Y-125.168
X117.665Y-57.354
X118.028Y-37.629
X118.101Y-113.889
X118.261Y-131.63
X118.309Y-163.425
X118.519Y-154.552
X118.63Y-139.953
X118.637Y-55.007
X118.775Y-101.643
X118.943Y-86.736
X119.023Y-70.141
X119.079Y-127.248
X119.151Y-43.487
X119.472Y-50.088
X119.531Y-133.829
X119.807Y-148.679
X120.234Y-158.96
X120.37Y-94.542
X120.387Y-67.998
X120.454Y-75.624
X120.497Y-81.218
X120.796Y-119.056
X121.024Y-85.279
X121.305Y-101.864
X121.346Y-106.73
X121.354Y-150.694
X121.724Y-62.374
X122.043Y-112.727
X122.087Y-73.678
X122.369Y-79.502
X122.444Y-143.114
X122.669Y-120.772
X122.765Y-159.182
X122.823Y-93.885
X122.994Y-60.174
X123.187Y-40.946
X123.203Y-55.428
X123.246Y-47.175
X123.252Y-125.375
X123.616Y-145.367
X123.769Y-107.494
X123.839Y-137.421
X124.0Y-154.473
X124.126Y-90.007
X124.166Y-131.493
X124.243Y-113.997
X124.293Y-98.939
X124.376Y-53.175
X124.691Y-67.822
X124.968Y-127.248
X124.999Y-42.726
X125.204Y-139.563
X125.376Y-48.558
X125.712Y-133.509
X126.237Y-65.807
X126.284Y-84.825
X126.338Y-153.48
X126.359Y-118.457
X126.472Y-89.035
X126.486Y-73.515
X126.767Y-104.72
X126.83Y-98.829
X127.039Y-79.252
X127.393Y-147.446
X127.396Y-60.874
X127.513Y-111.396
X128.282Y-71.719
X128.369Y-94.998
X128.44Y-119.914
X128.483Y-83.555
X128.663Y-149.646
X128.671Y-157.662
X128.853Y-58.794
X128.859Y-52.418
X128.928Y-124.273
X129.054Y-77.706
X129.268Y-105.161
X129.282Y-141.819
X129.392Y-40.789
X129.835Y-46.126
X129.86Y-112.368
X130.152Y-130.152
X130.23Y-136.027
X130.5Y-66.716
X130.575Y-54.291
X130.739Y-143.9
X130.87Y-94.557
X130.873Y-125.906
X131.105Y-48.325
X131.189Y-157.33
X131.195Y-90.164
X131.247Y-101.364
X131.645Y-41.962
X131.69Y-116.497
X131.863Y-137.973
X131.948Y-131.948
X132.036Y-152.652
X132.216Y-64.843
X132.429Y-108.689
X132.457Y-72.766
X132.814Y-84.699
X133.234Y-78.828
X133.34Y-58.36
X133.617Y-89.401
X133.785Y-101.475
X133.943Y-117.67
X134.178Y-151.287
X134.319Y-146.774
X134.403Y-71.133
X134.446Y-121.945
X134.781Y-96.957
X134.796Y-60.44
X134.883Y-109.347
X135.054Y-52.302
X135.116Y-83.625
X135.376Y-77.463
X135.8Y-140.885
X135.911Y-46.534
X136.019Y-127.638
X136.36Y-66.682
X136.533Y-133.477
X136.588Y-123.31
X136.592Y-145.641
X136.601Y-54.317
X136.614Y-113.326
X136.676Y-104.829
X137.168Y-155.289
X137.311Y-91.728
X137.311Y-96.736
X137.707Y-48.33
X138.034Y-129.185
X138.053Y-139.712
X138.233Y-64.966
X138.322Y-73.167
X138.406Y-135.193
X138.776Y-85.887
X139.001Y-114.195
X139.124Y-79.634
X139.194Y-105.16
X139.321Y-58.901
X139.368Y-154.019
X139.617Y-118.474
X139.664Y-149.061
X139.791Y-91.179
X140.13Y-100.0
X140.403Y-71.71
X140.85Y-60.929
X140.964Y-109.082
X141.163Y-85.018
X141.377Y-78.461
X141.532Y-143.231
X141.574Y-124.003
X141.637Y-52.934
X141.919Y-119.547
X142.117Y-148.403
X142.257Y-47.665
X142.401Y-55.356
X142.455Y-137.151
X142.67Y-100.0
X142.678Y-94.382
X142.87Y-131.569
X142.916Y-65.619
X143.444Y-109.631
X143.465Y-68.099
X143.774Y-125.273
X143.815Y-142.118
X144.015Y-74.588
X144.203Y-49.298
X144.222Y-88.151
X144.262Y-113.956
X144.327Y-129.488
X144.588Y-103.901
X144.685Y-81.491
X144.718Y-135.998
X145.107Y-62.151
X145.196Y-94.05
X146.215Y-73.318
X146.637Y-119.318
X146.675Y-87.494
X146.684Y-114.72
X147.032Y-80.519
X147.053Y-60.519
X147.101Y-55.194
X147.119Y-104.123
X147.353Y-97.933
X147.47Y-145.222
X148.219Y-108.503
X148.267Y-67.745
X148.391Y-126.574
X148.412Y-138.643
X148.869Y-132.588
X148.984Y-120.29
X149.144Y-91.335
X149.186Y-143.349
X149.289Y-56.483
X149.631Y-69.888
X149.891Y-97.822
X150.075Y-75.249
X150.107Y-124.701
X150.577Y-137.316
X150.72Y-108.944
X150.742Y-130.872
X151.024Y-82.626
X151.135Y-85.164
X151.148Y-77.551
X151.645Y-90.894
X151.846Y-62.355
X151.939Y-115.232
X152.068Y-64.885
X152.38Y-103.546
X152.596Y-112.779
X152.843Y-101.049
X153.054Y-119.311
X154.189Y-72.872
X154.392Y-126.601
X154.506Y-139.717
X154.583Y-80.134
X154.664Y-93.943
X154.782Y-70.402
X154.838Y-133.078
X154.885Y-96.473
X155.405Y-108.532
X155.441Y-120.179
X155.581Y-86.378
X155.963Y-137.636
X156.131Y-88.857
X156.377Y-106.185
X156.42Y-125.073
X156.634Y-131.282
X156.81Y-65.757
X156.97Y-79.265
X157.278Y-100.0
X157.699Y-113.989
X158.443Y-67.703
X159.033Y-74.194
X159.174Y-111.922
X159.641Y-93.258
X159.818Y-100.0
X159.905Y-120.218
X160.208Y-85.006
X160.398Y-76.337
X160.541Y-117.759
X160.613Y-90.911
X160.741Y-126.535
X160.866Y-82.553
X160.999Y-106.473
X161.713Y-124.189
X162.345Y-104.319
X163.603Y-95.965
X163.692Y-112.505
X164.006Y-87.598
X164.066Y-98.462
X164.519Y-110.103
X165.638Y-89.544
X165.87Y-106.97
X166.868Y-104.191
X166.978Y-101.654
T0
M30
