G04 #@! TF.GenerationSoftware,KiCad,Pcbnew,5.1.9+dfsg1-1+deb11u1*
G04 #@! TF.CreationDate,2024-07-30T12:46:16+01:00*
G04 #@! TF.ProjectId,drivers,64726976-6572-4732-9e6b-696361645f70,rev?*
G04 #@! TF.SameCoordinates,Original*
G04 #@! TF.FileFunction,Paste,Bot*
G04 #@! TF.FilePolarity,Positive*
%FSLAX46Y46*%
G04 Gerber Fmt 4.6, Leading zero omitted, Abs format (unit mm)*
G04 Created by KiCad (PCBNEW 5.1.9+dfsg1-1+deb11u1) date 2024-07-30 12:46:16*
%MOMM*%
%LPD*%
G01*
G04 APERTURE LIST*
G04 #@! TA.AperFunction,Profile*
%ADD10C,0.050000*%
G04 #@! TD*
G04 #@! TA.AperFunction,Profile*
%ADD11C,0.150000*%
G04 #@! TD*
%ADD12R,1.750000X0.450000*%
G04 APERTURE END LIST*
D10*
X89068477Y-157426062D02*
G75*
G03*
X89068477Y-157426062I-1500000J0D01*
G01*
X120564477Y-50770062D02*
G75*
G03*
X120564477Y-50770062I-1500000J0D01*
G01*
X143424477Y-106372062D02*
G75*
G03*
X143424477Y-106372062I-1500000J0D01*
G01*
X51984477Y-103372062D02*
G75*
G03*
X51984477Y-103372062I-1500000J0D01*
G01*
D11*
X168510657Y-107287602D02*
X168025517Y-110929962D01*
X31975497Y-89073262D02*
X31487817Y-92710542D01*
X92706897Y-168514302D02*
X89074697Y-168029162D01*
X107296657Y-31483842D02*
X110908537Y-31951202D01*
X92706897Y-168514302D02*
X168025517Y-110929962D01*
X168510657Y-107287602D02*
X110908537Y-31951202D01*
X31975497Y-89073262D02*
X107296657Y-31483842D01*
X89074697Y-168029162D02*
X31487817Y-92710542D01*
D10*
X103370000Y-99951320D02*
G75*
G03*
X103370000Y-99951320I-1500000J0D01*
G01*
D12*
X66504000Y-108111000D03*
X66504000Y-107461000D03*
X66504000Y-106811000D03*
X66504000Y-106161000D03*
X66504000Y-105511000D03*
X66504000Y-104861000D03*
X66504000Y-104211000D03*
X66504000Y-103561000D03*
X66504000Y-102911000D03*
X66504000Y-102261000D03*
X66504000Y-101611000D03*
X66504000Y-100961000D03*
X66504000Y-100311000D03*
X66504000Y-99661000D03*
X73704000Y-99661000D03*
X73704000Y-100311000D03*
X73704000Y-100961000D03*
X73704000Y-101611000D03*
X73704000Y-102261000D03*
X73704000Y-102911000D03*
X73704000Y-103561000D03*
X73704000Y-104211000D03*
X73704000Y-104861000D03*
X73704000Y-105511000D03*
X73704000Y-106161000D03*
X73704000Y-106811000D03*
X73704000Y-107461000D03*
X73704000Y-108111000D03*
G36*
G01*
X128574476Y-75038062D02*
X129874478Y-75038062D01*
G75*
G02*
X130124477Y-75288061I0J-249999D01*
G01*
X130124477Y-75938063D01*
G75*
G02*
X129874478Y-76188062I-249999J0D01*
G01*
X128574476Y-76188062D01*
G75*
G02*
X128324477Y-75938063I0J249999D01*
G01*
X128324477Y-75288061D01*
G75*
G02*
X128574476Y-75038062I249999J0D01*
G01*
G37*
G36*
G01*
X128574476Y-72088062D02*
X129874478Y-72088062D01*
G75*
G02*
X130124477Y-72338061I0J-249999D01*
G01*
X130124477Y-72988063D01*
G75*
G02*
X129874478Y-73238062I-249999J0D01*
G01*
X128574476Y-73238062D01*
G75*
G02*
X128324477Y-72988063I0J249999D01*
G01*
X128324477Y-72338061D01*
G75*
G02*
X128574476Y-72088062I249999J0D01*
G01*
G37*
X100628000Y-124045000D03*
X100628000Y-124695000D03*
X100628000Y-125345000D03*
X100628000Y-125995000D03*
X100628000Y-126645000D03*
X100628000Y-127295000D03*
X100628000Y-127945000D03*
X100628000Y-128595000D03*
X100628000Y-129245000D03*
X100628000Y-129895000D03*
X100628000Y-130545000D03*
X100628000Y-131195000D03*
X100628000Y-131845000D03*
X100628000Y-132495000D03*
X93428000Y-132495000D03*
X93428000Y-131845000D03*
X93428000Y-131195000D03*
X93428000Y-130545000D03*
X93428000Y-129895000D03*
X93428000Y-129245000D03*
X93428000Y-128595000D03*
X93428000Y-127945000D03*
X93428000Y-127295000D03*
X93428000Y-126645000D03*
X93428000Y-125995000D03*
X93428000Y-125345000D03*
X93428000Y-124695000D03*
X93428000Y-124045000D03*
X125774000Y-79663000D03*
X125774000Y-79013000D03*
X125774000Y-78363000D03*
X125774000Y-77713000D03*
X125774000Y-77063000D03*
X125774000Y-76413000D03*
X125774000Y-75763000D03*
X125774000Y-75113000D03*
X125774000Y-74463000D03*
X125774000Y-73813000D03*
X125774000Y-73163000D03*
X125774000Y-72513000D03*
X125774000Y-71863000D03*
X125774000Y-71213000D03*
X118574000Y-71213000D03*
X118574000Y-71863000D03*
X118574000Y-72513000D03*
X118574000Y-73163000D03*
X118574000Y-73813000D03*
X118574000Y-74463000D03*
X118574000Y-75113000D03*
X118574000Y-75763000D03*
X118574000Y-76413000D03*
X118574000Y-77063000D03*
X118574000Y-77713000D03*
X118574000Y-78363000D03*
X118574000Y-79013000D03*
X118574000Y-79663000D03*
G36*
G01*
X81730477Y-101361062D02*
X82230477Y-101361062D01*
G75*
G02*
X82455477Y-101586062I0J-225000D01*
G01*
X82455477Y-102036062D01*
G75*
G02*
X82230477Y-102261062I-225000J0D01*
G01*
X81730477Y-102261062D01*
G75*
G02*
X81505477Y-102036062I0J225000D01*
G01*
X81505477Y-101586062D01*
G75*
G02*
X81730477Y-101361062I225000J0D01*
G01*
G37*
G36*
G01*
X81730477Y-102911062D02*
X82230477Y-102911062D01*
G75*
G02*
X82455477Y-103136062I0J-225000D01*
G01*
X82455477Y-103586062D01*
G75*
G02*
X82230477Y-103811062I-225000J0D01*
G01*
X81730477Y-103811062D01*
G75*
G02*
X81505477Y-103586062I0J225000D01*
G01*
X81505477Y-103136062D01*
G75*
G02*
X81730477Y-102911062I225000J0D01*
G01*
G37*
G36*
G01*
X79473477Y-103036062D02*
X80423477Y-103036062D01*
G75*
G02*
X80673477Y-103286062I0J-250000D01*
G01*
X80673477Y-103786062D01*
G75*
G02*
X80423477Y-104036062I-250000J0D01*
G01*
X79473477Y-104036062D01*
G75*
G02*
X79223477Y-103786062I0J250000D01*
G01*
X79223477Y-103286062D01*
G75*
G02*
X79473477Y-103036062I250000J0D01*
G01*
G37*
G36*
G01*
X79473477Y-101136062D02*
X80423477Y-101136062D01*
G75*
G02*
X80673477Y-101386062I0J-250000D01*
G01*
X80673477Y-101886062D01*
G75*
G02*
X80423477Y-102136062I-250000J0D01*
G01*
X79473477Y-102136062D01*
G75*
G02*
X79223477Y-101886062I0J250000D01*
G01*
X79223477Y-101386062D01*
G75*
G02*
X79473477Y-101136062I250000J0D01*
G01*
G37*
G36*
G01*
X77012476Y-100536062D02*
X78312478Y-100536062D01*
G75*
G02*
X78562477Y-100786061I0J-249999D01*
G01*
X78562477Y-101436063D01*
G75*
G02*
X78312478Y-101686062I-249999J0D01*
G01*
X77012476Y-101686062D01*
G75*
G02*
X76762477Y-101436063I0J249999D01*
G01*
X76762477Y-100786061D01*
G75*
G02*
X77012476Y-100536062I249999J0D01*
G01*
G37*
G36*
G01*
X77012476Y-103486062D02*
X78312478Y-103486062D01*
G75*
G02*
X78562477Y-103736061I0J-249999D01*
G01*
X78562477Y-104386063D01*
G75*
G02*
X78312478Y-104636062I-249999J0D01*
G01*
X77012476Y-104636062D01*
G75*
G02*
X76762477Y-104386063I0J249999D01*
G01*
X76762477Y-103736061D01*
G75*
G02*
X77012476Y-103486062I249999J0D01*
G01*
G37*
G36*
G01*
X85032477Y-133391062D02*
X85532477Y-133391062D01*
G75*
G02*
X85757477Y-133616062I0J-225000D01*
G01*
X85757477Y-134066062D01*
G75*
G02*
X85532477Y-134291062I-225000J0D01*
G01*
X85032477Y-134291062D01*
G75*
G02*
X84807477Y-134066062I0J225000D01*
G01*
X84807477Y-133616062D01*
G75*
G02*
X85032477Y-133391062I225000J0D01*
G01*
G37*
G36*
G01*
X85032477Y-131841062D02*
X85532477Y-131841062D01*
G75*
G02*
X85757477Y-132066062I0J-225000D01*
G01*
X85757477Y-132516062D01*
G75*
G02*
X85532477Y-132741062I-225000J0D01*
G01*
X85032477Y-132741062D01*
G75*
G02*
X84807477Y-132516062I0J225000D01*
G01*
X84807477Y-132066062D01*
G75*
G02*
X85032477Y-131841062I225000J0D01*
G01*
G37*
G36*
G01*
X86839477Y-133516062D02*
X87789477Y-133516062D01*
G75*
G02*
X88039477Y-133766062I0J-250000D01*
G01*
X88039477Y-134266062D01*
G75*
G02*
X87789477Y-134516062I-250000J0D01*
G01*
X86839477Y-134516062D01*
G75*
G02*
X86589477Y-134266062I0J250000D01*
G01*
X86589477Y-133766062D01*
G75*
G02*
X86839477Y-133516062I250000J0D01*
G01*
G37*
G36*
G01*
X86839477Y-131616062D02*
X87789477Y-131616062D01*
G75*
G02*
X88039477Y-131866062I0J-250000D01*
G01*
X88039477Y-132366062D01*
G75*
G02*
X87789477Y-132616062I-250000J0D01*
G01*
X86839477Y-132616062D01*
G75*
G02*
X86589477Y-132366062I0J250000D01*
G01*
X86589477Y-131866062D01*
G75*
G02*
X86839477Y-131616062I250000J0D01*
G01*
G37*
G36*
G01*
X88950476Y-131016062D02*
X90250478Y-131016062D01*
G75*
G02*
X90500477Y-131266061I0J-249999D01*
G01*
X90500477Y-131916063D01*
G75*
G02*
X90250478Y-132166062I-249999J0D01*
G01*
X88950476Y-132166062D01*
G75*
G02*
X88700477Y-131916063I0J249999D01*
G01*
X88700477Y-131266061D01*
G75*
G02*
X88950476Y-131016062I249999J0D01*
G01*
G37*
G36*
G01*
X88950476Y-133966062D02*
X90250478Y-133966062D01*
G75*
G02*
X90500477Y-134216061I0J-249999D01*
G01*
X90500477Y-134866063D01*
G75*
G02*
X90250478Y-135116062I-249999J0D01*
G01*
X88950476Y-135116062D01*
G75*
G02*
X88700477Y-134866063I0J249999D01*
G01*
X88700477Y-134216061D01*
G75*
G02*
X88950476Y-133966062I249999J0D01*
G01*
G37*
G36*
G01*
X133292477Y-72913062D02*
X133792477Y-72913062D01*
G75*
G02*
X134017477Y-73138062I0J-225000D01*
G01*
X134017477Y-73588062D01*
G75*
G02*
X133792477Y-73813062I-225000J0D01*
G01*
X133292477Y-73813062D01*
G75*
G02*
X133067477Y-73588062I0J225000D01*
G01*
X133067477Y-73138062D01*
G75*
G02*
X133292477Y-72913062I225000J0D01*
G01*
G37*
G36*
G01*
X133292477Y-74463062D02*
X133792477Y-74463062D01*
G75*
G02*
X134017477Y-74688062I0J-225000D01*
G01*
X134017477Y-75138062D01*
G75*
G02*
X133792477Y-75363062I-225000J0D01*
G01*
X133292477Y-75363062D01*
G75*
G02*
X133067477Y-75138062I0J225000D01*
G01*
X133067477Y-74688062D01*
G75*
G02*
X133292477Y-74463062I225000J0D01*
G01*
G37*
G36*
G01*
X131035477Y-72688062D02*
X131985477Y-72688062D01*
G75*
G02*
X132235477Y-72938062I0J-250000D01*
G01*
X132235477Y-73438062D01*
G75*
G02*
X131985477Y-73688062I-250000J0D01*
G01*
X131035477Y-73688062D01*
G75*
G02*
X130785477Y-73438062I0J250000D01*
G01*
X130785477Y-72938062D01*
G75*
G02*
X131035477Y-72688062I250000J0D01*
G01*
G37*
G36*
G01*
X131035477Y-74588062D02*
X131985477Y-74588062D01*
G75*
G02*
X132235477Y-74838062I0J-250000D01*
G01*
X132235477Y-75338062D01*
G75*
G02*
X131985477Y-75588062I-250000J0D01*
G01*
X131035477Y-75588062D01*
G75*
G02*
X130785477Y-75338062I0J250000D01*
G01*
X130785477Y-74838062D01*
G75*
G02*
X131035477Y-74588062I250000J0D01*
G01*
G37*
M02*
