%FSLAX45Y45*%
G04 Gerber Fmt 4.5, Leading zero omitted, Abs format (unit mm)*
G04 Created by KiCad (PCBNEW 5.1.9+dfsg1-1+deb11u1) date 2024-07-30 12:47:27*
%MOMM*%
%LPD*%
G01*
G04 APERTURE LIST*
%TA.AperFunction,Profile*%
%ADD10C,0.050000*%
%TD*%
%TA.AperFunction,Profile*%
%ADD11C,0.150000*%
%TD*%
%ADD12C,0.200000*%
%ADD13C,0.300000*%
G04 APERTURE END LIST*
D10*
X8906848Y-15742606D02*
G75*
G03*
X8906848Y-15742606I-150000J0D01*
G01*
X12056448Y-5077006D02*
G75*
G03*
X12056448Y-5077006I-150000J0D01*
G01*
X14342448Y-10637206D02*
G75*
G03*
X14342448Y-10637206I-150000J0D01*
G01*
X5198448Y-10337206D02*
G75*
G03*
X5198448Y-10337206I-150000J0D01*
G01*
D11*
X16851066Y-10728760D02*
X16802552Y-11092996D01*
X3197550Y-8907326D02*
X3148782Y-9271054D01*
X9270690Y-16851430D02*
X8907470Y-16802916D01*
X10729666Y-3148384D02*
X11090854Y-3195120D01*
X9270690Y-16851430D02*
X16802552Y-11092996D01*
X16851066Y-10728760D02*
X11090854Y-3195120D01*
X3197550Y-8907326D02*
X10729666Y-3148384D01*
X8907470Y-16802916D02*
X3148782Y-9271054D01*
D10*
X10337000Y-9995132D02*
G75*
G03*
X10337000Y-9995132I-150000J0D01*
G01*
D12*
X3428248Y-8943206D02*
X3468248Y-8983206D01*
X3468248Y-8943206D02*
X3428248Y-8983206D01*
X3428248Y-9324206D02*
X3468248Y-9364206D01*
X3468248Y-9324206D02*
X3428248Y-9364206D01*
X3631448Y-9730606D02*
X3671448Y-9770606D01*
X3671448Y-9730606D02*
X3631448Y-9770606D01*
X3733048Y-8663806D02*
X3773048Y-8703806D01*
X3773048Y-8663806D02*
X3733048Y-8703806D01*
X3860048Y-9044806D02*
X3900048Y-9084806D01*
X3900048Y-9044806D02*
X3860048Y-9084806D01*
X3885448Y-9400406D02*
X3925448Y-9440406D01*
X3925448Y-9400406D02*
X3885448Y-9440406D01*
X3961648Y-10035406D02*
X4001648Y-10075406D01*
X4001648Y-10035406D02*
X3961648Y-10075406D01*
X4164848Y-10365606D02*
X4204848Y-10405606D01*
X4204848Y-10365606D02*
X4164848Y-10405606D01*
X4190248Y-9883006D02*
X4230248Y-9923006D01*
X4230248Y-9883006D02*
X4190248Y-9923006D01*
X4215648Y-8790806D02*
X4255648Y-8830806D01*
X4255648Y-8790806D02*
X4215648Y-8830806D01*
X4266448Y-8384406D02*
X4306448Y-8424406D01*
X4306448Y-8384406D02*
X4266448Y-8424406D01*
X4342648Y-9349606D02*
X4382648Y-9389606D01*
X4382648Y-9349606D02*
X4342648Y-9389606D01*
X4393448Y-8155806D02*
X4433448Y-8195806D01*
X4433448Y-8155806D02*
X4393448Y-8195806D01*
X4469648Y-10797406D02*
X4509648Y-10837406D01*
X4509648Y-10797406D02*
X4469648Y-10837406D01*
X4495048Y-9883006D02*
X4535048Y-9923006D01*
X4535048Y-9883006D02*
X4495048Y-9923006D01*
X4520448Y-10391006D02*
X4560448Y-10431006D01*
X4560448Y-10391006D02*
X4520448Y-10431006D01*
X4723648Y-7901806D02*
X4763648Y-7941806D01*
X4763648Y-7901806D02*
X4723648Y-7941806D01*
X4799848Y-8790806D02*
X4839848Y-8830806D01*
X4839848Y-8790806D02*
X4799848Y-8830806D01*
X4825248Y-8435206D02*
X4865248Y-8475206D01*
X4865248Y-8435206D02*
X4825248Y-8475206D01*
X4901448Y-11254606D02*
X4941448Y-11294606D01*
X4941448Y-11254606D02*
X4901448Y-11294606D01*
X4977648Y-9400406D02*
X5017648Y-9440406D01*
X5017648Y-9400406D02*
X4977648Y-9440406D01*
X5003048Y-8028806D02*
X5043048Y-8068806D01*
X5043048Y-8028806D02*
X5003048Y-8068806D01*
X5028448Y-9984606D02*
X5068448Y-10024606D01*
X5068448Y-9984606D02*
X5028448Y-10024606D01*
X5079248Y-8384406D02*
X5119248Y-8424406D01*
X5119248Y-8384406D02*
X5079248Y-8424406D01*
X5079248Y-10772006D02*
X5119248Y-10812006D01*
X5119248Y-10772006D02*
X5079248Y-10812006D01*
X5282448Y-11762606D02*
X5322448Y-11802606D01*
X5322448Y-11762606D02*
X5282448Y-11802606D01*
X5307848Y-7470006D02*
X5347848Y-7510006D01*
X5347848Y-7470006D02*
X5307848Y-7510006D01*
X5333248Y-8333606D02*
X5373248Y-8373606D01*
X5373248Y-8333606D02*
X5333248Y-8373606D01*
X5511048Y-9400406D02*
X5551048Y-9440406D01*
X5551048Y-9400406D02*
X5511048Y-9440406D01*
X5511048Y-9883006D02*
X5551048Y-9923006D01*
X5551048Y-9883006D02*
X5511048Y-9923006D01*
X5511048Y-10391006D02*
X5551048Y-10431006D01*
X5551048Y-10391006D02*
X5511048Y-10431006D01*
X5511048Y-10975206D02*
X5551048Y-11015206D01*
X5551048Y-10975206D02*
X5511048Y-11015206D01*
X5536448Y-8028806D02*
X5576448Y-8068806D01*
X5576448Y-8028806D02*
X5536448Y-8068806D01*
X5561848Y-8740006D02*
X5601848Y-8780006D01*
X5601848Y-8740006D02*
X5561848Y-8780006D01*
X5561848Y-11432406D02*
X5601848Y-11472406D01*
X5601848Y-11432406D02*
X5561848Y-11472406D01*
X5638048Y-12245206D02*
X5678048Y-12285206D01*
X5678048Y-12245206D02*
X5638048Y-12285206D01*
X5815848Y-10619606D02*
X5855848Y-10659606D01*
X5855848Y-10619606D02*
X5815848Y-10659606D01*
X5815848Y-11127606D02*
X5855848Y-11167606D01*
X5855848Y-11127606D02*
X5815848Y-11167606D01*
X5841248Y-8613006D02*
X5881248Y-8653006D01*
X5881248Y-8613006D02*
X5841248Y-8653006D01*
X5892048Y-11737206D02*
X5932048Y-11777206D01*
X5932048Y-11737206D02*
X5892048Y-11777206D01*
X5942848Y-6987406D02*
X5982848Y-7027406D01*
X5982848Y-6987406D02*
X5942848Y-7027406D01*
X5942848Y-7571606D02*
X5982848Y-7611606D01*
X5982848Y-7571606D02*
X5942848Y-7611606D01*
X5968248Y-8994006D02*
X6008248Y-9034006D01*
X6008248Y-8994006D02*
X5968248Y-9034006D01*
X5968248Y-9679806D02*
X6008248Y-9719806D01*
X6008248Y-9679806D02*
X5968248Y-9719806D01*
X5968248Y-12677006D02*
X6008248Y-12717006D01*
X6008248Y-12677006D02*
X5968248Y-12717006D01*
X5993648Y-11381606D02*
X6033648Y-11421606D01*
X6033648Y-11381606D02*
X5993648Y-11421606D01*
X6196848Y-8257406D02*
X6236848Y-8297406D01*
X6236848Y-8257406D02*
X6196848Y-8297406D01*
X6247648Y-12092806D02*
X6287648Y-12132806D01*
X6287648Y-12092806D02*
X6247648Y-12132806D01*
X6247648Y-12600806D02*
X6287648Y-12640806D01*
X6287648Y-12600806D02*
X6247648Y-12640806D01*
X6273048Y-10721206D02*
X6313048Y-10761206D01*
X6313048Y-10721206D02*
X6273048Y-10761206D01*
X6273048Y-13159606D02*
X6313048Y-13199606D01*
X6313048Y-13159606D02*
X6273048Y-13199606D01*
X6298448Y-8714606D02*
X6338448Y-8754606D01*
X6338448Y-8714606D02*
X6298448Y-8754606D01*
X6298448Y-9349606D02*
X6338448Y-9389606D01*
X6338448Y-9349606D02*
X6298448Y-9389606D01*
X6298448Y-11737206D02*
X6338448Y-11777206D01*
X6338448Y-11737206D02*
X6298448Y-11777206D01*
X6450848Y-10492606D02*
X6490848Y-10532606D01*
X6490848Y-10492606D02*
X6450848Y-10532606D01*
X6450848Y-10619606D02*
X6490848Y-10659606D01*
X6490848Y-10619606D02*
X6450848Y-10659606D01*
X6476248Y-6631806D02*
X6516248Y-6671806D01*
X6516248Y-6631806D02*
X6476248Y-6671806D01*
X6476248Y-7063606D02*
X6516248Y-7103606D01*
X6516248Y-7063606D02*
X6476248Y-7103606D01*
X6476248Y-13058006D02*
X6516248Y-13098006D01*
X6516248Y-13058006D02*
X6476248Y-13098006D01*
X6501648Y-11051406D02*
X6541648Y-11091406D01*
X6541648Y-11051406D02*
X6501648Y-11091406D01*
X6527048Y-11635606D02*
X6567048Y-11675606D01*
X6567048Y-11635606D02*
X6527048Y-11675606D01*
X6527048Y-11991206D02*
X6567048Y-12031206D01*
X6567048Y-11991206D02*
X6527048Y-12031206D01*
X6527048Y-12524606D02*
X6567048Y-12564606D01*
X6567048Y-12524606D02*
X6527048Y-12564606D01*
X6603248Y-8384406D02*
X6643248Y-8424406D01*
X6643248Y-8384406D02*
X6603248Y-8424406D01*
X6603248Y-8994006D02*
X6643248Y-9034006D01*
X6643248Y-8994006D02*
X6603248Y-9034006D01*
X6628648Y-9730606D02*
X6668648Y-9770606D01*
X6668648Y-9730606D02*
X6628648Y-9770606D01*
X6704848Y-7724006D02*
X6744848Y-7764006D01*
X6744848Y-7724006D02*
X6704848Y-7764006D01*
X6704848Y-10949806D02*
X6744848Y-10989806D01*
X6744848Y-10949806D02*
X6704848Y-10989806D01*
X6704848Y-13515206D02*
X6744848Y-13555206D01*
X6744848Y-13515206D02*
X6704848Y-13555206D01*
X6806448Y-8054206D02*
X6846448Y-8094206D01*
X6846448Y-8054206D02*
X6806448Y-8094206D01*
X6831848Y-12651606D02*
X6871848Y-12691606D01*
X6871848Y-12651606D02*
X6831848Y-12691606D01*
X6831848Y-13439006D02*
X6871848Y-13479006D01*
X6871848Y-13439006D02*
X6831848Y-13479006D01*
X6958848Y-6555606D02*
X6998848Y-6595606D01*
X6998848Y-6555606D02*
X6958848Y-6595606D01*
X7009648Y-13210406D02*
X7049648Y-13250406D01*
X7049648Y-13210406D02*
X7009648Y-13250406D01*
X7035048Y-10772006D02*
X7075048Y-10812006D01*
X7075048Y-10772006D02*
X7035048Y-10812006D01*
X7035048Y-11051406D02*
X7075048Y-11091406D01*
X7075048Y-11051406D02*
X7035048Y-11091406D01*
X7035048Y-11635606D02*
X7075048Y-11675606D01*
X7075048Y-11635606D02*
X7035048Y-11675606D01*
X7035048Y-13743806D02*
X7075048Y-13783806D01*
X7075048Y-13743806D02*
X7035048Y-13783806D01*
X7085848Y-8663806D02*
X7125848Y-8703806D01*
X7125848Y-8663806D02*
X7085848Y-8703806D01*
X7111248Y-12321406D02*
X7151248Y-12361406D01*
X7151248Y-12321406D02*
X7111248Y-12361406D01*
X7136648Y-13058006D02*
X7176648Y-13098006D01*
X7176648Y-13058006D02*
X7136648Y-13098006D01*
X7212848Y-9146406D02*
X7252848Y-9186406D01*
X7252848Y-9146406D02*
X7212848Y-9186406D01*
X7238248Y-7266806D02*
X7278248Y-7306806D01*
X7278248Y-7266806D02*
X7238248Y-7306806D01*
X7238248Y-14455006D02*
X7278248Y-14495006D01*
X7278248Y-14455006D02*
X7238248Y-14495006D01*
X7263648Y-8105006D02*
X7303648Y-8145006D01*
X7303648Y-8105006D02*
X7263648Y-8145006D01*
X7314448Y-9400406D02*
X7354448Y-9440406D01*
X7354448Y-9400406D02*
X7314448Y-9440406D01*
X7314448Y-11965806D02*
X7354448Y-12005806D01*
X7354448Y-11965806D02*
X7314448Y-12005806D01*
X7339848Y-13007206D02*
X7379848Y-13047206D01*
X7379848Y-13007206D02*
X7339848Y-13047206D01*
X7339848Y-13489806D02*
X7379848Y-13529806D01*
X7379848Y-13489806D02*
X7339848Y-13529806D01*
X7339848Y-14048606D02*
X7379848Y-14088606D01*
X7379848Y-14048606D02*
X7339848Y-14088606D01*
X7365248Y-9806806D02*
X7405248Y-9846806D01*
X7405248Y-9806806D02*
X7365248Y-9846806D01*
X7390648Y-6098406D02*
X7430648Y-6138406D01*
X7430648Y-6098406D02*
X7390648Y-6138406D01*
X7492248Y-7393806D02*
X7532248Y-7433806D01*
X7532248Y-7393806D02*
X7492248Y-7433806D01*
X7517648Y-12880206D02*
X7557648Y-12920206D01*
X7557648Y-12880206D02*
X7517648Y-12920206D01*
X7543048Y-11051406D02*
X7583048Y-11091406D01*
X7583048Y-11051406D02*
X7543048Y-11091406D01*
X7543048Y-11635606D02*
X7583048Y-11675606D01*
X7583048Y-11635606D02*
X7543048Y-11675606D01*
X7543048Y-12270606D02*
X7583048Y-12310606D01*
X7583048Y-12270606D02*
X7543048Y-12310606D01*
X7568448Y-10772006D02*
X7608448Y-10812006D01*
X7608448Y-10772006D02*
X7568448Y-10812006D01*
X7619248Y-13769206D02*
X7659248Y-13809206D01*
X7659248Y-13769206D02*
X7619248Y-13809206D01*
X7670048Y-8105006D02*
X7710048Y-8145006D01*
X7710048Y-8105006D02*
X7670048Y-8145006D01*
X7670048Y-14277206D02*
X7710048Y-14317206D01*
X7710048Y-14277206D02*
X7670048Y-14317206D01*
X7695448Y-9756006D02*
X7735448Y-9796006D01*
X7735448Y-9756006D02*
X7695448Y-9796006D01*
X7720848Y-14429606D02*
X7760848Y-14469606D01*
X7760848Y-14429606D02*
X7720848Y-14469606D01*
X7746248Y-8740006D02*
X7786248Y-8780006D01*
X7786248Y-8740006D02*
X7746248Y-8780006D01*
X7746248Y-10238606D02*
X7786248Y-10278606D01*
X7786248Y-10238606D02*
X7746248Y-10278606D01*
X7771648Y-14658206D02*
X7811648Y-14698206D01*
X7811648Y-14658206D02*
X7771648Y-14698206D01*
X7771648Y-15064606D02*
X7811648Y-15104606D01*
X7811648Y-15064606D02*
X7771648Y-15104606D01*
X7797048Y-10899006D02*
X7837048Y-10939006D01*
X7837048Y-10899006D02*
X7797048Y-10939006D01*
X7822448Y-9349606D02*
X7862448Y-9389606D01*
X7862448Y-9349606D02*
X7822448Y-9389606D01*
X7847848Y-5590406D02*
X7887848Y-5630406D01*
X7887848Y-5590406D02*
X7847848Y-5630406D01*
X7873248Y-10238606D02*
X7913248Y-10278606D01*
X7913248Y-10238606D02*
X7873248Y-10278606D01*
X7949448Y-14023206D02*
X7989448Y-14063206D01*
X7989448Y-14023206D02*
X7949448Y-14063206D01*
X7974848Y-6682606D02*
X8014848Y-6722606D01*
X8014848Y-6682606D02*
X7974848Y-6722606D01*
X7974848Y-9908406D02*
X8014848Y-9948406D01*
X8014848Y-9908406D02*
X7974848Y-9948406D01*
X8025648Y-11051406D02*
X8065648Y-11091406D01*
X8065648Y-11051406D02*
X8025648Y-11091406D01*
X8025648Y-11635606D02*
X8065648Y-11675606D01*
X8065648Y-11635606D02*
X8025648Y-11675606D01*
X8025648Y-12270606D02*
X8065648Y-12310606D01*
X8065648Y-12270606D02*
X8025648Y-12310606D01*
X8025648Y-15420206D02*
X8065648Y-15460206D01*
X8065648Y-15420206D02*
X8025648Y-15460206D01*
X8051048Y-5336406D02*
X8091048Y-5376406D01*
X8091048Y-5336406D02*
X8051048Y-5376406D01*
X8076448Y-10238606D02*
X8116448Y-10278606D01*
X8116448Y-10238606D02*
X8076448Y-10278606D01*
X8076448Y-13743806D02*
X8116448Y-13783806D01*
X8116448Y-13743806D02*
X8076448Y-13783806D01*
X8127248Y-7470006D02*
X8167248Y-7510006D01*
X8167248Y-7470006D02*
X8127248Y-7510006D01*
X8152648Y-14378806D02*
X8192648Y-14418806D01*
X8192648Y-14378806D02*
X8152648Y-14418806D01*
X8228848Y-11965806D02*
X8268848Y-12005806D01*
X8268848Y-11965806D02*
X8228848Y-12005806D01*
X8228848Y-15039206D02*
X8268848Y-15079206D01*
X8268848Y-15039206D02*
X8228848Y-15079206D01*
X8254248Y-8892406D02*
X8294248Y-8932406D01*
X8294248Y-8892406D02*
X8254248Y-8932406D01*
X8254248Y-14023206D02*
X8294248Y-14063206D01*
X8294248Y-14023206D02*
X8254248Y-14063206D01*
X8254248Y-14658206D02*
X8294248Y-14698206D01*
X8294248Y-14658206D02*
X8254248Y-14698206D01*
X8305048Y-10899006D02*
X8345048Y-10939006D01*
X8345048Y-10899006D02*
X8305048Y-10939006D01*
X8355848Y-14429606D02*
X8395848Y-14469606D01*
X8395848Y-14429606D02*
X8355848Y-14469606D01*
X8406648Y-5336406D02*
X8446648Y-5376406D01*
X8446648Y-5336406D02*
X8406648Y-5376406D01*
X8406648Y-8130406D02*
X8446648Y-8170406D01*
X8446648Y-8130406D02*
X8406648Y-8170406D01*
X8432048Y-9324206D02*
X8472048Y-9364206D01*
X8472048Y-9324206D02*
X8432048Y-9364206D01*
X8432048Y-15928206D02*
X8472048Y-15968206D01*
X8472048Y-15928206D02*
X8432048Y-15968206D01*
X8482848Y-9705206D02*
X8522848Y-9745206D01*
X8522848Y-9705206D02*
X8482848Y-9745206D01*
X8482848Y-11051406D02*
X8522848Y-11091406D01*
X8522848Y-11051406D02*
X8482848Y-11091406D01*
X8482848Y-11635606D02*
X8522848Y-11675606D01*
X8522848Y-11635606D02*
X8482848Y-11675606D01*
X8482848Y-12270606D02*
X8522848Y-12310606D01*
X8522848Y-12270606D02*
X8482848Y-12310606D01*
X8609848Y-6174606D02*
X8649848Y-6214606D01*
X8649848Y-6174606D02*
X8609848Y-6214606D01*
X8609848Y-13286606D02*
X8649848Y-13326606D01*
X8649848Y-13286606D02*
X8609848Y-13326606D01*
X8635248Y-14709006D02*
X8675248Y-14749006D01*
X8675248Y-14709006D02*
X8635248Y-14749006D01*
X8660648Y-14302606D02*
X8700648Y-14342606D01*
X8700648Y-14302606D02*
X8660648Y-14342606D01*
X8711448Y-13743806D02*
X8751448Y-13783806D01*
X8751448Y-13743806D02*
X8711448Y-13783806D01*
X8711448Y-15115406D02*
X8751448Y-15155406D01*
X8751448Y-15115406D02*
X8711448Y-15155406D01*
X8736848Y-8536806D02*
X8776848Y-8576806D01*
X8776848Y-8536806D02*
X8736848Y-8576806D01*
X8736848Y-9908406D02*
X8776848Y-9948406D01*
X8776848Y-9908406D02*
X8736848Y-9948406D01*
X8736848Y-14099406D02*
X8776848Y-14139406D01*
X8776848Y-14099406D02*
X8736848Y-14139406D01*
X8762248Y-9324206D02*
X8802248Y-9364206D01*
X8802248Y-9324206D02*
X8762248Y-9364206D01*
X8787648Y-10746606D02*
X8827648Y-10786606D01*
X8827648Y-10746606D02*
X8787648Y-10786606D01*
X8813048Y-13286606D02*
X8853048Y-13326606D01*
X8853048Y-13286606D02*
X8813048Y-13326606D01*
X8813048Y-16436206D02*
X8853048Y-16476206D01*
X8853048Y-16436206D02*
X8813048Y-16476206D01*
X8863848Y-10111606D02*
X8903848Y-10151606D01*
X8903848Y-10111606D02*
X8863848Y-10151606D01*
X8863848Y-10467206D02*
X8903848Y-10507206D01*
X8903848Y-10467206D02*
X8863848Y-10507206D01*
X8914648Y-16004406D02*
X8954648Y-16044406D01*
X8954648Y-16004406D02*
X8914648Y-16044406D01*
X8940048Y-9527406D02*
X8980048Y-9567406D01*
X8980048Y-9527406D02*
X8940048Y-9567406D01*
X8940048Y-13286606D02*
X8980048Y-13326606D01*
X8980048Y-13286606D02*
X8940048Y-13326606D01*
X8990848Y-11330806D02*
X9030848Y-11370806D01*
X9030848Y-11330806D02*
X8990848Y-11370806D01*
X8990848Y-11635606D02*
X9030848Y-11675606D01*
X9030848Y-11635606D02*
X8990848Y-11675606D01*
X8990848Y-12270606D02*
X9030848Y-12310606D01*
X9030848Y-12270606D02*
X8990848Y-12310606D01*
X9041648Y-4777606D02*
X9081648Y-4817606D01*
X9081648Y-4777606D02*
X9041648Y-4817606D01*
X9041648Y-9146406D02*
X9081648Y-9186406D01*
X9081648Y-9146406D02*
X9041648Y-9186406D01*
X9041648Y-14988406D02*
X9081648Y-15028406D01*
X9081648Y-14988406D02*
X9041648Y-15028406D01*
X9092448Y-9730606D02*
X9132448Y-9770606D01*
X9132448Y-9730606D02*
X9092448Y-9770606D01*
X9092448Y-16436206D02*
X9132448Y-16476206D01*
X9132448Y-16436206D02*
X9092448Y-16476206D01*
X9117848Y-7343006D02*
X9157848Y-7383006D01*
X9157848Y-7343006D02*
X9117848Y-7383006D01*
X9117848Y-10365606D02*
X9157848Y-10405606D01*
X9157848Y-10365606D02*
X9117848Y-10405606D01*
X9117848Y-10568806D02*
X9157848Y-10608806D01*
X9157848Y-10568806D02*
X9117848Y-10608806D01*
X9143248Y-8663806D02*
X9183248Y-8703806D01*
X9183248Y-8663806D02*
X9143248Y-8703806D01*
X9143248Y-14658206D02*
X9183248Y-14698206D01*
X9183248Y-14658206D02*
X9143248Y-14698206D01*
X9143248Y-16283806D02*
X9183248Y-16323806D01*
X9183248Y-16283806D02*
X9143248Y-16323806D01*
X9168648Y-16715606D02*
X9208648Y-16755606D01*
X9208648Y-16715606D02*
X9168648Y-16755606D01*
X9219448Y-13769206D02*
X9259448Y-13809206D01*
X9259448Y-13769206D02*
X9219448Y-13809206D01*
X9244848Y-5336406D02*
X9284848Y-5376406D01*
X9284848Y-5336406D02*
X9244848Y-5376406D01*
X9244848Y-7978006D02*
X9284848Y-8018006D01*
X9284848Y-7978006D02*
X9244848Y-8018006D01*
X9244848Y-14201006D02*
X9284848Y-14241006D01*
X9284848Y-14201006D02*
X9244848Y-14241006D01*
X9270248Y-6606406D02*
X9310248Y-6646406D01*
X9310248Y-6606406D02*
X9270248Y-6646406D01*
X9295648Y-12042006D02*
X9335648Y-12082006D01*
X9335648Y-12042006D02*
X9295648Y-12082006D01*
X9295648Y-15877406D02*
X9335648Y-15917406D01*
X9335648Y-15877406D02*
X9295648Y-15917406D01*
X9321048Y-9222606D02*
X9361048Y-9262606D01*
X9361048Y-9222606D02*
X9321048Y-9262606D01*
X9321048Y-11026006D02*
X9361048Y-11066006D01*
X9361048Y-11026006D02*
X9321048Y-11066006D01*
X9346448Y-11737206D02*
X9386448Y-11777206D01*
X9386448Y-11737206D02*
X9346448Y-11777206D01*
X9346448Y-14861406D02*
X9386448Y-14901406D01*
X9386448Y-14861406D02*
X9346448Y-14901406D01*
X9397248Y-10467206D02*
X9437248Y-10507206D01*
X9437248Y-10467206D02*
X9397248Y-10507206D01*
X9397248Y-15267806D02*
X9437248Y-15307806D01*
X9437248Y-15267806D02*
X9397248Y-15307806D01*
X9422648Y-11356206D02*
X9462648Y-11396206D01*
X9462648Y-11356206D02*
X9422648Y-11396206D01*
X9448048Y-10111606D02*
X9488048Y-10151606D01*
X9488048Y-10111606D02*
X9448048Y-10151606D01*
X9454200Y-12146600D02*
X9494200Y-12186600D01*
X9494200Y-12146600D02*
X9454200Y-12186600D01*
X9473448Y-9502006D02*
X9513448Y-9542006D01*
X9513448Y-9502006D02*
X9473448Y-9542006D01*
X9524248Y-9019406D02*
X9564248Y-9059406D01*
X9564248Y-9019406D02*
X9524248Y-9059406D01*
X9524248Y-15648806D02*
X9564248Y-15688806D01*
X9564248Y-15648806D02*
X9524248Y-15688806D01*
X9549648Y-14632806D02*
X9589648Y-14672806D01*
X9589648Y-14632806D02*
X9549648Y-14672806D01*
X9549648Y-16360006D02*
X9589648Y-16400006D01*
X9589648Y-16360006D02*
X9549648Y-16400006D01*
X9549648Y-16461606D02*
X9589648Y-16501606D01*
X9589648Y-16461606D02*
X9549648Y-16501606D01*
X9600448Y-5006206D02*
X9640448Y-5046206D01*
X9640448Y-5006206D02*
X9600448Y-5046206D01*
X9602901Y-12072958D02*
X9642901Y-12112958D01*
X9642901Y-12072958D02*
X9602901Y-12112958D01*
X9606600Y-13137200D02*
X9646600Y-13177200D01*
X9646600Y-13137200D02*
X9606600Y-13177200D01*
X9625848Y-8232006D02*
X9665848Y-8272006D01*
X9665848Y-8232006D02*
X9625848Y-8272006D01*
X9625848Y-10365606D02*
X9665848Y-10405606D01*
X9665848Y-10365606D02*
X9625848Y-10405606D01*
X9651248Y-11051406D02*
X9691248Y-11091406D01*
X9691248Y-11051406D02*
X9651248Y-11091406D01*
X9702048Y-16334606D02*
X9742048Y-16374606D01*
X9742048Y-16334606D02*
X9702048Y-16374606D01*
X9752848Y-4041006D02*
X9792848Y-4081006D01*
X9792848Y-4041006D02*
X9752848Y-4081006D01*
X9752848Y-4269606D02*
X9792848Y-4309606D01*
X9792848Y-4269606D02*
X9752848Y-4309606D01*
X9752848Y-8663806D02*
X9792848Y-8703806D01*
X9792848Y-8663806D02*
X9752848Y-8703806D01*
X9752848Y-9857606D02*
X9792848Y-9897606D01*
X9792848Y-9857606D02*
X9752848Y-9897606D01*
X9752848Y-11330806D02*
X9792848Y-11370806D01*
X9792848Y-11330806D02*
X9752848Y-11370806D01*
X9752848Y-11686406D02*
X9792848Y-11726406D01*
X9792848Y-11686406D02*
X9752848Y-11726406D01*
X9759000Y-11994200D02*
X9799000Y-12034200D01*
X9799000Y-11994200D02*
X9759000Y-12034200D01*
X9778248Y-16156806D02*
X9818248Y-16196806D01*
X9818248Y-16156806D02*
X9778248Y-16196806D01*
X9784400Y-12959400D02*
X9824400Y-12999400D01*
X9824400Y-12959400D02*
X9784400Y-12999400D01*
X9829048Y-10111606D02*
X9869048Y-10151606D01*
X9869048Y-10111606D02*
X9829048Y-10151606D01*
X9829048Y-14201006D02*
X9869048Y-14241006D01*
X9869048Y-14201006D02*
X9829048Y-14241006D01*
X9854448Y-14810606D02*
X9894448Y-14850606D01*
X9894448Y-14810606D02*
X9854448Y-14850606D01*
X9854448Y-15293206D02*
X9894448Y-15333206D01*
X9894448Y-15293206D02*
X9854448Y-15333206D01*
X9879848Y-10467206D02*
X9919848Y-10507206D01*
X9919848Y-10467206D02*
X9879848Y-10507206D01*
X9879848Y-13439006D02*
X9919848Y-13479006D01*
X9919848Y-13439006D02*
X9879848Y-13479006D01*
X9905248Y-15648806D02*
X9945248Y-15688806D01*
X9945248Y-15648806D02*
X9905248Y-15688806D01*
X9911400Y-11994200D02*
X9951400Y-12034200D01*
X9951400Y-11994200D02*
X9911400Y-12034200D01*
X9981448Y-6174606D02*
X10021448Y-6214606D01*
X10021448Y-6174606D02*
X9981448Y-6214606D01*
X9981448Y-9603606D02*
X10021448Y-9643606D01*
X10021448Y-9603606D02*
X9981448Y-9643606D01*
X9987600Y-12072958D02*
X10027600Y-12112958D01*
X10027600Y-12072958D02*
X9987600Y-12112958D01*
X10006848Y-4676006D02*
X10046848Y-4716006D01*
X10046848Y-4676006D02*
X10006848Y-4716006D01*
X10006848Y-5336406D02*
X10046848Y-5376406D01*
X10046848Y-5336406D02*
X10006848Y-5376406D01*
X10006848Y-11051406D02*
X10046848Y-11091406D01*
X10046848Y-11051406D02*
X10006848Y-11091406D01*
X10057648Y-7419206D02*
X10097648Y-7459206D01*
X10097648Y-7419206D02*
X10057648Y-7459206D01*
X10063800Y-12146600D02*
X10103800Y-12186600D01*
X10103800Y-12146600D02*
X10063800Y-12186600D01*
X10083048Y-9095606D02*
X10123048Y-9135606D01*
X10123048Y-9095606D02*
X10083048Y-9135606D01*
X10083048Y-11381606D02*
X10123048Y-11421606D01*
X10123048Y-11381606D02*
X10083048Y-11421606D01*
X10083048Y-15013806D02*
X10123048Y-15053806D01*
X10123048Y-15013806D02*
X10083048Y-15053806D01*
X10083048Y-16029806D02*
X10123048Y-16069806D01*
X10123048Y-16029806D02*
X10083048Y-16069806D01*
X10159248Y-13997806D02*
X10199248Y-14037806D01*
X10199248Y-13997806D02*
X10159248Y-14037806D01*
X10184648Y-10289406D02*
X10224648Y-10329406D01*
X10224648Y-10289406D02*
X10184648Y-10329406D01*
X10184648Y-13743806D02*
X10224648Y-13783806D01*
X10224648Y-13743806D02*
X10184648Y-13783806D01*
X10210048Y-7927206D02*
X10250048Y-7967206D01*
X10250048Y-7927206D02*
X10210048Y-7967206D01*
X10210048Y-14353406D02*
X10250048Y-14393406D01*
X10250048Y-14353406D02*
X10210048Y-14393406D01*
X10235464Y-12701999D02*
X10275464Y-12741999D01*
X10275464Y-12701999D02*
X10235464Y-12741999D01*
X10260848Y-6784206D02*
X10300848Y-6824206D01*
X10300848Y-6784206D02*
X10260848Y-6824206D01*
X10260848Y-12067406D02*
X10300848Y-12107406D01*
X10300848Y-12067406D02*
X10260848Y-12107406D01*
X10286248Y-9730606D02*
X10326248Y-9770606D01*
X10326248Y-9730606D02*
X10286248Y-9770606D01*
X10337048Y-5031606D02*
X10377048Y-5071606D01*
X10377048Y-5031606D02*
X10337048Y-5071606D01*
X10337048Y-14785206D02*
X10377048Y-14825206D01*
X10377048Y-14785206D02*
X10337048Y-14825206D01*
X10362448Y-4193406D02*
X10402448Y-4233406D01*
X10402448Y-4193406D02*
X10362448Y-4233406D01*
X10362448Y-10670406D02*
X10402448Y-10710406D01*
X10402448Y-10670406D02*
X10362448Y-10710406D01*
X10362448Y-15140806D02*
X10402448Y-15180806D01*
X10402448Y-15140806D02*
X10362448Y-15180806D01*
X10387848Y-11711806D02*
X10427848Y-11751806D01*
X10427848Y-11711806D02*
X10387848Y-11751806D01*
X10413248Y-11026006D02*
X10453248Y-11066006D01*
X10453248Y-11026006D02*
X10413248Y-11066006D01*
X10413248Y-13439006D02*
X10453248Y-13479006D01*
X10453248Y-13439006D02*
X10413248Y-13479006D01*
X10413248Y-15750406D02*
X10453248Y-15790406D01*
X10453248Y-15750406D02*
X10413248Y-15790406D01*
X10438648Y-8663806D02*
X10478648Y-8703806D01*
X10478648Y-8663806D02*
X10438648Y-8703806D01*
X10464048Y-9095606D02*
X10504048Y-9135606D01*
X10504048Y-9095606D02*
X10464048Y-9135606D01*
X10489448Y-10060806D02*
X10529448Y-10100806D01*
X10529448Y-10060806D02*
X10489448Y-10100806D01*
X10514848Y-14556606D02*
X10554848Y-14596606D01*
X10554848Y-14556606D02*
X10514848Y-14596606D01*
X10565648Y-11330806D02*
X10605648Y-11370806D01*
X10605648Y-11330806D02*
X10565648Y-11370806D01*
X10565648Y-13997806D02*
X10605648Y-14037806D01*
X10605648Y-13997806D02*
X10565648Y-14037806D01*
X10591048Y-9552806D02*
X10631048Y-9592806D01*
X10631048Y-9552806D02*
X10591048Y-9592806D01*
X10616448Y-3964806D02*
X10656448Y-4004806D01*
X10656448Y-3964806D02*
X10616448Y-4004806D01*
X10641848Y-10721206D02*
X10681848Y-10761206D01*
X10681848Y-10721206D02*
X10641848Y-10761206D01*
X10667248Y-12677006D02*
X10707248Y-12717006D01*
X10707248Y-12677006D02*
X10667248Y-12717006D01*
X10667248Y-13083406D02*
X10707248Y-13123406D01*
X10707248Y-13083406D02*
X10667248Y-13123406D01*
X10692648Y-3456806D02*
X10732648Y-3496806D01*
X10732648Y-3456806D02*
X10692648Y-3496806D01*
X10692648Y-15547206D02*
X10732648Y-15587206D01*
X10732648Y-15547206D02*
X10692648Y-15587206D01*
X10718048Y-3710806D02*
X10758048Y-3750806D01*
X10758048Y-3710806D02*
X10718048Y-3750806D01*
X10718048Y-15293206D02*
X10758048Y-15333206D01*
X10758048Y-15293206D02*
X10718048Y-15333206D01*
X10743448Y-4599806D02*
X10783448Y-4639806D01*
X10783448Y-4599806D02*
X10743448Y-4639806D01*
X10743448Y-5336406D02*
X10783448Y-5376406D01*
X10783448Y-5336406D02*
X10743448Y-5376406D01*
X10743448Y-9705206D02*
X10783448Y-9745206D01*
X10783448Y-9705206D02*
X10743448Y-9745206D01*
X10743448Y-9984606D02*
X10783448Y-10024606D01*
X10783448Y-9984606D02*
X10743448Y-10024606D01*
X10743448Y-10238606D02*
X10783448Y-10278606D01*
X10783448Y-10238606D02*
X10743448Y-10278606D01*
X10768848Y-3253606D02*
X10808848Y-3293606D01*
X10808848Y-3253606D02*
X10768848Y-3293606D01*
X10794248Y-14277206D02*
X10834248Y-14317206D01*
X10834248Y-14277206D02*
X10794248Y-14317206D01*
X10819648Y-9375006D02*
X10859648Y-9415006D01*
X10859648Y-9375006D02*
X10819648Y-9415006D01*
X10895848Y-6276206D02*
X10935848Y-6316206D01*
X10935848Y-6276206D02*
X10895848Y-6316206D01*
X10921248Y-11711806D02*
X10961248Y-11751806D01*
X10961248Y-11711806D02*
X10921248Y-11751806D01*
X10921248Y-12067406D02*
X10961248Y-12107406D01*
X10961248Y-12067406D02*
X10921248Y-12107406D01*
X10972048Y-7190606D02*
X11012048Y-7230606D01*
X11012048Y-7190606D02*
X10972048Y-7230606D01*
X10972048Y-7622406D02*
X11012048Y-7662406D01*
X11012048Y-7622406D02*
X10972048Y-7662406D01*
X10972048Y-8359006D02*
X11012048Y-8399006D01*
X11012048Y-8359006D02*
X10972048Y-8399006D01*
X10972048Y-9019406D02*
X11012048Y-9059406D01*
X11012048Y-9019406D02*
X10972048Y-9059406D01*
X11022848Y-9883006D02*
X11062848Y-9923006D01*
X11062848Y-9883006D02*
X11022848Y-9923006D01*
X11022848Y-10391006D02*
X11062848Y-10431006D01*
X11062848Y-10391006D02*
X11022848Y-10431006D01*
X11022848Y-13997806D02*
X11062848Y-14037806D01*
X11062848Y-13997806D02*
X11022848Y-14037806D01*
X11048248Y-13439006D02*
X11088248Y-13479006D01*
X11088248Y-13439006D02*
X11048248Y-13479006D01*
X11048248Y-14785206D02*
X11088248Y-14825206D01*
X11088248Y-14785206D02*
X11048248Y-14825206D01*
X11073648Y-4244206D02*
X11113648Y-4284206D01*
X11113648Y-4244206D02*
X11073648Y-4284206D01*
X11073648Y-5006206D02*
X11113648Y-5046206D01*
X11113648Y-5006206D02*
X11073648Y-5046206D01*
X11130600Y-15093000D02*
X11170600Y-15133000D01*
X11170600Y-15093000D02*
X11130600Y-15133000D01*
X11130600Y-15193001D02*
X11170600Y-15233001D01*
X11170600Y-15193001D02*
X11130600Y-15233001D01*
X11149848Y-12905606D02*
X11189848Y-12945606D01*
X11189848Y-12905606D02*
X11149848Y-12945606D01*
X11175248Y-3482206D02*
X11215248Y-3522206D01*
X11215248Y-3482206D02*
X11175248Y-3522206D01*
X11226048Y-14556606D02*
X11266048Y-14596606D01*
X11266048Y-14556606D02*
X11226048Y-14596606D01*
X11276848Y-7422200D02*
X11316848Y-7462200D01*
X11316848Y-7422200D02*
X11276848Y-7462200D01*
X11280547Y-7196471D02*
X11320547Y-7236471D01*
X11320547Y-7196471D02*
X11280547Y-7236471D01*
X11302248Y-7597006D02*
X11342248Y-7637006D01*
X11342248Y-7597006D02*
X11302248Y-7637006D01*
X11302248Y-10543406D02*
X11342248Y-10583406D01*
X11342248Y-10543406D02*
X11302248Y-10583406D01*
X11327648Y-7978006D02*
X11367648Y-8018006D01*
X11367648Y-7978006D02*
X11327648Y-8018006D01*
X11327648Y-9197206D02*
X11367648Y-9237206D01*
X11367648Y-9197206D02*
X11327648Y-9237206D01*
X11353048Y-14277206D02*
X11393048Y-14317206D01*
X11393048Y-14277206D02*
X11353048Y-14317206D01*
X11450949Y-7706326D02*
X11490949Y-7746326D01*
X11490949Y-7706326D02*
X11450949Y-7746326D01*
X11454648Y-3964806D02*
X11494648Y-4004806D01*
X11494648Y-3964806D02*
X11454648Y-4004806D01*
X11454648Y-12372206D02*
X11494648Y-12412206D01*
X11494648Y-12372206D02*
X11454648Y-12412206D01*
X11454648Y-13769206D02*
X11494648Y-13809206D01*
X11494648Y-13769206D02*
X11454648Y-13809206D01*
X11556248Y-5285606D02*
X11596248Y-5325606D01*
X11596248Y-5285606D02*
X11556248Y-5325606D01*
X11556248Y-7317606D02*
X11596248Y-7357606D01*
X11596248Y-7317606D02*
X11556248Y-7357606D01*
X11581648Y-13337406D02*
X11621648Y-13377406D01*
X11621648Y-13337406D02*
X11581648Y-13377406D01*
X11581947Y-14907545D02*
X11621947Y-14947545D01*
X11621947Y-14907545D02*
X11581947Y-14947545D01*
X11607048Y-11711806D02*
X11647048Y-11751806D01*
X11647048Y-11711806D02*
X11607048Y-11751806D01*
X11629175Y-14806952D02*
X11669175Y-14846952D01*
X11669175Y-14806952D02*
X11629175Y-14846952D01*
X11632448Y-6276206D02*
X11672448Y-6316206D01*
X11672448Y-6276206D02*
X11632448Y-6316206D01*
X11654975Y-7173801D02*
X11694975Y-7213801D01*
X11694975Y-7173801D02*
X11654975Y-7213801D01*
X11657848Y-4625206D02*
X11697848Y-4665206D01*
X11697848Y-4625206D02*
X11657848Y-4665206D01*
X11683248Y-14683606D02*
X11723248Y-14723606D01*
X11723248Y-14683606D02*
X11683248Y-14723606D01*
X11708648Y-14074006D02*
X11748648Y-14114006D01*
X11748648Y-14074006D02*
X11708648Y-14114006D01*
X11810248Y-6733406D02*
X11850248Y-6773406D01*
X11850248Y-6733406D02*
X11810248Y-6773406D01*
X11861048Y-8232006D02*
X11901048Y-8272006D01*
X11901048Y-8232006D02*
X11861048Y-8272006D01*
X11911848Y-12753206D02*
X11951848Y-12793206D01*
X11951848Y-12753206D02*
X11911848Y-12793206D01*
X12038848Y-7089006D02*
X12078848Y-7129006D01*
X12078848Y-7089006D02*
X12038848Y-7129006D01*
X12038848Y-7546206D02*
X12078848Y-7586206D01*
X12078848Y-7546206D02*
X12038848Y-7586206D01*
X12064248Y-11280006D02*
X12104248Y-11320006D01*
X12104248Y-11280006D02*
X12064248Y-11320006D01*
X12070400Y-7346000D02*
X12110400Y-7386000D01*
X12110400Y-7346000D02*
X12070400Y-7386000D01*
X12095800Y-8336600D02*
X12135800Y-8376600D01*
X12135800Y-8336600D02*
X12095800Y-8376600D01*
X12097912Y-7799498D02*
X12137912Y-7839498D01*
X12137912Y-7799498D02*
X12097912Y-7839498D01*
X12140448Y-12194406D02*
X12180448Y-12234406D01*
X12180448Y-12194406D02*
X12140448Y-12234406D01*
X12191248Y-13743806D02*
X12231248Y-13783806D01*
X12231248Y-13743806D02*
X12191248Y-13783806D01*
X12222800Y-6888800D02*
X12262800Y-6928800D01*
X12262800Y-6888800D02*
X12222800Y-6928800D01*
X12267448Y-5260206D02*
X12307448Y-5300206D01*
X12307448Y-5260206D02*
X12267448Y-5300206D01*
X12318248Y-10518006D02*
X12358248Y-10558006D01*
X12358248Y-10518006D02*
X12318248Y-10558006D01*
X12318248Y-11711806D02*
X12358248Y-11751806D01*
X12358248Y-11711806D02*
X12318248Y-11751806D01*
X12343648Y-7546206D02*
X12383648Y-7586206D01*
X12383648Y-7546206D02*
X12343648Y-7586206D01*
X12343648Y-9603606D02*
X12383648Y-9643606D01*
X12383648Y-9603606D02*
X12343648Y-9643606D01*
X12343648Y-14175606D02*
X12383648Y-14215606D01*
X12383648Y-14175606D02*
X12343648Y-14215606D01*
X12349800Y-7396800D02*
X12389800Y-7436800D01*
X12389800Y-7396800D02*
X12349800Y-7436800D01*
X12400600Y-7727000D02*
X12440600Y-7767000D01*
X12440600Y-7727000D02*
X12400600Y-7767000D01*
X12419848Y-6962006D02*
X12459848Y-7002006D01*
X12459848Y-6962006D02*
X12419848Y-7002006D01*
X12470648Y-5895206D02*
X12510648Y-5935206D01*
X12510648Y-5895206D02*
X12470648Y-5935206D01*
X12553000Y-8128491D02*
X12593000Y-8168491D01*
X12593000Y-8128491D02*
X12553000Y-8168491D01*
X12553000Y-8543499D02*
X12593000Y-8583499D01*
X12593000Y-8543499D02*
X12553000Y-8583499D01*
X12572248Y-8892406D02*
X12612248Y-8932406D01*
X12612248Y-8892406D02*
X12572248Y-8932406D01*
X12648448Y-11254606D02*
X12688448Y-11294606D01*
X12688448Y-11254606D02*
X12648448Y-11294606D01*
X12648448Y-12499206D02*
X12688448Y-12539206D01*
X12688448Y-12499206D02*
X12648448Y-12539206D01*
X12673848Y-13896206D02*
X12713848Y-13936206D01*
X12713848Y-13896206D02*
X12673848Y-13936206D01*
X12724648Y-13134206D02*
X12764648Y-13174206D01*
X12764648Y-13134206D02*
X12724648Y-13174206D01*
X12877048Y-8079606D02*
X12917048Y-8119606D01*
X12917048Y-8079606D02*
X12877048Y-8119606D01*
X12902448Y-7393806D02*
X12942448Y-7433806D01*
X12942448Y-7393806D02*
X12902448Y-7433806D01*
X13004048Y-13642206D02*
X13044048Y-13682206D01*
X13044048Y-13642206D02*
X13004048Y-13682206D01*
X13029448Y-7393806D02*
X13069448Y-7433806D01*
X13069448Y-7393806D02*
X13029448Y-7433806D01*
X13080248Y-11610206D02*
X13120248Y-11650206D01*
X13120248Y-11610206D02*
X13080248Y-11650206D01*
X13156448Y-6606406D02*
X13196448Y-6646406D01*
X13196448Y-6606406D02*
X13156448Y-6646406D01*
X13181848Y-10137006D02*
X13221848Y-10177006D01*
X13221848Y-10137006D02*
X13181848Y-10177006D01*
X13232648Y-7393806D02*
X13272648Y-7433806D01*
X13272648Y-7393806D02*
X13232648Y-7433806D01*
X13308848Y-13362806D02*
X13348848Y-13402806D01*
X13348848Y-13362806D02*
X13308848Y-13402806D01*
X13359648Y-12473806D02*
X13399648Y-12513806D01*
X13399648Y-12473806D02*
X13359648Y-12513806D01*
X13562848Y-10492606D02*
X13602848Y-10532606D01*
X13602848Y-10492606D02*
X13562848Y-10532606D01*
X13613648Y-11889606D02*
X13653648Y-11929606D01*
X13653648Y-11889606D02*
X13613648Y-11929606D01*
X13639048Y-8079606D02*
X13679048Y-8119606D01*
X13679048Y-8079606D02*
X13639048Y-8119606D01*
X13639048Y-8892406D02*
X13679048Y-8932406D01*
X13679048Y-8892406D02*
X13639048Y-8932406D01*
X13639048Y-13058006D02*
X13679048Y-13098006D01*
X13679048Y-13058006D02*
X13639048Y-13098006D01*
X13689848Y-11229206D02*
X13729848Y-11269206D01*
X13729848Y-11229206D02*
X13689848Y-11269206D01*
X13766048Y-9552806D02*
X13806048Y-9592806D01*
X13806048Y-9552806D02*
X13766048Y-9592806D01*
X13918448Y-7089006D02*
X13958448Y-7129006D01*
X13958448Y-7089006D02*
X13918448Y-7129006D01*
X13969248Y-12753206D02*
X14009248Y-12793206D01*
X14009248Y-12753206D02*
X13969248Y-12793206D01*
X14096248Y-9349606D02*
X14136248Y-9389606D01*
X14136248Y-9349606D02*
X14096248Y-9389606D01*
X14121648Y-7444606D02*
X14161648Y-7484606D01*
X14161648Y-7444606D02*
X14121648Y-7484606D01*
X14172448Y-8181206D02*
X14212448Y-8221206D01*
X14212448Y-8181206D02*
X14172448Y-8221206D01*
X14223248Y-11584806D02*
X14263248Y-11624806D01*
X14263248Y-11584806D02*
X14223248Y-11624806D01*
X14305600Y-9378000D02*
X14345600Y-9418000D01*
X14345600Y-9378000D02*
X14305600Y-9418000D01*
X14375648Y-9603606D02*
X14415648Y-9643606D01*
X14415648Y-9603606D02*
X14375648Y-9643606D01*
X14375648Y-11051406D02*
X14415648Y-11091406D01*
X14415648Y-11051406D02*
X14375648Y-11091406D01*
X14451848Y-12524606D02*
X14491848Y-12564606D01*
X14491848Y-12524606D02*
X14451848Y-12564606D01*
X14604248Y-8181206D02*
X14644248Y-8221206D01*
X14644248Y-8181206D02*
X14604248Y-8221206D01*
X14604248Y-12092806D02*
X14644248Y-12132806D01*
X14644248Y-12092806D02*
X14604248Y-12132806D01*
X14731248Y-10467206D02*
X14771248Y-10507206D01*
X14771248Y-10467206D02*
X14731248Y-10507206D01*
X14883648Y-11737206D02*
X14923648Y-11777206D01*
X14923648Y-11737206D02*
X14883648Y-11777206D01*
X14934448Y-8790806D02*
X14974448Y-8830806D01*
X14974448Y-8790806D02*
X14934448Y-8830806D01*
X15036048Y-11381606D02*
X15076048Y-11421606D01*
X15076048Y-11381606D02*
X15036048Y-11421606D01*
X15086848Y-12118206D02*
X15126848Y-12158206D01*
X15126848Y-12118206D02*
X15086848Y-12158206D01*
X15194600Y-9378000D02*
X15234600Y-9418000D01*
X15234600Y-9378000D02*
X15194600Y-9418000D01*
X15417048Y-10010006D02*
X15457048Y-10050006D01*
X15457048Y-10010006D02*
X15417048Y-10050006D01*
X15417048Y-10619606D02*
X15457048Y-10659606D01*
X15457048Y-10619606D02*
X15417048Y-10659606D01*
X15442448Y-11229206D02*
X15482448Y-11269206D01*
X15482448Y-11229206D02*
X15442448Y-11269206D01*
X15594848Y-11813406D02*
X15634848Y-11853406D01*
X15634848Y-11813406D02*
X15594848Y-11853406D01*
X15620248Y-10314806D02*
X15660248Y-10354806D01*
X15660248Y-10314806D02*
X15620248Y-10354806D01*
X15645648Y-11102206D02*
X15685648Y-11142206D01*
X15685648Y-11102206D02*
X15645648Y-11142206D01*
X15696448Y-9629006D02*
X15736448Y-9669006D01*
X15736448Y-9629006D02*
X15696448Y-9669006D01*
X15823448Y-10949806D02*
X15863448Y-10989806D01*
X15863448Y-10949806D02*
X15823448Y-10989806D01*
X15848848Y-10594206D02*
X15888848Y-10634206D01*
X15888848Y-10594206D02*
X15848848Y-10634206D01*
X16001248Y-9984606D02*
X16041248Y-10024606D01*
X16041248Y-9984606D02*
X16001248Y-10024606D01*
X16077448Y-10848206D02*
X16117448Y-10888206D01*
X16117448Y-10848206D02*
X16077448Y-10888206D01*
X16128248Y-11127606D02*
X16168248Y-11167606D01*
X16168248Y-11127606D02*
X16128248Y-11167606D01*
X16306048Y-10721206D02*
X16346048Y-10761206D01*
X16346048Y-10721206D02*
X16306048Y-10761206D01*
X16306048Y-11127606D02*
X16346048Y-11167606D01*
X16346048Y-11127606D02*
X16306048Y-11167606D01*
X16483848Y-10467206D02*
X16523848Y-10507206D01*
X16523848Y-10467206D02*
X16483848Y-10507206D01*
X16483848Y-10949806D02*
X16523848Y-10989806D01*
X16523848Y-10949806D02*
X16483848Y-10989806D01*
X16687048Y-10899006D02*
X16727048Y-10939006D01*
X16727048Y-10899006D02*
X16687048Y-10939006D01*
X3671000Y-9542000D02*
G75*
G03*
X3671000Y-9542000I-45000J0D01*
G01*
X4033246Y-8514144D02*
G75*
G03*
X4033246Y-8514144I-45000J0D01*
G01*
X4119205Y-9651335D02*
G75*
G03*
X4119205Y-9651335I-45000J0D01*
G01*
X4269670Y-9107261D02*
G75*
G03*
X4269670Y-9107261I-45000J0D01*
G01*
X4396000Y-10619000D02*
G75*
G03*
X4396000Y-10619000I-45000J0D01*
G01*
X4629945Y-8416915D02*
G75*
G03*
X4629945Y-8416915I-45000J0D01*
G01*
X4788064Y-8218133D02*
G75*
G03*
X4788064Y-8218133I-45000J0D01*
G01*
X6224255Y-11582587D02*
G75*
G03*
X6224255Y-11582587I-45000J0D01*
G01*
X6338048Y-10258606D02*
G75*
G03*
X6338048Y-10258606I-45000J0D01*
G01*
X6338048Y-10512606D02*
G75*
G03*
X6338048Y-10512606I-45000J0D01*
G01*
X6502316Y-7954613D02*
G75*
G03*
X6502316Y-7954613I-45000J0D01*
G01*
X6702077Y-13342886D02*
G75*
G03*
X6702077Y-13342886I-45000J0D01*
G01*
X7286683Y-13287203D02*
G75*
G03*
X7286683Y-13287203I-45000J0D01*
G01*
X7570791Y-9099457D02*
G75*
G03*
X7570791Y-9099457I-45000J0D01*
G01*
X7657210Y-7154322D02*
G75*
G03*
X7657210Y-7154322I-45000J0D01*
G01*
X7715920Y-13326245D02*
G75*
G03*
X7715920Y-13326245I-45000J0D01*
G01*
X7820478Y-7775467D02*
G75*
G03*
X7820478Y-7775467I-45000J0D01*
G01*
X7861610Y-13118181D02*
G75*
G03*
X7861610Y-13118181I-45000J0D01*
G01*
X8005976Y-14372635D02*
G75*
G03*
X8005976Y-14372635I-45000J0D01*
G01*
X8012776Y-15226674D02*
G75*
G03*
X8012776Y-15226674I-45000J0D01*
G01*
X8116048Y-13306606D02*
G75*
G03*
X8116048Y-13306606I-45000J0D01*
G01*
X8164560Y-8422118D02*
G75*
G03*
X8164560Y-8422118I-45000J0D01*
G01*
X8342418Y-9543793D02*
G75*
G03*
X8342418Y-9543793I-45000J0D01*
G01*
X8370048Y-13306606D02*
G75*
G03*
X8370048Y-13306606I-45000J0D01*
G01*
X8446248Y-10258606D02*
G75*
G03*
X8446248Y-10258606I-45000J0D01*
G01*
X8446248Y-10512606D02*
G75*
G03*
X8446248Y-10512606I-45000J0D01*
G01*
X8520106Y-14836240D02*
G75*
G03*
X8520106Y-14836240I-45000J0D01*
G01*
X8540901Y-14132416D02*
G75*
G03*
X8540901Y-14132416I-45000J0D01*
G01*
X8778374Y-7283695D02*
G75*
G03*
X8778374Y-7283695I-45000J0D01*
G01*
X8817582Y-6627661D02*
G75*
G03*
X8817582Y-6627661I-45000J0D01*
G01*
X8823486Y-9144686D02*
G75*
G03*
X8823486Y-9144686I-45000J0D01*
G01*
X8913388Y-8039984D02*
G75*
G03*
X8913388Y-8039984I-45000J0D01*
G01*
X9028905Y-13792059D02*
G75*
G03*
X9028905Y-13792059I-45000J0D01*
G01*
X9049000Y-16664000D02*
G75*
G03*
X9049000Y-16664000I-45000J0D01*
G01*
X9123575Y-15225448D02*
G75*
G03*
X9123575Y-15225448I-45000J0D01*
G01*
X9240412Y-10141871D02*
G75*
G03*
X9240412Y-10141871I-45000J0D01*
G01*
X9349491Y-16491792D02*
G75*
G03*
X9349491Y-16491792I-45000J0D01*
G01*
X9377431Y-9046612D02*
G75*
G03*
X9377431Y-9046612I-45000J0D01*
G01*
X9516978Y-5989161D02*
G75*
G03*
X9516978Y-5989161I-45000J0D01*
G01*
X9564881Y-10922300D02*
G75*
G03*
X9564881Y-10922300I-45000J0D01*
G01*
X9611000Y-16181000D02*
G75*
G03*
X9611000Y-16181000I-45000J0D01*
G01*
X9616172Y-14901190D02*
G75*
G03*
X9616172Y-14901190I-45000J0D01*
G01*
X9688160Y-7976248D02*
G75*
G03*
X9688160Y-7976248I-45000J0D01*
G01*
X9697005Y-9681121D02*
G75*
G03*
X9697005Y-9681121I-45000J0D01*
G01*
X9793409Y-9061049D02*
G75*
G03*
X9793409Y-9061049I-45000J0D01*
G01*
X9797414Y-7170007D02*
G75*
G03*
X9797414Y-7170007I-45000J0D01*
G01*
X9859149Y-9306394D02*
G75*
G03*
X9859149Y-9306394I-45000J0D01*
G01*
X10044977Y-14501661D02*
G75*
G03*
X10044977Y-14501661I-45000J0D01*
G01*
X10045010Y-6541655D02*
G75*
G03*
X10045010Y-6541655I-45000J0D01*
G01*
X10098592Y-10612564D02*
G75*
G03*
X10098592Y-10612564I-45000J0D01*
G01*
X10151668Y-15256230D02*
G75*
G03*
X10151668Y-15256230I-45000J0D01*
G01*
X10186000Y-4147000D02*
G75*
G03*
X10186000Y-4147000I-45000J0D01*
G01*
X10397237Y-14026273D02*
G75*
G03*
X10397237Y-14026273I-45000J0D01*
G01*
X10449832Y-3640772D02*
G75*
G03*
X10449832Y-3640772I-45000J0D01*
G01*
X10478248Y-12697006D02*
G75*
G03*
X10478248Y-12697006I-45000J0D01*
G01*
X10478248Y-12951006D02*
G75*
G03*
X10478248Y-12951006I-45000J0D01*
G01*
X10486083Y-9425170D02*
G75*
G03*
X10486083Y-9425170I-45000J0D01*
G01*
X10676227Y-4220597D02*
G75*
G03*
X10676227Y-4220597I-45000J0D01*
G01*
X10737551Y-7415383D02*
G75*
G03*
X10737551Y-7415383I-45000J0D01*
G01*
X10802740Y-10482734D02*
G75*
G03*
X10802740Y-10482734I-45000J0D01*
G01*
X10981447Y-15311075D02*
G75*
G03*
X10981447Y-15311075I-45000J0D01*
G01*
X11043864Y-3368516D02*
G75*
G03*
X11043864Y-3368516I-45000J0D01*
G01*
X11081300Y-9622818D02*
G75*
G03*
X11081300Y-9622818I-45000J0D01*
G01*
X11094678Y-4047292D02*
G75*
G03*
X11094678Y-4047292I-45000J0D01*
G01*
X11138787Y-3797151D02*
G75*
G03*
X11138787Y-3797151I-45000J0D01*
G01*
X11147957Y-4458300D02*
G75*
G03*
X11147957Y-4458300I-45000J0D01*
G01*
X11181542Y-6877405D02*
G75*
G03*
X11181542Y-6877405I-45000J0D01*
G01*
X11279603Y-13915713D02*
G75*
G03*
X11279603Y-13915713I-45000J0D01*
G01*
X11342529Y-14842565D02*
G75*
G03*
X11342529Y-14842565I-45000J0D01*
G01*
X11619433Y-14325791D02*
G75*
G03*
X11619433Y-14325791I-45000J0D01*
G01*
X11646648Y-7566206D02*
G75*
G03*
X11646648Y-7566206I-45000J0D01*
G01*
X11646648Y-7820206D02*
G75*
G03*
X11646648Y-7820206I-45000J0D01*
G01*
X11800683Y-13765116D02*
G75*
G03*
X11800683Y-13765116I-45000J0D01*
G01*
X13602448Y-7413806D02*
G75*
G03*
X13602448Y-7413806I-45000J0D01*
G01*
X13602448Y-7667806D02*
G75*
G03*
X13602448Y-7667806I-45000J0D01*
G01*
X13945054Y-11419520D02*
G75*
G03*
X13945054Y-11419520I-45000J0D01*
G01*
X14024098Y-9117870D02*
G75*
G03*
X14024098Y-9117870I-45000J0D01*
G01*
X15511407Y-9394305D02*
G75*
G03*
X15511407Y-9394305I-45000J0D01*
G01*
X15585512Y-10853196D02*
G75*
G03*
X15585512Y-10853196I-45000J0D01*
G01*
X15682713Y-10618530D02*
G75*
G03*
X15682713Y-10618530I-45000J0D01*
G01*
X15814885Y-11398947D02*
G75*
G03*
X15814885Y-11398947I-45000J0D01*
G01*
X16144941Y-10647322D02*
G75*
G03*
X16144941Y-10647322I-45000J0D01*
G01*
X16279541Y-10431917D02*
G75*
G03*
X16279541Y-10431917I-45000J0D01*
G01*
X16632000Y-10697000D02*
G75*
G03*
X16632000Y-10697000I-45000J0D01*
G01*
D13*
X3427710Y-17324645D02*
X3427710Y-17024645D01*
X3499139Y-17024645D01*
X3541996Y-17038930D01*
X3570567Y-17067502D01*
X3584853Y-17096073D01*
X3599139Y-17153216D01*
X3599139Y-17196073D01*
X3584853Y-17253216D01*
X3570567Y-17281787D01*
X3541996Y-17310359D01*
X3499139Y-17324645D01*
X3427710Y-17324645D01*
X3727710Y-17324645D02*
X3727710Y-17124645D01*
X3727710Y-17181787D02*
X3741996Y-17153216D01*
X3756282Y-17138930D01*
X3784853Y-17124645D01*
X3813424Y-17124645D01*
X3913424Y-17324645D02*
X3913424Y-17124645D01*
X3913424Y-17024645D02*
X3899139Y-17038930D01*
X3913424Y-17053216D01*
X3927710Y-17038930D01*
X3913424Y-17024645D01*
X3913424Y-17053216D01*
X4099139Y-17324645D02*
X4070567Y-17310359D01*
X4056282Y-17281787D01*
X4056282Y-17024645D01*
X4256282Y-17324645D02*
X4227710Y-17310359D01*
X4213424Y-17281787D01*
X4213424Y-17024645D01*
X4599139Y-17324645D02*
X4599139Y-17024645D01*
X4699139Y-17238930D01*
X4799139Y-17024645D01*
X4799139Y-17324645D01*
X5070567Y-17324645D02*
X5070567Y-17167502D01*
X5056282Y-17138930D01*
X5027710Y-17124645D01*
X4970567Y-17124645D01*
X4941996Y-17138930D01*
X5070567Y-17310359D02*
X5041996Y-17324645D01*
X4970567Y-17324645D01*
X4941996Y-17310359D01*
X4927710Y-17281787D01*
X4927710Y-17253216D01*
X4941996Y-17224645D01*
X4970567Y-17210359D01*
X5041996Y-17210359D01*
X5070567Y-17196073D01*
X5213424Y-17124645D02*
X5213424Y-17424645D01*
X5213424Y-17138930D02*
X5241996Y-17124645D01*
X5299139Y-17124645D01*
X5327710Y-17138930D01*
X5341996Y-17153216D01*
X5356282Y-17181787D01*
X5356282Y-17267502D01*
X5341996Y-17296073D01*
X5327710Y-17310359D01*
X5299139Y-17324645D01*
X5241996Y-17324645D01*
X5213424Y-17310359D01*
X5484853Y-17296073D02*
X5499139Y-17310359D01*
X5484853Y-17324645D01*
X5470567Y-17310359D01*
X5484853Y-17296073D01*
X5484853Y-17324645D01*
X5484853Y-17138930D02*
X5499139Y-17153216D01*
X5484853Y-17167502D01*
X5470567Y-17153216D01*
X5484853Y-17138930D01*
X5484853Y-17167502D01*
X3101282Y-17798930D02*
X3141282Y-17838930D01*
X3141282Y-17798930D02*
X3101282Y-17838930D01*
X3484853Y-17654645D02*
X3513424Y-17654645D01*
X3541996Y-17668930D01*
X3556282Y-17683216D01*
X3570567Y-17711787D01*
X3584853Y-17768930D01*
X3584853Y-17840359D01*
X3570567Y-17897502D01*
X3556282Y-17926073D01*
X3541996Y-17940359D01*
X3513424Y-17954645D01*
X3484853Y-17954645D01*
X3456282Y-17940359D01*
X3441996Y-17926073D01*
X3427710Y-17897502D01*
X3413424Y-17840359D01*
X3413424Y-17768930D01*
X3427710Y-17711787D01*
X3441996Y-17683216D01*
X3456282Y-17668930D01*
X3484853Y-17654645D01*
X3713424Y-17926073D02*
X3727710Y-17940359D01*
X3713424Y-17954645D01*
X3699139Y-17940359D01*
X3713424Y-17926073D01*
X3713424Y-17954645D01*
X3984853Y-17754645D02*
X3984853Y-17954645D01*
X3913424Y-17640359D02*
X3841996Y-17854645D01*
X4027710Y-17854645D01*
X4199139Y-17654645D02*
X4227710Y-17654645D01*
X4256282Y-17668930D01*
X4270567Y-17683216D01*
X4284853Y-17711787D01*
X4299139Y-17768930D01*
X4299139Y-17840359D01*
X4284853Y-17897502D01*
X4270567Y-17926073D01*
X4256282Y-17940359D01*
X4227710Y-17954645D01*
X4199139Y-17954645D01*
X4170567Y-17940359D01*
X4156282Y-17926073D01*
X4141996Y-17897502D01*
X4127710Y-17840359D01*
X4127710Y-17768930D01*
X4141996Y-17711787D01*
X4156282Y-17683216D01*
X4170567Y-17668930D01*
X4199139Y-17654645D01*
X4427710Y-17954645D02*
X4427710Y-17754645D01*
X4427710Y-17783216D02*
X4441996Y-17768930D01*
X4470567Y-17754645D01*
X4513424Y-17754645D01*
X4541996Y-17768930D01*
X4556282Y-17797502D01*
X4556282Y-17954645D01*
X4556282Y-17797502D02*
X4570567Y-17768930D01*
X4599139Y-17754645D01*
X4641996Y-17754645D01*
X4670567Y-17768930D01*
X4684853Y-17797502D01*
X4684853Y-17954645D01*
X4827710Y-17954645D02*
X4827710Y-17754645D01*
X4827710Y-17783216D02*
X4841996Y-17768930D01*
X4870567Y-17754645D01*
X4913424Y-17754645D01*
X4941996Y-17768930D01*
X4956282Y-17797502D01*
X4956282Y-17954645D01*
X4956282Y-17797502D02*
X4970567Y-17768930D01*
X4999139Y-17754645D01*
X5041996Y-17754645D01*
X5070567Y-17768930D01*
X5084853Y-17797502D01*
X5084853Y-17954645D01*
X5670567Y-17640359D02*
X5413424Y-18026073D01*
X6056282Y-17654645D02*
X6084853Y-17654645D01*
X6113424Y-17668930D01*
X6127710Y-17683216D01*
X6141996Y-17711787D01*
X6156281Y-17768930D01*
X6156281Y-17840359D01*
X6141996Y-17897502D01*
X6127710Y-17926073D01*
X6113424Y-17940359D01*
X6084853Y-17954645D01*
X6056282Y-17954645D01*
X6027710Y-17940359D01*
X6013424Y-17926073D01*
X5999139Y-17897502D01*
X5984853Y-17840359D01*
X5984853Y-17768930D01*
X5999139Y-17711787D01*
X6013424Y-17683216D01*
X6027710Y-17668930D01*
X6056282Y-17654645D01*
X6284853Y-17926073D02*
X6299139Y-17940359D01*
X6284853Y-17954645D01*
X6270567Y-17940359D01*
X6284853Y-17926073D01*
X6284853Y-17954645D01*
X6484853Y-17654645D02*
X6513424Y-17654645D01*
X6541996Y-17668930D01*
X6556282Y-17683216D01*
X6570567Y-17711787D01*
X6584853Y-17768930D01*
X6584853Y-17840359D01*
X6570567Y-17897502D01*
X6556282Y-17926073D01*
X6541996Y-17940359D01*
X6513424Y-17954645D01*
X6484853Y-17954645D01*
X6456282Y-17940359D01*
X6441996Y-17926073D01*
X6427710Y-17897502D01*
X6413424Y-17840359D01*
X6413424Y-17768930D01*
X6427710Y-17711787D01*
X6441996Y-17683216D01*
X6456282Y-17668930D01*
X6484853Y-17654645D01*
X6870567Y-17954645D02*
X6699139Y-17954645D01*
X6784853Y-17954645D02*
X6784853Y-17654645D01*
X6756282Y-17697502D01*
X6727710Y-17726073D01*
X6699139Y-17740359D01*
X7127710Y-17654645D02*
X7070567Y-17654645D01*
X7041996Y-17668930D01*
X7027710Y-17683216D01*
X6999139Y-17726073D01*
X6984853Y-17783216D01*
X6984853Y-17897502D01*
X6999139Y-17926073D01*
X7013424Y-17940359D01*
X7041996Y-17954645D01*
X7099139Y-17954645D01*
X7127710Y-17940359D01*
X7141996Y-17926073D01*
X7156282Y-17897502D01*
X7156282Y-17826073D01*
X7141996Y-17797502D01*
X7127710Y-17783216D01*
X7099139Y-17768930D01*
X7041996Y-17768930D01*
X7013424Y-17783216D01*
X6999139Y-17797502D01*
X6984853Y-17826073D01*
X7270567Y-17654645D02*
X7270567Y-17711787D01*
X7384853Y-17654645D02*
X7384853Y-17711787D01*
X7827710Y-18068930D02*
X7813424Y-18054645D01*
X7784853Y-18011787D01*
X7770567Y-17983216D01*
X7756282Y-17940359D01*
X7741996Y-17868930D01*
X7741996Y-17811787D01*
X7756282Y-17740359D01*
X7770567Y-17697502D01*
X7784853Y-17668930D01*
X7813424Y-17626073D01*
X7827710Y-17611787D01*
X7913424Y-17654645D02*
X8099139Y-17654645D01*
X7999139Y-17768930D01*
X8041996Y-17768930D01*
X8070567Y-17783216D01*
X8084853Y-17797502D01*
X8099139Y-17826073D01*
X8099139Y-17897502D01*
X8084853Y-17926073D01*
X8070567Y-17940359D01*
X8041996Y-17954645D01*
X7956282Y-17954645D01*
X7927710Y-17940359D01*
X7913424Y-17926073D01*
X8241996Y-17954645D02*
X8299139Y-17954645D01*
X8327710Y-17940359D01*
X8341996Y-17926073D01*
X8370567Y-17883216D01*
X8384853Y-17826073D01*
X8384853Y-17711787D01*
X8370567Y-17683216D01*
X8356282Y-17668930D01*
X8327710Y-17654645D01*
X8270567Y-17654645D01*
X8241996Y-17668930D01*
X8227710Y-17683216D01*
X8213424Y-17711787D01*
X8213424Y-17783216D01*
X8227710Y-17811787D01*
X8241996Y-17826073D01*
X8270567Y-17840359D01*
X8327710Y-17840359D01*
X8356282Y-17826073D01*
X8370567Y-17811787D01*
X8384853Y-17783216D01*
X8499139Y-17683216D02*
X8513424Y-17668930D01*
X8541996Y-17654645D01*
X8613424Y-17654645D01*
X8641996Y-17668930D01*
X8656282Y-17683216D01*
X8670567Y-17711787D01*
X8670567Y-17740359D01*
X8656282Y-17783216D01*
X8484853Y-17954645D01*
X8670567Y-17954645D01*
X9027710Y-17954645D02*
X9027710Y-17654645D01*
X9156282Y-17954645D02*
X9156282Y-17797502D01*
X9141996Y-17768930D01*
X9113424Y-17754645D01*
X9070567Y-17754645D01*
X9041996Y-17768930D01*
X9027710Y-17783216D01*
X9341996Y-17954645D02*
X9313424Y-17940359D01*
X9299139Y-17926073D01*
X9284853Y-17897502D01*
X9284853Y-17811787D01*
X9299139Y-17783216D01*
X9313424Y-17768930D01*
X9341996Y-17754645D01*
X9384853Y-17754645D01*
X9413424Y-17768930D01*
X9427710Y-17783216D01*
X9441996Y-17811787D01*
X9441996Y-17897502D01*
X9427710Y-17926073D01*
X9413424Y-17940359D01*
X9384853Y-17954645D01*
X9341996Y-17954645D01*
X9613424Y-17954645D02*
X9584853Y-17940359D01*
X9570567Y-17911787D01*
X9570567Y-17654645D01*
X9841996Y-17940359D02*
X9813424Y-17954645D01*
X9756282Y-17954645D01*
X9727710Y-17940359D01*
X9713424Y-17911787D01*
X9713424Y-17797502D01*
X9727710Y-17768930D01*
X9756282Y-17754645D01*
X9813424Y-17754645D01*
X9841996Y-17768930D01*
X9856282Y-17797502D01*
X9856282Y-17826073D01*
X9713424Y-17854645D01*
X9970567Y-17940359D02*
X9999139Y-17954645D01*
X10056282Y-17954645D01*
X10084853Y-17940359D01*
X10099139Y-17911787D01*
X10099139Y-17897502D01*
X10084853Y-17868930D01*
X10056282Y-17854645D01*
X10013424Y-17854645D01*
X9984853Y-17840359D01*
X9970567Y-17811787D01*
X9970567Y-17797502D01*
X9984853Y-17768930D01*
X10013424Y-17754645D01*
X10056282Y-17754645D01*
X10084853Y-17768930D01*
X10199139Y-18068930D02*
X10213424Y-18054645D01*
X10241996Y-18011787D01*
X10256282Y-17983216D01*
X10270567Y-17940359D01*
X10284853Y-17868930D01*
X10284853Y-17811787D01*
X10270567Y-17740359D01*
X10256282Y-17697502D01*
X10241996Y-17668930D01*
X10213424Y-17626073D01*
X10199139Y-17611787D01*
X3141282Y-18214930D02*
G75*
G03*
X3141282Y-18214930I-45000J0D01*
G01*
X3484853Y-18050645D02*
X3513424Y-18050645D01*
X3541996Y-18064930D01*
X3556282Y-18079216D01*
X3570567Y-18107787D01*
X3584853Y-18164930D01*
X3584853Y-18236359D01*
X3570567Y-18293502D01*
X3556282Y-18322073D01*
X3541996Y-18336359D01*
X3513424Y-18350645D01*
X3484853Y-18350645D01*
X3456282Y-18336359D01*
X3441996Y-18322073D01*
X3427710Y-18293502D01*
X3413424Y-18236359D01*
X3413424Y-18164930D01*
X3427710Y-18107787D01*
X3441996Y-18079216D01*
X3456282Y-18064930D01*
X3484853Y-18050645D01*
X3713424Y-18322073D02*
X3727710Y-18336359D01*
X3713424Y-18350645D01*
X3699139Y-18336359D01*
X3713424Y-18322073D01*
X3713424Y-18350645D01*
X3870567Y-18350645D02*
X3927710Y-18350645D01*
X3956282Y-18336359D01*
X3970567Y-18322073D01*
X3999139Y-18279216D01*
X4013424Y-18222073D01*
X4013424Y-18107787D01*
X3999139Y-18079216D01*
X3984853Y-18064930D01*
X3956282Y-18050645D01*
X3899139Y-18050645D01*
X3870567Y-18064930D01*
X3856282Y-18079216D01*
X3841996Y-18107787D01*
X3841996Y-18179216D01*
X3856282Y-18207787D01*
X3870567Y-18222073D01*
X3899139Y-18236359D01*
X3956282Y-18236359D01*
X3984853Y-18222073D01*
X3999139Y-18207787D01*
X4013424Y-18179216D01*
X4199139Y-18050645D02*
X4227710Y-18050645D01*
X4256282Y-18064930D01*
X4270567Y-18079216D01*
X4284853Y-18107787D01*
X4299139Y-18164930D01*
X4299139Y-18236359D01*
X4284853Y-18293502D01*
X4270567Y-18322073D01*
X4256282Y-18336359D01*
X4227710Y-18350645D01*
X4199139Y-18350645D01*
X4170567Y-18336359D01*
X4156282Y-18322073D01*
X4141996Y-18293502D01*
X4127710Y-18236359D01*
X4127710Y-18164930D01*
X4141996Y-18107787D01*
X4156282Y-18079216D01*
X4170567Y-18064930D01*
X4199139Y-18050645D01*
X4427710Y-18350645D02*
X4427710Y-18150645D01*
X4427710Y-18179216D02*
X4441996Y-18164930D01*
X4470567Y-18150645D01*
X4513424Y-18150645D01*
X4541996Y-18164930D01*
X4556282Y-18193502D01*
X4556282Y-18350645D01*
X4556282Y-18193502D02*
X4570567Y-18164930D01*
X4599139Y-18150645D01*
X4641996Y-18150645D01*
X4670567Y-18164930D01*
X4684853Y-18193502D01*
X4684853Y-18350645D01*
X4827710Y-18350645D02*
X4827710Y-18150645D01*
X4827710Y-18179216D02*
X4841996Y-18164930D01*
X4870567Y-18150645D01*
X4913424Y-18150645D01*
X4941996Y-18164930D01*
X4956282Y-18193502D01*
X4956282Y-18350645D01*
X4956282Y-18193502D02*
X4970567Y-18164930D01*
X4999139Y-18150645D01*
X5041996Y-18150645D01*
X5070567Y-18164930D01*
X5084853Y-18193502D01*
X5084853Y-18350645D01*
X5670567Y-18036359D02*
X5413424Y-18422073D01*
X6056282Y-18050645D02*
X6084853Y-18050645D01*
X6113424Y-18064930D01*
X6127710Y-18079216D01*
X6141996Y-18107787D01*
X6156281Y-18164930D01*
X6156281Y-18236359D01*
X6141996Y-18293502D01*
X6127710Y-18322073D01*
X6113424Y-18336359D01*
X6084853Y-18350645D01*
X6056282Y-18350645D01*
X6027710Y-18336359D01*
X6013424Y-18322073D01*
X5999139Y-18293502D01*
X5984853Y-18236359D01*
X5984853Y-18164930D01*
X5999139Y-18107787D01*
X6013424Y-18079216D01*
X6027710Y-18064930D01*
X6056282Y-18050645D01*
X6284853Y-18322073D02*
X6299139Y-18336359D01*
X6284853Y-18350645D01*
X6270567Y-18336359D01*
X6284853Y-18322073D01*
X6284853Y-18350645D01*
X6484853Y-18050645D02*
X6513424Y-18050645D01*
X6541996Y-18064930D01*
X6556282Y-18079216D01*
X6570567Y-18107787D01*
X6584853Y-18164930D01*
X6584853Y-18236359D01*
X6570567Y-18293502D01*
X6556282Y-18322073D01*
X6541996Y-18336359D01*
X6513424Y-18350645D01*
X6484853Y-18350645D01*
X6456282Y-18336359D01*
X6441996Y-18322073D01*
X6427710Y-18293502D01*
X6413424Y-18236359D01*
X6413424Y-18164930D01*
X6427710Y-18107787D01*
X6441996Y-18079216D01*
X6456282Y-18064930D01*
X6484853Y-18050645D01*
X6684853Y-18050645D02*
X6870567Y-18050645D01*
X6770567Y-18164930D01*
X6813424Y-18164930D01*
X6841996Y-18179216D01*
X6856282Y-18193502D01*
X6870567Y-18222073D01*
X6870567Y-18293502D01*
X6856282Y-18322073D01*
X6841996Y-18336359D01*
X6813424Y-18350645D01*
X6727710Y-18350645D01*
X6699139Y-18336359D01*
X6684853Y-18322073D01*
X7141996Y-18050645D02*
X6999139Y-18050645D01*
X6984853Y-18193502D01*
X6999139Y-18179216D01*
X7027710Y-18164930D01*
X7099139Y-18164930D01*
X7127710Y-18179216D01*
X7141996Y-18193502D01*
X7156282Y-18222073D01*
X7156282Y-18293502D01*
X7141996Y-18322073D01*
X7127710Y-18336359D01*
X7099139Y-18350645D01*
X7027710Y-18350645D01*
X6999139Y-18336359D01*
X6984853Y-18322073D01*
X7270567Y-18050645D02*
X7270567Y-18107787D01*
X7384853Y-18050645D02*
X7384853Y-18107787D01*
X7827710Y-18464930D02*
X7813424Y-18450645D01*
X7784853Y-18407787D01*
X7770567Y-18379216D01*
X7756282Y-18336359D01*
X7741996Y-18264930D01*
X7741996Y-18207787D01*
X7756282Y-18136359D01*
X7770567Y-18093502D01*
X7784853Y-18064930D01*
X7813424Y-18022073D01*
X7827710Y-18007787D01*
X7984853Y-18179216D02*
X7956282Y-18164930D01*
X7941996Y-18150645D01*
X7927710Y-18122073D01*
X7927710Y-18107787D01*
X7941996Y-18079216D01*
X7956282Y-18064930D01*
X7984853Y-18050645D01*
X8041996Y-18050645D01*
X8070567Y-18064930D01*
X8084853Y-18079216D01*
X8099139Y-18107787D01*
X8099139Y-18122073D01*
X8084853Y-18150645D01*
X8070567Y-18164930D01*
X8041996Y-18179216D01*
X7984853Y-18179216D01*
X7956282Y-18193502D01*
X7941996Y-18207787D01*
X7927710Y-18236359D01*
X7927710Y-18293502D01*
X7941996Y-18322073D01*
X7956282Y-18336359D01*
X7984853Y-18350645D01*
X8041996Y-18350645D01*
X8070567Y-18336359D01*
X8084853Y-18322073D01*
X8099139Y-18293502D01*
X8099139Y-18236359D01*
X8084853Y-18207787D01*
X8070567Y-18193502D01*
X8041996Y-18179216D01*
X8356282Y-18150645D02*
X8356282Y-18350645D01*
X8284853Y-18036359D02*
X8213424Y-18250645D01*
X8399139Y-18250645D01*
X8741996Y-18350645D02*
X8741996Y-18050645D01*
X8870567Y-18350645D02*
X8870567Y-18193502D01*
X8856282Y-18164930D01*
X8827710Y-18150645D01*
X8784853Y-18150645D01*
X8756282Y-18164930D01*
X8741996Y-18179216D01*
X9056282Y-18350645D02*
X9027710Y-18336359D01*
X9013424Y-18322073D01*
X8999139Y-18293502D01*
X8999139Y-18207787D01*
X9013424Y-18179216D01*
X9027710Y-18164930D01*
X9056282Y-18150645D01*
X9099139Y-18150645D01*
X9127710Y-18164930D01*
X9141996Y-18179216D01*
X9156282Y-18207787D01*
X9156282Y-18293502D01*
X9141996Y-18322073D01*
X9127710Y-18336359D01*
X9099139Y-18350645D01*
X9056282Y-18350645D01*
X9327710Y-18350645D02*
X9299139Y-18336359D01*
X9284853Y-18307787D01*
X9284853Y-18050645D01*
X9556282Y-18336359D02*
X9527710Y-18350645D01*
X9470567Y-18350645D01*
X9441996Y-18336359D01*
X9427710Y-18307787D01*
X9427710Y-18193502D01*
X9441996Y-18164930D01*
X9470567Y-18150645D01*
X9527710Y-18150645D01*
X9556282Y-18164930D01*
X9570567Y-18193502D01*
X9570567Y-18222073D01*
X9427710Y-18250645D01*
X9684853Y-18336359D02*
X9713424Y-18350645D01*
X9770567Y-18350645D01*
X9799139Y-18336359D01*
X9813424Y-18307787D01*
X9813424Y-18293502D01*
X9799139Y-18264930D01*
X9770567Y-18250645D01*
X9727710Y-18250645D01*
X9699139Y-18236359D01*
X9684853Y-18207787D01*
X9684853Y-18193502D01*
X9699139Y-18164930D01*
X9727710Y-18150645D01*
X9770567Y-18150645D01*
X9799139Y-18164930D01*
X9913424Y-18464930D02*
X9927710Y-18450645D01*
X9956282Y-18407787D01*
X9970567Y-18379216D01*
X9984853Y-18336359D01*
X9999139Y-18264930D01*
X9999139Y-18207787D01*
X9984853Y-18136359D01*
X9970567Y-18093502D01*
X9956282Y-18064930D01*
X9927710Y-18022073D01*
X9913424Y-18007787D01*
M02*
