G04 #@! TF.GenerationSoftware,KiCad,Pcbnew,5.1.9+dfsg1-1+deb11u1*
G04 #@! TF.CreationDate,2024-07-30T12:46:16+01:00*
G04 #@! TF.ProjectId,drivers,64726976-6572-4732-9e6b-696361645f70,rev?*
G04 #@! TF.SameCoordinates,Original*
G04 #@! TF.FileFunction,Legend,Bot*
G04 #@! TF.FilePolarity,Positive*
%FSLAX46Y46*%
G04 Gerber Fmt 4.6, Leading zero omitted, Abs format (unit mm)*
G04 Created by KiCad (PCBNEW 5.1.9+dfsg1-1+deb11u1) date 2024-07-30 12:46:16*
%MOMM*%
%LPD*%
G01*
G04 APERTURE LIST*
G04 #@! TA.AperFunction,Profile*
%ADD10C,0.050000*%
G04 #@! TD*
G04 #@! TA.AperFunction,Profile*
%ADD11C,0.150000*%
G04 #@! TD*
%ADD12C,0.150000*%
%ADD13C,0.120000*%
%ADD14C,0.100000*%
%ADD15R,1.750000X0.450000*%
%ADD16C,1.800000*%
%ADD17R,1.800000X1.800000*%
G04 APERTURE END LIST*
D10*
X89068477Y-157426062D02*
G75*
G03*
X89068477Y-157426062I-1500000J0D01*
G01*
X120564477Y-50770062D02*
G75*
G03*
X120564477Y-50770062I-1500000J0D01*
G01*
X143424477Y-106372062D02*
G75*
G03*
X143424477Y-106372062I-1500000J0D01*
G01*
X51984477Y-103372062D02*
G75*
G03*
X51984477Y-103372062I-1500000J0D01*
G01*
D11*
X168510657Y-107287602D02*
X168025517Y-110929962D01*
X31975497Y-89073262D02*
X31487817Y-92710542D01*
X92706897Y-168514302D02*
X89074697Y-168029162D01*
X107296657Y-31483842D02*
X110908537Y-31951202D01*
D12*
X134470096Y-92259823D02*
X134327238Y-92307442D01*
X134089143Y-92307442D01*
X133993905Y-92259823D01*
X133946286Y-92212204D01*
X133898667Y-92116966D01*
X133898667Y-92021728D01*
X133946286Y-91926490D01*
X133993905Y-91878871D01*
X134089143Y-91831252D01*
X134279619Y-91783633D01*
X134374857Y-91736014D01*
X134422477Y-91688395D01*
X134470096Y-91593157D01*
X134470096Y-91497919D01*
X134422477Y-91402681D01*
X134374857Y-91355062D01*
X134279619Y-91307442D01*
X134041524Y-91307442D01*
X133898667Y-91355062D01*
X133041524Y-91640776D02*
X133041524Y-92307442D01*
X133470096Y-91640776D02*
X133470096Y-92164585D01*
X133422477Y-92259823D01*
X133327238Y-92307442D01*
X133184381Y-92307442D01*
X133089143Y-92259823D01*
X133041524Y-92212204D01*
X132565334Y-91640776D02*
X132565334Y-92307442D01*
X132565334Y-91736014D02*
X132517715Y-91688395D01*
X132422477Y-91640776D01*
X132279619Y-91640776D01*
X132184381Y-91688395D01*
X132136762Y-91783633D01*
X132136762Y-92307442D01*
X131803429Y-91640776D02*
X131422477Y-91640776D01*
X131660572Y-92307442D02*
X131660572Y-91450300D01*
X131612953Y-91355062D01*
X131517715Y-91307442D01*
X131422477Y-91307442D01*
X130946286Y-92307442D02*
X131041524Y-92259823D01*
X131089143Y-92164585D01*
X131089143Y-91307442D01*
X130422477Y-92307442D02*
X130517715Y-92259823D01*
X130565334Y-92212204D01*
X130612953Y-92116966D01*
X130612953Y-91831252D01*
X130565334Y-91736014D01*
X130517715Y-91688395D01*
X130422477Y-91640776D01*
X130279619Y-91640776D01*
X130184381Y-91688395D01*
X130136762Y-91736014D01*
X130089143Y-91831252D01*
X130089143Y-92116966D01*
X130136762Y-92212204D01*
X130184381Y-92259823D01*
X130279619Y-92307442D01*
X130422477Y-92307442D01*
X129755810Y-91640776D02*
X129565334Y-92307442D01*
X129374857Y-91831252D01*
X129184381Y-92307442D01*
X128993905Y-91640776D01*
X128232000Y-92259823D02*
X128327238Y-92307442D01*
X128517715Y-92307442D01*
X128612953Y-92259823D01*
X128660572Y-92164585D01*
X128660572Y-91783633D01*
X128612953Y-91688395D01*
X128517715Y-91640776D01*
X128327238Y-91640776D01*
X128232000Y-91688395D01*
X128184381Y-91783633D01*
X128184381Y-91878871D01*
X128660572Y-91974109D01*
X127755810Y-92307442D02*
X127755810Y-91640776D01*
X127755810Y-91831252D02*
X127708191Y-91736014D01*
X127660572Y-91688395D01*
X127565334Y-91640776D01*
X127470096Y-91640776D01*
X126374857Y-92307442D02*
X126374857Y-91307442D01*
X126136762Y-91307442D01*
X125993905Y-91355062D01*
X125898667Y-91450300D01*
X125851048Y-91545538D01*
X125803429Y-91736014D01*
X125803429Y-91878871D01*
X125851048Y-92069347D01*
X125898667Y-92164585D01*
X125993905Y-92259823D01*
X126136762Y-92307442D01*
X126374857Y-92307442D01*
X125374857Y-92307442D02*
X125374857Y-91640776D01*
X125374857Y-91831252D02*
X125327238Y-91736014D01*
X125279619Y-91688395D01*
X125184381Y-91640776D01*
X125089143Y-91640776D01*
X124755810Y-92307442D02*
X124755810Y-91640776D01*
X124755810Y-91307442D02*
X124803429Y-91355062D01*
X124755810Y-91402681D01*
X124708191Y-91355062D01*
X124755810Y-91307442D01*
X124755810Y-91402681D01*
X124374857Y-91640776D02*
X124136762Y-92307442D01*
X123898667Y-91640776D01*
X123136762Y-92259823D02*
X123232000Y-92307442D01*
X123422477Y-92307442D01*
X123517715Y-92259823D01*
X123565334Y-92164585D01*
X123565334Y-91783633D01*
X123517715Y-91688395D01*
X123422477Y-91640776D01*
X123232000Y-91640776D01*
X123136762Y-91688395D01*
X123089143Y-91783633D01*
X123089143Y-91878871D01*
X123565334Y-91974109D01*
X122660572Y-92307442D02*
X122660572Y-91640776D01*
X122660572Y-91831252D02*
X122612953Y-91736014D01*
X122565334Y-91688395D01*
X122470096Y-91640776D01*
X122374857Y-91640776D01*
X120946286Y-91783633D02*
X120803429Y-91831252D01*
X120755810Y-91878871D01*
X120708191Y-91974109D01*
X120708191Y-92116966D01*
X120755810Y-92212204D01*
X120803429Y-92259823D01*
X120898667Y-92307442D01*
X121279619Y-92307442D01*
X121279619Y-91307442D01*
X120946286Y-91307442D01*
X120851048Y-91355062D01*
X120803429Y-91402681D01*
X120755810Y-91497919D01*
X120755810Y-91593157D01*
X120803429Y-91688395D01*
X120851048Y-91736014D01*
X120946286Y-91783633D01*
X121279619Y-91783633D01*
X120136762Y-92307442D02*
X120232000Y-92259823D01*
X120279619Y-92212204D01*
X120327238Y-92116966D01*
X120327238Y-91831252D01*
X120279619Y-91736014D01*
X120232000Y-91688395D01*
X120136762Y-91640776D01*
X119993905Y-91640776D01*
X119898667Y-91688395D01*
X119851048Y-91736014D01*
X119803429Y-91831252D01*
X119803429Y-92116966D01*
X119851048Y-92212204D01*
X119898667Y-92259823D01*
X119993905Y-92307442D01*
X120136762Y-92307442D01*
X118946286Y-92307442D02*
X118946286Y-91783633D01*
X118993905Y-91688395D01*
X119089143Y-91640776D01*
X119279619Y-91640776D01*
X119374857Y-91688395D01*
X118946286Y-92259823D02*
X119041524Y-92307442D01*
X119279619Y-92307442D01*
X119374857Y-92259823D01*
X119422477Y-92164585D01*
X119422477Y-92069347D01*
X119374857Y-91974109D01*
X119279619Y-91926490D01*
X119041524Y-91926490D01*
X118946286Y-91878871D01*
X118470096Y-92307442D02*
X118470096Y-91640776D01*
X118470096Y-91831252D02*
X118422477Y-91736014D01*
X118374857Y-91688395D01*
X118279619Y-91640776D01*
X118184381Y-91640776D01*
X117422477Y-92307442D02*
X117422477Y-91307442D01*
X117422477Y-92259823D02*
X117517715Y-92307442D01*
X117708191Y-92307442D01*
X117803429Y-92259823D01*
X117851048Y-92212204D01*
X117898667Y-92116966D01*
X117898667Y-91831252D01*
X117851048Y-91736014D01*
X117803429Y-91688395D01*
X117708191Y-91640776D01*
X117517715Y-91640776D01*
X117422477Y-91688395D01*
X133065334Y-93862204D02*
X133112953Y-93909823D01*
X133255810Y-93957442D01*
X133351048Y-93957442D01*
X133493905Y-93909823D01*
X133589143Y-93814585D01*
X133636762Y-93719347D01*
X133684381Y-93528871D01*
X133684381Y-93386014D01*
X133636762Y-93195538D01*
X133589143Y-93100300D01*
X133493905Y-93005062D01*
X133351048Y-92957442D01*
X133255810Y-92957442D01*
X133112953Y-93005062D01*
X133065334Y-93052681D01*
X132684381Y-93671728D02*
X132208191Y-93671728D01*
X132779619Y-93957442D02*
X132446286Y-92957442D01*
X132112953Y-93957442D01*
X131779619Y-93957442D02*
X131779619Y-92957442D01*
X131541524Y-92957442D01*
X131398667Y-93005062D01*
X131303429Y-93100300D01*
X131255810Y-93195538D01*
X131208191Y-93386014D01*
X131208191Y-93528871D01*
X131255810Y-93719347D01*
X131303429Y-93814585D01*
X131398667Y-93909823D01*
X131541524Y-93957442D01*
X131779619Y-93957442D01*
X130779619Y-93576490D02*
X130017715Y-93576490D01*
X129589143Y-93671728D02*
X129112953Y-93671728D01*
X129684381Y-93957442D02*
X129351048Y-92957442D01*
X129017715Y-93957442D01*
X128636762Y-93909823D02*
X128636762Y-93957442D01*
X128684381Y-94052681D01*
X128732000Y-94100300D01*
X127493905Y-93052681D02*
X127446286Y-93005062D01*
X127351048Y-92957442D01*
X127112953Y-92957442D01*
X127017715Y-93005062D01*
X126970096Y-93052681D01*
X126922477Y-93147919D01*
X126922477Y-93243157D01*
X126970096Y-93386014D01*
X127541524Y-93957442D01*
X126922477Y-93957442D01*
X126303429Y-92957442D02*
X126208191Y-92957442D01*
X126112953Y-93005062D01*
X126065334Y-93052681D01*
X126017715Y-93147919D01*
X125970096Y-93338395D01*
X125970096Y-93576490D01*
X126017715Y-93766966D01*
X126065334Y-93862204D01*
X126112953Y-93909823D01*
X126208191Y-93957442D01*
X126303429Y-93957442D01*
X126398667Y-93909823D01*
X126446286Y-93862204D01*
X126493905Y-93766966D01*
X126541524Y-93576490D01*
X126541524Y-93338395D01*
X126493905Y-93147919D01*
X126446286Y-93052681D01*
X126398667Y-93005062D01*
X126303429Y-92957442D01*
X125589143Y-93052681D02*
X125541524Y-93005062D01*
X125446286Y-92957442D01*
X125208191Y-92957442D01*
X125112953Y-93005062D01*
X125065334Y-93052681D01*
X125017715Y-93147919D01*
X125017715Y-93243157D01*
X125065334Y-93386014D01*
X125636762Y-93957442D01*
X125017715Y-93957442D01*
X124160572Y-93290776D02*
X124160572Y-93957442D01*
X124398667Y-92909823D02*
X124636762Y-93624109D01*
X124017715Y-93624109D01*
X122922477Y-92909823D02*
X123779619Y-94195538D01*
X122398667Y-92957442D02*
X122303429Y-92957442D01*
X122208191Y-93005062D01*
X122160572Y-93052681D01*
X122112953Y-93147919D01*
X122065334Y-93338395D01*
X122065334Y-93576490D01*
X122112953Y-93766966D01*
X122160572Y-93862204D01*
X122208191Y-93909823D01*
X122303429Y-93957442D01*
X122398667Y-93957442D01*
X122493905Y-93909823D01*
X122541524Y-93862204D01*
X122589143Y-93766966D01*
X122636762Y-93576490D01*
X122636762Y-93338395D01*
X122589143Y-93147919D01*
X122541524Y-93052681D01*
X122493905Y-93005062D01*
X122398667Y-92957442D01*
X121732000Y-92957442D02*
X121065334Y-92957442D01*
X121493905Y-93957442D01*
X119970096Y-92909823D02*
X120827238Y-94195538D01*
X119684381Y-93052681D02*
X119636762Y-93005062D01*
X119541524Y-92957442D01*
X119303429Y-92957442D01*
X119208191Y-93005062D01*
X119160572Y-93052681D01*
X119112953Y-93147919D01*
X119112953Y-93243157D01*
X119160572Y-93386014D01*
X119732000Y-93957442D01*
X119112953Y-93957442D01*
X118541524Y-93386014D02*
X118636762Y-93338395D01*
X118684381Y-93290776D01*
X118732000Y-93195538D01*
X118732000Y-93147919D01*
X118684381Y-93052681D01*
X118636762Y-93005062D01*
X118541524Y-92957442D01*
X118351048Y-92957442D01*
X118255810Y-93005062D01*
X118208191Y-93052681D01*
X118160572Y-93147919D01*
X118160572Y-93195538D01*
X118208191Y-93290776D01*
X118255810Y-93338395D01*
X118351048Y-93386014D01*
X118541524Y-93386014D01*
X118636762Y-93433633D01*
X118684381Y-93481252D01*
X118732000Y-93576490D01*
X118732000Y-93766966D01*
X118684381Y-93862204D01*
X118636762Y-93909823D01*
X118541524Y-93957442D01*
X118351048Y-93957442D01*
X118255810Y-93909823D01*
X118208191Y-93862204D01*
X118160572Y-93766966D01*
X118160572Y-93576490D01*
X118208191Y-93481252D01*
X118255810Y-93433633D01*
X118351048Y-93386014D01*
X107324762Y-61557633D02*
X107181905Y-61605252D01*
X107134286Y-61652871D01*
X107086667Y-61748109D01*
X107086667Y-61890966D01*
X107134286Y-61986204D01*
X107181905Y-62033823D01*
X107277143Y-62081442D01*
X107658096Y-62081442D01*
X107658096Y-61081442D01*
X107324762Y-61081442D01*
X107229524Y-61129062D01*
X107181905Y-61176681D01*
X107134286Y-61271919D01*
X107134286Y-61367157D01*
X107181905Y-61462395D01*
X107229524Y-61510014D01*
X107324762Y-61557633D01*
X107658096Y-61557633D01*
X106229524Y-62081442D02*
X106229524Y-61557633D01*
X106277143Y-61462395D01*
X106372381Y-61414776D01*
X106562857Y-61414776D01*
X106658096Y-61462395D01*
X106229524Y-62033823D02*
X106324762Y-62081442D01*
X106562857Y-62081442D01*
X106658096Y-62033823D01*
X106705715Y-61938585D01*
X106705715Y-61843347D01*
X106658096Y-61748109D01*
X106562857Y-61700490D01*
X106324762Y-61700490D01*
X106229524Y-61652871D01*
X105324762Y-62033823D02*
X105420000Y-62081442D01*
X105610477Y-62081442D01*
X105705715Y-62033823D01*
X105753334Y-61986204D01*
X105800953Y-61890966D01*
X105800953Y-61605252D01*
X105753334Y-61510014D01*
X105705715Y-61462395D01*
X105610477Y-61414776D01*
X105420000Y-61414776D01*
X105324762Y-61462395D01*
X104896191Y-62081442D02*
X104896191Y-61081442D01*
X104800953Y-61700490D02*
X104515238Y-62081442D01*
X104515238Y-61414776D02*
X104896191Y-61795728D01*
X107300953Y-62731442D02*
X106729524Y-62731442D01*
X107015238Y-63731442D02*
X107015238Y-62731442D01*
X106253334Y-63731442D02*
X106348572Y-63683823D01*
X106396191Y-63636204D01*
X106443810Y-63540966D01*
X106443810Y-63255252D01*
X106396191Y-63160014D01*
X106348572Y-63112395D01*
X106253334Y-63064776D01*
X106110477Y-63064776D01*
X106015238Y-63112395D01*
X105967619Y-63160014D01*
X105920000Y-63255252D01*
X105920000Y-63540966D01*
X105967619Y-63636204D01*
X106015238Y-63683823D01*
X106110477Y-63731442D01*
X106253334Y-63731442D01*
X105491429Y-63064776D02*
X105491429Y-64064776D01*
X105491429Y-63112395D02*
X105396191Y-63064776D01*
X105205715Y-63064776D01*
X105110477Y-63112395D01*
X105062857Y-63160014D01*
X105015238Y-63255252D01*
X105015238Y-63540966D01*
X105062857Y-63636204D01*
X105110477Y-63683823D01*
X105205715Y-63731442D01*
X105396191Y-63731442D01*
X105491429Y-63683823D01*
D11*
X92706897Y-168514302D02*
X168025517Y-110929962D01*
X168510657Y-107287602D02*
X110908537Y-31951202D01*
X31975497Y-89073262D02*
X107296657Y-31483842D01*
X89074697Y-168029162D02*
X31487817Y-92710542D01*
D10*
X103370000Y-99951320D02*
G75*
G03*
X103370000Y-99951320I-1500000J0D01*
G01*
D12*
X67229000Y-108636000D02*
X65629000Y-108636000D01*
X67229000Y-98561000D02*
X72979000Y-98561000D01*
X67229000Y-109211000D02*
X72979000Y-109211000D01*
X67229000Y-98561000D02*
X67229000Y-99211000D01*
X72979000Y-98561000D02*
X72979000Y-99211000D01*
X72979000Y-109211000D02*
X72979000Y-108561000D01*
X67229000Y-109211000D02*
X67229000Y-108636000D01*
D13*
X130134477Y-73426810D02*
X130134477Y-74849314D01*
X128314477Y-73426810D02*
X128314477Y-74849314D01*
D12*
X99903000Y-123520000D02*
X101503000Y-123520000D01*
X99903000Y-133595000D02*
X94153000Y-133595000D01*
X99903000Y-122945000D02*
X94153000Y-122945000D01*
X99903000Y-133595000D02*
X99903000Y-132945000D01*
X94153000Y-133595000D02*
X94153000Y-132945000D01*
X94153000Y-122945000D02*
X94153000Y-123595000D01*
X99903000Y-122945000D02*
X99903000Y-123520000D01*
X119299000Y-80763000D02*
X119299000Y-80188000D01*
X125049000Y-80763000D02*
X125049000Y-80113000D01*
X125049000Y-70113000D02*
X125049000Y-70763000D01*
X119299000Y-70113000D02*
X119299000Y-70763000D01*
X119299000Y-80763000D02*
X125049000Y-80763000D01*
X119299000Y-70113000D02*
X125049000Y-70113000D01*
X119299000Y-80188000D02*
X117699000Y-80188000D01*
D13*
X98484089Y-90610486D02*
G75*
G03*
X98484089Y-90610486I-1000000J0D01*
G01*
X159999412Y-105473216D02*
X161999412Y-105473216D01*
X161999412Y-107473216D02*
X161999412Y-105473216D01*
X159999412Y-107473216D02*
X161999412Y-107473216D01*
X159999412Y-107473216D02*
X159999412Y-105473216D01*
X97141489Y-94063938D02*
X97141489Y-92063938D01*
X97141489Y-94063938D02*
X99141489Y-94063938D01*
X99141489Y-94063938D02*
X99141489Y-92063938D01*
X97141489Y-92063938D02*
X99141489Y-92063938D01*
X92324310Y-89466117D02*
X94324310Y-89466117D01*
X94324310Y-91466117D02*
X94324310Y-89466117D01*
X92324310Y-91466117D02*
X94324310Y-91466117D01*
X92324310Y-91466117D02*
X92324310Y-89466117D01*
X86784864Y-92446859D02*
X86784864Y-90446859D01*
X86784864Y-92446859D02*
X88784864Y-92446859D01*
X88784864Y-92446859D02*
X88784864Y-90446859D01*
X86784864Y-90446859D02*
X88784864Y-90446859D01*
X81974182Y-94437930D02*
X83974182Y-94437930D01*
X83974182Y-96437930D02*
X83974182Y-94437930D01*
X81974182Y-96437930D02*
X83974182Y-96437930D01*
X81974182Y-96437930D02*
X81974182Y-94437930D01*
X95431602Y-80762476D02*
X95431602Y-78762476D01*
X95431602Y-80762476D02*
X97431602Y-80762476D01*
X97431602Y-80762476D02*
X97431602Y-78762476D01*
X95431602Y-78762476D02*
X97431602Y-78762476D01*
X87683876Y-79399837D02*
X89683876Y-79399837D01*
X89683876Y-81399837D02*
X89683876Y-79399837D01*
X87683876Y-81399837D02*
X89683876Y-81399837D01*
X87683876Y-81399837D02*
X87683876Y-79399837D01*
X80195598Y-83221183D02*
X82195598Y-83221183D01*
X82195598Y-85221183D02*
X82195598Y-83221183D01*
X80195598Y-85221183D02*
X82195598Y-85221183D01*
X80195598Y-85221183D02*
X80195598Y-83221183D01*
X74257910Y-91994566D02*
X74257910Y-89994566D01*
X74257910Y-91994566D02*
X76257910Y-91994566D01*
X76257910Y-91994566D02*
X76257910Y-89994566D01*
X74257910Y-89994566D02*
X76257910Y-89994566D01*
X105925511Y-73153835D02*
X107925511Y-73153835D01*
X107925511Y-75153835D02*
X107925511Y-73153835D01*
X105925511Y-75153835D02*
X107925511Y-75153835D01*
X105925511Y-75153835D02*
X105925511Y-73153835D01*
X96524136Y-72700073D02*
X96524136Y-70700073D01*
X96524136Y-72700073D02*
X98524136Y-72700073D01*
X98524136Y-72700073D02*
X98524136Y-70700073D01*
X96524136Y-70700073D02*
X98524136Y-70700073D01*
X86333737Y-71836949D02*
X88333737Y-71836949D01*
X88333737Y-73836949D02*
X88333737Y-71836949D01*
X86333737Y-73836949D02*
X88333737Y-73836949D01*
X86333737Y-73836949D02*
X86333737Y-71836949D01*
X76754778Y-76754666D02*
X78754778Y-76754666D01*
X78754778Y-78754666D02*
X78754778Y-76754666D01*
X76754778Y-78754666D02*
X78754778Y-78754666D01*
X76754778Y-78754666D02*
X76754778Y-76754666D01*
X110365416Y-69774046D02*
X110365416Y-67774046D01*
X110365416Y-69774046D02*
X112365416Y-69774046D01*
X112365416Y-69774046D02*
X112365416Y-67774046D01*
X110365416Y-67774046D02*
X112365416Y-67774046D01*
X99000104Y-66416548D02*
X99000104Y-64416548D01*
X99000104Y-66416548D02*
X101000104Y-66416548D01*
X101000104Y-66416548D02*
X101000104Y-64416548D01*
X99000104Y-64416548D02*
X101000104Y-64416548D01*
X86725815Y-65276612D02*
X88725815Y-65276612D01*
X88725815Y-67276612D02*
X88725815Y-65276612D01*
X86725815Y-67276612D02*
X88725815Y-67276612D01*
X86725815Y-67276612D02*
X86725815Y-65276612D01*
X77166096Y-130181806D02*
X79166096Y-130181806D01*
X79166096Y-132181806D02*
X79166096Y-130181806D01*
X77166096Y-132181806D02*
X79166096Y-132181806D01*
X77166096Y-132181806D02*
X77166096Y-130181806D01*
X88839052Y-138920589D02*
X88839052Y-136920589D01*
X88839052Y-138920589D02*
X90839052Y-138920589D01*
X90839052Y-138920589D02*
X90839052Y-136920589D01*
X88839052Y-136920589D02*
X90839052Y-136920589D01*
X102522366Y-139262726D02*
X104522366Y-139262726D01*
X104522366Y-141262726D02*
X104522366Y-139262726D01*
X102522366Y-141262726D02*
X104522366Y-141262726D01*
X102522366Y-141262726D02*
X102522366Y-139262726D01*
X116556827Y-138651159D02*
X116556827Y-136651159D01*
X116556827Y-138651159D02*
X118556827Y-138651159D01*
X118556827Y-138651159D02*
X118556827Y-136651159D01*
X116556827Y-136651159D02*
X118556827Y-136651159D01*
X71416832Y-131872033D02*
X73416832Y-131872033D01*
X73416832Y-133872033D02*
X73416832Y-131872033D01*
X71416832Y-133872033D02*
X73416832Y-133872033D01*
X71416832Y-133872033D02*
X71416832Y-131872033D01*
X83959012Y-142324156D02*
X83959012Y-140324156D01*
X83959012Y-142324156D02*
X85959012Y-142324156D01*
X85959012Y-142324156D02*
X85959012Y-140324156D01*
X83959012Y-140324156D02*
X85959012Y-140324156D01*
X98999773Y-144016607D02*
X100999773Y-144016607D01*
X100999773Y-146016607D02*
X100999773Y-144016607D01*
X98999773Y-146016607D02*
X100999773Y-146016607D01*
X98999773Y-146016607D02*
X98999773Y-144016607D01*
X114744334Y-144257908D02*
X114744334Y-142257908D01*
X114744334Y-144257908D02*
X116744334Y-144257908D01*
X116744334Y-144257908D02*
X116744334Y-142257908D01*
X114744334Y-142257908D02*
X116744334Y-142257908D01*
X65570775Y-132428856D02*
X67570775Y-132428856D01*
X67570775Y-134428856D02*
X67570775Y-132428856D01*
X65570775Y-134428856D02*
X67570775Y-134428856D01*
X65570775Y-134428856D02*
X65570775Y-132428856D01*
X78609763Y-144726347D02*
X78609763Y-142726347D01*
X78609763Y-144726347D02*
X80609763Y-144726347D01*
X80609763Y-144726347D02*
X80609763Y-142726347D01*
X78609763Y-142726347D02*
X80609763Y-142726347D01*
X94711718Y-148011905D02*
X96711718Y-148011905D01*
X96711718Y-150011905D02*
X96711718Y-148011905D01*
X94711718Y-150011905D02*
X96711718Y-150011905D01*
X94711718Y-150011905D02*
X94711718Y-148011905D01*
X111975293Y-147425653D02*
X113975293Y-147425653D01*
X113975293Y-149425653D02*
X113975293Y-147425653D01*
X111975293Y-149425653D02*
X113975293Y-149425653D01*
X111975293Y-149425653D02*
X111975293Y-147425653D01*
X83751055Y-149362405D02*
X83751055Y-147362405D01*
X83751055Y-149362405D02*
X85751055Y-149362405D01*
X85751055Y-149362405D02*
X85751055Y-147362405D01*
X83751055Y-147362405D02*
X85751055Y-147362405D01*
X100066678Y-153562298D02*
X100066678Y-151562298D01*
X100066678Y-153562298D02*
X102066678Y-153562298D01*
X102066678Y-153562298D02*
X102066678Y-151562298D01*
X100066678Y-151562298D02*
X102066678Y-151562298D01*
X89785752Y-151254480D02*
X91785752Y-151254480D01*
X91785752Y-153254480D02*
X91785752Y-151254480D01*
X89785752Y-153254480D02*
X91785752Y-153254480D01*
X89785752Y-153254480D02*
X89785752Y-151254480D01*
X46430638Y-81181328D02*
X48430638Y-81181328D01*
X48430638Y-83181328D02*
X48430638Y-81181328D01*
X46430638Y-83181328D02*
X48430638Y-83181328D01*
X46430638Y-83181328D02*
X46430638Y-81181328D01*
X154405119Y-109531957D02*
X154405119Y-107531957D01*
X154405119Y-109531957D02*
X156405119Y-109531957D01*
X156405119Y-109531957D02*
X156405119Y-107531957D01*
X154405119Y-107531957D02*
X156405119Y-107531957D01*
X42510000Y-107190000D02*
X42510000Y-105190000D01*
X42510000Y-107190000D02*
X44510000Y-107190000D01*
X44510000Y-107190000D02*
X44510000Y-105190000D01*
X42510000Y-105190000D02*
X44510000Y-105190000D01*
X105312274Y-43205966D02*
X105312274Y-41205966D01*
X105312274Y-43205966D02*
X107312274Y-43205966D01*
X107312274Y-43205966D02*
X107312274Y-41205966D01*
X105312274Y-41205966D02*
X107312274Y-41205966D01*
X100410000Y-40470000D02*
X102410000Y-40470000D01*
X102410000Y-42470000D02*
X102410000Y-40470000D01*
X100410000Y-42470000D02*
X102410000Y-42470000D01*
X100410000Y-42470000D02*
X100410000Y-40470000D01*
X156698852Y-114989468D02*
X156698852Y-112989468D01*
X156698852Y-114989468D02*
X158698852Y-114989468D01*
X158698852Y-114989468D02*
X158698852Y-112989468D01*
X156698852Y-112989468D02*
X158698852Y-112989468D01*
X39742051Y-95513347D02*
X41742051Y-95513347D01*
X41742051Y-97513347D02*
X41742051Y-95513347D01*
X39742051Y-97513347D02*
X41742051Y-97513347D01*
X39742051Y-97513347D02*
X39742051Y-95513347D01*
X109496779Y-41472920D02*
X109496779Y-39472920D01*
X109496779Y-41472920D02*
X111496779Y-41472920D01*
X111496779Y-41472920D02*
X111496779Y-39472920D01*
X109496779Y-39472920D02*
X111496779Y-39472920D01*
X94660000Y-162810000D02*
X94660000Y-160810000D01*
X94660000Y-162810000D02*
X96660000Y-162810000D01*
X96660000Y-162810000D02*
X96660000Y-160810000D01*
X94660000Y-160810000D02*
X96660000Y-160810000D01*
X103048316Y-37407720D02*
X103048316Y-35407720D01*
X103048316Y-37407720D02*
X105048316Y-37407720D01*
X105048316Y-37407720D02*
X105048316Y-35407720D01*
X103048316Y-35407720D02*
X105048316Y-35407720D01*
X35260000Y-94420000D02*
X37260000Y-94420000D01*
X37260000Y-96420000D02*
X37260000Y-94420000D01*
X35260000Y-96420000D02*
X37260000Y-96420000D01*
X35260000Y-96420000D02*
X35260000Y-94420000D01*
X92044912Y-165917920D02*
X92044912Y-163917920D01*
X92044912Y-165917920D02*
X94044912Y-165917920D01*
X94044912Y-165917920D02*
X94044912Y-163917920D01*
X92044912Y-163917920D02*
X94044912Y-163917920D01*
X164870000Y-107970000D02*
X164870000Y-105970000D01*
X164870000Y-107970000D02*
X166870000Y-107970000D01*
X166870000Y-107970000D02*
X166870000Y-105970000D01*
X164870000Y-105970000D02*
X166870000Y-105970000D01*
X97520051Y-96811214D02*
G75*
G03*
X97520051Y-96811214I-1000000J0D01*
G01*
X101535924Y-106125638D02*
G75*
G03*
X101535924Y-106125638I-1000000J0D01*
G01*
X105410827Y-94251699D02*
G75*
G03*
X105410827Y-94251699I-1000000J0D01*
G01*
X92954120Y-101418705D02*
G75*
G03*
X92954120Y-101418705I-1000000J0D01*
G01*
X108577395Y-104827335D02*
G75*
G03*
X108577395Y-104827335I-1000000J0D01*
G01*
X96198809Y-109222998D02*
G75*
G03*
X96198809Y-109222998I-1000000J0D01*
G01*
X111363000Y-96228179D02*
G75*
G03*
X111363000Y-96228179I-1000000J0D01*
G01*
X95719777Y-59891607D02*
G75*
G03*
X95719777Y-59891607I-1000000J0D01*
G01*
X77709204Y-133262446D02*
G75*
G03*
X77709204Y-133262446I-1000000J0D01*
G01*
X140790982Y-91178704D02*
G75*
G03*
X140790982Y-91178704I-1000000J0D01*
G01*
X65573156Y-79546128D02*
G75*
G03*
X65573156Y-79546128I-1000000J0D01*
G01*
X113346035Y-139157128D02*
G75*
G03*
X113346035Y-139157128I-1000000J0D01*
G01*
X155664068Y-93943054D02*
G75*
G03*
X155664068Y-93943054I-1000000J0D01*
G01*
X62792553Y-115825874D02*
G75*
G03*
X62792553Y-115825874I-1000000J0D01*
G01*
X140000543Y-114195204D02*
G75*
G03*
X140000543Y-114195204I-1000000J0D01*
G01*
X112029568Y-44583000D02*
G75*
G03*
X112029568Y-44583000I-1000000J0D01*
G01*
X163345406Y-104319174D02*
G75*
G03*
X163345406Y-104319174I-1000000J0D01*
G01*
X157377135Y-106185303D02*
G75*
G03*
X157377135Y-106185303I-1000000J0D01*
G01*
X43246701Y-91072607D02*
G75*
G03*
X43246701Y-91072607I-1000000J0D01*
G01*
X80677765Y-152266742D02*
G75*
G03*
X80677765Y-152266742I-1000000J0D01*
G01*
X40882458Y-85141438D02*
G75*
G03*
X40882458Y-85141438I-1000000J0D01*
G01*
X46849450Y-84169152D02*
G75*
G03*
X46849450Y-84169152I-1000000J0D01*
G01*
X111937867Y-37971512D02*
G75*
G03*
X111937867Y-37971512I-1000000J0D01*
G01*
X75122098Y-72543224D02*
X75122098Y-70543224D01*
X75122098Y-72543224D02*
X77122098Y-72543224D01*
X77122098Y-72543224D02*
X77122098Y-70543224D01*
X75122098Y-70543224D02*
X77122098Y-70543224D01*
X108364467Y-154110749D02*
X108364467Y-152110749D01*
X108364467Y-154110749D02*
X110364467Y-154110749D01*
X110364467Y-154110749D02*
X110364467Y-152110749D01*
X108364467Y-152110749D02*
X110364467Y-152110749D01*
X108988644Y-34685157D02*
X108988644Y-32685157D01*
X108988644Y-34685157D02*
X110988644Y-34685157D01*
X110988644Y-34685157D02*
X110988644Y-32685157D01*
X108988644Y-32685157D02*
X110988644Y-32685157D01*
X89040000Y-167640000D02*
X89040000Y-165640000D01*
X89040000Y-167640000D02*
X91040000Y-167640000D01*
X91040000Y-167640000D02*
X91040000Y-165640000D01*
X89040000Y-165640000D02*
X91040000Y-165640000D01*
X81470477Y-102445482D02*
X81470477Y-102726642D01*
X82490477Y-102445482D02*
X82490477Y-102726642D01*
X80683477Y-102324810D02*
X80683477Y-102847314D01*
X79213477Y-102324810D02*
X79213477Y-102847314D01*
X76752477Y-101874810D02*
X76752477Y-103297314D01*
X78572477Y-101874810D02*
X78572477Y-103297314D01*
X85792477Y-132925482D02*
X85792477Y-133206642D01*
X84772477Y-132925482D02*
X84772477Y-133206642D01*
X88049477Y-132804810D02*
X88049477Y-133327314D01*
X86579477Y-132804810D02*
X86579477Y-133327314D01*
X88690477Y-132354810D02*
X88690477Y-133777314D01*
X90510477Y-132354810D02*
X90510477Y-133777314D01*
X133032477Y-73997482D02*
X133032477Y-74278642D01*
X134052477Y-73997482D02*
X134052477Y-74278642D01*
X130775477Y-73876810D02*
X130775477Y-74399314D01*
X132245477Y-73876810D02*
X132245477Y-74399314D01*
X85012477Y-106126062D02*
X83012477Y-106126062D01*
X83012477Y-104126062D02*
X83012477Y-106126062D01*
X85012477Y-104126062D02*
X83012477Y-104126062D01*
X85012477Y-104126062D02*
X85012477Y-106126062D01*
X81710477Y-132066062D02*
X81710477Y-134066062D01*
X81710477Y-132066062D02*
X79710477Y-132066062D01*
X79710477Y-132066062D02*
X79710477Y-134066062D01*
X81710477Y-134066062D02*
X79710477Y-134066062D01*
X136574477Y-75678062D02*
X136574477Y-77678062D01*
X136574477Y-75678062D02*
X134574477Y-75678062D01*
X134574477Y-75678062D02*
X134574477Y-77678062D01*
X136574477Y-77678062D02*
X134574477Y-77678062D01*
X63930477Y-105126062D02*
G75*
G03*
X63930477Y-105126062I-1000000J0D01*
G01*
X63930477Y-101586062D02*
X63930477Y-103586062D01*
X63930477Y-101586062D02*
X61930477Y-101586062D01*
X61930477Y-101586062D02*
X61930477Y-103586062D01*
X63930477Y-103586062D02*
X61930477Y-103586062D01*
X105332477Y-126970062D02*
G75*
G03*
X105332477Y-126970062I-1000000J0D01*
G01*
X105332477Y-130510062D02*
X103332477Y-130510062D01*
X103332477Y-128510062D02*
X103332477Y-130510062D01*
X105332477Y-128510062D02*
X103332477Y-128510062D01*
X105332477Y-128510062D02*
X105332477Y-130510062D01*
X117016477Y-78202062D02*
G75*
G03*
X117016477Y-78202062I-1000000J0D01*
G01*
X117016477Y-74662062D02*
X117016477Y-76662062D01*
X117016477Y-74662062D02*
X115016477Y-74662062D01*
X115016477Y-74662062D02*
X115016477Y-76662062D01*
X117016477Y-76662062D02*
X115016477Y-76662062D01*
X85012477Y-102586062D02*
G75*
G03*
X85012477Y-102586062I-1000000J0D01*
G01*
X84250477Y-133066062D02*
G75*
G03*
X84250477Y-133066062I-1000000J0D01*
G01*
X136574477Y-74138062D02*
G75*
G03*
X136574477Y-74138062I-1000000J0D01*
G01*
D12*
X70865904Y-109588380D02*
X70865904Y-110397904D01*
X70818285Y-110493142D01*
X70770666Y-110540761D01*
X70675428Y-110588380D01*
X70484952Y-110588380D01*
X70389714Y-110540761D01*
X70342095Y-110493142D01*
X70294476Y-110397904D01*
X70294476Y-109588380D01*
X69294476Y-110588380D02*
X69865904Y-110588380D01*
X69580190Y-110588380D02*
X69580190Y-109588380D01*
X69675428Y-109731238D01*
X69770666Y-109826476D01*
X69865904Y-109874095D01*
X129581619Y-77305204D02*
X129629238Y-77257585D01*
X129676857Y-77114728D01*
X129676857Y-77019490D01*
X129629238Y-76876633D01*
X129534000Y-76781395D01*
X129438762Y-76733776D01*
X129248286Y-76686157D01*
X129105429Y-76686157D01*
X128914953Y-76733776D01*
X128819715Y-76781395D01*
X128724477Y-76876633D01*
X128676857Y-77019490D01*
X128676857Y-77114728D01*
X128724477Y-77257585D01*
X128772096Y-77305204D01*
X128676857Y-77638538D02*
X128676857Y-78257585D01*
X129057810Y-77924252D01*
X129057810Y-78067109D01*
X129105429Y-78162347D01*
X129153048Y-78209966D01*
X129248286Y-78257585D01*
X129486381Y-78257585D01*
X129581619Y-78209966D01*
X129629238Y-78162347D01*
X129676857Y-78067109D01*
X129676857Y-77781395D01*
X129629238Y-77686157D01*
X129581619Y-77638538D01*
X128676857Y-78590919D02*
X128676857Y-79209966D01*
X129057810Y-78876633D01*
X129057810Y-79019490D01*
X129105429Y-79114728D01*
X129153048Y-79162347D01*
X129248286Y-79209966D01*
X129486381Y-79209966D01*
X129581619Y-79162347D01*
X129629238Y-79114728D01*
X129676857Y-79019490D01*
X129676857Y-78733776D01*
X129629238Y-78638538D01*
X129581619Y-78590919D01*
X97789904Y-121472380D02*
X97789904Y-122281904D01*
X97742285Y-122377142D01*
X97694666Y-122424761D01*
X97599428Y-122472380D01*
X97408952Y-122472380D01*
X97313714Y-122424761D01*
X97266095Y-122377142D01*
X97218476Y-122281904D01*
X97218476Y-121472380D01*
X96789904Y-121567619D02*
X96742285Y-121520000D01*
X96647047Y-121472380D01*
X96408952Y-121472380D01*
X96313714Y-121520000D01*
X96266095Y-121567619D01*
X96218476Y-121662857D01*
X96218476Y-121758095D01*
X96266095Y-121900952D01*
X96837523Y-122472380D01*
X96218476Y-122472380D01*
X122935904Y-81140380D02*
X122935904Y-81949904D01*
X122888285Y-82045142D01*
X122840666Y-82092761D01*
X122745428Y-82140380D01*
X122554952Y-82140380D01*
X122459714Y-82092761D01*
X122412095Y-82045142D01*
X122364476Y-81949904D01*
X122364476Y-81140380D01*
X121983523Y-81140380D02*
X121364476Y-81140380D01*
X121697809Y-81521333D01*
X121554952Y-81521333D01*
X121459714Y-81568952D01*
X121412095Y-81616571D01*
X121364476Y-81711809D01*
X121364476Y-81949904D01*
X121412095Y-82045142D01*
X121459714Y-82092761D01*
X121554952Y-82140380D01*
X121840666Y-82140380D01*
X121935904Y-82092761D01*
X121983523Y-82045142D01*
D14*
X97875041Y-89212866D02*
X97803612Y-89236676D01*
X97684565Y-89236676D01*
X97636946Y-89212866D01*
X97613136Y-89189057D01*
X97589327Y-89141438D01*
X97589327Y-89093819D01*
X97613136Y-89046200D01*
X97636946Y-89022390D01*
X97684565Y-88998581D01*
X97779803Y-88974771D01*
X97827422Y-88950962D01*
X97851231Y-88927152D01*
X97875041Y-88879533D01*
X97875041Y-88831914D01*
X97851231Y-88784295D01*
X97827422Y-88760486D01*
X97779803Y-88736676D01*
X97660755Y-88736676D01*
X97589327Y-88760486D01*
X97160755Y-88736676D02*
X97255993Y-88736676D01*
X97303612Y-88760486D01*
X97327422Y-88784295D01*
X97375041Y-88855724D01*
X97398850Y-88950962D01*
X97398850Y-89141438D01*
X97375041Y-89189057D01*
X97351231Y-89212866D01*
X97303612Y-89236676D01*
X97208374Y-89236676D01*
X97160755Y-89212866D01*
X97136946Y-89189057D01*
X97113136Y-89141438D01*
X97113136Y-89022390D01*
X97136946Y-88974771D01*
X97160755Y-88950962D01*
X97208374Y-88927152D01*
X97303612Y-88927152D01*
X97351231Y-88950962D01*
X97375041Y-88974771D01*
X97398850Y-89022390D01*
X163405715Y-106198062D02*
X163453334Y-106174252D01*
X163524762Y-106174252D01*
X163596191Y-106198062D01*
X163643810Y-106245681D01*
X163667619Y-106293300D01*
X163691429Y-106388538D01*
X163691429Y-106459966D01*
X163667619Y-106555204D01*
X163643810Y-106602823D01*
X163596191Y-106650442D01*
X163524762Y-106674252D01*
X163477143Y-106674252D01*
X163405715Y-106650442D01*
X163381905Y-106626633D01*
X163381905Y-106459966D01*
X163477143Y-106459966D01*
X162953334Y-106340919D02*
X162953334Y-106674252D01*
X163072381Y-106150442D02*
X163191429Y-106507585D01*
X162881905Y-106507585D01*
X162429524Y-106674252D02*
X162715238Y-106674252D01*
X162572381Y-106674252D02*
X162572381Y-106174252D01*
X162620000Y-106245681D01*
X162667619Y-106293300D01*
X162715238Y-106317109D01*
X100117619Y-92848062D02*
X100165238Y-92824252D01*
X100236667Y-92824252D01*
X100308096Y-92848062D01*
X100355715Y-92895681D01*
X100379524Y-92943300D01*
X100403334Y-93038538D01*
X100403334Y-93109966D01*
X100379524Y-93205204D01*
X100355715Y-93252823D01*
X100308096Y-93300442D01*
X100236667Y-93324252D01*
X100189048Y-93324252D01*
X100117619Y-93300442D01*
X100093810Y-93276633D01*
X100093810Y-93109966D01*
X100189048Y-93109966D01*
X99617619Y-93324252D02*
X99903334Y-93324252D01*
X99760477Y-93324252D02*
X99760477Y-92824252D01*
X99808096Y-92895681D01*
X99855715Y-92943300D01*
X99903334Y-92967109D01*
X93441452Y-88616117D02*
X93489071Y-88592307D01*
X93560500Y-88592307D01*
X93631929Y-88616117D01*
X93679548Y-88663736D01*
X93703357Y-88711355D01*
X93727167Y-88806593D01*
X93727167Y-88878021D01*
X93703357Y-88973259D01*
X93679548Y-89020878D01*
X93631929Y-89068497D01*
X93560500Y-89092307D01*
X93512881Y-89092307D01*
X93441452Y-89068497D01*
X93417643Y-89044688D01*
X93417643Y-88878021D01*
X93512881Y-88878021D01*
X93227167Y-88639926D02*
X93203357Y-88616117D01*
X93155738Y-88592307D01*
X93036690Y-88592307D01*
X92989071Y-88616117D01*
X92965262Y-88639926D01*
X92941452Y-88687545D01*
X92941452Y-88735164D01*
X92965262Y-88806593D01*
X93250976Y-89092307D01*
X92941452Y-89092307D01*
X87902006Y-89596859D02*
X87949625Y-89573049D01*
X88021054Y-89573049D01*
X88092483Y-89596859D01*
X88140102Y-89644478D01*
X88163911Y-89692097D01*
X88187721Y-89787335D01*
X88187721Y-89858763D01*
X88163911Y-89954001D01*
X88140102Y-90001620D01*
X88092483Y-90049239D01*
X88021054Y-90073049D01*
X87973435Y-90073049D01*
X87902006Y-90049239D01*
X87878197Y-90025430D01*
X87878197Y-89858763D01*
X87973435Y-89858763D01*
X87711530Y-89573049D02*
X87402006Y-89573049D01*
X87568673Y-89763525D01*
X87497244Y-89763525D01*
X87449625Y-89787335D01*
X87425816Y-89811144D01*
X87402006Y-89858763D01*
X87402006Y-89977811D01*
X87425816Y-90025430D01*
X87449625Y-90049239D01*
X87497244Y-90073049D01*
X87640102Y-90073049D01*
X87687721Y-90049239D01*
X87711530Y-90025430D01*
X83091324Y-93587930D02*
X83138943Y-93564120D01*
X83210372Y-93564120D01*
X83281801Y-93587930D01*
X83329420Y-93635549D01*
X83353229Y-93683168D01*
X83377039Y-93778406D01*
X83377039Y-93849834D01*
X83353229Y-93945072D01*
X83329420Y-93992691D01*
X83281801Y-94040310D01*
X83210372Y-94064120D01*
X83162753Y-94064120D01*
X83091324Y-94040310D01*
X83067515Y-94016501D01*
X83067515Y-93849834D01*
X83162753Y-93849834D01*
X82638943Y-93730787D02*
X82638943Y-94064120D01*
X82757991Y-93540310D02*
X82877039Y-93897453D01*
X82567515Y-93897453D01*
X96548744Y-77912476D02*
X96596363Y-77888666D01*
X96667792Y-77888666D01*
X96739221Y-77912476D01*
X96786840Y-77960095D01*
X96810649Y-78007714D01*
X96834459Y-78102952D01*
X96834459Y-78174380D01*
X96810649Y-78269618D01*
X96786840Y-78317237D01*
X96739221Y-78364856D01*
X96667792Y-78388666D01*
X96620173Y-78388666D01*
X96548744Y-78364856D01*
X96524935Y-78341047D01*
X96524935Y-78174380D01*
X96620173Y-78174380D01*
X96072554Y-77888666D02*
X96310649Y-77888666D01*
X96334459Y-78126761D01*
X96310649Y-78102952D01*
X96263030Y-78079142D01*
X96143982Y-78079142D01*
X96096363Y-78102952D01*
X96072554Y-78126761D01*
X96048744Y-78174380D01*
X96048744Y-78293428D01*
X96072554Y-78341047D01*
X96096363Y-78364856D01*
X96143982Y-78388666D01*
X96263030Y-78388666D01*
X96310649Y-78364856D01*
X96334459Y-78341047D01*
X88801018Y-78549837D02*
X88848637Y-78526027D01*
X88920066Y-78526027D01*
X88991495Y-78549837D01*
X89039114Y-78597456D01*
X89062923Y-78645075D01*
X89086733Y-78740313D01*
X89086733Y-78811741D01*
X89062923Y-78906979D01*
X89039114Y-78954598D01*
X88991495Y-79002217D01*
X88920066Y-79026027D01*
X88872447Y-79026027D01*
X88801018Y-79002217D01*
X88777209Y-78978408D01*
X88777209Y-78811741D01*
X88872447Y-78811741D01*
X88348637Y-78526027D02*
X88443876Y-78526027D01*
X88491495Y-78549837D01*
X88515304Y-78573646D01*
X88562923Y-78645075D01*
X88586733Y-78740313D01*
X88586733Y-78930789D01*
X88562923Y-78978408D01*
X88539114Y-79002217D01*
X88491495Y-79026027D01*
X88396256Y-79026027D01*
X88348637Y-79002217D01*
X88324828Y-78978408D01*
X88301018Y-78930789D01*
X88301018Y-78811741D01*
X88324828Y-78764122D01*
X88348637Y-78740313D01*
X88396256Y-78716503D01*
X88491495Y-78716503D01*
X88539114Y-78740313D01*
X88562923Y-78764122D01*
X88586733Y-78811741D01*
X81312740Y-82371183D02*
X81360359Y-82347373D01*
X81431788Y-82347373D01*
X81503217Y-82371183D01*
X81550836Y-82418802D01*
X81574645Y-82466421D01*
X81598455Y-82561659D01*
X81598455Y-82633087D01*
X81574645Y-82728325D01*
X81550836Y-82775944D01*
X81503217Y-82823563D01*
X81431788Y-82847373D01*
X81384169Y-82847373D01*
X81312740Y-82823563D01*
X81288931Y-82799754D01*
X81288931Y-82633087D01*
X81384169Y-82633087D01*
X81122264Y-82347373D02*
X80788931Y-82347373D01*
X81003217Y-82847373D01*
X75375052Y-89144566D02*
X75422671Y-89120756D01*
X75494100Y-89120756D01*
X75565529Y-89144566D01*
X75613148Y-89192185D01*
X75636957Y-89239804D01*
X75660767Y-89335042D01*
X75660767Y-89406470D01*
X75636957Y-89501708D01*
X75613148Y-89549327D01*
X75565529Y-89596946D01*
X75494100Y-89620756D01*
X75446481Y-89620756D01*
X75375052Y-89596946D01*
X75351243Y-89573137D01*
X75351243Y-89406470D01*
X75446481Y-89406470D01*
X75065529Y-89335042D02*
X75113148Y-89311232D01*
X75136957Y-89287423D01*
X75160767Y-89239804D01*
X75160767Y-89215994D01*
X75136957Y-89168375D01*
X75113148Y-89144566D01*
X75065529Y-89120756D01*
X74970290Y-89120756D01*
X74922671Y-89144566D01*
X74898862Y-89168375D01*
X74875052Y-89215994D01*
X74875052Y-89239804D01*
X74898862Y-89287423D01*
X74922671Y-89311232D01*
X74970290Y-89335042D01*
X75065529Y-89335042D01*
X75113148Y-89358851D01*
X75136957Y-89382661D01*
X75160767Y-89430280D01*
X75160767Y-89525518D01*
X75136957Y-89573137D01*
X75113148Y-89596946D01*
X75065529Y-89620756D01*
X74970290Y-89620756D01*
X74922671Y-89596946D01*
X74898862Y-89573137D01*
X74875052Y-89525518D01*
X74875052Y-89430280D01*
X74898862Y-89382661D01*
X74922671Y-89358851D01*
X74970290Y-89335042D01*
X107042653Y-72303835D02*
X107090272Y-72280025D01*
X107161701Y-72280025D01*
X107233130Y-72303835D01*
X107280749Y-72351454D01*
X107304558Y-72399073D01*
X107328368Y-72494311D01*
X107328368Y-72565739D01*
X107304558Y-72660977D01*
X107280749Y-72708596D01*
X107233130Y-72756215D01*
X107161701Y-72780025D01*
X107114082Y-72780025D01*
X107042653Y-72756215D01*
X107018844Y-72732406D01*
X107018844Y-72565739D01*
X107114082Y-72565739D01*
X106780749Y-72780025D02*
X106685511Y-72780025D01*
X106637891Y-72756215D01*
X106614082Y-72732406D01*
X106566463Y-72660977D01*
X106542653Y-72565739D01*
X106542653Y-72375263D01*
X106566463Y-72327644D01*
X106590272Y-72303835D01*
X106637891Y-72280025D01*
X106733130Y-72280025D01*
X106780749Y-72303835D01*
X106804558Y-72327644D01*
X106828368Y-72375263D01*
X106828368Y-72494311D01*
X106804558Y-72541930D01*
X106780749Y-72565739D01*
X106733130Y-72589549D01*
X106637891Y-72589549D01*
X106590272Y-72565739D01*
X106566463Y-72541930D01*
X106542653Y-72494311D01*
X97879374Y-69850073D02*
X97926993Y-69826263D01*
X97998421Y-69826263D01*
X98069850Y-69850073D01*
X98117469Y-69897692D01*
X98141278Y-69945311D01*
X98165088Y-70040549D01*
X98165088Y-70111977D01*
X98141278Y-70207215D01*
X98117469Y-70254834D01*
X98069850Y-70302453D01*
X97998421Y-70326263D01*
X97950802Y-70326263D01*
X97879374Y-70302453D01*
X97855564Y-70278644D01*
X97855564Y-70111977D01*
X97950802Y-70111977D01*
X97379374Y-70326263D02*
X97665088Y-70326263D01*
X97522231Y-70326263D02*
X97522231Y-69826263D01*
X97569850Y-69897692D01*
X97617469Y-69945311D01*
X97665088Y-69969120D01*
X97069850Y-69826263D02*
X97022231Y-69826263D01*
X96974612Y-69850073D01*
X96950802Y-69873882D01*
X96926993Y-69921501D01*
X96903183Y-70016739D01*
X96903183Y-70135787D01*
X96926993Y-70231025D01*
X96950802Y-70278644D01*
X96974612Y-70302453D01*
X97022231Y-70326263D01*
X97069850Y-70326263D01*
X97117469Y-70302453D01*
X97141278Y-70278644D01*
X97165088Y-70231025D01*
X97188897Y-70135787D01*
X97188897Y-70016739D01*
X97165088Y-69921501D01*
X97141278Y-69873882D01*
X97117469Y-69850073D01*
X97069850Y-69826263D01*
X87688975Y-70986949D02*
X87736594Y-70963139D01*
X87808022Y-70963139D01*
X87879451Y-70986949D01*
X87927070Y-71034568D01*
X87950879Y-71082187D01*
X87974689Y-71177425D01*
X87974689Y-71248853D01*
X87950879Y-71344091D01*
X87927070Y-71391710D01*
X87879451Y-71439329D01*
X87808022Y-71463139D01*
X87760403Y-71463139D01*
X87688975Y-71439329D01*
X87665165Y-71415520D01*
X87665165Y-71248853D01*
X87760403Y-71248853D01*
X87188975Y-71463139D02*
X87474689Y-71463139D01*
X87331832Y-71463139D02*
X87331832Y-70963139D01*
X87379451Y-71034568D01*
X87427070Y-71082187D01*
X87474689Y-71105996D01*
X86712784Y-71463139D02*
X86998498Y-71463139D01*
X86855641Y-71463139D02*
X86855641Y-70963139D01*
X86903260Y-71034568D01*
X86950879Y-71082187D01*
X86998498Y-71105996D01*
X78110016Y-75904666D02*
X78157635Y-75880856D01*
X78229063Y-75880856D01*
X78300492Y-75904666D01*
X78348111Y-75952285D01*
X78371920Y-75999904D01*
X78395730Y-76095142D01*
X78395730Y-76166570D01*
X78371920Y-76261808D01*
X78348111Y-76309427D01*
X78300492Y-76357046D01*
X78229063Y-76380856D01*
X78181444Y-76380856D01*
X78110016Y-76357046D01*
X78086206Y-76333237D01*
X78086206Y-76166570D01*
X78181444Y-76166570D01*
X77610016Y-76380856D02*
X77895730Y-76380856D01*
X77752873Y-76380856D02*
X77752873Y-75880856D01*
X77800492Y-75952285D01*
X77848111Y-75999904D01*
X77895730Y-76023713D01*
X77419539Y-75928475D02*
X77395730Y-75904666D01*
X77348111Y-75880856D01*
X77229063Y-75880856D01*
X77181444Y-75904666D01*
X77157635Y-75928475D01*
X77133825Y-75976094D01*
X77133825Y-76023713D01*
X77157635Y-76095142D01*
X77443349Y-76380856D01*
X77133825Y-76380856D01*
X111720654Y-66924046D02*
X111768273Y-66900236D01*
X111839701Y-66900236D01*
X111911130Y-66924046D01*
X111958749Y-66971665D01*
X111982558Y-67019284D01*
X112006368Y-67114522D01*
X112006368Y-67185950D01*
X111982558Y-67281188D01*
X111958749Y-67328807D01*
X111911130Y-67376426D01*
X111839701Y-67400236D01*
X111792082Y-67400236D01*
X111720654Y-67376426D01*
X111696844Y-67352617D01*
X111696844Y-67185950D01*
X111792082Y-67185950D01*
X111220654Y-67400236D02*
X111506368Y-67400236D01*
X111363511Y-67400236D02*
X111363511Y-66900236D01*
X111411130Y-66971665D01*
X111458749Y-67019284D01*
X111506368Y-67043093D01*
X111053987Y-66900236D02*
X110744463Y-66900236D01*
X110911130Y-67090712D01*
X110839701Y-67090712D01*
X110792082Y-67114522D01*
X110768273Y-67138331D01*
X110744463Y-67185950D01*
X110744463Y-67304998D01*
X110768273Y-67352617D01*
X110792082Y-67376426D01*
X110839701Y-67400236D01*
X110982558Y-67400236D01*
X111030177Y-67376426D01*
X111053987Y-67352617D01*
X100355342Y-63566548D02*
X100402961Y-63542738D01*
X100474389Y-63542738D01*
X100545818Y-63566548D01*
X100593437Y-63614167D01*
X100617246Y-63661786D01*
X100641056Y-63757024D01*
X100641056Y-63828452D01*
X100617246Y-63923690D01*
X100593437Y-63971309D01*
X100545818Y-64018928D01*
X100474389Y-64042738D01*
X100426770Y-64042738D01*
X100355342Y-64018928D01*
X100331532Y-63995119D01*
X100331532Y-63828452D01*
X100426770Y-63828452D01*
X99855342Y-64042738D02*
X100141056Y-64042738D01*
X99998199Y-64042738D02*
X99998199Y-63542738D01*
X100045818Y-63614167D01*
X100093437Y-63661786D01*
X100141056Y-63685595D01*
X99426770Y-63709405D02*
X99426770Y-64042738D01*
X99545818Y-63518928D02*
X99664865Y-63876071D01*
X99355342Y-63876071D01*
X88081053Y-64426612D02*
X88128672Y-64402802D01*
X88200100Y-64402802D01*
X88271529Y-64426612D01*
X88319148Y-64474231D01*
X88342957Y-64521850D01*
X88366767Y-64617088D01*
X88366767Y-64688516D01*
X88342957Y-64783754D01*
X88319148Y-64831373D01*
X88271529Y-64878992D01*
X88200100Y-64902802D01*
X88152481Y-64902802D01*
X88081053Y-64878992D01*
X88057243Y-64855183D01*
X88057243Y-64688516D01*
X88152481Y-64688516D01*
X87581053Y-64902802D02*
X87866767Y-64902802D01*
X87723910Y-64902802D02*
X87723910Y-64402802D01*
X87771529Y-64474231D01*
X87819148Y-64521850D01*
X87866767Y-64545659D01*
X87128672Y-64402802D02*
X87366767Y-64402802D01*
X87390576Y-64640897D01*
X87366767Y-64617088D01*
X87319148Y-64593278D01*
X87200100Y-64593278D01*
X87152481Y-64617088D01*
X87128672Y-64640897D01*
X87104862Y-64688516D01*
X87104862Y-64807564D01*
X87128672Y-64855183D01*
X87152481Y-64878992D01*
X87200100Y-64902802D01*
X87319148Y-64902802D01*
X87366767Y-64878992D01*
X87390576Y-64855183D01*
X78521334Y-129331806D02*
X78568953Y-129307996D01*
X78640381Y-129307996D01*
X78711810Y-129331806D01*
X78759429Y-129379425D01*
X78783238Y-129427044D01*
X78807048Y-129522282D01*
X78807048Y-129593710D01*
X78783238Y-129688948D01*
X78759429Y-129736567D01*
X78711810Y-129784186D01*
X78640381Y-129807996D01*
X78592762Y-129807996D01*
X78521334Y-129784186D01*
X78497524Y-129760377D01*
X78497524Y-129593710D01*
X78592762Y-129593710D01*
X78021334Y-129807996D02*
X78307048Y-129807996D01*
X78164191Y-129807996D02*
X78164191Y-129307996D01*
X78211810Y-129379425D01*
X78259429Y-129427044D01*
X78307048Y-129450853D01*
X77854667Y-129307996D02*
X77521334Y-129307996D01*
X77735619Y-129807996D01*
X90194290Y-136070589D02*
X90241909Y-136046779D01*
X90313337Y-136046779D01*
X90384766Y-136070589D01*
X90432385Y-136118208D01*
X90456194Y-136165827D01*
X90480004Y-136261065D01*
X90480004Y-136332493D01*
X90456194Y-136427731D01*
X90432385Y-136475350D01*
X90384766Y-136522969D01*
X90313337Y-136546779D01*
X90265718Y-136546779D01*
X90194290Y-136522969D01*
X90170480Y-136499160D01*
X90170480Y-136332493D01*
X90265718Y-136332493D01*
X89694290Y-136546779D02*
X89980004Y-136546779D01*
X89837147Y-136546779D02*
X89837147Y-136046779D01*
X89884766Y-136118208D01*
X89932385Y-136165827D01*
X89980004Y-136189636D01*
X89408575Y-136261065D02*
X89456194Y-136237255D01*
X89480004Y-136213446D01*
X89503813Y-136165827D01*
X89503813Y-136142017D01*
X89480004Y-136094398D01*
X89456194Y-136070589D01*
X89408575Y-136046779D01*
X89313337Y-136046779D01*
X89265718Y-136070589D01*
X89241909Y-136094398D01*
X89218099Y-136142017D01*
X89218099Y-136165827D01*
X89241909Y-136213446D01*
X89265718Y-136237255D01*
X89313337Y-136261065D01*
X89408575Y-136261065D01*
X89456194Y-136284874D01*
X89480004Y-136308684D01*
X89503813Y-136356303D01*
X89503813Y-136451541D01*
X89480004Y-136499160D01*
X89456194Y-136522969D01*
X89408575Y-136546779D01*
X89313337Y-136546779D01*
X89265718Y-136522969D01*
X89241909Y-136499160D01*
X89218099Y-136451541D01*
X89218099Y-136356303D01*
X89241909Y-136308684D01*
X89265718Y-136284874D01*
X89313337Y-136261065D01*
X103877604Y-138412726D02*
X103925223Y-138388916D01*
X103996651Y-138388916D01*
X104068080Y-138412726D01*
X104115699Y-138460345D01*
X104139508Y-138507964D01*
X104163318Y-138603202D01*
X104163318Y-138674630D01*
X104139508Y-138769868D01*
X104115699Y-138817487D01*
X104068080Y-138865106D01*
X103996651Y-138888916D01*
X103949032Y-138888916D01*
X103877604Y-138865106D01*
X103853794Y-138841297D01*
X103853794Y-138674630D01*
X103949032Y-138674630D01*
X103377604Y-138888916D02*
X103663318Y-138888916D01*
X103520461Y-138888916D02*
X103520461Y-138388916D01*
X103568080Y-138460345D01*
X103615699Y-138507964D01*
X103663318Y-138531773D01*
X103139508Y-138888916D02*
X103044270Y-138888916D01*
X102996651Y-138865106D01*
X102972842Y-138841297D01*
X102925223Y-138769868D01*
X102901413Y-138674630D01*
X102901413Y-138484154D01*
X102925223Y-138436535D01*
X102949032Y-138412726D01*
X102996651Y-138388916D01*
X103091889Y-138388916D01*
X103139508Y-138412726D01*
X103163318Y-138436535D01*
X103187127Y-138484154D01*
X103187127Y-138603202D01*
X103163318Y-138650821D01*
X103139508Y-138674630D01*
X103091889Y-138698440D01*
X102996651Y-138698440D01*
X102949032Y-138674630D01*
X102925223Y-138650821D01*
X102901413Y-138603202D01*
X117912065Y-135801159D02*
X117959684Y-135777349D01*
X118031112Y-135777349D01*
X118102541Y-135801159D01*
X118150160Y-135848778D01*
X118173969Y-135896397D01*
X118197779Y-135991635D01*
X118197779Y-136063063D01*
X118173969Y-136158301D01*
X118150160Y-136205920D01*
X118102541Y-136253539D01*
X118031112Y-136277349D01*
X117983493Y-136277349D01*
X117912065Y-136253539D01*
X117888255Y-136229730D01*
X117888255Y-136063063D01*
X117983493Y-136063063D01*
X117697779Y-135824968D02*
X117673969Y-135801159D01*
X117626350Y-135777349D01*
X117507303Y-135777349D01*
X117459684Y-135801159D01*
X117435874Y-135824968D01*
X117412065Y-135872587D01*
X117412065Y-135920206D01*
X117435874Y-135991635D01*
X117721588Y-136277349D01*
X117412065Y-136277349D01*
X117102541Y-135777349D02*
X117054922Y-135777349D01*
X117007303Y-135801159D01*
X116983493Y-135824968D01*
X116959684Y-135872587D01*
X116935874Y-135967825D01*
X116935874Y-136086873D01*
X116959684Y-136182111D01*
X116983493Y-136229730D01*
X117007303Y-136253539D01*
X117054922Y-136277349D01*
X117102541Y-136277349D01*
X117150160Y-136253539D01*
X117173969Y-136229730D01*
X117197779Y-136182111D01*
X117221588Y-136086873D01*
X117221588Y-135967825D01*
X117197779Y-135872587D01*
X117173969Y-135824968D01*
X117150160Y-135801159D01*
X117102541Y-135777349D01*
X72772070Y-131022033D02*
X72819689Y-130998223D01*
X72891117Y-130998223D01*
X72962546Y-131022033D01*
X73010165Y-131069652D01*
X73033974Y-131117271D01*
X73057784Y-131212509D01*
X73057784Y-131283937D01*
X73033974Y-131379175D01*
X73010165Y-131426794D01*
X72962546Y-131474413D01*
X72891117Y-131498223D01*
X72843498Y-131498223D01*
X72772070Y-131474413D01*
X72748260Y-131450604D01*
X72748260Y-131283937D01*
X72843498Y-131283937D01*
X72557784Y-131045842D02*
X72533974Y-131022033D01*
X72486355Y-130998223D01*
X72367308Y-130998223D01*
X72319689Y-131022033D01*
X72295879Y-131045842D01*
X72272070Y-131093461D01*
X72272070Y-131141080D01*
X72295879Y-131212509D01*
X72581593Y-131498223D01*
X72272070Y-131498223D01*
X71795879Y-131498223D02*
X72081593Y-131498223D01*
X71938736Y-131498223D02*
X71938736Y-130998223D01*
X71986355Y-131069652D01*
X72033974Y-131117271D01*
X72081593Y-131141080D01*
X85314250Y-139474156D02*
X85361869Y-139450346D01*
X85433297Y-139450346D01*
X85504726Y-139474156D01*
X85552345Y-139521775D01*
X85576154Y-139569394D01*
X85599964Y-139664632D01*
X85599964Y-139736060D01*
X85576154Y-139831298D01*
X85552345Y-139878917D01*
X85504726Y-139926536D01*
X85433297Y-139950346D01*
X85385678Y-139950346D01*
X85314250Y-139926536D01*
X85290440Y-139902727D01*
X85290440Y-139736060D01*
X85385678Y-139736060D01*
X85099964Y-139497965D02*
X85076154Y-139474156D01*
X85028535Y-139450346D01*
X84909488Y-139450346D01*
X84861869Y-139474156D01*
X84838059Y-139497965D01*
X84814250Y-139545584D01*
X84814250Y-139593203D01*
X84838059Y-139664632D01*
X85123773Y-139950346D01*
X84814250Y-139950346D01*
X84623773Y-139497965D02*
X84599964Y-139474156D01*
X84552345Y-139450346D01*
X84433297Y-139450346D01*
X84385678Y-139474156D01*
X84361869Y-139497965D01*
X84338059Y-139545584D01*
X84338059Y-139593203D01*
X84361869Y-139664632D01*
X84647583Y-139950346D01*
X84338059Y-139950346D01*
X100355011Y-143166607D02*
X100402630Y-143142797D01*
X100474058Y-143142797D01*
X100545487Y-143166607D01*
X100593106Y-143214226D01*
X100616915Y-143261845D01*
X100640725Y-143357083D01*
X100640725Y-143428511D01*
X100616915Y-143523749D01*
X100593106Y-143571368D01*
X100545487Y-143618987D01*
X100474058Y-143642797D01*
X100426439Y-143642797D01*
X100355011Y-143618987D01*
X100331201Y-143595178D01*
X100331201Y-143428511D01*
X100426439Y-143428511D01*
X100140725Y-143190416D02*
X100116915Y-143166607D01*
X100069296Y-143142797D01*
X99950249Y-143142797D01*
X99902630Y-143166607D01*
X99878820Y-143190416D01*
X99855011Y-143238035D01*
X99855011Y-143285654D01*
X99878820Y-143357083D01*
X100164534Y-143642797D01*
X99855011Y-143642797D01*
X99688344Y-143142797D02*
X99378820Y-143142797D01*
X99545487Y-143333273D01*
X99474058Y-143333273D01*
X99426439Y-143357083D01*
X99402630Y-143380892D01*
X99378820Y-143428511D01*
X99378820Y-143547559D01*
X99402630Y-143595178D01*
X99426439Y-143618987D01*
X99474058Y-143642797D01*
X99616915Y-143642797D01*
X99664534Y-143618987D01*
X99688344Y-143595178D01*
X116099572Y-141407908D02*
X116147191Y-141384098D01*
X116218619Y-141384098D01*
X116290048Y-141407908D01*
X116337667Y-141455527D01*
X116361476Y-141503146D01*
X116385286Y-141598384D01*
X116385286Y-141669812D01*
X116361476Y-141765050D01*
X116337667Y-141812669D01*
X116290048Y-141860288D01*
X116218619Y-141884098D01*
X116171000Y-141884098D01*
X116099572Y-141860288D01*
X116075762Y-141836479D01*
X116075762Y-141669812D01*
X116171000Y-141669812D01*
X115885286Y-141431717D02*
X115861476Y-141407908D01*
X115813857Y-141384098D01*
X115694810Y-141384098D01*
X115647191Y-141407908D01*
X115623381Y-141431717D01*
X115599572Y-141479336D01*
X115599572Y-141526955D01*
X115623381Y-141598384D01*
X115909095Y-141884098D01*
X115599572Y-141884098D01*
X115171000Y-141550765D02*
X115171000Y-141884098D01*
X115290048Y-141360288D02*
X115409095Y-141717431D01*
X115099572Y-141717431D01*
X66926013Y-131578856D02*
X66973632Y-131555046D01*
X67045060Y-131555046D01*
X67116489Y-131578856D01*
X67164108Y-131626475D01*
X67187917Y-131674094D01*
X67211727Y-131769332D01*
X67211727Y-131840760D01*
X67187917Y-131935998D01*
X67164108Y-131983617D01*
X67116489Y-132031236D01*
X67045060Y-132055046D01*
X66997441Y-132055046D01*
X66926013Y-132031236D01*
X66902203Y-132007427D01*
X66902203Y-131840760D01*
X66997441Y-131840760D01*
X66711727Y-131602665D02*
X66687917Y-131578856D01*
X66640298Y-131555046D01*
X66521251Y-131555046D01*
X66473632Y-131578856D01*
X66449822Y-131602665D01*
X66426013Y-131650284D01*
X66426013Y-131697903D01*
X66449822Y-131769332D01*
X66735536Y-132055046D01*
X66426013Y-132055046D01*
X65973632Y-131555046D02*
X66211727Y-131555046D01*
X66235536Y-131793141D01*
X66211727Y-131769332D01*
X66164108Y-131745522D01*
X66045060Y-131745522D01*
X65997441Y-131769332D01*
X65973632Y-131793141D01*
X65949822Y-131840760D01*
X65949822Y-131959808D01*
X65973632Y-132007427D01*
X65997441Y-132031236D01*
X66045060Y-132055046D01*
X66164108Y-132055046D01*
X66211727Y-132031236D01*
X66235536Y-132007427D01*
X79965001Y-141876347D02*
X80012620Y-141852537D01*
X80084048Y-141852537D01*
X80155477Y-141876347D01*
X80203096Y-141923966D01*
X80226905Y-141971585D01*
X80250715Y-142066823D01*
X80250715Y-142138251D01*
X80226905Y-142233489D01*
X80203096Y-142281108D01*
X80155477Y-142328727D01*
X80084048Y-142352537D01*
X80036429Y-142352537D01*
X79965001Y-142328727D01*
X79941191Y-142304918D01*
X79941191Y-142138251D01*
X80036429Y-142138251D01*
X79750715Y-141900156D02*
X79726905Y-141876347D01*
X79679286Y-141852537D01*
X79560239Y-141852537D01*
X79512620Y-141876347D01*
X79488810Y-141900156D01*
X79465001Y-141947775D01*
X79465001Y-141995394D01*
X79488810Y-142066823D01*
X79774524Y-142352537D01*
X79465001Y-142352537D01*
X79036429Y-141852537D02*
X79131667Y-141852537D01*
X79179286Y-141876347D01*
X79203096Y-141900156D01*
X79250715Y-141971585D01*
X79274524Y-142066823D01*
X79274524Y-142257299D01*
X79250715Y-142304918D01*
X79226905Y-142328727D01*
X79179286Y-142352537D01*
X79084048Y-142352537D01*
X79036429Y-142328727D01*
X79012620Y-142304918D01*
X78988810Y-142257299D01*
X78988810Y-142138251D01*
X79012620Y-142090632D01*
X79036429Y-142066823D01*
X79084048Y-142043013D01*
X79179286Y-142043013D01*
X79226905Y-142066823D01*
X79250715Y-142090632D01*
X79274524Y-142138251D01*
X96066956Y-147161905D02*
X96114575Y-147138095D01*
X96186003Y-147138095D01*
X96257432Y-147161905D01*
X96305051Y-147209524D01*
X96328860Y-147257143D01*
X96352670Y-147352381D01*
X96352670Y-147423809D01*
X96328860Y-147519047D01*
X96305051Y-147566666D01*
X96257432Y-147614285D01*
X96186003Y-147638095D01*
X96138384Y-147638095D01*
X96066956Y-147614285D01*
X96043146Y-147590476D01*
X96043146Y-147423809D01*
X96138384Y-147423809D01*
X95852670Y-147185714D02*
X95828860Y-147161905D01*
X95781241Y-147138095D01*
X95662194Y-147138095D01*
X95614575Y-147161905D01*
X95590765Y-147185714D01*
X95566956Y-147233333D01*
X95566956Y-147280952D01*
X95590765Y-147352381D01*
X95876479Y-147638095D01*
X95566956Y-147638095D01*
X95400289Y-147138095D02*
X95066956Y-147138095D01*
X95281241Y-147638095D01*
X113330531Y-146575653D02*
X113378150Y-146551843D01*
X113449578Y-146551843D01*
X113521007Y-146575653D01*
X113568626Y-146623272D01*
X113592435Y-146670891D01*
X113616245Y-146766129D01*
X113616245Y-146837557D01*
X113592435Y-146932795D01*
X113568626Y-146980414D01*
X113521007Y-147028033D01*
X113449578Y-147051843D01*
X113401959Y-147051843D01*
X113330531Y-147028033D01*
X113306721Y-147004224D01*
X113306721Y-146837557D01*
X113401959Y-146837557D01*
X113116245Y-146599462D02*
X113092435Y-146575653D01*
X113044816Y-146551843D01*
X112925769Y-146551843D01*
X112878150Y-146575653D01*
X112854340Y-146599462D01*
X112830531Y-146647081D01*
X112830531Y-146694700D01*
X112854340Y-146766129D01*
X113140054Y-147051843D01*
X112830531Y-147051843D01*
X112544816Y-146766129D02*
X112592435Y-146742319D01*
X112616245Y-146718510D01*
X112640054Y-146670891D01*
X112640054Y-146647081D01*
X112616245Y-146599462D01*
X112592435Y-146575653D01*
X112544816Y-146551843D01*
X112449578Y-146551843D01*
X112401959Y-146575653D01*
X112378150Y-146599462D01*
X112354340Y-146647081D01*
X112354340Y-146670891D01*
X112378150Y-146718510D01*
X112401959Y-146742319D01*
X112449578Y-146766129D01*
X112544816Y-146766129D01*
X112592435Y-146789938D01*
X112616245Y-146813748D01*
X112640054Y-146861367D01*
X112640054Y-146956605D01*
X112616245Y-147004224D01*
X112592435Y-147028033D01*
X112544816Y-147051843D01*
X112449578Y-147051843D01*
X112401959Y-147028033D01*
X112378150Y-147004224D01*
X112354340Y-146956605D01*
X112354340Y-146861367D01*
X112378150Y-146813748D01*
X112401959Y-146789938D01*
X112449578Y-146766129D01*
X85106293Y-146512405D02*
X85153912Y-146488595D01*
X85225340Y-146488595D01*
X85296769Y-146512405D01*
X85344388Y-146560024D01*
X85368197Y-146607643D01*
X85392007Y-146702881D01*
X85392007Y-146774309D01*
X85368197Y-146869547D01*
X85344388Y-146917166D01*
X85296769Y-146964785D01*
X85225340Y-146988595D01*
X85177721Y-146988595D01*
X85106293Y-146964785D01*
X85082483Y-146940976D01*
X85082483Y-146774309D01*
X85177721Y-146774309D01*
X84892007Y-146536214D02*
X84868197Y-146512405D01*
X84820578Y-146488595D01*
X84701531Y-146488595D01*
X84653912Y-146512405D01*
X84630102Y-146536214D01*
X84606293Y-146583833D01*
X84606293Y-146631452D01*
X84630102Y-146702881D01*
X84915816Y-146988595D01*
X84606293Y-146988595D01*
X84368197Y-146988595D02*
X84272959Y-146988595D01*
X84225340Y-146964785D01*
X84201531Y-146940976D01*
X84153912Y-146869547D01*
X84130102Y-146774309D01*
X84130102Y-146583833D01*
X84153912Y-146536214D01*
X84177721Y-146512405D01*
X84225340Y-146488595D01*
X84320578Y-146488595D01*
X84368197Y-146512405D01*
X84392007Y-146536214D01*
X84415816Y-146583833D01*
X84415816Y-146702881D01*
X84392007Y-146750500D01*
X84368197Y-146774309D01*
X84320578Y-146798119D01*
X84225340Y-146798119D01*
X84177721Y-146774309D01*
X84153912Y-146750500D01*
X84130102Y-146702881D01*
X101421916Y-150712298D02*
X101469535Y-150688488D01*
X101540963Y-150688488D01*
X101612392Y-150712298D01*
X101660011Y-150759917D01*
X101683820Y-150807536D01*
X101707630Y-150902774D01*
X101707630Y-150974202D01*
X101683820Y-151069440D01*
X101660011Y-151117059D01*
X101612392Y-151164678D01*
X101540963Y-151188488D01*
X101493344Y-151188488D01*
X101421916Y-151164678D01*
X101398106Y-151140869D01*
X101398106Y-150974202D01*
X101493344Y-150974202D01*
X101231439Y-150688488D02*
X100921916Y-150688488D01*
X101088582Y-150878964D01*
X101017154Y-150878964D01*
X100969535Y-150902774D01*
X100945725Y-150926583D01*
X100921916Y-150974202D01*
X100921916Y-151093250D01*
X100945725Y-151140869D01*
X100969535Y-151164678D01*
X101017154Y-151188488D01*
X101160011Y-151188488D01*
X101207630Y-151164678D01*
X101231439Y-151140869D01*
X100612392Y-150688488D02*
X100564773Y-150688488D01*
X100517154Y-150712298D01*
X100493344Y-150736107D01*
X100469535Y-150783726D01*
X100445725Y-150878964D01*
X100445725Y-150998012D01*
X100469535Y-151093250D01*
X100493344Y-151140869D01*
X100517154Y-151164678D01*
X100564773Y-151188488D01*
X100612392Y-151188488D01*
X100660011Y-151164678D01*
X100683820Y-151140869D01*
X100707630Y-151093250D01*
X100731439Y-150998012D01*
X100731439Y-150878964D01*
X100707630Y-150783726D01*
X100683820Y-150736107D01*
X100660011Y-150712298D01*
X100612392Y-150688488D01*
X91140990Y-150404480D02*
X91188609Y-150380670D01*
X91260037Y-150380670D01*
X91331466Y-150404480D01*
X91379085Y-150452099D01*
X91402894Y-150499718D01*
X91426704Y-150594956D01*
X91426704Y-150666384D01*
X91402894Y-150761622D01*
X91379085Y-150809241D01*
X91331466Y-150856860D01*
X91260037Y-150880670D01*
X91212418Y-150880670D01*
X91140990Y-150856860D01*
X91117180Y-150833051D01*
X91117180Y-150666384D01*
X91212418Y-150666384D01*
X90950513Y-150380670D02*
X90640990Y-150380670D01*
X90807656Y-150571146D01*
X90736228Y-150571146D01*
X90688609Y-150594956D01*
X90664799Y-150618765D01*
X90640990Y-150666384D01*
X90640990Y-150785432D01*
X90664799Y-150833051D01*
X90688609Y-150856860D01*
X90736228Y-150880670D01*
X90879085Y-150880670D01*
X90926704Y-150856860D01*
X90950513Y-150833051D01*
X90164799Y-150880670D02*
X90450513Y-150880670D01*
X90307656Y-150880670D02*
X90307656Y-150380670D01*
X90355275Y-150452099D01*
X90402894Y-150499718D01*
X90450513Y-150523527D01*
X47785876Y-80331328D02*
X47833495Y-80307518D01*
X47904923Y-80307518D01*
X47976352Y-80331328D01*
X48023971Y-80378947D01*
X48047780Y-80426566D01*
X48071590Y-80521804D01*
X48071590Y-80593232D01*
X48047780Y-80688470D01*
X48023971Y-80736089D01*
X47976352Y-80783708D01*
X47904923Y-80807518D01*
X47857304Y-80807518D01*
X47785876Y-80783708D01*
X47762066Y-80759899D01*
X47762066Y-80593232D01*
X47857304Y-80593232D01*
X47595399Y-80307518D02*
X47285876Y-80307518D01*
X47452542Y-80497994D01*
X47381114Y-80497994D01*
X47333495Y-80521804D01*
X47309685Y-80545613D01*
X47285876Y-80593232D01*
X47285876Y-80712280D01*
X47309685Y-80759899D01*
X47333495Y-80783708D01*
X47381114Y-80807518D01*
X47523971Y-80807518D01*
X47571590Y-80783708D01*
X47595399Y-80759899D01*
X47119209Y-80307518D02*
X46809685Y-80307518D01*
X46976352Y-80497994D01*
X46904923Y-80497994D01*
X46857304Y-80521804D01*
X46833495Y-80545613D01*
X46809685Y-80593232D01*
X46809685Y-80712280D01*
X46833495Y-80759899D01*
X46857304Y-80783708D01*
X46904923Y-80807518D01*
X47047780Y-80807518D01*
X47095399Y-80783708D01*
X47119209Y-80759899D01*
X157955715Y-108298062D02*
X158003334Y-108274252D01*
X158074762Y-108274252D01*
X158146191Y-108298062D01*
X158193810Y-108345681D01*
X158217619Y-108393300D01*
X158241429Y-108488538D01*
X158241429Y-108559966D01*
X158217619Y-108655204D01*
X158193810Y-108702823D01*
X158146191Y-108750442D01*
X158074762Y-108774252D01*
X158027143Y-108774252D01*
X157955715Y-108750442D01*
X157931905Y-108726633D01*
X157931905Y-108559966D01*
X158027143Y-108559966D01*
X157765238Y-108274252D02*
X157455715Y-108274252D01*
X157622381Y-108464728D01*
X157550953Y-108464728D01*
X157503334Y-108488538D01*
X157479524Y-108512347D01*
X157455715Y-108559966D01*
X157455715Y-108679014D01*
X157479524Y-108726633D01*
X157503334Y-108750442D01*
X157550953Y-108774252D01*
X157693810Y-108774252D01*
X157741429Y-108750442D01*
X157765238Y-108726633D01*
X157027143Y-108440919D02*
X157027143Y-108774252D01*
X157146191Y-108250442D02*
X157265238Y-108607585D01*
X156955715Y-108607585D01*
X43865238Y-104340000D02*
X43912857Y-104316190D01*
X43984285Y-104316190D01*
X44055714Y-104340000D01*
X44103333Y-104387619D01*
X44127142Y-104435238D01*
X44150952Y-104530476D01*
X44150952Y-104601904D01*
X44127142Y-104697142D01*
X44103333Y-104744761D01*
X44055714Y-104792380D01*
X43984285Y-104816190D01*
X43936666Y-104816190D01*
X43865238Y-104792380D01*
X43841428Y-104768571D01*
X43841428Y-104601904D01*
X43936666Y-104601904D01*
X43674761Y-104316190D02*
X43365238Y-104316190D01*
X43531904Y-104506666D01*
X43460476Y-104506666D01*
X43412857Y-104530476D01*
X43389047Y-104554285D01*
X43365238Y-104601904D01*
X43365238Y-104720952D01*
X43389047Y-104768571D01*
X43412857Y-104792380D01*
X43460476Y-104816190D01*
X43603333Y-104816190D01*
X43650952Y-104792380D01*
X43674761Y-104768571D01*
X42912857Y-104316190D02*
X43150952Y-104316190D01*
X43174761Y-104554285D01*
X43150952Y-104530476D01*
X43103333Y-104506666D01*
X42984285Y-104506666D01*
X42936666Y-104530476D01*
X42912857Y-104554285D01*
X42889047Y-104601904D01*
X42889047Y-104720952D01*
X42912857Y-104768571D01*
X42936666Y-104792380D01*
X42984285Y-104816190D01*
X43103333Y-104816190D01*
X43150952Y-104792380D01*
X43174761Y-104768571D01*
X106667512Y-40355966D02*
X106715131Y-40332156D01*
X106786559Y-40332156D01*
X106857988Y-40355966D01*
X106905607Y-40403585D01*
X106929416Y-40451204D01*
X106953226Y-40546442D01*
X106953226Y-40617870D01*
X106929416Y-40713108D01*
X106905607Y-40760727D01*
X106857988Y-40808346D01*
X106786559Y-40832156D01*
X106738940Y-40832156D01*
X106667512Y-40808346D01*
X106643702Y-40784537D01*
X106643702Y-40617870D01*
X106738940Y-40617870D01*
X106477035Y-40332156D02*
X106167512Y-40332156D01*
X106334178Y-40522632D01*
X106262750Y-40522632D01*
X106215131Y-40546442D01*
X106191321Y-40570251D01*
X106167512Y-40617870D01*
X106167512Y-40736918D01*
X106191321Y-40784537D01*
X106215131Y-40808346D01*
X106262750Y-40832156D01*
X106405607Y-40832156D01*
X106453226Y-40808346D01*
X106477035Y-40784537D01*
X105738940Y-40332156D02*
X105834178Y-40332156D01*
X105881797Y-40355966D01*
X105905607Y-40379775D01*
X105953226Y-40451204D01*
X105977035Y-40546442D01*
X105977035Y-40736918D01*
X105953226Y-40784537D01*
X105929416Y-40808346D01*
X105881797Y-40832156D01*
X105786559Y-40832156D01*
X105738940Y-40808346D01*
X105715131Y-40784537D01*
X105691321Y-40736918D01*
X105691321Y-40617870D01*
X105715131Y-40570251D01*
X105738940Y-40546442D01*
X105786559Y-40522632D01*
X105881797Y-40522632D01*
X105929416Y-40546442D01*
X105953226Y-40570251D01*
X105977035Y-40617870D01*
X101765238Y-39620000D02*
X101812857Y-39596190D01*
X101884285Y-39596190D01*
X101955714Y-39620000D01*
X102003333Y-39667619D01*
X102027142Y-39715238D01*
X102050952Y-39810476D01*
X102050952Y-39881904D01*
X102027142Y-39977142D01*
X102003333Y-40024761D01*
X101955714Y-40072380D01*
X101884285Y-40096190D01*
X101836666Y-40096190D01*
X101765238Y-40072380D01*
X101741428Y-40048571D01*
X101741428Y-39881904D01*
X101836666Y-39881904D01*
X101574761Y-39596190D02*
X101265238Y-39596190D01*
X101431904Y-39786666D01*
X101360476Y-39786666D01*
X101312857Y-39810476D01*
X101289047Y-39834285D01*
X101265238Y-39881904D01*
X101265238Y-40000952D01*
X101289047Y-40048571D01*
X101312857Y-40072380D01*
X101360476Y-40096190D01*
X101503333Y-40096190D01*
X101550952Y-40072380D01*
X101574761Y-40048571D01*
X101098571Y-39596190D02*
X100765238Y-39596190D01*
X100979523Y-40096190D01*
X158054090Y-112139468D02*
X158101709Y-112115658D01*
X158173137Y-112115658D01*
X158244566Y-112139468D01*
X158292185Y-112187087D01*
X158315994Y-112234706D01*
X158339804Y-112329944D01*
X158339804Y-112401372D01*
X158315994Y-112496610D01*
X158292185Y-112544229D01*
X158244566Y-112591848D01*
X158173137Y-112615658D01*
X158125518Y-112615658D01*
X158054090Y-112591848D01*
X158030280Y-112568039D01*
X158030280Y-112401372D01*
X158125518Y-112401372D01*
X157863613Y-112115658D02*
X157554090Y-112115658D01*
X157720756Y-112306134D01*
X157649328Y-112306134D01*
X157601709Y-112329944D01*
X157577899Y-112353753D01*
X157554090Y-112401372D01*
X157554090Y-112520420D01*
X157577899Y-112568039D01*
X157601709Y-112591848D01*
X157649328Y-112615658D01*
X157792185Y-112615658D01*
X157839804Y-112591848D01*
X157863613Y-112568039D01*
X157268375Y-112329944D02*
X157315994Y-112306134D01*
X157339804Y-112282325D01*
X157363613Y-112234706D01*
X157363613Y-112210896D01*
X157339804Y-112163277D01*
X157315994Y-112139468D01*
X157268375Y-112115658D01*
X157173137Y-112115658D01*
X157125518Y-112139468D01*
X157101709Y-112163277D01*
X157077899Y-112210896D01*
X157077899Y-112234706D01*
X157101709Y-112282325D01*
X157125518Y-112306134D01*
X157173137Y-112329944D01*
X157268375Y-112329944D01*
X157315994Y-112353753D01*
X157339804Y-112377563D01*
X157363613Y-112425182D01*
X157363613Y-112520420D01*
X157339804Y-112568039D01*
X157315994Y-112591848D01*
X157268375Y-112615658D01*
X157173137Y-112615658D01*
X157125518Y-112591848D01*
X157101709Y-112568039D01*
X157077899Y-112520420D01*
X157077899Y-112425182D01*
X157101709Y-112377563D01*
X157125518Y-112353753D01*
X157173137Y-112329944D01*
X41097289Y-94663347D02*
X41144908Y-94639537D01*
X41216336Y-94639537D01*
X41287765Y-94663347D01*
X41335384Y-94710966D01*
X41359193Y-94758585D01*
X41383003Y-94853823D01*
X41383003Y-94925251D01*
X41359193Y-95020489D01*
X41335384Y-95068108D01*
X41287765Y-95115727D01*
X41216336Y-95139537D01*
X41168717Y-95139537D01*
X41097289Y-95115727D01*
X41073479Y-95091918D01*
X41073479Y-94925251D01*
X41168717Y-94925251D01*
X40906812Y-94639537D02*
X40597289Y-94639537D01*
X40763955Y-94830013D01*
X40692527Y-94830013D01*
X40644908Y-94853823D01*
X40621098Y-94877632D01*
X40597289Y-94925251D01*
X40597289Y-95044299D01*
X40621098Y-95091918D01*
X40644908Y-95115727D01*
X40692527Y-95139537D01*
X40835384Y-95139537D01*
X40883003Y-95115727D01*
X40906812Y-95091918D01*
X40359193Y-95139537D02*
X40263955Y-95139537D01*
X40216336Y-95115727D01*
X40192527Y-95091918D01*
X40144908Y-95020489D01*
X40121098Y-94925251D01*
X40121098Y-94734775D01*
X40144908Y-94687156D01*
X40168717Y-94663347D01*
X40216336Y-94639537D01*
X40311574Y-94639537D01*
X40359193Y-94663347D01*
X40383003Y-94687156D01*
X40406812Y-94734775D01*
X40406812Y-94853823D01*
X40383003Y-94901442D01*
X40359193Y-94925251D01*
X40311574Y-94949061D01*
X40216336Y-94949061D01*
X40168717Y-94925251D01*
X40144908Y-94901442D01*
X40121098Y-94853823D01*
X113005715Y-40248062D02*
X113053334Y-40224252D01*
X113124762Y-40224252D01*
X113196191Y-40248062D01*
X113243810Y-40295681D01*
X113267619Y-40343300D01*
X113291429Y-40438538D01*
X113291429Y-40509966D01*
X113267619Y-40605204D01*
X113243810Y-40652823D01*
X113196191Y-40700442D01*
X113124762Y-40724252D01*
X113077143Y-40724252D01*
X113005715Y-40700442D01*
X112981905Y-40676633D01*
X112981905Y-40509966D01*
X113077143Y-40509966D01*
X112553334Y-40390919D02*
X112553334Y-40724252D01*
X112672381Y-40200442D02*
X112791429Y-40557585D01*
X112481905Y-40557585D01*
X112196191Y-40224252D02*
X112148572Y-40224252D01*
X112100953Y-40248062D01*
X112077143Y-40271871D01*
X112053334Y-40319490D01*
X112029524Y-40414728D01*
X112029524Y-40533776D01*
X112053334Y-40629014D01*
X112077143Y-40676633D01*
X112100953Y-40700442D01*
X112148572Y-40724252D01*
X112196191Y-40724252D01*
X112243810Y-40700442D01*
X112267619Y-40676633D01*
X112291429Y-40629014D01*
X112315238Y-40533776D01*
X112315238Y-40414728D01*
X112291429Y-40319490D01*
X112267619Y-40271871D01*
X112243810Y-40248062D01*
X112196191Y-40224252D01*
X96015238Y-159960000D02*
X96062857Y-159936190D01*
X96134285Y-159936190D01*
X96205714Y-159960000D01*
X96253333Y-160007619D01*
X96277142Y-160055238D01*
X96300952Y-160150476D01*
X96300952Y-160221904D01*
X96277142Y-160317142D01*
X96253333Y-160364761D01*
X96205714Y-160412380D01*
X96134285Y-160436190D01*
X96086666Y-160436190D01*
X96015238Y-160412380D01*
X95991428Y-160388571D01*
X95991428Y-160221904D01*
X96086666Y-160221904D01*
X95562857Y-160102857D02*
X95562857Y-160436190D01*
X95681904Y-159912380D02*
X95800952Y-160269523D01*
X95491428Y-160269523D01*
X95324761Y-159983809D02*
X95300952Y-159960000D01*
X95253333Y-159936190D01*
X95134285Y-159936190D01*
X95086666Y-159960000D01*
X95062857Y-159983809D01*
X95039047Y-160031428D01*
X95039047Y-160079047D01*
X95062857Y-160150476D01*
X95348571Y-160436190D01*
X95039047Y-160436190D01*
X106605715Y-36148062D02*
X106653334Y-36124252D01*
X106724762Y-36124252D01*
X106796191Y-36148062D01*
X106843810Y-36195681D01*
X106867619Y-36243300D01*
X106891429Y-36338538D01*
X106891429Y-36409966D01*
X106867619Y-36505204D01*
X106843810Y-36552823D01*
X106796191Y-36600442D01*
X106724762Y-36624252D01*
X106677143Y-36624252D01*
X106605715Y-36600442D01*
X106581905Y-36576633D01*
X106581905Y-36409966D01*
X106677143Y-36409966D01*
X106153334Y-36290919D02*
X106153334Y-36624252D01*
X106272381Y-36100442D02*
X106391429Y-36457585D01*
X106081905Y-36457585D01*
X105939048Y-36124252D02*
X105629524Y-36124252D01*
X105796191Y-36314728D01*
X105724762Y-36314728D01*
X105677143Y-36338538D01*
X105653334Y-36362347D01*
X105629524Y-36409966D01*
X105629524Y-36529014D01*
X105653334Y-36576633D01*
X105677143Y-36600442D01*
X105724762Y-36624252D01*
X105867619Y-36624252D01*
X105915238Y-36600442D01*
X105939048Y-36576633D01*
X36615238Y-93570000D02*
X36662857Y-93546190D01*
X36734285Y-93546190D01*
X36805714Y-93570000D01*
X36853333Y-93617619D01*
X36877142Y-93665238D01*
X36900952Y-93760476D01*
X36900952Y-93831904D01*
X36877142Y-93927142D01*
X36853333Y-93974761D01*
X36805714Y-94022380D01*
X36734285Y-94046190D01*
X36686666Y-94046190D01*
X36615238Y-94022380D01*
X36591428Y-93998571D01*
X36591428Y-93831904D01*
X36686666Y-93831904D01*
X36162857Y-93712857D02*
X36162857Y-94046190D01*
X36281904Y-93522380D02*
X36400952Y-93879523D01*
X36091428Y-93879523D01*
X35686666Y-93712857D02*
X35686666Y-94046190D01*
X35805714Y-93522380D02*
X35924761Y-93879523D01*
X35615238Y-93879523D01*
X93400150Y-163067920D02*
X93447769Y-163044110D01*
X93519197Y-163044110D01*
X93590626Y-163067920D01*
X93638245Y-163115539D01*
X93662054Y-163163158D01*
X93685864Y-163258396D01*
X93685864Y-163329824D01*
X93662054Y-163425062D01*
X93638245Y-163472681D01*
X93590626Y-163520300D01*
X93519197Y-163544110D01*
X93471578Y-163544110D01*
X93400150Y-163520300D01*
X93376340Y-163496491D01*
X93376340Y-163329824D01*
X93471578Y-163329824D01*
X92947769Y-163210777D02*
X92947769Y-163544110D01*
X93066816Y-163020300D02*
X93185864Y-163377443D01*
X92876340Y-163377443D01*
X92447769Y-163044110D02*
X92685864Y-163044110D01*
X92709673Y-163282205D01*
X92685864Y-163258396D01*
X92638245Y-163234586D01*
X92519197Y-163234586D01*
X92471578Y-163258396D01*
X92447769Y-163282205D01*
X92423959Y-163329824D01*
X92423959Y-163448872D01*
X92447769Y-163496491D01*
X92471578Y-163520300D01*
X92519197Y-163544110D01*
X92638245Y-163544110D01*
X92685864Y-163520300D01*
X92709673Y-163496491D01*
X166225238Y-105120000D02*
X166272857Y-105096190D01*
X166344285Y-105096190D01*
X166415714Y-105120000D01*
X166463333Y-105167619D01*
X166487142Y-105215238D01*
X166510952Y-105310476D01*
X166510952Y-105381904D01*
X166487142Y-105477142D01*
X166463333Y-105524761D01*
X166415714Y-105572380D01*
X166344285Y-105596190D01*
X166296666Y-105596190D01*
X166225238Y-105572380D01*
X166201428Y-105548571D01*
X166201428Y-105381904D01*
X166296666Y-105381904D01*
X165772857Y-105262857D02*
X165772857Y-105596190D01*
X165891904Y-105072380D02*
X166010952Y-105429523D01*
X165701428Y-105429523D01*
X165296666Y-105096190D02*
X165391904Y-105096190D01*
X165439523Y-105120000D01*
X165463333Y-105143809D01*
X165510952Y-105215238D01*
X165534761Y-105310476D01*
X165534761Y-105500952D01*
X165510952Y-105548571D01*
X165487142Y-105572380D01*
X165439523Y-105596190D01*
X165344285Y-105596190D01*
X165296666Y-105572380D01*
X165272857Y-105548571D01*
X165249047Y-105500952D01*
X165249047Y-105381904D01*
X165272857Y-105334285D01*
X165296666Y-105310476D01*
X165344285Y-105286666D01*
X165439523Y-105286666D01*
X165487142Y-105310476D01*
X165510952Y-105334285D01*
X165534761Y-105381904D01*
X96911003Y-95413594D02*
X96839574Y-95437404D01*
X96720527Y-95437404D01*
X96672908Y-95413594D01*
X96649098Y-95389785D01*
X96625289Y-95342166D01*
X96625289Y-95294547D01*
X96649098Y-95246928D01*
X96672908Y-95223118D01*
X96720527Y-95199309D01*
X96815765Y-95175499D01*
X96863384Y-95151690D01*
X96887193Y-95127880D01*
X96911003Y-95080261D01*
X96911003Y-95032642D01*
X96887193Y-94985023D01*
X96863384Y-94961214D01*
X96815765Y-94937404D01*
X96696717Y-94937404D01*
X96625289Y-94961214D01*
X96149098Y-95437404D02*
X96434812Y-95437404D01*
X96291955Y-95437404D02*
X96291955Y-94937404D01*
X96339574Y-95008833D01*
X96387193Y-95056452D01*
X96434812Y-95080261D01*
X100926876Y-104728018D02*
X100855447Y-104751828D01*
X100736400Y-104751828D01*
X100688781Y-104728018D01*
X100664971Y-104704209D01*
X100641162Y-104656590D01*
X100641162Y-104608971D01*
X100664971Y-104561352D01*
X100688781Y-104537542D01*
X100736400Y-104513733D01*
X100831638Y-104489923D01*
X100879257Y-104466114D01*
X100903066Y-104442304D01*
X100926876Y-104394685D01*
X100926876Y-104347066D01*
X100903066Y-104299447D01*
X100879257Y-104275638D01*
X100831638Y-104251828D01*
X100712590Y-104251828D01*
X100641162Y-104275638D01*
X100450685Y-104299447D02*
X100426876Y-104275638D01*
X100379257Y-104251828D01*
X100260209Y-104251828D01*
X100212590Y-104275638D01*
X100188781Y-104299447D01*
X100164971Y-104347066D01*
X100164971Y-104394685D01*
X100188781Y-104466114D01*
X100474495Y-104751828D01*
X100164971Y-104751828D01*
X104801779Y-92854079D02*
X104730350Y-92877889D01*
X104611303Y-92877889D01*
X104563684Y-92854079D01*
X104539874Y-92830270D01*
X104516065Y-92782651D01*
X104516065Y-92735032D01*
X104539874Y-92687413D01*
X104563684Y-92663603D01*
X104611303Y-92639794D01*
X104706541Y-92615984D01*
X104754160Y-92592175D01*
X104777969Y-92568365D01*
X104801779Y-92520746D01*
X104801779Y-92473127D01*
X104777969Y-92425508D01*
X104754160Y-92401699D01*
X104706541Y-92377889D01*
X104587493Y-92377889D01*
X104516065Y-92401699D01*
X104349398Y-92377889D02*
X104039874Y-92377889D01*
X104206541Y-92568365D01*
X104135112Y-92568365D01*
X104087493Y-92592175D01*
X104063684Y-92615984D01*
X104039874Y-92663603D01*
X104039874Y-92782651D01*
X104063684Y-92830270D01*
X104087493Y-92854079D01*
X104135112Y-92877889D01*
X104277969Y-92877889D01*
X104325588Y-92854079D01*
X104349398Y-92830270D01*
X92345072Y-100021085D02*
X92273643Y-100044895D01*
X92154596Y-100044895D01*
X92106977Y-100021085D01*
X92083167Y-99997276D01*
X92059358Y-99949657D01*
X92059358Y-99902038D01*
X92083167Y-99854419D01*
X92106977Y-99830609D01*
X92154596Y-99806800D01*
X92249834Y-99782990D01*
X92297453Y-99759181D01*
X92321262Y-99735371D01*
X92345072Y-99687752D01*
X92345072Y-99640133D01*
X92321262Y-99592514D01*
X92297453Y-99568705D01*
X92249834Y-99544895D01*
X92130786Y-99544895D01*
X92059358Y-99568705D01*
X91630786Y-99711562D02*
X91630786Y-100044895D01*
X91749834Y-99521085D02*
X91868881Y-99878228D01*
X91559358Y-99878228D01*
X107968347Y-103429715D02*
X107896918Y-103453525D01*
X107777871Y-103453525D01*
X107730252Y-103429715D01*
X107706442Y-103405906D01*
X107682633Y-103358287D01*
X107682633Y-103310668D01*
X107706442Y-103263049D01*
X107730252Y-103239239D01*
X107777871Y-103215430D01*
X107873109Y-103191620D01*
X107920728Y-103167811D01*
X107944537Y-103144001D01*
X107968347Y-103096382D01*
X107968347Y-103048763D01*
X107944537Y-103001144D01*
X107920728Y-102977335D01*
X107873109Y-102953525D01*
X107754061Y-102953525D01*
X107682633Y-102977335D01*
X107230252Y-102953525D02*
X107468347Y-102953525D01*
X107492156Y-103191620D01*
X107468347Y-103167811D01*
X107420728Y-103144001D01*
X107301680Y-103144001D01*
X107254061Y-103167811D01*
X107230252Y-103191620D01*
X107206442Y-103239239D01*
X107206442Y-103358287D01*
X107230252Y-103405906D01*
X107254061Y-103429715D01*
X107301680Y-103453525D01*
X107420728Y-103453525D01*
X107468347Y-103429715D01*
X107492156Y-103405906D01*
X95589761Y-107825378D02*
X95518332Y-107849188D01*
X95399285Y-107849188D01*
X95351666Y-107825378D01*
X95327856Y-107801569D01*
X95304047Y-107753950D01*
X95304047Y-107706331D01*
X95327856Y-107658712D01*
X95351666Y-107634902D01*
X95399285Y-107611093D01*
X95494523Y-107587283D01*
X95542142Y-107563474D01*
X95565951Y-107539664D01*
X95589761Y-107492045D01*
X95589761Y-107444426D01*
X95565951Y-107396807D01*
X95542142Y-107372998D01*
X95494523Y-107349188D01*
X95375475Y-107349188D01*
X95304047Y-107372998D01*
X95137380Y-107349188D02*
X94804047Y-107349188D01*
X95018332Y-107849188D01*
X110753952Y-94830559D02*
X110682523Y-94854369D01*
X110563476Y-94854369D01*
X110515857Y-94830559D01*
X110492047Y-94806750D01*
X110468238Y-94759131D01*
X110468238Y-94711512D01*
X110492047Y-94663893D01*
X110515857Y-94640083D01*
X110563476Y-94616274D01*
X110658714Y-94592464D01*
X110706333Y-94568655D01*
X110730142Y-94544845D01*
X110753952Y-94497226D01*
X110753952Y-94449607D01*
X110730142Y-94401988D01*
X110706333Y-94378179D01*
X110658714Y-94354369D01*
X110539666Y-94354369D01*
X110468238Y-94378179D01*
X110182523Y-94568655D02*
X110230142Y-94544845D01*
X110253952Y-94521036D01*
X110277761Y-94473417D01*
X110277761Y-94449607D01*
X110253952Y-94401988D01*
X110230142Y-94378179D01*
X110182523Y-94354369D01*
X110087285Y-94354369D01*
X110039666Y-94378179D01*
X110015857Y-94401988D01*
X109992047Y-94449607D01*
X109992047Y-94473417D01*
X110015857Y-94521036D01*
X110039666Y-94544845D01*
X110087285Y-94568655D01*
X110182523Y-94568655D01*
X110230142Y-94592464D01*
X110253952Y-94616274D01*
X110277761Y-94663893D01*
X110277761Y-94759131D01*
X110253952Y-94806750D01*
X110230142Y-94830559D01*
X110182523Y-94854369D01*
X110087285Y-94854369D01*
X110039666Y-94830559D01*
X110015857Y-94806750D01*
X109992047Y-94759131D01*
X109992047Y-94663893D01*
X110015857Y-94616274D01*
X110039666Y-94592464D01*
X110087285Y-94568655D01*
X95110729Y-58493987D02*
X95039300Y-58517797D01*
X94920253Y-58517797D01*
X94872634Y-58493987D01*
X94848824Y-58470178D01*
X94825015Y-58422559D01*
X94825015Y-58374940D01*
X94848824Y-58327321D01*
X94872634Y-58303511D01*
X94920253Y-58279702D01*
X95015491Y-58255892D01*
X95063110Y-58232083D01*
X95086919Y-58208273D01*
X95110729Y-58160654D01*
X95110729Y-58113035D01*
X95086919Y-58065416D01*
X95063110Y-58041607D01*
X95015491Y-58017797D01*
X94896443Y-58017797D01*
X94825015Y-58041607D01*
X94586919Y-58517797D02*
X94491681Y-58517797D01*
X94444062Y-58493987D01*
X94420253Y-58470178D01*
X94372634Y-58398749D01*
X94348824Y-58303511D01*
X94348824Y-58113035D01*
X94372634Y-58065416D01*
X94396443Y-58041607D01*
X94444062Y-58017797D01*
X94539300Y-58017797D01*
X94586919Y-58041607D01*
X94610729Y-58065416D01*
X94634538Y-58113035D01*
X94634538Y-58232083D01*
X94610729Y-58279702D01*
X94586919Y-58303511D01*
X94539300Y-58327321D01*
X94444062Y-58327321D01*
X94396443Y-58303511D01*
X94372634Y-58279702D01*
X94348824Y-58232083D01*
X79279524Y-133500442D02*
X79208096Y-133524252D01*
X79089048Y-133524252D01*
X79041429Y-133500442D01*
X79017619Y-133476633D01*
X78993810Y-133429014D01*
X78993810Y-133381395D01*
X79017619Y-133333776D01*
X79041429Y-133309966D01*
X79089048Y-133286157D01*
X79184286Y-133262347D01*
X79231905Y-133238538D01*
X79255715Y-133214728D01*
X79279524Y-133167109D01*
X79279524Y-133119490D01*
X79255715Y-133071871D01*
X79231905Y-133048062D01*
X79184286Y-133024252D01*
X79065238Y-133024252D01*
X78993810Y-133048062D01*
X78517619Y-133524252D02*
X78803334Y-133524252D01*
X78660477Y-133524252D02*
X78660477Y-133024252D01*
X78708096Y-133095681D01*
X78755715Y-133143300D01*
X78803334Y-133167109D01*
X78208096Y-133024252D02*
X78160477Y-133024252D01*
X78112857Y-133048062D01*
X78089048Y-133071871D01*
X78065238Y-133119490D01*
X78041429Y-133214728D01*
X78041429Y-133333776D01*
X78065238Y-133429014D01*
X78089048Y-133476633D01*
X78112857Y-133500442D01*
X78160477Y-133524252D01*
X78208096Y-133524252D01*
X78255715Y-133500442D01*
X78279524Y-133476633D01*
X78303334Y-133429014D01*
X78327143Y-133333776D01*
X78327143Y-133214728D01*
X78303334Y-133119490D01*
X78279524Y-133071871D01*
X78255715Y-133048062D01*
X78208096Y-133024252D01*
X140420029Y-89781084D02*
X140348601Y-89804894D01*
X140229553Y-89804894D01*
X140181934Y-89781084D01*
X140158124Y-89757275D01*
X140134315Y-89709656D01*
X140134315Y-89662037D01*
X140158124Y-89614418D01*
X140181934Y-89590608D01*
X140229553Y-89566799D01*
X140324791Y-89542989D01*
X140372410Y-89519180D01*
X140396220Y-89495370D01*
X140420029Y-89447751D01*
X140420029Y-89400132D01*
X140396220Y-89352513D01*
X140372410Y-89328704D01*
X140324791Y-89304894D01*
X140205743Y-89304894D01*
X140134315Y-89328704D01*
X139658124Y-89804894D02*
X139943839Y-89804894D01*
X139800982Y-89804894D02*
X139800982Y-89304894D01*
X139848601Y-89376323D01*
X139896220Y-89423942D01*
X139943839Y-89447751D01*
X139181934Y-89804894D02*
X139467648Y-89804894D01*
X139324791Y-89804894D02*
X139324791Y-89304894D01*
X139372410Y-89376323D01*
X139420029Y-89423942D01*
X139467648Y-89447751D01*
X65202203Y-78148508D02*
X65130775Y-78172318D01*
X65011727Y-78172318D01*
X64964108Y-78148508D01*
X64940298Y-78124699D01*
X64916489Y-78077080D01*
X64916489Y-78029461D01*
X64940298Y-77981842D01*
X64964108Y-77958032D01*
X65011727Y-77934223D01*
X65106965Y-77910413D01*
X65154584Y-77886604D01*
X65178394Y-77862794D01*
X65202203Y-77815175D01*
X65202203Y-77767556D01*
X65178394Y-77719937D01*
X65154584Y-77696128D01*
X65106965Y-77672318D01*
X64987917Y-77672318D01*
X64916489Y-77696128D01*
X64440298Y-78172318D02*
X64726013Y-78172318D01*
X64583156Y-78172318D02*
X64583156Y-77672318D01*
X64630775Y-77743747D01*
X64678394Y-77791366D01*
X64726013Y-77815175D01*
X64249822Y-77719937D02*
X64226013Y-77696128D01*
X64178394Y-77672318D01*
X64059346Y-77672318D01*
X64011727Y-77696128D01*
X63987917Y-77719937D01*
X63964108Y-77767556D01*
X63964108Y-77815175D01*
X63987917Y-77886604D01*
X64273632Y-78172318D01*
X63964108Y-78172318D01*
X112975082Y-137759508D02*
X112903654Y-137783318D01*
X112784606Y-137783318D01*
X112736987Y-137759508D01*
X112713177Y-137735699D01*
X112689368Y-137688080D01*
X112689368Y-137640461D01*
X112713177Y-137592842D01*
X112736987Y-137569032D01*
X112784606Y-137545223D01*
X112879844Y-137521413D01*
X112927463Y-137497604D01*
X112951273Y-137473794D01*
X112975082Y-137426175D01*
X112975082Y-137378556D01*
X112951273Y-137330937D01*
X112927463Y-137307128D01*
X112879844Y-137283318D01*
X112760796Y-137283318D01*
X112689368Y-137307128D01*
X112213177Y-137783318D02*
X112498892Y-137783318D01*
X112356035Y-137783318D02*
X112356035Y-137283318D01*
X112403654Y-137354747D01*
X112451273Y-137402366D01*
X112498892Y-137426175D01*
X112046511Y-137283318D02*
X111736987Y-137283318D01*
X111903654Y-137473794D01*
X111832225Y-137473794D01*
X111784606Y-137497604D01*
X111760796Y-137521413D01*
X111736987Y-137569032D01*
X111736987Y-137688080D01*
X111760796Y-137735699D01*
X111784606Y-137759508D01*
X111832225Y-137783318D01*
X111975082Y-137783318D01*
X112022701Y-137759508D01*
X112046511Y-137735699D01*
X155293115Y-92545434D02*
X155221687Y-92569244D01*
X155102639Y-92569244D01*
X155055020Y-92545434D01*
X155031210Y-92521625D01*
X155007401Y-92474006D01*
X155007401Y-92426387D01*
X155031210Y-92378768D01*
X155055020Y-92354958D01*
X155102639Y-92331149D01*
X155197877Y-92307339D01*
X155245496Y-92283530D01*
X155269306Y-92259720D01*
X155293115Y-92212101D01*
X155293115Y-92164482D01*
X155269306Y-92116863D01*
X155245496Y-92093054D01*
X155197877Y-92069244D01*
X155078829Y-92069244D01*
X155007401Y-92093054D01*
X154531210Y-92569244D02*
X154816925Y-92569244D01*
X154674068Y-92569244D02*
X154674068Y-92069244D01*
X154721687Y-92140673D01*
X154769306Y-92188292D01*
X154816925Y-92212101D01*
X154102639Y-92235911D02*
X154102639Y-92569244D01*
X154221687Y-92045434D02*
X154340734Y-92402577D01*
X154031210Y-92402577D01*
X62421600Y-114428254D02*
X62350172Y-114452064D01*
X62231124Y-114452064D01*
X62183505Y-114428254D01*
X62159695Y-114404445D01*
X62135886Y-114356826D01*
X62135886Y-114309207D01*
X62159695Y-114261588D01*
X62183505Y-114237778D01*
X62231124Y-114213969D01*
X62326362Y-114190159D01*
X62373981Y-114166350D01*
X62397791Y-114142540D01*
X62421600Y-114094921D01*
X62421600Y-114047302D01*
X62397791Y-113999683D01*
X62373981Y-113975874D01*
X62326362Y-113952064D01*
X62207314Y-113952064D01*
X62135886Y-113975874D01*
X61659695Y-114452064D02*
X61945410Y-114452064D01*
X61802553Y-114452064D02*
X61802553Y-113952064D01*
X61850172Y-114023493D01*
X61897791Y-114071112D01*
X61945410Y-114094921D01*
X61207314Y-113952064D02*
X61445410Y-113952064D01*
X61469219Y-114190159D01*
X61445410Y-114166350D01*
X61397791Y-114142540D01*
X61278743Y-114142540D01*
X61231124Y-114166350D01*
X61207314Y-114190159D01*
X61183505Y-114237778D01*
X61183505Y-114356826D01*
X61207314Y-114404445D01*
X61231124Y-114428254D01*
X61278743Y-114452064D01*
X61397791Y-114452064D01*
X61445410Y-114428254D01*
X61469219Y-114404445D01*
X139629590Y-112797584D02*
X139558162Y-112821394D01*
X139439114Y-112821394D01*
X139391495Y-112797584D01*
X139367685Y-112773775D01*
X139343876Y-112726156D01*
X139343876Y-112678537D01*
X139367685Y-112630918D01*
X139391495Y-112607108D01*
X139439114Y-112583299D01*
X139534352Y-112559489D01*
X139581971Y-112535680D01*
X139605781Y-112511870D01*
X139629590Y-112464251D01*
X139629590Y-112416632D01*
X139605781Y-112369013D01*
X139581971Y-112345204D01*
X139534352Y-112321394D01*
X139415304Y-112321394D01*
X139343876Y-112345204D01*
X138867685Y-112821394D02*
X139153400Y-112821394D01*
X139010543Y-112821394D02*
X139010543Y-112321394D01*
X139058162Y-112392823D01*
X139105781Y-112440442D01*
X139153400Y-112464251D01*
X138439114Y-112321394D02*
X138534352Y-112321394D01*
X138581971Y-112345204D01*
X138605781Y-112369013D01*
X138653400Y-112440442D01*
X138677209Y-112535680D01*
X138677209Y-112726156D01*
X138653400Y-112773775D01*
X138629590Y-112797584D01*
X138581971Y-112821394D01*
X138486733Y-112821394D01*
X138439114Y-112797584D01*
X138415304Y-112773775D01*
X138391495Y-112726156D01*
X138391495Y-112607108D01*
X138415304Y-112559489D01*
X138439114Y-112535680D01*
X138486733Y-112511870D01*
X138581971Y-112511870D01*
X138629590Y-112535680D01*
X138653400Y-112559489D01*
X138677209Y-112607108D01*
X111658615Y-43185380D02*
X111587187Y-43209190D01*
X111468139Y-43209190D01*
X111420520Y-43185380D01*
X111396710Y-43161571D01*
X111372901Y-43113952D01*
X111372901Y-43066333D01*
X111396710Y-43018714D01*
X111420520Y-42994904D01*
X111468139Y-42971095D01*
X111563377Y-42947285D01*
X111610996Y-42923476D01*
X111634806Y-42899666D01*
X111658615Y-42852047D01*
X111658615Y-42804428D01*
X111634806Y-42756809D01*
X111610996Y-42733000D01*
X111563377Y-42709190D01*
X111444329Y-42709190D01*
X111372901Y-42733000D01*
X110896710Y-43209190D02*
X111182425Y-43209190D01*
X111039568Y-43209190D02*
X111039568Y-42709190D01*
X111087187Y-42780619D01*
X111134806Y-42828238D01*
X111182425Y-42852047D01*
X110730044Y-42709190D02*
X110396710Y-42709190D01*
X110610996Y-43209190D01*
X162974453Y-102921554D02*
X162903025Y-102945364D01*
X162783977Y-102945364D01*
X162736358Y-102921554D01*
X162712548Y-102897745D01*
X162688739Y-102850126D01*
X162688739Y-102802507D01*
X162712548Y-102754888D01*
X162736358Y-102731078D01*
X162783977Y-102707269D01*
X162879215Y-102683459D01*
X162926834Y-102659650D01*
X162950644Y-102635840D01*
X162974453Y-102588221D01*
X162974453Y-102540602D01*
X162950644Y-102492983D01*
X162926834Y-102469174D01*
X162879215Y-102445364D01*
X162760167Y-102445364D01*
X162688739Y-102469174D01*
X162212548Y-102945364D02*
X162498263Y-102945364D01*
X162355406Y-102945364D02*
X162355406Y-102445364D01*
X162403025Y-102516793D01*
X162450644Y-102564412D01*
X162498263Y-102588221D01*
X161926834Y-102659650D02*
X161974453Y-102635840D01*
X161998263Y-102612031D01*
X162022072Y-102564412D01*
X162022072Y-102540602D01*
X161998263Y-102492983D01*
X161974453Y-102469174D01*
X161926834Y-102445364D01*
X161831596Y-102445364D01*
X161783977Y-102469174D01*
X161760167Y-102492983D01*
X161736358Y-102540602D01*
X161736358Y-102564412D01*
X161760167Y-102612031D01*
X161783977Y-102635840D01*
X161831596Y-102659650D01*
X161926834Y-102659650D01*
X161974453Y-102683459D01*
X161998263Y-102707269D01*
X162022072Y-102754888D01*
X162022072Y-102850126D01*
X161998263Y-102897745D01*
X161974453Y-102921554D01*
X161926834Y-102945364D01*
X161831596Y-102945364D01*
X161783977Y-102921554D01*
X161760167Y-102897745D01*
X161736358Y-102850126D01*
X161736358Y-102754888D01*
X161760167Y-102707269D01*
X161783977Y-102683459D01*
X161831596Y-102659650D01*
X157006182Y-104787683D02*
X156934754Y-104811493D01*
X156815706Y-104811493D01*
X156768087Y-104787683D01*
X156744277Y-104763874D01*
X156720468Y-104716255D01*
X156720468Y-104668636D01*
X156744277Y-104621017D01*
X156768087Y-104597207D01*
X156815706Y-104573398D01*
X156910944Y-104549588D01*
X156958563Y-104525779D01*
X156982373Y-104501969D01*
X157006182Y-104454350D01*
X157006182Y-104406731D01*
X156982373Y-104359112D01*
X156958563Y-104335303D01*
X156910944Y-104311493D01*
X156791896Y-104311493D01*
X156720468Y-104335303D01*
X156244277Y-104811493D02*
X156529992Y-104811493D01*
X156387135Y-104811493D02*
X156387135Y-104311493D01*
X156434754Y-104382922D01*
X156482373Y-104430541D01*
X156529992Y-104454350D01*
X156006182Y-104811493D02*
X155910944Y-104811493D01*
X155863325Y-104787683D01*
X155839515Y-104763874D01*
X155791896Y-104692445D01*
X155768087Y-104597207D01*
X155768087Y-104406731D01*
X155791896Y-104359112D01*
X155815706Y-104335303D01*
X155863325Y-104311493D01*
X155958563Y-104311493D01*
X156006182Y-104335303D01*
X156029992Y-104359112D01*
X156053801Y-104406731D01*
X156053801Y-104525779D01*
X156029992Y-104573398D01*
X156006182Y-104597207D01*
X155958563Y-104621017D01*
X155863325Y-104621017D01*
X155815706Y-104597207D01*
X155791896Y-104573398D01*
X155768087Y-104525779D01*
X42875748Y-89674987D02*
X42804320Y-89698797D01*
X42685272Y-89698797D01*
X42637653Y-89674987D01*
X42613843Y-89651178D01*
X42590034Y-89603559D01*
X42590034Y-89555940D01*
X42613843Y-89508321D01*
X42637653Y-89484511D01*
X42685272Y-89460702D01*
X42780510Y-89436892D01*
X42828129Y-89413083D01*
X42851939Y-89389273D01*
X42875748Y-89341654D01*
X42875748Y-89294035D01*
X42851939Y-89246416D01*
X42828129Y-89222607D01*
X42780510Y-89198797D01*
X42661462Y-89198797D01*
X42590034Y-89222607D01*
X42399558Y-89246416D02*
X42375748Y-89222607D01*
X42328129Y-89198797D01*
X42209081Y-89198797D01*
X42161462Y-89222607D01*
X42137653Y-89246416D01*
X42113843Y-89294035D01*
X42113843Y-89341654D01*
X42137653Y-89413083D01*
X42423367Y-89698797D01*
X42113843Y-89698797D01*
X41804320Y-89198797D02*
X41756701Y-89198797D01*
X41709081Y-89222607D01*
X41685272Y-89246416D01*
X41661462Y-89294035D01*
X41637653Y-89389273D01*
X41637653Y-89508321D01*
X41661462Y-89603559D01*
X41685272Y-89651178D01*
X41709081Y-89674987D01*
X41756701Y-89698797D01*
X41804320Y-89698797D01*
X41851939Y-89674987D01*
X41875748Y-89651178D01*
X41899558Y-89603559D01*
X41923367Y-89508321D01*
X41923367Y-89389273D01*
X41899558Y-89294035D01*
X41875748Y-89246416D01*
X41851939Y-89222607D01*
X41804320Y-89198797D01*
X80306812Y-150869122D02*
X80235384Y-150892932D01*
X80116336Y-150892932D01*
X80068717Y-150869122D01*
X80044907Y-150845313D01*
X80021098Y-150797694D01*
X80021098Y-150750075D01*
X80044907Y-150702456D01*
X80068717Y-150678646D01*
X80116336Y-150654837D01*
X80211574Y-150631027D01*
X80259193Y-150607218D01*
X80283003Y-150583408D01*
X80306812Y-150535789D01*
X80306812Y-150488170D01*
X80283003Y-150440551D01*
X80259193Y-150416742D01*
X80211574Y-150392932D01*
X80092526Y-150392932D01*
X80021098Y-150416742D01*
X79830622Y-150440551D02*
X79806812Y-150416742D01*
X79759193Y-150392932D01*
X79640145Y-150392932D01*
X79592526Y-150416742D01*
X79568717Y-150440551D01*
X79544907Y-150488170D01*
X79544907Y-150535789D01*
X79568717Y-150607218D01*
X79854431Y-150892932D01*
X79544907Y-150892932D01*
X79068717Y-150892932D02*
X79354431Y-150892932D01*
X79211574Y-150892932D02*
X79211574Y-150392932D01*
X79259193Y-150464361D01*
X79306812Y-150511980D01*
X79354431Y-150535789D01*
X42429524Y-85350442D02*
X42358096Y-85374252D01*
X42239048Y-85374252D01*
X42191429Y-85350442D01*
X42167619Y-85326633D01*
X42143810Y-85279014D01*
X42143810Y-85231395D01*
X42167619Y-85183776D01*
X42191429Y-85159966D01*
X42239048Y-85136157D01*
X42334286Y-85112347D01*
X42381905Y-85088538D01*
X42405715Y-85064728D01*
X42429524Y-85017109D01*
X42429524Y-84969490D01*
X42405715Y-84921871D01*
X42381905Y-84898062D01*
X42334286Y-84874252D01*
X42215238Y-84874252D01*
X42143810Y-84898062D01*
X41953334Y-84921871D02*
X41929524Y-84898062D01*
X41881905Y-84874252D01*
X41762857Y-84874252D01*
X41715238Y-84898062D01*
X41691429Y-84921871D01*
X41667619Y-84969490D01*
X41667619Y-85017109D01*
X41691429Y-85088538D01*
X41977143Y-85374252D01*
X41667619Y-85374252D01*
X41477143Y-84921871D02*
X41453334Y-84898062D01*
X41405715Y-84874252D01*
X41286667Y-84874252D01*
X41239048Y-84898062D01*
X41215238Y-84921871D01*
X41191429Y-84969490D01*
X41191429Y-85017109D01*
X41215238Y-85088538D01*
X41500953Y-85374252D01*
X41191429Y-85374252D01*
X48429524Y-84400442D02*
X48358096Y-84424252D01*
X48239048Y-84424252D01*
X48191429Y-84400442D01*
X48167619Y-84376633D01*
X48143810Y-84329014D01*
X48143810Y-84281395D01*
X48167619Y-84233776D01*
X48191429Y-84209966D01*
X48239048Y-84186157D01*
X48334286Y-84162347D01*
X48381905Y-84138538D01*
X48405715Y-84114728D01*
X48429524Y-84067109D01*
X48429524Y-84019490D01*
X48405715Y-83971871D01*
X48381905Y-83948062D01*
X48334286Y-83924252D01*
X48215238Y-83924252D01*
X48143810Y-83948062D01*
X47953334Y-83971871D02*
X47929524Y-83948062D01*
X47881905Y-83924252D01*
X47762857Y-83924252D01*
X47715238Y-83948062D01*
X47691429Y-83971871D01*
X47667619Y-84019490D01*
X47667619Y-84067109D01*
X47691429Y-84138538D01*
X47977143Y-84424252D01*
X47667619Y-84424252D01*
X47500953Y-83924252D02*
X47191429Y-83924252D01*
X47358096Y-84114728D01*
X47286667Y-84114728D01*
X47239048Y-84138538D01*
X47215238Y-84162347D01*
X47191429Y-84209966D01*
X47191429Y-84329014D01*
X47215238Y-84376633D01*
X47239048Y-84400442D01*
X47286667Y-84424252D01*
X47429524Y-84424252D01*
X47477143Y-84400442D01*
X47500953Y-84376633D01*
X111566914Y-36573892D02*
X111495486Y-36597702D01*
X111376438Y-36597702D01*
X111328819Y-36573892D01*
X111305009Y-36550083D01*
X111281200Y-36502464D01*
X111281200Y-36454845D01*
X111305009Y-36407226D01*
X111328819Y-36383416D01*
X111376438Y-36359607D01*
X111471676Y-36335797D01*
X111519295Y-36311988D01*
X111543105Y-36288178D01*
X111566914Y-36240559D01*
X111566914Y-36192940D01*
X111543105Y-36145321D01*
X111519295Y-36121512D01*
X111471676Y-36097702D01*
X111352628Y-36097702D01*
X111281200Y-36121512D01*
X111090724Y-36145321D02*
X111066914Y-36121512D01*
X111019295Y-36097702D01*
X110900247Y-36097702D01*
X110852628Y-36121512D01*
X110828819Y-36145321D01*
X110805009Y-36192940D01*
X110805009Y-36240559D01*
X110828819Y-36311988D01*
X111114533Y-36597702D01*
X110805009Y-36597702D01*
X110376438Y-36264369D02*
X110376438Y-36597702D01*
X110495486Y-36073892D02*
X110614533Y-36431035D01*
X110305009Y-36431035D01*
X76477336Y-69693224D02*
X76524955Y-69669414D01*
X76596383Y-69669414D01*
X76667812Y-69693224D01*
X76715431Y-69740843D01*
X76739240Y-69788462D01*
X76763050Y-69883700D01*
X76763050Y-69955128D01*
X76739240Y-70050366D01*
X76715431Y-70097985D01*
X76667812Y-70145604D01*
X76596383Y-70169414D01*
X76548764Y-70169414D01*
X76477336Y-70145604D01*
X76453526Y-70121795D01*
X76453526Y-69955128D01*
X76548764Y-69955128D01*
X75977336Y-70169414D02*
X76263050Y-70169414D01*
X76120193Y-70169414D02*
X76120193Y-69669414D01*
X76167812Y-69740843D01*
X76215431Y-69788462D01*
X76263050Y-69812271D01*
X75548764Y-69669414D02*
X75644002Y-69669414D01*
X75691621Y-69693224D01*
X75715431Y-69717033D01*
X75763050Y-69788462D01*
X75786859Y-69883700D01*
X75786859Y-70074176D01*
X75763050Y-70121795D01*
X75739240Y-70145604D01*
X75691621Y-70169414D01*
X75596383Y-70169414D01*
X75548764Y-70145604D01*
X75524955Y-70121795D01*
X75501145Y-70074176D01*
X75501145Y-69955128D01*
X75524955Y-69907509D01*
X75548764Y-69883700D01*
X75596383Y-69859890D01*
X75691621Y-69859890D01*
X75739240Y-69883700D01*
X75763050Y-69907509D01*
X75786859Y-69955128D01*
X109719705Y-151260749D02*
X109767324Y-151236939D01*
X109838752Y-151236939D01*
X109910181Y-151260749D01*
X109957800Y-151308368D01*
X109981609Y-151355987D01*
X110005419Y-151451225D01*
X110005419Y-151522653D01*
X109981609Y-151617891D01*
X109957800Y-151665510D01*
X109910181Y-151713129D01*
X109838752Y-151736939D01*
X109791133Y-151736939D01*
X109719705Y-151713129D01*
X109695895Y-151689320D01*
X109695895Y-151522653D01*
X109791133Y-151522653D01*
X109529228Y-151236939D02*
X109219705Y-151236939D01*
X109386371Y-151427415D01*
X109314943Y-151427415D01*
X109267324Y-151451225D01*
X109243514Y-151475034D01*
X109219705Y-151522653D01*
X109219705Y-151641701D01*
X109243514Y-151689320D01*
X109267324Y-151713129D01*
X109314943Y-151736939D01*
X109457800Y-151736939D01*
X109505419Y-151713129D01*
X109529228Y-151689320D01*
X109029228Y-151284558D02*
X109005419Y-151260749D01*
X108957800Y-151236939D01*
X108838752Y-151236939D01*
X108791133Y-151260749D01*
X108767324Y-151284558D01*
X108743514Y-151332177D01*
X108743514Y-151379796D01*
X108767324Y-151451225D01*
X109053038Y-151736939D01*
X108743514Y-151736939D01*
X108105715Y-33448062D02*
X108153334Y-33424252D01*
X108224762Y-33424252D01*
X108296191Y-33448062D01*
X108343810Y-33495681D01*
X108367619Y-33543300D01*
X108391429Y-33638538D01*
X108391429Y-33709966D01*
X108367619Y-33805204D01*
X108343810Y-33852823D01*
X108296191Y-33900442D01*
X108224762Y-33924252D01*
X108177143Y-33924252D01*
X108105715Y-33900442D01*
X108081905Y-33876633D01*
X108081905Y-33709966D01*
X108177143Y-33709966D01*
X107653334Y-33590919D02*
X107653334Y-33924252D01*
X107772381Y-33400442D02*
X107891429Y-33757585D01*
X107581905Y-33757585D01*
X107439048Y-33424252D02*
X107105715Y-33424252D01*
X107320000Y-33924252D01*
X90395238Y-164790000D02*
X90442857Y-164766190D01*
X90514285Y-164766190D01*
X90585714Y-164790000D01*
X90633333Y-164837619D01*
X90657142Y-164885238D01*
X90680952Y-164980476D01*
X90680952Y-165051904D01*
X90657142Y-165147142D01*
X90633333Y-165194761D01*
X90585714Y-165242380D01*
X90514285Y-165266190D01*
X90466666Y-165266190D01*
X90395238Y-165242380D01*
X90371428Y-165218571D01*
X90371428Y-165051904D01*
X90466666Y-165051904D01*
X89942857Y-164932857D02*
X89942857Y-165266190D01*
X90061904Y-164742380D02*
X90180952Y-165099523D01*
X89871428Y-165099523D01*
X89609523Y-164980476D02*
X89657142Y-164956666D01*
X89680952Y-164932857D01*
X89704761Y-164885238D01*
X89704761Y-164861428D01*
X89680952Y-164813809D01*
X89657142Y-164790000D01*
X89609523Y-164766190D01*
X89514285Y-164766190D01*
X89466666Y-164790000D01*
X89442857Y-164813809D01*
X89419047Y-164861428D01*
X89419047Y-164885238D01*
X89442857Y-164932857D01*
X89466666Y-164956666D01*
X89514285Y-164980476D01*
X89609523Y-164980476D01*
X89657142Y-165004285D01*
X89680952Y-165028095D01*
X89704761Y-165075714D01*
X89704761Y-165170952D01*
X89680952Y-165218571D01*
X89657142Y-165242380D01*
X89609523Y-165266190D01*
X89514285Y-165266190D01*
X89466666Y-165242380D01*
X89442857Y-165218571D01*
X89419047Y-165170952D01*
X89419047Y-165075714D01*
X89442857Y-165028095D01*
X89466666Y-165004285D01*
X89514285Y-164980476D01*
D12*
X82337619Y-105753204D02*
X82385238Y-105705585D01*
X82432857Y-105562728D01*
X82432857Y-105467490D01*
X82385238Y-105324633D01*
X82290000Y-105229395D01*
X82194762Y-105181776D01*
X82004286Y-105134157D01*
X81861429Y-105134157D01*
X81670953Y-105181776D01*
X81575715Y-105229395D01*
X81480477Y-105324633D01*
X81432857Y-105467490D01*
X81432857Y-105562728D01*
X81480477Y-105705585D01*
X81528096Y-105753204D01*
X82432857Y-106705585D02*
X82432857Y-106134157D01*
X82432857Y-106419871D02*
X81432857Y-106419871D01*
X81575715Y-106324633D01*
X81670953Y-106229395D01*
X81718572Y-106134157D01*
X82432857Y-107657966D02*
X82432857Y-107086538D01*
X82432857Y-107372252D02*
X81432857Y-107372252D01*
X81575715Y-107277014D01*
X81670953Y-107181776D01*
X81718572Y-107086538D01*
X80305619Y-105753204D02*
X80353238Y-105705585D01*
X80400857Y-105562728D01*
X80400857Y-105467490D01*
X80353238Y-105324633D01*
X80258000Y-105229395D01*
X80162762Y-105181776D01*
X79972286Y-105134157D01*
X79829429Y-105134157D01*
X79638953Y-105181776D01*
X79543715Y-105229395D01*
X79448477Y-105324633D01*
X79400857Y-105467490D01*
X79400857Y-105562728D01*
X79448477Y-105705585D01*
X79496096Y-105753204D01*
X80400857Y-106705585D02*
X80400857Y-106134157D01*
X80400857Y-106419871D02*
X79400857Y-106419871D01*
X79543715Y-106324633D01*
X79638953Y-106229395D01*
X79686572Y-106134157D01*
X79496096Y-107086538D02*
X79448477Y-107134157D01*
X79400857Y-107229395D01*
X79400857Y-107467490D01*
X79448477Y-107562728D01*
X79496096Y-107610347D01*
X79591334Y-107657966D01*
X79686572Y-107657966D01*
X79829429Y-107610347D01*
X80400857Y-107038919D01*
X80400857Y-107657966D01*
X78019619Y-105753204D02*
X78067238Y-105705585D01*
X78114857Y-105562728D01*
X78114857Y-105467490D01*
X78067238Y-105324633D01*
X77972000Y-105229395D01*
X77876762Y-105181776D01*
X77686286Y-105134157D01*
X77543429Y-105134157D01*
X77352953Y-105181776D01*
X77257715Y-105229395D01*
X77162477Y-105324633D01*
X77114857Y-105467490D01*
X77114857Y-105562728D01*
X77162477Y-105705585D01*
X77210096Y-105753204D01*
X78114857Y-106705585D02*
X78114857Y-106134157D01*
X78114857Y-106419871D02*
X77114857Y-106419871D01*
X77257715Y-106324633D01*
X77352953Y-106229395D01*
X77400572Y-106134157D01*
X77114857Y-107038919D02*
X77114857Y-107657966D01*
X77495810Y-107324633D01*
X77495810Y-107467490D01*
X77543429Y-107562728D01*
X77591048Y-107610347D01*
X77686286Y-107657966D01*
X77924381Y-107657966D01*
X78019619Y-107610347D01*
X78067238Y-107562728D01*
X78114857Y-107467490D01*
X78114857Y-107181776D01*
X78067238Y-107086538D01*
X78019619Y-107038919D01*
X85639619Y-135725204D02*
X85687238Y-135677585D01*
X85734857Y-135534728D01*
X85734857Y-135439490D01*
X85687238Y-135296633D01*
X85592000Y-135201395D01*
X85496762Y-135153776D01*
X85306286Y-135106157D01*
X85163429Y-135106157D01*
X84972953Y-135153776D01*
X84877715Y-135201395D01*
X84782477Y-135296633D01*
X84734857Y-135439490D01*
X84734857Y-135534728D01*
X84782477Y-135677585D01*
X84830096Y-135725204D01*
X84830096Y-136106157D02*
X84782477Y-136153776D01*
X84734857Y-136249014D01*
X84734857Y-136487109D01*
X84782477Y-136582347D01*
X84830096Y-136629966D01*
X84925334Y-136677585D01*
X85020572Y-136677585D01*
X85163429Y-136629966D01*
X85734857Y-136058538D01*
X85734857Y-136677585D01*
X85734857Y-137629966D02*
X85734857Y-137058538D01*
X85734857Y-137344252D02*
X84734857Y-137344252D01*
X84877715Y-137249014D01*
X84972953Y-137153776D01*
X85020572Y-137058538D01*
X87671619Y-135725204D02*
X87719238Y-135677585D01*
X87766857Y-135534728D01*
X87766857Y-135439490D01*
X87719238Y-135296633D01*
X87624000Y-135201395D01*
X87528762Y-135153776D01*
X87338286Y-135106157D01*
X87195429Y-135106157D01*
X87004953Y-135153776D01*
X86909715Y-135201395D01*
X86814477Y-135296633D01*
X86766857Y-135439490D01*
X86766857Y-135534728D01*
X86814477Y-135677585D01*
X86862096Y-135725204D01*
X86862096Y-136106157D02*
X86814477Y-136153776D01*
X86766857Y-136249014D01*
X86766857Y-136487109D01*
X86814477Y-136582347D01*
X86862096Y-136629966D01*
X86957334Y-136677585D01*
X87052572Y-136677585D01*
X87195429Y-136629966D01*
X87766857Y-136058538D01*
X87766857Y-136677585D01*
X86862096Y-137058538D02*
X86814477Y-137106157D01*
X86766857Y-137201395D01*
X86766857Y-137439490D01*
X86814477Y-137534728D01*
X86862096Y-137582347D01*
X86957334Y-137629966D01*
X87052572Y-137629966D01*
X87195429Y-137582347D01*
X87766857Y-137010919D01*
X87766857Y-137629966D01*
X91989619Y-132423204D02*
X92037238Y-132375585D01*
X92084857Y-132232728D01*
X92084857Y-132137490D01*
X92037238Y-131994633D01*
X91942000Y-131899395D01*
X91846762Y-131851776D01*
X91656286Y-131804157D01*
X91513429Y-131804157D01*
X91322953Y-131851776D01*
X91227715Y-131899395D01*
X91132477Y-131994633D01*
X91084857Y-132137490D01*
X91084857Y-132232728D01*
X91132477Y-132375585D01*
X91180096Y-132423204D01*
X91180096Y-132804157D02*
X91132477Y-132851776D01*
X91084857Y-132947014D01*
X91084857Y-133185109D01*
X91132477Y-133280347D01*
X91180096Y-133327966D01*
X91275334Y-133375585D01*
X91370572Y-133375585D01*
X91513429Y-133327966D01*
X92084857Y-132756538D01*
X92084857Y-133375585D01*
X91084857Y-133708919D02*
X91084857Y-134327966D01*
X91465810Y-133994633D01*
X91465810Y-134137490D01*
X91513429Y-134232728D01*
X91561048Y-134280347D01*
X91656286Y-134327966D01*
X91894381Y-134327966D01*
X91989619Y-134280347D01*
X92037238Y-134232728D01*
X92084857Y-134137490D01*
X92084857Y-133851776D01*
X92037238Y-133756538D01*
X91989619Y-133708919D01*
X133899619Y-77305204D02*
X133947238Y-77257585D01*
X133994857Y-77114728D01*
X133994857Y-77019490D01*
X133947238Y-76876633D01*
X133852000Y-76781395D01*
X133756762Y-76733776D01*
X133566286Y-76686157D01*
X133423429Y-76686157D01*
X133232953Y-76733776D01*
X133137715Y-76781395D01*
X133042477Y-76876633D01*
X132994857Y-77019490D01*
X132994857Y-77114728D01*
X133042477Y-77257585D01*
X133090096Y-77305204D01*
X132994857Y-77638538D02*
X132994857Y-78257585D01*
X133375810Y-77924252D01*
X133375810Y-78067109D01*
X133423429Y-78162347D01*
X133471048Y-78209966D01*
X133566286Y-78257585D01*
X133804381Y-78257585D01*
X133899619Y-78209966D01*
X133947238Y-78162347D01*
X133994857Y-78067109D01*
X133994857Y-77781395D01*
X133947238Y-77686157D01*
X133899619Y-77638538D01*
X133994857Y-79209966D02*
X133994857Y-78638538D01*
X133994857Y-78924252D02*
X132994857Y-78924252D01*
X133137715Y-78829014D01*
X133232953Y-78733776D01*
X133280572Y-78638538D01*
X131867619Y-77305204D02*
X131915238Y-77257585D01*
X131962857Y-77114728D01*
X131962857Y-77019490D01*
X131915238Y-76876633D01*
X131820000Y-76781395D01*
X131724762Y-76733776D01*
X131534286Y-76686157D01*
X131391429Y-76686157D01*
X131200953Y-76733776D01*
X131105715Y-76781395D01*
X131010477Y-76876633D01*
X130962857Y-77019490D01*
X130962857Y-77114728D01*
X131010477Y-77257585D01*
X131058096Y-77305204D01*
X130962857Y-77638538D02*
X130962857Y-78257585D01*
X131343810Y-77924252D01*
X131343810Y-78067109D01*
X131391429Y-78162347D01*
X131439048Y-78209966D01*
X131534286Y-78257585D01*
X131772381Y-78257585D01*
X131867619Y-78209966D01*
X131915238Y-78162347D01*
X131962857Y-78067109D01*
X131962857Y-77781395D01*
X131915238Y-77686157D01*
X131867619Y-77638538D01*
X131058096Y-78638538D02*
X131010477Y-78686157D01*
X130962857Y-78781395D01*
X130962857Y-79019490D01*
X131010477Y-79114728D01*
X131058096Y-79162347D01*
X131153334Y-79209966D01*
X131248572Y-79209966D01*
X131391429Y-79162347D01*
X131962857Y-78590919D01*
X131962857Y-79209966D01*
D14*
X86917524Y-104876062D02*
X86965143Y-104852252D01*
X87036572Y-104852252D01*
X87108000Y-104876062D01*
X87155619Y-104923681D01*
X87179429Y-104971300D01*
X87203238Y-105066538D01*
X87203238Y-105137966D01*
X87179429Y-105233204D01*
X87155619Y-105280823D01*
X87108000Y-105328442D01*
X87036572Y-105352252D01*
X86988953Y-105352252D01*
X86917524Y-105328442D01*
X86893715Y-105304633D01*
X86893715Y-105137966D01*
X86988953Y-105137966D01*
X86679429Y-105352252D02*
X86679429Y-104852252D01*
X86393715Y-105352252D01*
X86393715Y-104852252D01*
X86155619Y-105352252D02*
X86155619Y-104852252D01*
X86036572Y-104852252D01*
X85965143Y-104876062D01*
X85917524Y-104923681D01*
X85893715Y-104971300D01*
X85869905Y-105066538D01*
X85869905Y-105137966D01*
X85893715Y-105233204D01*
X85917524Y-105280823D01*
X85965143Y-105328442D01*
X86036572Y-105352252D01*
X86155619Y-105352252D01*
X85393715Y-105352252D02*
X85679429Y-105352252D01*
X85536572Y-105352252D02*
X85536572Y-104852252D01*
X85584191Y-104923681D01*
X85631810Y-104971300D01*
X85679429Y-104995109D01*
X81319524Y-134416062D02*
X81367143Y-134392252D01*
X81438572Y-134392252D01*
X81510000Y-134416062D01*
X81557619Y-134463681D01*
X81581429Y-134511300D01*
X81605238Y-134606538D01*
X81605238Y-134677966D01*
X81581429Y-134773204D01*
X81557619Y-134820823D01*
X81510000Y-134868442D01*
X81438572Y-134892252D01*
X81390953Y-134892252D01*
X81319524Y-134868442D01*
X81295715Y-134844633D01*
X81295715Y-134677966D01*
X81390953Y-134677966D01*
X81081429Y-134892252D02*
X81081429Y-134392252D01*
X80795715Y-134892252D01*
X80795715Y-134392252D01*
X80557619Y-134892252D02*
X80557619Y-134392252D01*
X80438572Y-134392252D01*
X80367143Y-134416062D01*
X80319524Y-134463681D01*
X80295715Y-134511300D01*
X80271905Y-134606538D01*
X80271905Y-134677966D01*
X80295715Y-134773204D01*
X80319524Y-134820823D01*
X80367143Y-134868442D01*
X80438572Y-134892252D01*
X80557619Y-134892252D01*
X80081429Y-134439871D02*
X80057619Y-134416062D01*
X80010000Y-134392252D01*
X79890953Y-134392252D01*
X79843334Y-134416062D01*
X79819524Y-134439871D01*
X79795715Y-134487490D01*
X79795715Y-134535109D01*
X79819524Y-134606538D01*
X80105238Y-134892252D01*
X79795715Y-134892252D01*
X138479524Y-76428062D02*
X138527143Y-76404252D01*
X138598572Y-76404252D01*
X138670000Y-76428062D01*
X138717619Y-76475681D01*
X138741429Y-76523300D01*
X138765238Y-76618538D01*
X138765238Y-76689966D01*
X138741429Y-76785204D01*
X138717619Y-76832823D01*
X138670000Y-76880442D01*
X138598572Y-76904252D01*
X138550953Y-76904252D01*
X138479524Y-76880442D01*
X138455715Y-76856633D01*
X138455715Y-76689966D01*
X138550953Y-76689966D01*
X138241429Y-76904252D02*
X138241429Y-76404252D01*
X137955715Y-76904252D01*
X137955715Y-76404252D01*
X137717619Y-76904252D02*
X137717619Y-76404252D01*
X137598572Y-76404252D01*
X137527143Y-76428062D01*
X137479524Y-76475681D01*
X137455715Y-76523300D01*
X137431905Y-76618538D01*
X137431905Y-76689966D01*
X137455715Y-76785204D01*
X137479524Y-76832823D01*
X137527143Y-76880442D01*
X137598572Y-76904252D01*
X137717619Y-76904252D01*
X137265238Y-76404252D02*
X136955715Y-76404252D01*
X137122381Y-76594728D01*
X137050953Y-76594728D01*
X137003334Y-76618538D01*
X136979524Y-76642347D01*
X136955715Y-76689966D01*
X136955715Y-76809014D01*
X136979524Y-76856633D01*
X137003334Y-76880442D01*
X137050953Y-76904252D01*
X137193810Y-76904252D01*
X137241429Y-76880442D01*
X137265238Y-76856633D01*
X61319143Y-104852252D02*
X61319143Y-105209395D01*
X61342953Y-105280823D01*
X61390572Y-105328442D01*
X61462000Y-105352252D01*
X61509619Y-105352252D01*
X60819143Y-105352252D02*
X61104857Y-105352252D01*
X60962000Y-105352252D02*
X60962000Y-104852252D01*
X61009619Y-104923681D01*
X61057238Y-104971300D01*
X61104857Y-104995109D01*
X61319143Y-102312252D02*
X61319143Y-102669395D01*
X61342953Y-102740823D01*
X61390572Y-102788442D01*
X61462000Y-102812252D01*
X61509619Y-102812252D01*
X61104857Y-102359871D02*
X61081048Y-102336062D01*
X61033429Y-102312252D01*
X60914381Y-102312252D01*
X60866762Y-102336062D01*
X60842953Y-102359871D01*
X60819143Y-102407490D01*
X60819143Y-102455109D01*
X60842953Y-102526538D01*
X61128667Y-102812252D01*
X60819143Y-102812252D01*
X106277143Y-126696252D02*
X106277143Y-127053395D01*
X106300953Y-127124823D01*
X106348572Y-127172442D01*
X106420000Y-127196252D01*
X106467619Y-127196252D01*
X106086667Y-126696252D02*
X105777143Y-126696252D01*
X105943810Y-126886728D01*
X105872381Y-126886728D01*
X105824762Y-126910538D01*
X105800953Y-126934347D01*
X105777143Y-126981966D01*
X105777143Y-127101014D01*
X105800953Y-127148633D01*
X105824762Y-127172442D01*
X105872381Y-127196252D01*
X106015238Y-127196252D01*
X106062857Y-127172442D01*
X106086667Y-127148633D01*
X106277143Y-129236252D02*
X106277143Y-129593395D01*
X106300953Y-129664823D01*
X106348572Y-129712442D01*
X106420000Y-129736252D01*
X106467619Y-129736252D01*
X105824762Y-129402919D02*
X105824762Y-129736252D01*
X105943810Y-129212442D02*
X106062857Y-129569585D01*
X105753334Y-129569585D01*
X114405143Y-77928252D02*
X114405143Y-78285395D01*
X114428953Y-78356823D01*
X114476572Y-78404442D01*
X114548000Y-78428252D01*
X114595619Y-78428252D01*
X113928953Y-77928252D02*
X114167048Y-77928252D01*
X114190857Y-78166347D01*
X114167048Y-78142538D01*
X114119429Y-78118728D01*
X114000381Y-78118728D01*
X113952762Y-78142538D01*
X113928953Y-78166347D01*
X113905143Y-78213966D01*
X113905143Y-78333014D01*
X113928953Y-78380633D01*
X113952762Y-78404442D01*
X114000381Y-78428252D01*
X114119429Y-78428252D01*
X114167048Y-78404442D01*
X114190857Y-78380633D01*
X114405143Y-75388252D02*
X114405143Y-75745395D01*
X114428953Y-75816823D01*
X114476572Y-75864442D01*
X114548000Y-75888252D01*
X114595619Y-75888252D01*
X113952762Y-75388252D02*
X114048000Y-75388252D01*
X114095619Y-75412062D01*
X114119429Y-75435871D01*
X114167048Y-75507300D01*
X114190857Y-75602538D01*
X114190857Y-75793014D01*
X114167048Y-75840633D01*
X114143238Y-75864442D01*
X114095619Y-75888252D01*
X114000381Y-75888252D01*
X113952762Y-75864442D01*
X113928953Y-75840633D01*
X113905143Y-75793014D01*
X113905143Y-75673966D01*
X113928953Y-75626347D01*
X113952762Y-75602538D01*
X114000381Y-75578728D01*
X114095619Y-75578728D01*
X114143238Y-75602538D01*
X114167048Y-75626347D01*
X114190857Y-75673966D01*
X87203238Y-102312252D02*
X87036572Y-102812252D01*
X86869905Y-102312252D01*
X86703238Y-102812252D02*
X86703238Y-102312252D01*
X86584191Y-102312252D01*
X86512762Y-102336062D01*
X86465143Y-102383681D01*
X86441334Y-102431300D01*
X86417524Y-102526538D01*
X86417524Y-102597966D01*
X86441334Y-102693204D01*
X86465143Y-102740823D01*
X86512762Y-102788442D01*
X86584191Y-102812252D01*
X86703238Y-102812252D01*
X86203238Y-102812252D02*
X86203238Y-102312252D01*
X86084191Y-102312252D01*
X86012762Y-102336062D01*
X85965143Y-102383681D01*
X85941334Y-102431300D01*
X85917524Y-102526538D01*
X85917524Y-102597966D01*
X85941334Y-102693204D01*
X85965143Y-102740823D01*
X86012762Y-102788442D01*
X86084191Y-102812252D01*
X86203238Y-102812252D01*
X85441334Y-102812252D02*
X85727048Y-102812252D01*
X85584191Y-102812252D02*
X85584191Y-102312252D01*
X85631810Y-102383681D01*
X85679429Y-102431300D01*
X85727048Y-102455109D01*
X84145238Y-134392252D02*
X83978572Y-134892252D01*
X83811905Y-134392252D01*
X83645238Y-134892252D02*
X83645238Y-134392252D01*
X83526191Y-134392252D01*
X83454762Y-134416062D01*
X83407143Y-134463681D01*
X83383334Y-134511300D01*
X83359524Y-134606538D01*
X83359524Y-134677966D01*
X83383334Y-134773204D01*
X83407143Y-134820823D01*
X83454762Y-134868442D01*
X83526191Y-134892252D01*
X83645238Y-134892252D01*
X83145238Y-134892252D02*
X83145238Y-134392252D01*
X83026191Y-134392252D01*
X82954762Y-134416062D01*
X82907143Y-134463681D01*
X82883334Y-134511300D01*
X82859524Y-134606538D01*
X82859524Y-134677966D01*
X82883334Y-134773204D01*
X82907143Y-134820823D01*
X82954762Y-134868442D01*
X83026191Y-134892252D01*
X83145238Y-134892252D01*
X82669048Y-134439871D02*
X82645238Y-134416062D01*
X82597619Y-134392252D01*
X82478572Y-134392252D01*
X82430953Y-134416062D01*
X82407143Y-134439871D01*
X82383334Y-134487490D01*
X82383334Y-134535109D01*
X82407143Y-134606538D01*
X82692857Y-134892252D01*
X82383334Y-134892252D01*
X138765238Y-73864252D02*
X138598572Y-74364252D01*
X138431905Y-73864252D01*
X138265238Y-74364252D02*
X138265238Y-73864252D01*
X138146191Y-73864252D01*
X138074762Y-73888062D01*
X138027143Y-73935681D01*
X138003334Y-73983300D01*
X137979524Y-74078538D01*
X137979524Y-74149966D01*
X138003334Y-74245204D01*
X138027143Y-74292823D01*
X138074762Y-74340442D01*
X138146191Y-74364252D01*
X138265238Y-74364252D01*
X137765238Y-74364252D02*
X137765238Y-73864252D01*
X137646191Y-73864252D01*
X137574762Y-73888062D01*
X137527143Y-73935681D01*
X137503334Y-73983300D01*
X137479524Y-74078538D01*
X137479524Y-74149966D01*
X137503334Y-74245204D01*
X137527143Y-74292823D01*
X137574762Y-74340442D01*
X137646191Y-74364252D01*
X137765238Y-74364252D01*
X137312857Y-73864252D02*
X137003334Y-73864252D01*
X137170000Y-74054728D01*
X137098572Y-74054728D01*
X137050953Y-74078538D01*
X137027143Y-74102347D01*
X137003334Y-74149966D01*
X137003334Y-74269014D01*
X137027143Y-74316633D01*
X137050953Y-74340442D01*
X137098572Y-74364252D01*
X137241429Y-74364252D01*
X137289048Y-74340442D01*
X137312857Y-74316633D01*
%LPC*%
D15*
X66504000Y-108111000D03*
X66504000Y-107461000D03*
X66504000Y-106811000D03*
X66504000Y-106161000D03*
X66504000Y-105511000D03*
X66504000Y-104861000D03*
X66504000Y-104211000D03*
X66504000Y-103561000D03*
X66504000Y-102911000D03*
X66504000Y-102261000D03*
X66504000Y-101611000D03*
X66504000Y-100961000D03*
X66504000Y-100311000D03*
X66504000Y-99661000D03*
X73704000Y-99661000D03*
X73704000Y-100311000D03*
X73704000Y-100961000D03*
X73704000Y-101611000D03*
X73704000Y-102261000D03*
X73704000Y-102911000D03*
X73704000Y-103561000D03*
X73704000Y-104211000D03*
X73704000Y-104861000D03*
X73704000Y-105511000D03*
X73704000Y-106161000D03*
X73704000Y-106811000D03*
X73704000Y-107461000D03*
X73704000Y-108111000D03*
G36*
G01*
X128574476Y-75038062D02*
X129874478Y-75038062D01*
G75*
G02*
X130124477Y-75288061I0J-249999D01*
G01*
X130124477Y-75938063D01*
G75*
G02*
X129874478Y-76188062I-249999J0D01*
G01*
X128574476Y-76188062D01*
G75*
G02*
X128324477Y-75938063I0J249999D01*
G01*
X128324477Y-75288061D01*
G75*
G02*
X128574476Y-75038062I249999J0D01*
G01*
G37*
G36*
G01*
X128574476Y-72088062D02*
X129874478Y-72088062D01*
G75*
G02*
X130124477Y-72338061I0J-249999D01*
G01*
X130124477Y-72988063D01*
G75*
G02*
X129874478Y-73238062I-249999J0D01*
G01*
X128574476Y-73238062D01*
G75*
G02*
X128324477Y-72988063I0J249999D01*
G01*
X128324477Y-72338061D01*
G75*
G02*
X128574476Y-72088062I249999J0D01*
G01*
G37*
X100628000Y-124045000D03*
X100628000Y-124695000D03*
X100628000Y-125345000D03*
X100628000Y-125995000D03*
X100628000Y-126645000D03*
X100628000Y-127295000D03*
X100628000Y-127945000D03*
X100628000Y-128595000D03*
X100628000Y-129245000D03*
X100628000Y-129895000D03*
X100628000Y-130545000D03*
X100628000Y-131195000D03*
X100628000Y-131845000D03*
X100628000Y-132495000D03*
X93428000Y-132495000D03*
X93428000Y-131845000D03*
X93428000Y-131195000D03*
X93428000Y-130545000D03*
X93428000Y-129895000D03*
X93428000Y-129245000D03*
X93428000Y-128595000D03*
X93428000Y-127945000D03*
X93428000Y-127295000D03*
X93428000Y-126645000D03*
X93428000Y-125995000D03*
X93428000Y-125345000D03*
X93428000Y-124695000D03*
X93428000Y-124045000D03*
X125774000Y-79663000D03*
X125774000Y-79013000D03*
X125774000Y-78363000D03*
X125774000Y-77713000D03*
X125774000Y-77063000D03*
X125774000Y-76413000D03*
X125774000Y-75763000D03*
X125774000Y-75113000D03*
X125774000Y-74463000D03*
X125774000Y-73813000D03*
X125774000Y-73163000D03*
X125774000Y-72513000D03*
X125774000Y-71863000D03*
X125774000Y-71213000D03*
X118574000Y-71213000D03*
X118574000Y-71863000D03*
X118574000Y-72513000D03*
X118574000Y-73163000D03*
X118574000Y-73813000D03*
X118574000Y-74463000D03*
X118574000Y-75113000D03*
X118574000Y-75763000D03*
X118574000Y-76413000D03*
X118574000Y-77063000D03*
X118574000Y-77713000D03*
X118574000Y-78363000D03*
X118574000Y-79013000D03*
X118574000Y-79663000D03*
D16*
X97484089Y-90610486D03*
D17*
X160999412Y-106473216D03*
X98141489Y-93063938D03*
X93324310Y-90466117D03*
X87784864Y-91446859D03*
X82974182Y-95437930D03*
X96431602Y-79762476D03*
X88683876Y-80399837D03*
X81195598Y-84221183D03*
X75257910Y-90994566D03*
X106925511Y-74153835D03*
X97524136Y-71700073D03*
X87333737Y-72836949D03*
X77754778Y-77754666D03*
X111365416Y-68774046D03*
X100000104Y-65416548D03*
X87725815Y-66276612D03*
X78166096Y-131181806D03*
X89839052Y-137920589D03*
X103522366Y-140262726D03*
X117556827Y-137651159D03*
X72416832Y-132872033D03*
X84959012Y-141324156D03*
X99999773Y-145016607D03*
X115744334Y-143257908D03*
X66570775Y-133428856D03*
X79609763Y-143726347D03*
X95711718Y-149011905D03*
X112975293Y-148425653D03*
X84751055Y-148362405D03*
X101066678Y-152562298D03*
X90785752Y-152254480D03*
X47430638Y-82181328D03*
X155405119Y-108531957D03*
X43510000Y-106190000D03*
X106312274Y-42205966D03*
X101410000Y-41470000D03*
X157698852Y-113989468D03*
X40742051Y-96513347D03*
X110496779Y-40472920D03*
X95660000Y-161810000D03*
X104048316Y-36407720D03*
X36260000Y-95420000D03*
X93044912Y-164917920D03*
X165870000Y-106970000D03*
D16*
X96520051Y-96811214D03*
X100535924Y-106125638D03*
X104410827Y-94251699D03*
X91954120Y-101418705D03*
X107577395Y-104827335D03*
X95198809Y-109222998D03*
X110363000Y-96228179D03*
X94719777Y-59891607D03*
X76709204Y-133262446D03*
X139790982Y-91178704D03*
X64573156Y-79546128D03*
X112346035Y-139157128D03*
X154664068Y-93943054D03*
X61792553Y-115825874D03*
X139000543Y-114195204D03*
X111029568Y-44583000D03*
X162345406Y-104319174D03*
X156377135Y-106185303D03*
X42246701Y-91072607D03*
X79677765Y-152266742D03*
X39882458Y-85141438D03*
X45849450Y-84169152D03*
X110937867Y-37971512D03*
D17*
X76122098Y-71543224D03*
X109364467Y-153110749D03*
X109988644Y-33685157D03*
X90040000Y-166640000D03*
G36*
G01*
X81730477Y-101361062D02*
X82230477Y-101361062D01*
G75*
G02*
X82455477Y-101586062I0J-225000D01*
G01*
X82455477Y-102036062D01*
G75*
G02*
X82230477Y-102261062I-225000J0D01*
G01*
X81730477Y-102261062D01*
G75*
G02*
X81505477Y-102036062I0J225000D01*
G01*
X81505477Y-101586062D01*
G75*
G02*
X81730477Y-101361062I225000J0D01*
G01*
G37*
G36*
G01*
X81730477Y-102911062D02*
X82230477Y-102911062D01*
G75*
G02*
X82455477Y-103136062I0J-225000D01*
G01*
X82455477Y-103586062D01*
G75*
G02*
X82230477Y-103811062I-225000J0D01*
G01*
X81730477Y-103811062D01*
G75*
G02*
X81505477Y-103586062I0J225000D01*
G01*
X81505477Y-103136062D01*
G75*
G02*
X81730477Y-102911062I225000J0D01*
G01*
G37*
G36*
G01*
X79473477Y-103036062D02*
X80423477Y-103036062D01*
G75*
G02*
X80673477Y-103286062I0J-250000D01*
G01*
X80673477Y-103786062D01*
G75*
G02*
X80423477Y-104036062I-250000J0D01*
G01*
X79473477Y-104036062D01*
G75*
G02*
X79223477Y-103786062I0J250000D01*
G01*
X79223477Y-103286062D01*
G75*
G02*
X79473477Y-103036062I250000J0D01*
G01*
G37*
G36*
G01*
X79473477Y-101136062D02*
X80423477Y-101136062D01*
G75*
G02*
X80673477Y-101386062I0J-250000D01*
G01*
X80673477Y-101886062D01*
G75*
G02*
X80423477Y-102136062I-250000J0D01*
G01*
X79473477Y-102136062D01*
G75*
G02*
X79223477Y-101886062I0J250000D01*
G01*
X79223477Y-101386062D01*
G75*
G02*
X79473477Y-101136062I250000J0D01*
G01*
G37*
G36*
G01*
X77012476Y-100536062D02*
X78312478Y-100536062D01*
G75*
G02*
X78562477Y-100786061I0J-249999D01*
G01*
X78562477Y-101436063D01*
G75*
G02*
X78312478Y-101686062I-249999J0D01*
G01*
X77012476Y-101686062D01*
G75*
G02*
X76762477Y-101436063I0J249999D01*
G01*
X76762477Y-100786061D01*
G75*
G02*
X77012476Y-100536062I249999J0D01*
G01*
G37*
G36*
G01*
X77012476Y-103486062D02*
X78312478Y-103486062D01*
G75*
G02*
X78562477Y-103736061I0J-249999D01*
G01*
X78562477Y-104386063D01*
G75*
G02*
X78312478Y-104636062I-249999J0D01*
G01*
X77012476Y-104636062D01*
G75*
G02*
X76762477Y-104386063I0J249999D01*
G01*
X76762477Y-103736061D01*
G75*
G02*
X77012476Y-103486062I249999J0D01*
G01*
G37*
G36*
G01*
X85032477Y-133391062D02*
X85532477Y-133391062D01*
G75*
G02*
X85757477Y-133616062I0J-225000D01*
G01*
X85757477Y-134066062D01*
G75*
G02*
X85532477Y-134291062I-225000J0D01*
G01*
X85032477Y-134291062D01*
G75*
G02*
X84807477Y-134066062I0J225000D01*
G01*
X84807477Y-133616062D01*
G75*
G02*
X85032477Y-133391062I225000J0D01*
G01*
G37*
G36*
G01*
X85032477Y-131841062D02*
X85532477Y-131841062D01*
G75*
G02*
X85757477Y-132066062I0J-225000D01*
G01*
X85757477Y-132516062D01*
G75*
G02*
X85532477Y-132741062I-225000J0D01*
G01*
X85032477Y-132741062D01*
G75*
G02*
X84807477Y-132516062I0J225000D01*
G01*
X84807477Y-132066062D01*
G75*
G02*
X85032477Y-131841062I225000J0D01*
G01*
G37*
G36*
G01*
X86839477Y-133516062D02*
X87789477Y-133516062D01*
G75*
G02*
X88039477Y-133766062I0J-250000D01*
G01*
X88039477Y-134266062D01*
G75*
G02*
X87789477Y-134516062I-250000J0D01*
G01*
X86839477Y-134516062D01*
G75*
G02*
X86589477Y-134266062I0J250000D01*
G01*
X86589477Y-133766062D01*
G75*
G02*
X86839477Y-133516062I250000J0D01*
G01*
G37*
G36*
G01*
X86839477Y-131616062D02*
X87789477Y-131616062D01*
G75*
G02*
X88039477Y-131866062I0J-250000D01*
G01*
X88039477Y-132366062D01*
G75*
G02*
X87789477Y-132616062I-250000J0D01*
G01*
X86839477Y-132616062D01*
G75*
G02*
X86589477Y-132366062I0J250000D01*
G01*
X86589477Y-131866062D01*
G75*
G02*
X86839477Y-131616062I250000J0D01*
G01*
G37*
G36*
G01*
X88950476Y-131016062D02*
X90250478Y-131016062D01*
G75*
G02*
X90500477Y-131266061I0J-249999D01*
G01*
X90500477Y-131916063D01*
G75*
G02*
X90250478Y-132166062I-249999J0D01*
G01*
X88950476Y-132166062D01*
G75*
G02*
X88700477Y-131916063I0J249999D01*
G01*
X88700477Y-131266061D01*
G75*
G02*
X88950476Y-131016062I249999J0D01*
G01*
G37*
G36*
G01*
X88950476Y-133966062D02*
X90250478Y-133966062D01*
G75*
G02*
X90500477Y-134216061I0J-249999D01*
G01*
X90500477Y-134866063D01*
G75*
G02*
X90250478Y-135116062I-249999J0D01*
G01*
X88950476Y-135116062D01*
G75*
G02*
X88700477Y-134866063I0J249999D01*
G01*
X88700477Y-134216061D01*
G75*
G02*
X88950476Y-133966062I249999J0D01*
G01*
G37*
G36*
G01*
X133292477Y-72913062D02*
X133792477Y-72913062D01*
G75*
G02*
X134017477Y-73138062I0J-225000D01*
G01*
X134017477Y-73588062D01*
G75*
G02*
X133792477Y-73813062I-225000J0D01*
G01*
X133292477Y-73813062D01*
G75*
G02*
X133067477Y-73588062I0J225000D01*
G01*
X133067477Y-73138062D01*
G75*
G02*
X133292477Y-72913062I225000J0D01*
G01*
G37*
G36*
G01*
X133292477Y-74463062D02*
X133792477Y-74463062D01*
G75*
G02*
X134017477Y-74688062I0J-225000D01*
G01*
X134017477Y-75138062D01*
G75*
G02*
X133792477Y-75363062I-225000J0D01*
G01*
X133292477Y-75363062D01*
G75*
G02*
X133067477Y-75138062I0J225000D01*
G01*
X133067477Y-74688062D01*
G75*
G02*
X133292477Y-74463062I225000J0D01*
G01*
G37*
G36*
G01*
X131035477Y-72688062D02*
X131985477Y-72688062D01*
G75*
G02*
X132235477Y-72938062I0J-250000D01*
G01*
X132235477Y-73438062D01*
G75*
G02*
X131985477Y-73688062I-250000J0D01*
G01*
X131035477Y-73688062D01*
G75*
G02*
X130785477Y-73438062I0J250000D01*
G01*
X130785477Y-72938062D01*
G75*
G02*
X131035477Y-72688062I250000J0D01*
G01*
G37*
G36*
G01*
X131035477Y-74588062D02*
X131985477Y-74588062D01*
G75*
G02*
X132235477Y-74838062I0J-250000D01*
G01*
X132235477Y-75338062D01*
G75*
G02*
X131985477Y-75588062I-250000J0D01*
G01*
X131035477Y-75588062D01*
G75*
G02*
X130785477Y-75338062I0J250000D01*
G01*
X130785477Y-74838062D01*
G75*
G02*
X131035477Y-74588062I250000J0D01*
G01*
G37*
X84012477Y-105126062D03*
X80710477Y-133066062D03*
X135574477Y-76678062D03*
D16*
X62930477Y-105126062D03*
D17*
X62930477Y-102586062D03*
D16*
X104332477Y-126970062D03*
D17*
X104332477Y-129510062D03*
D16*
X116016477Y-78202062D03*
D17*
X116016477Y-75662062D03*
D16*
X84012477Y-102586062D03*
X83250477Y-133066062D03*
X135574477Y-74138062D03*
M02*
