M48
; DRILL file {KiCad 5.1.9+dfsg1-1+deb11u1} date Tue Jul 30 12:47:23 2024
; FORMAT={-:-/ absolute / metric / decimal}
; #@! TF.CreationDate,2024-07-30T12:47:23+01:00
; #@! TF.GenerationSoftware,Kicad,Pcbnew,5.1.9+dfsg1-1+deb11u1
; #@! TF.FileFunction,Plated,1,2,PTH
FMAT,2
METRIC
T1C0.400
T2C0.900
%
G90
G05
T1
X34.482Y-89.632
X34.482Y-93.442
X36.514Y-97.506
X37.53Y-86.838
X38.8Y-90.648
X39.054Y-94.204
X39.816Y-100.554
X41.848Y-103.856
X42.102Y-99.03
X42.356Y-88.108
X42.864Y-84.044
X43.626Y-93.696
X44.134Y-81.758
X44.896Y-108.174
X45.15Y-99.03
X45.404Y-104.11
X47.436Y-79.218
X48.198Y-88.108
X48.452Y-84.552
X49.214Y-112.746
X49.976Y-94.204
X50.23Y-80.488
X50.484Y-100.046
X50.992Y-84.044
X50.992Y-107.92
X53.024Y-117.826
X53.278Y-74.9
X53.532Y-83.536
X55.31Y-94.204
X55.31Y-99.03
X55.31Y-104.11
X55.31Y-109.952
X55.564Y-80.488
X55.818Y-87.6
X55.818Y-114.524
X56.58Y-122.652
X58.358Y-106.396
X58.358Y-111.476
X58.612Y-86.33
X59.12Y-117.572
X59.628Y-70.074
X59.628Y-75.916
X59.882Y-90.14
X59.882Y-96.998
X59.882Y-126.97
X60.136Y-114.016
X62.168Y-82.774
X62.676Y-121.128
X62.676Y-126.208
X62.93Y-107.412
X62.93Y-131.796
X63.184Y-87.346
X63.184Y-93.696
X63.184Y-117.572
X64.708Y-105.126
X64.708Y-106.396
X64.962Y-66.518
X64.962Y-70.836
X64.962Y-130.78
X65.216Y-110.714
X65.47Y-116.556
X65.47Y-120.112
X65.47Y-125.446
X66.232Y-84.044
X66.232Y-90.14
X66.486Y-97.506
X67.248Y-77.44
X67.248Y-109.698
X67.248Y-135.352
X68.264Y-80.742
X68.518Y-126.716
X68.518Y-134.59
X69.788Y-65.756
X70.296Y-132.304
X70.55Y-107.92
X70.55Y-110.714
X70.55Y-116.556
X70.55Y-137.638
X71.058Y-86.838
X71.312Y-123.414
X71.566Y-130.78
X72.328Y-91.664
X72.582Y-72.868
X72.582Y-144.75
X72.836Y-81.25
X73.344Y-94.204
X73.344Y-119.858
X73.598Y-130.272
X73.598Y-135.098
X73.598Y-140.686
X73.852Y-98.268
X74.106Y-61.184
X75.122Y-74.138
X75.376Y-129.002
X75.63Y-110.714
X75.63Y-116.556
X75.63Y-122.906
X75.884Y-107.92
X76.392Y-137.892
X76.9Y-81.25
X76.9Y-142.972
X77.154Y-97.76
X77.408Y-144.496
X77.662Y-87.6
X77.662Y-102.586
X77.916Y-146.782
X77.916Y-150.846
X78.17Y-109.19
X78.424Y-93.696
X78.678Y-56.104
X78.932Y-102.586
X79.694Y-140.432
X79.948Y-67.026
X79.948Y-99.284
X80.456Y-110.714
X80.456Y-116.556
X80.456Y-122.906
X80.456Y-154.402
X80.71Y-53.564
X80.964Y-102.586
X80.964Y-137.638
X81.472Y-74.9
X81.726Y-143.988
X82.488Y-119.858
X82.488Y-150.592
X82.742Y-89.124
X82.742Y-140.432
X82.742Y-146.782
X83.25Y-109.19
X83.758Y-144.496
X84.266Y-53.564
X84.266Y-81.504
X84.52Y-93.442
X84.52Y-159.482
X85.028Y-97.252
X85.028Y-110.714
X85.028Y-116.556
X85.028Y-122.906
X86.298Y-61.946
X86.298Y-133.066
X86.552Y-147.29
X86.806Y-143.226
X87.314Y-137.638
X87.314Y-151.354
X87.568Y-85.568
X87.568Y-99.284
X87.568Y-141.194
X87.822Y-93.442
X88.076Y-107.666
X88.33Y-133.066
X88.33Y-164.562
X88.838Y-101.316
X88.838Y-104.872
X89.346Y-160.244
X89.6Y-95.474
X89.6Y-133.066
X90.108Y-113.508
X90.108Y-116.556
X90.108Y-122.906
X90.616Y-47.976
X90.616Y-91.664
X90.616Y-150.084
X91.124Y-97.506
X91.124Y-164.562
X91.378Y-73.63
X91.378Y-103.856
X91.378Y-105.888
X91.632Y-86.838
X91.632Y-146.782
X91.632Y-163.038
X91.886Y-167.356
X92.394Y-137.892
X92.648Y-53.564
X92.648Y-79.98
X92.648Y-142.21
X92.902Y-66.264
X93.156Y-120.62
X93.156Y-158.974
X93.41Y-92.426
X93.41Y-110.46
X93.664Y-117.572
X93.664Y-148.814
X94.172Y-104.872
X94.172Y-152.878
X94.426Y-113.762
X94.68Y-101.316
X94.742Y-121.666
X94.934Y-95.22
X95.442Y-90.394
X95.442Y-156.688
X95.696Y-146.528
X95.696Y-163.8
X95.696Y-164.816
X96.204Y-50.262
X96.229Y-120.93
X96.266Y-131.572
X96.458Y-82.52
X96.458Y-103.856
X96.712Y-110.714
X97.22Y-163.546
X97.728Y-40.61
X97.728Y-42.896
X97.728Y-86.838
X97.728Y-98.776
X97.728Y-113.508
X97.728Y-117.064
X97.79Y-120.142
X97.982Y-161.768
X98.044Y-129.794
X98.49Y-101.316
X98.49Y-142.21
X98.744Y-148.306
X98.744Y-153.132
X98.998Y-104.872
X98.998Y-134.59
X99.252Y-156.688
X99.314Y-120.142
X100.014Y-61.946
X100.014Y-96.236
X100.076Y-120.93
X100.268Y-46.96
X100.268Y-53.564
X100.268Y-110.714
X100.776Y-74.392
X100.838Y-121.666
X101.03Y-91.156
X101.03Y-114.016
X101.03Y-150.338
X101.03Y-160.498
X101.792Y-140.178
X102.046Y-103.094
X102.046Y-137.638
X102.3Y-79.472
X102.3Y-143.734
X102.555Y-127.22
X102.808Y-68.042
X102.808Y-120.874
X103.062Y-97.506
X103.57Y-50.516
X103.57Y-148.052
X103.824Y-42.134
X103.824Y-106.904
X103.824Y-151.608
X104.078Y-117.318
X104.332Y-110.46
X104.332Y-134.59
X104.332Y-157.704
X104.586Y-86.838
X104.84Y-91.156
X105.094Y-100.808
X105.348Y-145.766
X105.856Y-113.508
X105.856Y-140.178
X106.11Y-95.728
X106.364Y-39.848
X106.618Y-107.412
X106.872Y-126.97
X106.872Y-131.034
X107.126Y-34.768
X107.126Y-155.672
X107.38Y-37.308
X107.38Y-153.132
X107.634Y-46.198
X107.634Y-53.564
X107.634Y-97.252
X107.634Y-100.046
X107.634Y-102.586
X107.888Y-32.736
X108.142Y-142.972
X108.396Y-93.95
X109.158Y-62.962
X109.412Y-117.318
X109.412Y-120.874
X109.92Y-72.106
X109.92Y-76.424
X109.92Y-83.79
X109.92Y-90.394
X110.428Y-99.03
X110.428Y-104.11
X110.428Y-140.178
X110.682Y-134.59
X110.682Y-148.052
X110.936Y-42.642
X110.936Y-50.262
X111.506Y-151.13
X111.506Y-152.13
X111.698Y-129.256
X111.952Y-35.022
X112.46Y-145.766
X112.968Y-74.422
X113.005Y-72.165
X113.222Y-76.17
X113.222Y-105.634
X113.476Y-79.98
X113.476Y-92.172
X113.73Y-142.972
X114.709Y-77.263
X114.746Y-39.848
X114.746Y-123.922
X114.746Y-137.892
X115.762Y-53.056
X115.762Y-73.376
X116.016Y-133.574
X116.019Y-149.275
X116.27Y-117.318
X116.492Y-148.27
X116.524Y-62.962
X116.75Y-71.938
X116.778Y-46.452
X117.032Y-147.036
X117.286Y-140.94
X118.302Y-67.534
X118.81Y-82.52
X119.318Y-127.732
X120.588Y-71.09
X120.588Y-75.662
X120.842Y-113.0
X120.904Y-73.66
X121.158Y-83.566
X121.179Y-78.195
X121.604Y-122.144
X122.112Y-137.638
X122.428Y-69.088
X122.874Y-52.802
X123.382Y-105.38
X123.382Y-117.318
X123.636Y-75.662
X123.636Y-96.236
X123.636Y-141.956
X123.698Y-74.168
X124.206Y-77.47
X124.398Y-69.82
X124.906Y-59.152
X125.73Y-81.485
X125.73Y-85.635
X125.922Y-89.124
X126.684Y-112.746
X126.684Y-125.192
X126.938Y-139.162
X127.446Y-131.542
X128.97Y-80.996
X129.224Y-74.138
X130.24Y-136.622
X130.494Y-74.138
X131.002Y-116.302
X131.764Y-66.264
X132.018Y-101.57
X132.526Y-74.138
X133.288Y-133.828
X133.796Y-124.938
X135.828Y-105.126
X136.336Y-119.096
X136.59Y-80.996
X136.59Y-89.124
X136.59Y-130.78
X137.098Y-112.492
X137.86Y-95.728
X139.384Y-71.09
X139.892Y-127.732
X141.162Y-93.696
X141.416Y-74.646
X141.924Y-82.012
X142.432Y-116.048
X143.256Y-93.98
X143.956Y-96.236
X143.956Y-110.714
X144.718Y-125.446
X146.242Y-82.012
X146.242Y-121.128
X147.512Y-104.872
X149.036Y-117.572
X149.544Y-88.108
X150.56Y-114.016
X151.068Y-121.382
X152.146Y-93.98
X154.37Y-100.3
X154.37Y-106.396
X154.624Y-112.492
X156.148Y-118.334
X156.402Y-103.348
X156.656Y-111.222
X157.164Y-96.49
X158.434Y-109.698
X158.688Y-106.142
X160.212Y-100.046
X160.974Y-108.682
X161.482Y-111.476
X163.26Y-107.412
X163.26Y-111.476
X165.038Y-104.872
X165.038Y-109.698
X167.07Y-109.19
T2
X36.26Y-95.42
X39.882Y-85.141
X40.742Y-96.513
X42.247Y-91.073
X43.51Y-106.19
X45.849Y-84.169
X47.431Y-82.181
X61.793Y-115.826
X62.93Y-102.586
X62.93Y-105.126
X64.573Y-79.546
X66.571Y-133.429
X72.417Y-132.872
X75.258Y-90.995
X76.122Y-71.543
X76.709Y-133.262
X77.755Y-77.755
X78.166Y-131.182
X79.61Y-143.726
X79.678Y-152.267
X80.71Y-133.066
X81.196Y-84.221
X82.974Y-95.438
X83.25Y-133.066
X84.012Y-102.586
X84.012Y-105.126
X84.751Y-148.362
X84.959Y-141.324
X87.334Y-72.837
X87.726Y-66.277
X87.785Y-91.447
X88.684Y-80.4
X89.839Y-137.921
X90.04Y-166.64
X90.786Y-152.254
X91.954Y-101.419
X93.045Y-164.918
X93.324Y-90.466
X94.72Y-59.892
X95.199Y-109.223
X95.66Y-161.81
X95.712Y-149.012
X96.432Y-79.762
X96.52Y-96.811
X97.484Y-90.61
X97.524Y-71.7
X98.141Y-93.064
X100.0Y-145.017
X100.0Y-65.417
X100.536Y-106.126
X101.067Y-152.562
X101.41Y-41.47
X103.522Y-140.263
X104.048Y-36.408
X104.332Y-126.97
X104.332Y-129.51
X104.411Y-94.252
X106.312Y-42.206
X106.926Y-74.154
X107.577Y-104.827
X109.364Y-153.111
X109.989Y-33.685
X110.363Y-96.228
X110.497Y-40.473
X110.938Y-37.972
X111.03Y-44.583
X111.365Y-68.774
X112.346Y-139.157
X112.975Y-148.426
X115.744Y-143.258
X116.016Y-75.662
X116.016Y-78.202
X117.557Y-137.651
X135.574Y-74.138
X135.574Y-76.678
X139.001Y-114.195
X139.791Y-91.179
X154.664Y-93.943
X155.405Y-108.532
X156.377Y-106.185
X157.699Y-113.989
X160.999Y-106.473
X162.345Y-104.319
X165.87Y-106.97
T0
M30
