G04 #@! TF.GenerationSoftware,KiCad,Pcbnew,5.1.9+dfsg1-1+deb11u1*
G04 #@! TF.CreationDate,2024-07-30T12:46:16+01:00*
G04 #@! TF.ProjectId,drivers,64726976-6572-4732-9e6b-696361645f70,rev?*
G04 #@! TF.SameCoordinates,Original*
G04 #@! TF.FileFunction,Legend,Top*
G04 #@! TF.FilePolarity,Positive*
%FSLAX46Y46*%
G04 Gerber Fmt 4.6, Leading zero omitted, Abs format (unit mm)*
G04 Created by KiCad (PCBNEW 5.1.9+dfsg1-1+deb11u1) date 2024-07-30 12:46:16*
%MOMM*%
%LPD*%
G01*
G04 APERTURE LIST*
G04 #@! TA.AperFunction,Profile*
%ADD10C,0.050000*%
G04 #@! TD*
G04 #@! TA.AperFunction,Profile*
%ADD11C,0.150000*%
G04 #@! TD*
%ADD12C,0.150000*%
%ADD13C,1.800000*%
%ADD14R,1.800000X1.800000*%
G04 APERTURE END LIST*
D10*
X89068477Y-157426062D02*
G75*
G03*
X89068477Y-157426062I-1500000J0D01*
G01*
X120564477Y-50770062D02*
G75*
G03*
X120564477Y-50770062I-1500000J0D01*
G01*
X143424477Y-106372062D02*
G75*
G03*
X143424477Y-106372062I-1500000J0D01*
G01*
X51984477Y-103372062D02*
G75*
G03*
X51984477Y-103372062I-1500000J0D01*
G01*
D11*
X168510657Y-107287602D02*
X168025517Y-110929962D01*
X31975497Y-89073262D02*
X31487817Y-92710542D01*
X92706897Y-168514302D02*
X89074697Y-168029162D01*
X107296657Y-31483842D02*
X110908537Y-31951202D01*
D12*
X104753334Y-61557633D02*
X104420000Y-61557633D01*
X104420000Y-62081442D02*
X104420000Y-61081442D01*
X104896191Y-61081442D01*
X105277143Y-62081442D02*
X105277143Y-61414776D01*
X105277143Y-61605252D02*
X105324762Y-61510014D01*
X105372381Y-61462395D01*
X105467619Y-61414776D01*
X105562857Y-61414776D01*
X106039048Y-62081442D02*
X105943810Y-62033823D01*
X105896191Y-61986204D01*
X105848572Y-61890966D01*
X105848572Y-61605252D01*
X105896191Y-61510014D01*
X105943810Y-61462395D01*
X106039048Y-61414776D01*
X106181905Y-61414776D01*
X106277143Y-61462395D01*
X106324762Y-61510014D01*
X106372381Y-61605252D01*
X106372381Y-61890966D01*
X106324762Y-61986204D01*
X106277143Y-62033823D01*
X106181905Y-62081442D01*
X106039048Y-62081442D01*
X106800953Y-61414776D02*
X106800953Y-62081442D01*
X106800953Y-61510014D02*
X106848572Y-61462395D01*
X106943810Y-61414776D01*
X107086667Y-61414776D01*
X107181905Y-61462395D01*
X107229524Y-61557633D01*
X107229524Y-62081442D01*
X107562857Y-61414776D02*
X107943810Y-61414776D01*
X107705715Y-61081442D02*
X107705715Y-61938585D01*
X107753334Y-62033823D01*
X107848572Y-62081442D01*
X107943810Y-62081442D01*
X104920000Y-62731442D02*
X105491429Y-62731442D01*
X105205715Y-63731442D02*
X105205715Y-62731442D01*
X105967619Y-63731442D02*
X105872381Y-63683823D01*
X105824762Y-63636204D01*
X105777143Y-63540966D01*
X105777143Y-63255252D01*
X105824762Y-63160014D01*
X105872381Y-63112395D01*
X105967619Y-63064776D01*
X106110477Y-63064776D01*
X106205715Y-63112395D01*
X106253334Y-63160014D01*
X106300953Y-63255252D01*
X106300953Y-63540966D01*
X106253334Y-63636204D01*
X106205715Y-63683823D01*
X106110477Y-63731442D01*
X105967619Y-63731442D01*
X106729524Y-63064776D02*
X106729524Y-64064776D01*
X106729524Y-63112395D02*
X106824762Y-63064776D01*
X107015238Y-63064776D01*
X107110477Y-63112395D01*
X107158096Y-63160014D01*
X107205715Y-63255252D01*
X107205715Y-63540966D01*
X107158096Y-63636204D01*
X107110477Y-63683823D01*
X107015238Y-63731442D01*
X106824762Y-63731442D01*
X106729524Y-63683823D01*
D11*
X92706897Y-168514302D02*
X168025517Y-110929962D01*
X168510657Y-107287602D02*
X110908537Y-31951202D01*
X31975497Y-89073262D02*
X107296657Y-31483842D01*
X89074697Y-168029162D02*
X31487817Y-92710542D01*
D10*
X103370000Y-99951320D02*
G75*
G03*
X103370000Y-99951320I-1500000J0D01*
G01*
%LPC*%
D13*
X97484089Y-90610486D03*
D14*
X160999412Y-106473216D03*
X98141489Y-93063938D03*
X93324310Y-90466117D03*
X87784864Y-91446859D03*
X82974182Y-95437930D03*
X96431602Y-79762476D03*
X88683876Y-80399837D03*
X81195598Y-84221183D03*
X75257910Y-90994566D03*
X106925511Y-74153835D03*
X97524136Y-71700073D03*
X87333737Y-72836949D03*
X77754778Y-77754666D03*
X111365416Y-68774046D03*
X100000104Y-65416548D03*
X87725815Y-66276612D03*
X78166096Y-131181806D03*
X89839052Y-137920589D03*
X103522366Y-140262726D03*
X117556827Y-137651159D03*
X72416832Y-132872033D03*
X84959012Y-141324156D03*
X99999773Y-145016607D03*
X115744334Y-143257908D03*
X66570775Y-133428856D03*
X79609763Y-143726347D03*
X95711718Y-149011905D03*
X112975293Y-148425653D03*
X84751055Y-148362405D03*
X101066678Y-152562298D03*
X90785752Y-152254480D03*
X47430638Y-82181328D03*
X155405119Y-108531957D03*
X43510000Y-106190000D03*
X106312274Y-42205966D03*
X101410000Y-41470000D03*
X157698852Y-113989468D03*
X40742051Y-96513347D03*
X110496779Y-40472920D03*
X95660000Y-161810000D03*
X104048316Y-36407720D03*
X36260000Y-95420000D03*
X93044912Y-164917920D03*
X165870000Y-106970000D03*
D13*
X96520051Y-96811214D03*
X100535924Y-106125638D03*
X104410827Y-94251699D03*
X91954120Y-101418705D03*
X107577395Y-104827335D03*
X95198809Y-109222998D03*
X110363000Y-96228179D03*
X94719777Y-59891607D03*
X76709204Y-133262446D03*
X139790982Y-91178704D03*
X64573156Y-79546128D03*
X112346035Y-139157128D03*
X154664068Y-93943054D03*
X61792553Y-115825874D03*
X139000543Y-114195204D03*
X111029568Y-44583000D03*
X162345406Y-104319174D03*
X156377135Y-106185303D03*
X42246701Y-91072607D03*
X79677765Y-152266742D03*
X39882458Y-85141438D03*
X45849450Y-84169152D03*
X110937867Y-37971512D03*
D14*
X76122098Y-71543224D03*
X109364467Y-153110749D03*
X109988644Y-33685157D03*
X90040000Y-166640000D03*
X84012477Y-105126062D03*
X80710477Y-133066062D03*
X135574477Y-76678062D03*
D13*
X62930477Y-105126062D03*
D14*
X62930477Y-102586062D03*
D13*
X104332477Y-126970062D03*
D14*
X104332477Y-129510062D03*
D13*
X116016477Y-78202062D03*
D14*
X116016477Y-75662062D03*
D13*
X84012477Y-102586062D03*
X83250477Y-133066062D03*
X135574477Y-74138062D03*
M02*
