%FSLAX45Y45*%
G04 Gerber Fmt 4.5, Leading zero omitted, Abs format (unit mm)*
G04 Created by KiCad (PCBNEW 5.1.9+dfsg1-1+deb11u1) date 2024-07-30 12:47:27*
%MOMM*%
%LPD*%
G01*
G04 APERTURE LIST*
%TA.AperFunction,Profile*%
%ADD10C,0.050000*%
%TD*%
%TA.AperFunction,Profile*%
%ADD11C,0.150000*%
%TD*%
%ADD12C,0.200000*%
%ADD13C,0.300000*%
G04 APERTURE END LIST*
D10*
X8906848Y-15742606D02*
G75*
G03*
X8906848Y-15742606I-150000J0D01*
G01*
X12056448Y-5077006D02*
G75*
G03*
X12056448Y-5077006I-150000J0D01*
G01*
X14342448Y-10637206D02*
G75*
G03*
X14342448Y-10637206I-150000J0D01*
G01*
X5198448Y-10337206D02*
G75*
G03*
X5198448Y-10337206I-150000J0D01*
G01*
D11*
X16851066Y-10728760D02*
X16802552Y-11092996D01*
X3197550Y-8907326D02*
X3148782Y-9271054D01*
X9270690Y-16851430D02*
X8907470Y-16802916D01*
X10729666Y-3148384D02*
X11090854Y-3195120D01*
X9270690Y-16851430D02*
X16802552Y-11092996D01*
X16851066Y-10728760D02*
X11090854Y-3195120D01*
X3197550Y-8907326D02*
X10729666Y-3148384D01*
X8907470Y-16802916D02*
X3148782Y-9271054D01*
D10*
X10337000Y-9995132D02*
G75*
G03*
X10337000Y-9995132I-150000J0D01*
G01*
D12*
D13*
X3427710Y-17324645D02*
X3427710Y-17024645D01*
X3499139Y-17024645D01*
X3541996Y-17038930D01*
X3570567Y-17067502D01*
X3584853Y-17096073D01*
X3599139Y-17153216D01*
X3599139Y-17196073D01*
X3584853Y-17253216D01*
X3570567Y-17281787D01*
X3541996Y-17310359D01*
X3499139Y-17324645D01*
X3427710Y-17324645D01*
X3727710Y-17324645D02*
X3727710Y-17124645D01*
X3727710Y-17181787D02*
X3741996Y-17153216D01*
X3756282Y-17138930D01*
X3784853Y-17124645D01*
X3813424Y-17124645D01*
X3913424Y-17324645D02*
X3913424Y-17124645D01*
X3913424Y-17024645D02*
X3899139Y-17038930D01*
X3913424Y-17053216D01*
X3927710Y-17038930D01*
X3913424Y-17024645D01*
X3913424Y-17053216D01*
X4099139Y-17324645D02*
X4070567Y-17310359D01*
X4056282Y-17281787D01*
X4056282Y-17024645D01*
X4256282Y-17324645D02*
X4227710Y-17310359D01*
X4213424Y-17281787D01*
X4213424Y-17024645D01*
X4599139Y-17324645D02*
X4599139Y-17024645D01*
X4699139Y-17238930D01*
X4799139Y-17024645D01*
X4799139Y-17324645D01*
X5070567Y-17324645D02*
X5070567Y-17167502D01*
X5056282Y-17138930D01*
X5027710Y-17124645D01*
X4970567Y-17124645D01*
X4941996Y-17138930D01*
X5070567Y-17310359D02*
X5041996Y-17324645D01*
X4970567Y-17324645D01*
X4941996Y-17310359D01*
X4927710Y-17281787D01*
X4927710Y-17253216D01*
X4941996Y-17224645D01*
X4970567Y-17210359D01*
X5041996Y-17210359D01*
X5070567Y-17196073D01*
X5213424Y-17124645D02*
X5213424Y-17424645D01*
X5213424Y-17138930D02*
X5241996Y-17124645D01*
X5299139Y-17124645D01*
X5327710Y-17138930D01*
X5341996Y-17153216D01*
X5356282Y-17181787D01*
X5356282Y-17267502D01*
X5341996Y-17296073D01*
X5327710Y-17310359D01*
X5299139Y-17324645D01*
X5241996Y-17324645D01*
X5213424Y-17310359D01*
X5484853Y-17296073D02*
X5499139Y-17310359D01*
X5484853Y-17324645D01*
X5470567Y-17310359D01*
X5484853Y-17296073D01*
X5484853Y-17324645D01*
X5484853Y-17138930D02*
X5499139Y-17153216D01*
X5484853Y-17167502D01*
X5470567Y-17153216D01*
X5484853Y-17138930D01*
X5484853Y-17167502D01*
M02*
