<?xml version="1.0" encoding="UTF-8"?>
<svg xmlns="http://www.w3.org/2000/svg" version="1.0" width="150mm" height="150mm" viewBox="0 0 150 150">
<style>*{stroke:#000;stroke-width: 0.1;}.led{stroke:#000;fill:yellow;}.outline{stroke:#000;fill:#EEE;}.box{stroke:#000;fill:none;stroke-opacity:0.5;stroke-linecap:square;}.guides{stroke:#808080;fill:none;stroke-opacity:0.5;stroke-linecap:square;}.minor{stroke-dasharray:1;stroke-linecap:butt;}.watermark{fill:#000;;fill-opacity:0.5;}text{font-family:sans-serif;}.t10{font-size:10px;}.t20{font-size:20px;}.tr{text-anchor:end;}.sn{stroke:#C8F;}.line-series {stroke-linecap: round;stroke-line-join: round;fill:none;}.histogram-series {stroke-linecap: round;stroke-line-join: round;fill:none;}.s0{stroke:#080;}.s1{stroke:#800;}.s2{stroke:#008;}.s3{stroke:#088;}.l0{fill:#080;}.l1{fill:#800;}.l2{fill:#008;}.l3{fill:#088;}</style>
<defs>
<circle id="led" class="led" r="2.925" /></defs>
<circle class="outline" cx="75.0" cy="75.0" r="68" />
<circle class="outline" cx="75.0" cy="75.0" r="55" />
<circle class="outline" cx="75.0" cy="75.0" r="50" />
<line x1="5" y1="10" x2="145" y2="10" style="stroke-linecap: butt; strokewidth: 15;" />
<text x="5" y="20" style="font-size: 2mm">140mm</text>
<text x="5" y="130" style="font-size: 2mm">390</text>
<text x="5" y="140" style="font-size: 2mm">3.45</text>
<g transform="translate(75.0,75.0)">
<circle id="led" class="led" r="2.925" cx="-2.5436067469065" cy="-2.33078628730558" />
<circle id="led" class="led" r="2.925" cx="0.425235803879541" cy="4.86047060592891" />
<circle id="led" class="led" r="2.925" cx="3.63770014748626" cy="-4.74074230864518" />
<circle id="led" class="led" r="2.925" cx="-6.79517362962256" cy="1.1981716668667" />
<circle id="led" class="led" r="2.925" cx="6.50628750670276" cy="4.14496355594638" />
<circle id="led" class="led" r="2.925" cx="-2.18721098924297" cy="-8.16278800953049" />
<circle id="led" class="led" r="2.925" cx="-4.21476997872042" cy="8.09649393419628" />
<circle id="led" class="led" r="2.925" cx="9.16959048216552" cy="-3.33745567601722" />
<circle id="led" class="led" r="2.925" cx="-9.56215216603146" cy="-3.96077592823173" />
<circle id="led" class="led" r="2.925" cx="4.61070243200309" cy="9.88769048279328" />
<circle id="led" class="led" r="2.925" cx="3.44078601906857" cy="-10.9127673653836" />
<circle id="led" class="led" r="2.925" cx="-10.3500020024522" cy="5.97557181776232" />
<circle id="led" class="led" r="2.925" cx="12.1442933548703" cy="2.69232964379422" />
<circle id="led" class="led" r="2.925" cx="-7.40413232527306" cy="-10.5742056207474" />
<circle id="led" class="led" r="2.925" cx="-1.74406945119913" cy="13.2474798263441" />
<circle id="led" class="led" r="2.925" cx="10.5714172784407" cy="-8.87046429027733" />
<circle id="led" class="led" r="2.925" cx="-14.2111753376415" cy="-0.620480074467234" />
<circle id="led" class="led" r="2.925" cx="10.3499947974737" cy="10.3500052025237" />
<circle id="led" class="led" r="2.925" cx="-0.655949158741906" cy="-15.0238886677566" />
<circle id="led" class="led" r="2.925" cx="-9.91749245458562" cy="11.8191938563185" />
<circle id="led" class="led" r="2.925" cx="15.6746315901098" cy="-2.06359504611076" />
<circle id="led" class="led" r="2.925" cx="-13.2554589186294" cy="-9.2815843936543" />
<circle id="led" class="led" r="2.925" cx="3.58111696065807" cy="16.1534238263622" />
<circle id="led" class="led" r="2.925" cx="8.45074942257521" cy="-14.6371047067665" />
<circle id="led" class="led" r="2.925" cx="-16.4516210217674" cy="5.18716355594675" />
<circle id="led" class="led" r="2.925" cx="15.9434143674502" cy="7.43455030972176" />
<circle id="led" class="led" r="2.925" cx="-6.86024849486485" cy="-16.5621402780167" />
<circle id="led" class="led" r="2.925" cx="-6.24382508757339" cy="17.154726703617" />
<circle id="led" class="led" r="2.925" cx="16.4796202996115" cy="-8.57873037113484" />
<circle id="led" class="led" r="2.925" cx="-18.2525439584556" cy="-4.89077080271068" />
<circle id="led" class="led" r="2.925" cx="10.3208597350723" cy="16.2005356185826" />
<circle id="led" class="led" r="2.925" cx="3.38896056454626" cy="-19.2196500044083" />
<circle id="led" class="led" r="2.925" cx="-15.7232755945889" cy="12.0648706821335" />
<circle id="led" class="led" r="2.925" cx="20.040231935827" cy="1.75331228201362" />
<circle id="led" class="led" r="2.925" cx="-13.789102504828" cy="-15.0481943139815" />
<circle id="led" class="led" r="2.925" cx="-2.08100999799267e-05" cy="20.6999999999895" />
<circle id="led" class="led" r="2.925" cx="14.1776350489978" cy="-15.4721415588609" />
<circle id="led" class="led" r="2.925" cx="-21.186302052702" cy="1.85353859729819" />
<circle id="led" class="led" r="2.925" cx="17.0929762918971" cy="13.1159315904225" />
<circle id="led" class="led" r="2.925" cx="-3.78892989265906" cy="-21.4882295750142" />
<circle id="led" class="led" r="2.925" cx="-11.8693880318307" cy="18.6311601289301" />
<circle id="led" class="led" r="2.925" cx="21.5967128957422" cy="-5.78679463078511" />
<circle id="led" class="led" r="2.925" cx="-20.066978037096" cy="-10.446238196533" />
<circle id="led" class="led" r="2.925" cx="7.82700573127274" cy="21.5046037229851" />
<circle id="led" class="led" r="2.925" cx="8.85658571451434" cy="-21.3816133507615" />
<circle id="led" class="led" r="2.925" cx="-21.206743451914" cy="9.88883371104511" />
<circle id="led" class="led" r="2.925" cx="22.5573119681222" cy="7.11232569366819" />
<circle id="led" class="led" r="2.925" cx="-11.9511228254147" cy="-20.7000160196037" />
<circle id="led" class="led" r="2.925" cx="-5.22704893895368" cy="23.5775414195328" />
<circle id="led" class="led" r="2.925" cx="19.9833843415938" cy="-13.9924747723962" />
<circle id="led" class="led" r="2.925" cx="-24.4271426081916" cy="-3.21592972545564" />
<circle id="led" class="led" r="2.925" cx="15.9914377586162" cy="19.0579096023751" />
<circle id="led" class="led" r="2.925" cx="1.09559820814667" cy="-25.0924722689157" />
<circle id="led" class="led" r="2.925" cx="-17.9267528914306" cy="17.9266988252044" />
<circle id="led" class="led" r="2.925" cx="25.5615344016378" cy="-1.1160013592676" />
<circle id="led" class="led" r="2.925" cx="-19.7772774074618" cy="-16.5951588828882" />
<circle id="led" class="led" r="2.925" cx="3.39976532988048" cy="25.8240991266248" />
<circle id="led" class="led" r="2.925" cx="15.0704214534564" cy="-21.5227181651203" />
<circle id="led" class="led" r="2.925" cx="-25.871807586977" cy="5.73559693340082" />
<circle id="led" class="led" r="2.925" cx="23.1432811789873" cy="13.3618313217289" />
<circle id="led" class="led" r="2.925" cx="-8.10258266139904" cy="-25.6982616963715" />
<circle id="led" class="led" r="2.925" cx="-11.4806059731084" cy="24.6201276700635" />
<circle id="led" class="led" r="2.925" cx="25.2990976997565" cy="-10.4791772376545" />
<circle id="led" class="led" r="2.925" cx="-25.9354994626015" cy="-9.43980230859723" />
<circle id="led" class="led" r="2.925" cx="12.8433955714701" cy="24.6720426838708" />
<circle id="led" class="led" r="2.925" cx="7.25421262244866" cy="-27.0728904852863" />
<circle id="led" class="led" r="2.925" cx="-23.8169533441113" cy="15.1730100311186" />
<circle id="led" class="led" r="2.925" cx="28.01720868636" cy="4.94024467257987" />
<circle id="led" class="led" r="2.925" cx="-17.4457513261787" cy="-22.7358364848346" />
<circle id="led" class="led" r="2.925" cx="-2.51578675812663" cy="28.7549268298084" />
<circle id="led" class="led" r="2.925" cx="21.4328509014803" cy="-19.6395112524451" />
<circle id="led" class="led" r="2.925" cx="-29.2742207410639" cy="-5.88598512518751e-05" />
<circle id="led" class="led" r="2.925" cx="21.7325455318059" cy="19.914290464588" />
<circle id="led" class="led" r="2.925" cx="-2.58654896969394" cy="-29.5650936820328" />
<circle id="led" class="led" r="2.925" cx="-18.1885483969704" cy="23.7036749726929" />
<circle id="led" class="led" r="2.925" cx="29.6194856562535" cy="-5.22264965884129" />
<circle id="led" class="led" r="2.925" cx="-25.5324831843638" cy="-16.2660629053309" />
<circle id="led" class="led" r="2.925" cx="7.88604219617445" cy="29.4313665751381" />
<circle id="led" class="led" r="2.925" cx="14.1592444952537" cy="-27.1995091007839" />
<circle id="led" class="led" r="2.925" cx="-28.9968123547788" cy="10.5539032240089" />
<circle id="led" class="led" r="2.925" cx="28.6864326069807" cy="11.8823854627409" />
<circle id="led" class="led" r="2.925" cx="-13.2029855501911" cy="-28.3140631588164" />
<circle id="led" class="led" r="2.925" cx="-9.45155221523746" cy="29.9762516122787" />
<circle id="led" class="led" r="2.925" cx="27.383563155388" cy="-15.8098219128136" />
<circle id="led" class="led" r="2.925" cx="-31.053448980515" cy="-6.88446122906867" />
<circle id="led" class="led" r="2.925" cx="18.3509322771982" cy="26.2079813140518" />
<circle id="led" class="led" r="2.925" cx="4.20033959740953" cy="-31.9041478066165" />
<circle id="led" class="led" r="2.925" cx="-24.7922129306452" cy="20.8030329039193" />
<circle id="led" class="led" r="2.925" cx="32.5162536212832" cy="1.41977126199435" />
<circle id="led" class="led" r="2.925" cx="-23.1432454010517" cy="-23.1433617330478" />
<circle id="led" class="led" r="2.925" cx="1.43546984812784" cy="32.8795822101668" />
<circle id="led" class="led" r="2.925" cx="21.2707025873614" cy="-25.3493039636204" />
<circle id="led" class="led" r="2.925" cx="-32.9859718501112" cy="4.34259842763167" />
<circle id="led" class="led" r="2.925" cx="27.3997590081453" cy="19.1856249910072" />
<circle id="led" class="led" r="2.925" cx="-7.27800670383411" cy="-32.8293788917632" />
<circle id="led" class="led" r="2.925" cx="-16.9015577049443" cy="29.2741754306836" />
<circle id="led" class="led" r="2.925" cx="32.405955754165" cy="-10.2174620948207" />
<circle id="led" class="led" r="2.925" cx="-30.9533237522066" cy="-14.4338750407188" />
<circle id="led" class="led" r="2.925" cx="13.1363119842978" cy="31.7141105417004" />
<circle id="led" class="led" r="2.925" cx="11.7997854775484" cy="-32.4193624657216" />
<circle id="led" class="led" r="2.925" cx="-30.7545476458065" cy="16.0096939103101" />
<circle id="led" class="led" r="2.925" cx="33.6560099644631" cy="9.01820343926422" />
<circle id="led" class="led" r="2.925" cx="-18.8127494088743" cy="-29.5302888519381" />
<circle id="led" class="led" r="2.925" cx="-6.10960520900114" cy="34.6487045095505" />
<circle id="led" class="led" r="2.925" cx="28.0466746351043" cy="-21.5208397120698" />
<circle id="led" class="led" r="2.925" cx="-35.3847507879317" cy="-3.09587009998289" />
<circle id="led" class="led" r="2.925" cx="24.1097614737652" cy="26.3113454934967" />
<circle id="led" class="led" r="2.925" cx="0.000108132452446334" cy="-35.8534517165127" />
<circle id="led" class="led" r="2.925" cx="-24.3342033379707" cy="26.5559606850571" />
<circle id="led" class="led" r="2.925" cx="36.0462242653196" cy="-3.153524411557" />
<circle id="led" class="led" r="2.925" cx="-28.836742945823" cy="-22.1273531240528" />
<circle id="led" class="led" r="2.925" cx="6.34002007317635" cy="35.9566982003593" />
<circle id="led" class="led" r="2.925" cx="19.7050250812131" cy="-30.930478278694" />
<circle id="led" class="led" r="2.925" cx="-35.5807967845489" cy="9.53372436021919" />
<circle id="led" class="led" r="2.925" cx="32.8167987069415" cy="17.0834780600463" />
<circle id="led" class="led" r="2.925" cx="-12.7085472822224" cy="-34.9167986215162" />
<circle id="led" class="led" r="2.925" cx="-14.2808846804203" cy="34.4767868680441" />
<circle id="led" class="led" r="2.925" cx="33.9653799810964" cy="-15.8381805375409" />
<circle id="led" class="led" r="2.925" cx="-35.8931539998261" cy="-11.3171991210179" />
<circle id="led" class="led" r="2.925" cx="18.8963185549644" cy="32.729637105677" />
<circle id="led" class="led" r="2.925" cx="8.21400854188558" cy="-37.0504057153742" />
<circle id="led" class="led" r="2.925" cx="-31.2150881618228" cy="21.8568815490597" />
<circle id="led" class="led" r="2.925" cx="37.9349940759635" cy="4.99436927515561" />
<circle id="led" class="led" r="2.925" cx="-24.6942387201332" cy="-29.4296546706392" />
<circle id="led" class="led" r="2.925" cx="-1.68262905403058" cy="38.5354545771363" />
<circle id="led" class="led" r="2.925" cx="27.3836224214599" cy="-27.3834297172381" />
<circle id="led" class="led" r="2.925" cx="-38.8425267811658" cy="1.69576332500172" />
<circle id="led" class="led" r="2.925" cx="29.9003824854751" cy="25.0895820455881" />
<circle id="led" class="led" r="2.925" cx="-5.11445939793272" cy="-38.8492574583723" />
<circle id="led" class="led" r="2.925" cx="-22.5623495981605" cy="32.2221256376793" />
<circle id="led" class="led" r="2.925" cx="38.5510852391457" cy="-8.54642187609089" />
<circle id="led" class="led" r="2.925" cx="-34.3269935247154" cy="-19.8188676657913" />
<circle id="led" class="led" r="2.925" cx="11.9641432364034" cy="37.9459059269748" />
<circle id="led" class="led" r="2.925" cx="16.8780876835474" cy="-36.1948222284139" />
<circle id="led" class="led" r="2.925" cx="-37.0341177790831" cy="15.3398702838387" />
<circle id="led" class="led" r="2.925" cx="37.8071347658279" cy="13.7608343060486" />
<circle id="led" class="led" r="2.925" cx="-18.6458328500449" cy="-35.8186462241133" />
<circle id="led" class="led" r="2.925" cx="-10.4896528325643" cy="39.1473138727586" />
<circle id="led" class="led" r="2.925" cx="34.3049476544965" cy="-21.8544747459703" />
<circle id="led" class="led" r="2.925" cx="-40.2007608278098" cy="-7.08864083342001" />
<circle id="led" class="led" r="2.925" cx="24.9386850557552" cy="32.5009921031628" />
<circle id="led" class="led" r="2.925" cx="3.58326526392185" cy="-40.9550388847132" />
<circle id="led" class="led" r="2.925" cx="-30.4172247887639" cy="27.8720278442349" />
<circle id="led" class="led" r="2.925" cx="41.3999999996653" cy="0.000166480799838993" />
<circle id="led" class="led" r="2.925" cx="-30.6289683512241" cy="-28.0665066892856" />
<circle id="led" class="led" r="2.925" cx="3.63304930592662" cy="41.5278936708895" />
<circle id="led" class="led" r="2.925" cx="25.464034479008" cy="-33.1850937628914" />
<circle id="led" class="led" r="2.925" cx="-41.3334568486381" cy="7.28802750693011" />
<circle id="led" class="led" r="2.925" cx="35.51732668312" cy="22.6272403373573" />
<circle id="led" class="led" r="2.925" cx="-10.935890822034" cy="-40.813984024211" />
<circle id="led" class="led" r="2.925" cx="-19.5756723081303" cy="37.604129476491" />
<circle id="led" class="led" r="2.925" cx="39.9693767651239" cy="-14.5474712925503" />
<circle id="led" class="led" r="2.925" cx="-39.4256977182265" cy="-16.3308560532212" />
<circle id="led" class="led" r="2.925" cx="18.0935468626202" cy="38.8021721290209" />
<circle id="led" class="led" r="2.925" cx="12.9161390042548" cy="-40.9641410653607" />
<circle id="led" class="led" r="2.925" cx="-37.3175495600006" cy="21.5450805251895" />
<circle id="led" class="led" r="2.925" cx="42.203649956521" cy="9.35651806749949" />
<circle id="led" class="led" r="2.925" cx="-24.8734600946258" cy="-35.5233160462401" />
<circle id="led" class="led" r="2.925" cx="-5.67845218089423" cy="43.13064665443" />
<circle id="led" class="led" r="2.925" cx="33.4298694959379" cy="-28.050736629981" />
<circle id="led" class="led" r="2.925" cx="-43.733919264942" cy="-1.9096611551615" />
<circle id="led" class="led" r="2.925" cx="31.0498595315087" cy="31.0501404678558" />
<circle id="led" class="led" r="2.925" cx="-1.92108764638686" cy="-44.0047374978524" />
<circle id="led" class="led" r="2.925" cx="-28.3995125721476" cy="33.8449063474023" />
<circle id="led" class="led" r="2.925" cx="43.936949077183" cy="-5.78420312480708" />
<circle id="led" class="led" r="2.925" cx="-36.4113053588032" cy="-25.4957220346471" />
<circle id="led" class="led" r="2.925" cx="9.64950299725347" cy="43.5270558607632" />
<circle id="led" class="led" r="2.925" cx="22.3587370925437" cy="-38.726049057792" />
<circle id="led" class="led" r="2.925" cx="-42.7742688896831" cy="13.4864532384571" />
<circle id="led" class="led" r="2.925" cx="40.7678966958232" cy="19.0106180593553" />
<circle id="led" class="led" r="2.925" cx="-17.2644124982173" cy="-41.6805417562128" />
<circle id="led" class="led" r="2.925" cx="-15.4753590612452" cy="42.5175641579517" />
<circle id="led" class="led" r="2.925" cx="40.250581852727" cy="-20.9528795280487" />
<circle id="led" class="led" r="2.925" cx="-43.95789951077" cy="-11.7787126037207" />
<circle id="led" class="led" r="2.925" cx="24.5217416124719" cy="38.4918392427689" />
<circle id="led" class="led" r="2.925" cx="7.94799827588213" cy="-45.0740426787589" />
<circle id="led" class="led" r="2.925" cx="-36.4144730769419" cy="27.9415219794605" />
<circle id="led" class="led" r="2.925" cx="45.85356782365" cy="4.01189703780241" />
<circle id="led" class="led" r="2.925" cx="-31.1836241594661" cy="-34.0312956597477" />
<circle id="led" class="led" r="2.925" cx="-0.000232663992183019" cy="46.2866071336609" />
<circle id="led" class="led" r="2.925" cx="31.3576944568069" cy="-34.2205712745059" />
<circle id="led" class="led" r="2.925" cx="-46.365954873052" cy="4.05625796888077" />
<circle id="led" class="led" r="2.925" cx="37.0262382668767" cy="28.4115325141829" />
<circle id="led" class="led" r="2.925" cx="-8.12616395981933" cy="-46.0871506962422" />
<circle id="led" class="led" r="2.925" cx="-25.2130279407515" cy="39.5760751219583" />
<circle id="led" class="led" r="2.925" cx="45.4485413934644" cy="-12.1776469486741" />
<circle id="led" class="led" r="2.925" cx="-41.8473192004038" cy="-21.7846132795494" />
<circle id="led" class="led" r="2.925" cx="16.1786932170994" cy="44.4513204054388" />
<circle id="led" class="led" r="2.925" cx="18.1507757634212" cy="-43.8191948714944" />
<circle id="led" class="led" r="2.925" cx="-43.0995446213699" cy="20.0973693161704" />
<circle id="led" class="led" r="2.925" cx="45.4730987312642" cy="14.3378796122963" />
<circle id="led" class="led" r="2.925" cx="-23.9020791697087" cy="-41.4001281563835" />
<circle id="led" class="led" r="2.925" cx="-10.373971683053" cy="46.7927687951805" />
<circle id="led" class="led" r="2.925" cx="39.3628129897873" cy="-27.5618205772229" />
<circle id="led" class="led" r="2.925" cx="-47.7644361750625" cy="-6.28857192678735" />
<circle id="led" class="led" r="2.925" cx="31.0464390317942" cy="37.0001165328582" />
<circle id="led" class="led" r="2.925" cx="2.11245024111334" cy="-48.376957882641" />
<circle id="led" class="led" r="2.925" cx="-34.3272563827102" cy="34.3268767765971" />
<circle id="led" class="led" r="2.925" cx="48.6219295466614" cy="-2.12260857425329" />
<circle id="led" class="led" r="2.925" cx="-37.3754150491945" cy="-31.3620527054663" />
<circle id="led" class="led" r="2.925" cx="6.38404994294157" cy="48.4937769855682" />
<circle id="led" class="led" r="2.925" cx="28.1248088763553" cy="-40.165907504605" />
<circle id="led" class="led" r="2.925" cx="-47.9898257424096" cy="10.6388028092056" />
<circle id="led" class="led" r="2.925" cx="42.6740028669349" cy="24.638171184421" />
<circle id="led" class="led" r="2.925" cx="-14.8535391195838" cy="-47.1103478614093" />
<circle id="led" class="led" r="2.925" cx="-20.9269685842996" cy="44.8773549339947" />
<circle id="led" class="led" r="2.925" cx="45.858585365211" cy="-18.9949374387402" />
<circle id="led" class="led" r="2.925" cx="-46.7558181497684" cy="-17.018033645101" />
<circle id="led" class="led" r="2.925" cx="23.0299486025978" cy="44.2407500768432" />
<circle id="led" class="led" r="2.925" cx="12.94000600596" cy="-48.2916270648" />
<circle id="led" class="led" r="2.925" cx="-42.2659996192919" cy="26.9260612823713" />
<circle id="led" class="led" r="2.925" cx="49.4695581241936" cy="8.72311979724163" />
<circle id="led" class="led" r="2.925" cx="-30.6515653200302" cy="-39.9463896169845" />
<circle id="led" class="led" r="2.925" cx="-4.39897662524034" cy="50.2770723556035" />
<circle id="led" class="led" r="2.925" cx="37.2968023156204" cy="-34.1758107003994" />
<circle id="led" class="led" r="2.925" cx="-50.7044376746894" cy="-0.000305844761563148" />
<circle id="led" class="led" r="2.925" cx="37.4694600466326" cy="34.3348520284244" />
<circle id="led" class="led" r="2.925" cx="-4.43928604274121" cy="-50.7448296817589" />
<circle id="led" class="led" r="2.925" cx="-31.0807680060551" cy="40.5047325648965" />
<circle id="led" class="led" r="2.925" cx="50.3944099894925" cy="-8.8855749285533" />
<circle id="led" class="led" r="2.925" cx="-43.2556374196232" cy="-27.5572555132418" />
<circle id="led" class="led" r="2.925" cx="13.3039855526211" cy="49.6523812965264" />
<circle id="led" class="led" r="2.925" cx="23.7893360752665" cy="-45.6981945934194" />
<circle id="led" class="led" r="2.925" cx="-48.5210186038691" cy="17.6598627866411" />
<circle id="led" class="led" r="2.925" cx="47.810641374007" cy="19.8041680311517" />
<circle id="led" class="led" r="2.925" cx="-21.9187456033366" cy="-47.0056761591216" />
<circle id="led" class="led" r="2.925" cx="-15.6308486956323" cy="49.5736227146478" />
<circle id="led" class="led" r="2.925" cx="45.1147699060301" cy="-26.046641555601" />
<circle id="led" class="led" r="2.925" cx="-50.9703638330316" cy="-11.3001995879888" />
<circle id="led" class="led" r="2.925" cx="30.0102995720944" cy="42.8597354120759" />
<circle id="led" class="led" r="2.925" cx="6.84453633068393" cy="-51.9868235461444" />
<circle id="led" class="led" r="2.925" cx="-40.254961443557" cy="33.7774788753947" />
<circle id="led" class="led" r="2.925" cx="52.6118269838922" cy="2.29742495350557" />
<circle id="led" class="led" r="2.925" cx="-37.3172118466326" cy="-37.3176995538785" />
<circle id="led" class="led" r="2.925" cx="2.30657354103373" cy="52.8371764811463" />
<circle id="led" class="led" r="2.925" cx="34.0679502453108" cy="-40.6000586955613" />
<circle id="led" class="led" r="2.925" cx="-52.6577396154597" cy="6.93216839022574" />
<circle id="led" class="led" r="2.925" cx="43.5983518475093" cy="30.5283264556179" />
<circle id="led" class="led" r="2.925" cx="-11.543612010274" cy="-52.0715135343333" />
<circle id="led" class="led" r="2.925" cx="-26.7238953068872" cy="46.2864280283814" />
<circle id="led" class="led" r="2.925" cx="51.0796649004762" cy="-16.1049785363115" />
<circle id="led" class="led" r="2.925" cx="-48.6408461147247" cy="-22.6819992338346" />
<circle id="led" class="led" r="2.925" cx="20.5804457800569" cy="49.6865449744107" />
<circle id="led" class="led" r="2.925" cx="18.4320577802594" cy="-50.6405889182302" />
<circle id="led" class="led" r="2.925" cx="-47.8996795496813" cy="24.9345783809922" />
<circle id="led" class="led" r="2.925" cx="52.2672471912382" cy="14.0053515146891" />
<circle id="led" class="led" r="2.925" cx="-29.1326099044213" cy="-45.7297336549954" />
<circle id="led" class="led" r="2.925" cx="-9.43478966795403" cy="53.5051842714467" />
<circle id="led" class="led" r="2.925" cx="43.1904511387638" cy="-33.1407216341173" />
<circle id="led" class="led" r="2.925" cx="-54.3416799291614" cy="-4.7546632348231" />
<circle id="led" class="led" r="2.925" cx="36.9263158205804" cy="40.2985694525097" />
<circle id="led" class="led" r="2.925" cx="0.000385408443577244" cy="-54.7670521376809" />
<circle id="led" class="led" r="2.925" cx="-37.0737101494151" cy="40.4582811765052" />
<circle id="led" class="led" r="2.925" cx="54.7747556558721" cy="-4.79177867179933" />
<circle id="led" class="led" r="2.925" cx="-43.7072484597919" cy="-33.5382458109248" />
<circle id="led" class="led" r="2.925" cx="9.58499078099307" cy="54.3614564901298" />
<circle id="led" class="led" r="2.925" cx="29.7171443064141" cy="-46.6458340505533" />
<circle id="led" class="led" r="2.925" cx="-53.5270814895897" cy="14.3421249195097" />
<circle id="led" class="led" r="2.925" cx="49.2488695118544" cy="25.6377914767309" />
<circle id="led" class="led" r="2.925" cx="-19.0260568510432" cy="-52.2748425220093" />
<circle id="led" class="led" r="2.925" cx="-21.3297935106951" cy="51.4936152235508" />
<circle id="led" class="led" r="2.925" cx="50.6112348767492" cy="-23.5999555984863" />
<circle id="led" class="led" r="2.925" cx="-53.3599562941551" cy="-16.824760452555" />
<circle id="led" class="led" r="2.925" cx="28.0275745991603" cy="48.5460097442468" />
<circle id="led" class="led" r="2.925" cx="12.1560724369749" cy="-54.8305790860084" />
<circle id="led" class="led" r="2.925" cx="-46.0921208265835" cy="32.2735402103275" />
<circle id="led" class="led" r="2.925" cx="55.8911268334744" cy="7.35863039460997" />
<circle id="led" class="led" r="2.925" cx="-36.3036352636292" cy="-43.2656453395229" />
<circle id="led" class="led" r="2.925" cx="-2.46859310490486" cy="56.5303329910803" />
<circle id="led" class="led" r="2.925" cx="40.085679871499" cy="-40.0850753927157" />
<circle id="led" class="led" r="2.925" cx="-56.7401311174919" cy="2.47689740801484" />
<circle id="led" class="led" r="2.925" cx="43.5867759029438" cy="36.5742117671257" />
<circle id="led" class="led" r="2.925" cx="-7.44000003636099" cy="-56.5157402805532" />
<circle id="led" class="led" r="2.925" cx="-32.7559669009722" cy="46.7796070139801" />
<circle id="led" class="led" r="2.925" cx="55.8557251569775" cy="-12.3824661190005" />
<circle id="led" class="led" r="2.925" cx="-49.6366353860027" cy="-28.6582348995368" />
<circle id="led" class="led" r="2.925" cx="17.2659360820479" cy="54.7620301962102" />
<circle id="led" class="led" r="2.925" cx="24.3106730541761" cy="-52.1333499369929" />
<circle id="led" class="led" r="2.925" cx="-53.2399874199623" cy="22.0522388777707" />
<circle id="led" class="led" r="2.925" cx="54.2478700717051" cy="19.745090343764" />
<circle id="led" class="led" r="2.925" cx="-26.7036918742813" cy="-51.2982976353353" />
<circle id="led" class="led" r="2.925" cx="-14.9952131512042" cy="55.9611345716825" />
<circle id="led" class="led" r="2.925" cx="48.9489850487946" cy="-31.1833988316361" />
<circle id="led" class="led" r="2.925" cx="-57.257069538705" cy="-10.0964344122022" />
<circle id="led" class="led" r="2.925" cx="35.4555436020263" cy="46.207325478595" />
<circle id="led" class="led" r="2.925" cx="5.08554807529124" cy="-58.1227339409796" />
<circle id="led" class="led" r="2.925" cx="-43.0917485735279" cy="39.4856772118177" />
<circle id="led" class="led" r="2.925" cx="58.5484414803526" cy="0.000470878810010241" />
<circle id="led" class="led" r="2.925" cx="-43.2409960230779" cy="-39.6237146533759" />
<circle id="led" class="led" r="2.925" cx="5.12004643760348" cy="58.5278576788591" />
<circle id="led" class="led" r="2.925" cx="35.8275669909102" cy="-46.690608729292" />
<circle id="led" class="led" r="2.925" cx="-58.0580712727642" cy="10.2367162745987" />
<circle id="led" class="led" r="2.925" cx="49.8057900162095" cy="31.7303605535967" />
<circle id="led" class="led" r="2.925" cx="-15.3100173767548" cy="-57.1396392001513" />
<circle id="led" class="led" r="2.925" cx="-27.361668414933" cy="52.5602188118662" />
<circle id="led" class="led" r="2.925" cx="55.7766046727134" cy="-20.3005017470959" />
<circle id="led" class="led" r="2.925" cx="-54.9301991601615" cy="-22.7533672282806" />
<circle id="led" class="led" r="2.925" cx="25.1691028785977" cy="53.976488032166" />
<circle id="led" class="led" r="2.925" cx="17.9394033289697" cy="-56.8948618787369" />
<circle id="led" class="led" r="2.925" cx="-51.7502503047859" cy="29.8774428857626" />
<circle id="led" class="led" r="2.925" cx="58.4363453034465" cy="12.9555411919523" />
<circle id="led" class="led" r="2.925" cx="-34.3881361145562" cy="-49.1122295825261" />
<circle id="led" class="led" r="2.925" cx="-7.83909612058786" cy="59.5399535775112" />
<circle id="led" class="led" r="2.925" cx="46.0800505741401" cy="-38.6650868237056" />
<circle id="led" class="led" r="2.925" cx="-60.1942911119862" cy="-2.6286531770955" />
<circle id="led" class="led" r="2.925" cx="42.6737785640653" cy="42.6745078831042" />
<circle id="led" class="led" r="2.925" cx="-2.63622551593891" cy="-60.3913720247281" />
<circle id="led" class="led" r="2.925" cx="-38.9194237792427" cy="46.3815529353181" />
<circle id="led" class="led" r="2.925" cx="60.1267035556747" cy="-7.91530287026434" />
<circle id="led" class="led" r="2.925" cx="-49.7578754707081" cy="-34.8414814358045" />
<circle id="led" class="led" r="2.925" cx="13.1679760042574" cy="59.3993426558855" />
<circle id="led" class="led" r="2.925" cx="30.4700348024717" cy="-52.7745864894853" />
<circle id="led" class="led" r="2.925" cx="-58.2119251547112" cy="18.3535901060882" />
<circle id="led" class="led" r="2.925" cx="55.4061348639344" cy="25.836896474606" />
<circle id="led" class="led" r="2.925" cx="-23.4317545513388" cy="-56.5706671221563" />
<circle id="led" class="led" r="2.925" cx="-20.9761050996901" cy="57.6297927711592" />
<circle id="led" class="led" r="2.925" cx="54.4853382601549" cy="-28.3626588083083" />
<circle id="led" class="led" r="2.925" cx="-59.4258496393903" cy="-15.9236740307185" />
<circle id="led" class="led" r="2.925" cx="33.1073856523413" cy="51.969207375783" />
<circle id="led" class="led" r="2.925" cx="10.7173230932129" cy="-60.777783652546" />
<circle id="led" class="led" r="2.925" cx="-49.0389602089746" cy="37.6282192193919" />
<circle id="led" class="led" r="2.925" cx="61.6724093448569" cy="5.39619547462875" />
<circle id="led" class="led" r="2.925" cx="-41.8889454559483" cy="-45.7145901063171" />
<circle id="led" class="led" r="2.925" cx="-0.000561872694155485" cy="62.0999999974581" />
<circle id="led" class="led" r="2.925" cx="42.0192622482138" cy="-45.8551425700088" />
<circle id="led" class="led" r="2.925" cx="-62.0543837402074" cy="5.42848584994739" />
<circle id="led" class="led" r="2.925" cx="49.4944591536218" cy="37.9791523482352" />
<circle id="led" class="led" r="2.925" cx="-10.8493491628556" cy="-61.5330124627622" />
<circle id="led" class="led" r="2.925" cx="-33.6232609486577" cy="52.7768777323789" />
<circle id="led" class="led" r="2.925" cx="60.5370028478852" cy="-16.2202430991383" />
<circle id="led" class="led" r="2.925" cx="-55.6749616000276" cy="-28.98320463364" />
<circle id="led" class="led" r="2.925" cx="21.4995197457607" cy="59.0711490551999" />
<circle id="led" class="led" r="2.925" cx="24.0929856691768" cy="-58.1640829167351" />
<circle id="led" class="led" r="2.925" cx="-57.1439068036739" cy="26.6459924794149" />
<circle id="led" class="led" r="2.925" cx="60.2226301859262" cy="18.9887417563453" />
<circle id="led" class="led" r="2.925" cx="-31.6192584158786" cy="-54.7673488241844" />
<circle id="led" class="led" r="2.925" cx="-13.708477748516" cy="61.8321933770624" />
<circle id="led" class="led" r="2.925" cx="51.9570918779523" cy="-36.3800165418603" />
<circle id="led" class="led" r="2.925" cx="-62.9777251280564" cy="-8.29178133424746" />
<circle id="led" class="led" r="2.925" cx="40.8903790196413" cy="48.7321957604014" />
<circle id="led" class="led" r="2.925" cx="2.7795248232972" cy="-63.6476766406809" />
<circle id="led" class="led" r="2.925" cx="-45.1150349319263" cy="45.1141731952506" />
<circle id="led" class="led" r="2.925" cx="63.834107073679" cy="-2.78644470716573" />
<circle id="led" class="led" r="2.925" cx="-49.0172319018103" cy="-41.1311436345278" />
<circle id="led" class="led" r="2.925" cx="8.36362454646624" cy="63.5327654399346" />
<circle id="led" class="led" r="2.925" cx="36.8090355653887" cy="-52.567669729083" />
<circle id="led" class="led" r="2.925" cx="-62.7431442244637" cy="13.9091823206162" />
<circle id="led" class="led" r="2.925" cx="55.7361430285972" cy="32.1799993830913" />
<circle id="led" class="led" r="2.925" cx="-19.380286288799" cy="-61.4685041575293" />
<circle id="led" class="led" r="2.925" cx="-27.2778715174721" cy="58.4960915401729" />
<circle id="led" class="led" r="2.925" cx="59.7158698002233" cy="-24.7344374102744" />
<circle id="led" class="led" r="2.925" cx="-60.8239596587845" cy="-22.1387879394187" />
<circle id="led" class="led" r="2.925" cx="29.9298005993713" cy="57.4959958265084" />
<circle id="led" class="led" r="2.925" cx="16.8009167193944" cy="-62.6993955105468" />
<circle id="led" class="led" r="2.925" cx="-54.8233041145548" cy="34.9255325795189" />
<circle id="led" class="led" r="2.925" cx="64.1054261711632" cy="11.3041733626808" />
<circle id="led" class="led" r="2.925" cx="-39.6821037617073" cy="-51.7157919889572" />
<circle id="led" class="led" r="2.925" cx="-5.68992105413426" cy="65.0286075385112" />
<circle id="led" class="led" r="2.925" cx="48.1949121828216" cy="-44.1616116065766" />
<circle id="led" class="led" r="2.925" cx="-65.4591475621776" cy="-0.000658073146433874" />
<circle id="led" class="led" r="2.925" cx="48.3280829839434" cy="44.2854253123653" />
<circle id="led" class="led" r="2.925" cx="-5.72030524897307" cy="-65.3910017346314" />
<circle id="led" class="led" r="2.925" cx="-40.0152258756586" cy="52.1477631171273" />
<circle id="led" class="led" r="2.925" cx="64.8219399602664" cy="-11.4291775639204" />
<circle id="led" class="led" r="2.925" cx="-55.5893887930835" cy="-35.4151429986017" />
<circle id="led" class="led" r="2.925" cx="17.0820229939473" cy="63.7535841379468" />
<circle id="led" class="led" r="2.925" cx="30.5187173545571" cy="-58.6244436309007" />
<circle id="led" class="led" r="2.925" cx="-62.1914160182437" cy="22.6351004779245" />
<circle id="led" class="led" r="2.925" cx="61.2273933309067" cy="25.3619558769121" />
<circle id="led" class="led" r="2.925" cx="-28.0452033466027" cy="-60.144755126675" />
<circle id="led" class="led" r="2.925" cx="-19.9830660649503" cy="63.3758989730626" />
<circle id="led" class="led" r="2.925" cx="57.626706776931" cy="-33.2699964840037" />
<circle id="led" class="led" r="2.925" cx="-65.0510065955158" cy="-14.4221718513601" />
<circle id="led" class="led" r="2.925" cx="38.2683484379094" cy="54.6540804317002" />
<circle id="led" class="led" r="2.925" cx="8.72101315261107" cy="-66.237311461079" />
<circle id="led" class="led" r="2.925" cx="-51.2472789013325" cy="43.0006558695218" />
<circle id="led" class="led" r="2.925" cx="66.9230956092616" cy="2.92263136122793" />
<circle id="led" class="led" r="2.925" cx="-47.4291577798934" cy="-47.4301591004076" />
<circle id="led" class="led" r="2.925" cx="2.92895684124561" cy="67.1004374935225" />
<circle id="led" class="led" r="2.925" cx="43.2298653075959" cy="-51.5182370184299" />
<circle id="led" class="led" r="2.925" cx="-66.7652927154365" cy="8.78909486933003" />
<circle id="led" class="led" r="2.925" cx="55.234706666587" cy="38.6766360928157" />
<circle id="led" class="led" r="2.925" cx="-14.6128282522092" cy="-65.9175450883256" />
<circle id="led" class="led" r="2.925" cx="-33.8035862868732" cy="58.5480789962055" />
<circle id="led" class="led" r="2.925" cx="64.5610274906462" cy="-20.3552506580494" />
<circle id="led" class="led" r="2.925" cx="-61.4308148277397" cy="-28.6464655690708" />
<circle id="led" class="led" r="2.925" cx="25.971851252267" cy="62.7035122025084" />
<circle id="led" class="led" r="2.925" cx="23.2433954384034" cy="-63.8585512558342" />
<circle id="led" class="led" r="2.925" cx="-60.3566706549956" cy="31.4188606961551" />
<circle id="led" class="led" r="2.925" cx="65.8103058693761" cy="17.6345865100137" style="fill:red" /></g></svg>